<svg width="44" height="32" viewBox="0 0 44 32" fill="none" xmlns="http://www.w3.org/2000/svg">
<circle opacity="0.1" cx="15" cy="17" r="15" fill="#D12D2D"/>
<g clip-path="url(#clip0_173_6)">
<path d="M38.4815 18.6667H41.5442L36.6055 10.6667H39.6735L33.2602 1.06804C32.1935 -0.289295 29.8095 -0.363961 28.6362 1.14271L27.9949 2.23071L27.2602 1.06804C26.1935 -0.289295 23.8002 -0.349295 22.6455 1.12804L16.6789 10.6667H19.6615L14.4149 18.6667H17.5162L12.1855 28H24.0002V32H25.3335V28H30.6669V32H32.0002V28H43.8149L38.4815 18.6667ZM25.3335 26.6667V14.6667H24.0002V26.6667H14.4815L19.8149 17.3334H16.8855L22.1322 9.33337H19.0869L23.7349 1.89337C24.2949 1.18804 25.6989 1.24671 26.1735 1.83604L30.9082 9.33337H27.9082L32.8455 17.3334H29.8775L35.2109 26.6667H25.3335ZM36.7455 26.6667L32.1735 18.6667H35.2349L30.2975 10.6667H33.3255L28.7935 3.49604L29.7322 1.89337C30.2909 1.18804 31.6882 1.23204 32.1802 1.85071L37.1762 9.33337H34.2122L39.1509 17.3334H36.1815L41.5149 26.6667H36.7429H36.7455Z" fill="#D12D2D"/>
</g>
<defs>
<clipPath id="clip0_173_6">
<rect width="32" height="32" fill="white" transform="translate(12)"/>
</clipPath>
</defs>
</svg>
