<svg width="44" height="32" viewBox="0 0 44 32" fill="none" xmlns="http://www.w3.org/2000/svg">
<circle opacity="0.1" cx="15" cy="17" r="15" fill="#D12D2D"/>
<g clip-path="url(#clip0_173_7)">
<path d="M42.0999 5.18257C40.0026 3.9839 38.1386 3.32523 35.9719 3.02523C35.8666 2.1879 35.4559 1.41457 34.8106 0.8559C34.0386 0.189233 33.0106 -0.112101 31.9906 0.0385661C29.5012 0.401233 26.9879 1.13323 25.0639 2.0519C24.7119 1.78123 24.3092 1.57723 23.8732 1.45723C22.9226 1.19457 21.9039 1.35323 21.0759 1.8879C18.3786 3.6239 15.6239 6.37723 13.8879 9.0759C13.3546 9.90523 13.1972 10.9252 13.4572 11.8732C13.5772 12.3092 13.7799 12.7119 14.0532 13.0639C13.1332 14.9879 12.4012 17.5026 12.0372 19.9919C11.8892 21.0119 12.1866 22.0386 12.8546 22.8119C13.4132 23.4572 14.1879 23.8679 15.0239 23.9732C15.3239 26.1399 15.9826 28.0039 17.1812 30.1012C17.8692 31.3039 19.0812 31.9999 20.4039 31.9999C20.6612 31.9999 20.9239 31.9732 21.1866 31.9186C22.8532 31.5746 24.0559 30.2492 24.2479 28.5412C24.4746 26.3799 25.1412 24.6372 25.4492 23.9999H27.1452C27.1452 23.9999 27.9986 21.3319 29.0559 19.7626L31.7666 17.0519C32.4492 16.5559 34.4599 15.5732 35.9986 15.1452V13.4492C36.6359 13.1412 38.3799 12.4746 40.5399 12.2479C42.2466 12.0546 43.5719 10.8532 43.9172 9.18657C44.2506 7.5759 43.5359 6.00257 42.0986 5.18123L42.0999 5.18257ZM22.9239 28.3932C22.7706 29.7586 21.7479 30.4426 20.9186 30.6146C20.0959 30.7892 18.9852 30.5652 18.3399 29.4412C17.2719 27.5706 16.6666 25.9052 16.3772 24.0026H23.9892C23.6199 24.8906 23.1199 26.5252 22.9252 28.3946L22.9239 28.3932ZM26.1959 22.6679H15.4572C14.8359 22.6679 14.2706 22.4092 13.8639 21.9399C13.4492 21.4599 13.2639 20.8212 13.3572 20.1852C13.6812 17.9652 14.3106 15.7332 15.1012 13.9719C15.1559 14.0026 27.5759 19.6266 27.5759 19.6266C27.0852 20.5012 26.5359 21.7559 26.1959 22.6679ZM28.3999 18.5359L15.8412 12.8572C15.2946 12.5839 14.9039 12.1092 14.7426 11.5199C14.5826 10.9359 14.6799 10.3079 15.0079 9.79723C16.6466 7.24923 19.2479 4.64923 21.7959 3.00923C22.3066 2.6799 22.9372 2.58257 23.5186 2.7439C24.1079 2.90523 24.5826 3.2959 24.8452 3.81857L30.5359 16.4012L28.3999 18.5359ZM34.6666 14.1959C33.7546 14.5359 32.5012 15.0852 31.6266 15.5746C31.6266 15.5746 25.9999 3.1479 25.9732 3.0999C27.7346 2.30923 29.9652 1.6799 32.1839 1.3559C32.8186 1.2639 33.4586 1.4479 33.9386 1.86257C34.4092 2.26923 34.6666 2.83457 34.6666 3.4559V14.1946V14.1959ZM42.6119 8.91857C42.4412 9.7479 41.7559 10.7706 40.3906 10.9239C38.5212 11.1199 36.8866 11.6186 35.9986 11.9879V4.3759C37.9012 4.66657 39.5666 5.27057 41.4372 6.33857C42.5626 6.98123 42.7812 8.0919 42.6106 8.91723L42.6119 8.91857Z" fill="#D12D2D"/>
</g>
<defs>
<clipPath id="clip0_173_7">
<rect width="32" height="32" fill="white" transform="translate(12)"/>
</clipPath>
</defs>
</svg>
