<svg width="44" height="32" viewBox="0 0 44 32" fill="none" xmlns="http://www.w3.org/2000/svg">
<circle opacity="0.1" cx="15" cy="17" r="15" fill="#D12D2D"/>
<g clip-path="url(#clip0_173_8)">
<path d="M44 14.6667C44 12.4613 42.2053 10.6667 40 10.6667H38.6867C39.4693 9.96533 40 9.036 40 8C40 5.79467 38.2053 4 36 4H32.6147C31.584 1.99333 29.48 0 27.3333 0H26.6667V0.666667C26.6667 1.97467 26.4227 3.09467 25.944 4H20C17.7947 4 16 5.79467 16 8C16 9.024 16.3867 9.95867 17.0213 10.6667H16C13.7947 10.6667 12 12.4613 12 14.6667C12 16.624 13.4147 18.2493 15.2733 18.5933L16.98 29.196C17.24 30.8213 18.624 32 20.272 32H35.728C37.3747 32 38.7587 30.8213 39.0187 29.196L40.7267 18.592C42.5853 18.248 44 16.6227 44 14.6653V14.6667ZM37.7013 28.9853C37.5467 29.96 36.716 30.6667 35.728 30.6667H20.272C19.284 30.6667 18.4533 29.96 18.2973 28.984L16.636 18.6667H39.3667L37.704 28.9853H37.7013ZM40 17.3333H16C14.5293 17.3333 13.3333 16.1373 13.3333 14.6667C13.3333 13.196 14.5293 12 16 12H29.3333V10.6667H20C18.5293 10.6667 17.3333 9.47067 17.3333 8C17.3333 6.52933 18.5293 5.33333 20 5.33333H26.696L26.892 5.02133C27.5173 4.024 27.8787 2.816 27.9747 1.42C29.44 1.80133 30.9 3.392 31.5853 4.93733L31.7613 5.33333H36C37.4707 5.33333 38.6667 6.52933 38.6667 8C38.6667 9.436 36.8333 10.6667 35.3333 10.6667H34.6667V12H40C41.4707 12 42.6667 13.196 42.6667 14.6667C42.6667 16.1373 41.4707 17.3333 40 17.3333Z" fill="#D12D2D"/>
</g>
<defs>
<clipPath id="clip0_173_8">
<rect width="32" height="32" fill="white" transform="translate(12)"/>
</clipPath>
</defs>
</svg>
