<svg width="74" height="88" viewBox="0 0 74 88" fill="none" xmlns="http://www.w3.org/2000/svg">
<path d="M46.3853 31.2928C46.3853 31.2928 51.4191 33.6433 50.3166 44.8973C49.2141 56.1513 36.1664 77.4406 34.5127 79.5693C32.8589 81.698 26.3351 87.9835 17.7886 86.8677C9.24213 85.7519 4.84041 79.9648 4.84041 79.9648M7.41015 54.3563C5.35436 52.1018 -2.56626 42.1214 7.12831 31.5145C18.1554 19.4488 27.6572 34.4618 27.6572 34.4618M32.776 30.8285C32.7574 28.3682 33.263 23.482 37.1922 20.8846M37.1922 20.8846C37.3062 20.8091 37.4223 20.736 37.5425 20.6651C43.3327 17.2194 49.3053 20.1598 51.6015 22.085C53.8997 24.0125 55.2778 25.7799 56.1047 26.8226C56.9316 27.8652 60.5147 34.9601 61.8017 36.4806C63.0866 38.0011 71.4486 45.3019 72.8267 52.9044C74.2048 60.5092 70.715 64.4625 69.7036 66.5912C68.6923 68.7199 64.7424 73.3843 60.5147 75.6137C56.2871 77.8453 49.3965 77.8453 44.7108 75.6137C42.0312 74.3401 40.3713 72.7007 39.4408 71.53M37.1922 20.8846C32.8361 11.7935 35.9799 0.999268 35.9799 0.999268M35.4991 9.21226C35.4991 9.21226 40.2075 3.93965 48.3851 5.35955C56.5627 6.77945 59.6298 12.8615 59.6298 12.8615C59.6298 12.8615 56.4218 12.1527 50.6585 15.2943C44.8953 18.4359 39.5465 15.1937 38.4522 14.5855C37.3601 13.9773 35.7105 11.7388 36.2141 10.8814C36.7177 10.024 39.5651 8.19935 45.0776 8.80755C50.5901 9.41576 54.3577 11.748 54.3577 11.748M40.2987 9.71751C40.2987 9.71751 41.3101 11.5421 44.4331 12.4544C47.5562 13.3667 49.5788 13.1632 49.5788 13.1632M45.0776 8.80536C45.0776 8.80536 47.5583 6.77721 49.5809 6.98071M44.9844 29.8935C49.1975 33.2592 48.6608 38.8153 47.7406 42.4645C46.8205 46.1137 40.9412 58.7876 39.3786 62.0298C37.816 65.2743 30.6498 76.2219 28.8116 78.0488C26.9734 79.8734 18.6113 89.3027 7.95311 82.5097C-2.70511 75.7166 1.89142 63.7538 2.53385 61.6251C3.17629 59.4964 9.14887 51.9945 11.8139 49.0541C14.479 46.1137 25.3217 36.2796 28.538 33.7462C31.7543 31.2128 39.6563 25.6338 44.9844 29.8935ZM27.0666 51.1828C29.5473 53.3115 34.1417 57.9758 29.4561 66.1865C24.7704 74.3973 17.5109 70.5468 15.5815 69.2275C13.6521 67.9083 7.21949 61.2181 15.5815 52.8039C20.6236 47.7302 27.0666 51.1828 27.0666 51.1828Z" stroke="white" stroke-miterlimit="10"/>
</svg>
