<svg width="100" height="89" viewBox="0 0 100 89" fill="none" xmlns="http://www.w3.org/2000/svg">
<path d="M51.4165 8.21353C51.4165 8.21353 57.3853 0.581868 67.1846 1.01721C76.9839 1.45255 85.7438 7.47917 88.4601 17.4766C91.1016 27.197 88.6601 35.7456 83.8626 40.6135C79.2102 45.3296 69.5141 45.7694 69.5141 45.7694M66.2111 66.1864C66.2111 66.1864 69.9624 66.5031 72.2524 72.3032C75.1819 79.7238 68.3845 86.9993 68.3845 86.9993C68.6087 82.3205 62.3124 81.5883 57.3435 79.1038C52.3747 76.6192 53.8361 69.1591 55.8821 65.6873C57.9281 62.2156 62.2201 60.7821 64.7738 61.8484C66.9912 62.7741 65.187 66.7317 62.6794 64.7331C58.9478 61.7583 60.2686 55.2677 76.929 50.6725C93.5894 46.0772 99 64.1856 99 64.1856C99 64.1856 96.565 62.9192 90.9126 64.2824C85.2603 65.6478 86.5283 67.011 79.7068 67.3056C72.8853 67.598 65.0177 59.144 65.0177 59.144M65.0177 59.1462C65.0177 59.1462 86.7085 51.2683 89.9918 57.1388C93.2751 63.0093 73.9534 54.186 73.9534 54.186M59.194 67.8552C59.194 67.8552 66.0638 75.078 66.9407 76.5401C67.8175 78.0022 66.5011 80.4142 64.8221 79.3192C63.1409 78.2221 65.0199 69.3855 65.0199 69.3855M76.1576 59.2518C76.1576 59.2518 79.7266 60.0037 82.2605 62.4399M10.4105 15.08C15.1201 8.98747 25.871 3.52152 38.8789 4.98365C51.8868 6.44578 59.7807 11.7094 64.8947 20.922C70.0108 30.1345 69.279 48.5595 64.1628 55.7251C59.0489 62.8928 50.3792 72.4219 33.5518 71.7975C17.3617 71.1973 5.08341 60.6391 1.68804 45.4286C-1.32713 31.9198 5.69876 21.1748 10.4105 15.08ZM24.0667 31.258C22.8141 31.7439 22.458 34.622 24.0667 35.0596C25.6754 35.4993 27.8181 34.4747 27.4291 33.1577C27.0379 31.8429 25.5765 30.6732 24.0667 31.258ZM55.7788 23.9562C56.3568 22.8546 55.014 21.0077 53.691 21.8256C52.3659 22.6435 51.4846 24.6356 52.4692 25.1149C53.4559 25.5942 55.0822 25.2842 55.7788 23.9562ZM25.6754 42.2207C25.148 43.3464 26.572 45.1296 27.8577 44.2523C29.1433 43.375 29.9344 41.3456 28.9279 40.9125C27.9236 40.4793 26.3105 40.8641 25.6754 42.2207ZM78.7684 11.9667C78.2784 12.3537 79.7728 18.6221 78.1663 19.0817C76.5598 19.5412 76.3884 17.7383 77.162 17.5074C77.9355 17.2787 81.1331 22.4259 81.81 22.2192C82.4869 22.0147 81.5529 15.146 82.9286 15.3439C84.3065 15.5396 84.3637 17.2128 83.5022 17.3117C82.6429 17.4085 79.2585 11.5797 78.7684 11.9667ZM48.476 14.6821C50.1155 18.1582 39.7601 39.9846 37.0438 36.8515C34.3275 33.7206 52.3768 17.6701 55.9151 18.4506C59.4533 19.2312 66.6748 34.3494 63.308 37.2209C59.9412 40.0924 36.7384 41.8403 37.1449 39.3712C37.5515 36.9021 59.9412 37.1021 61.3059 40.741C62.6706 44.3798 62.3937 46.6423 60.3917 50.9737C58.3896 55.3051 56.0337 60.9975 51.2626 60.0015C46.4937 59.0055 34.1869 43.408 36.9647 41.6798C39.7426 39.9517 47.375 58.2624 44.8609 63.3919C42.7665 67.6684 25.5589 68.948 23.948 62.4619C22.0647 54.8764 32.4134 40.9059 34.1188 41.8227C35.8241 42.7396 25.8358 59.9839 18.2363 59.2518C10.6369 58.5174 7.05471 45.1691 8.94249 40.2924C10.8303 35.4157 32.3892 36.8867 32.8771 39.1931C33.365 41.4973 10.2743 35.8269 8.50735 33.1357C6.74044 30.4445 14.6542 14.0093 22.0009 15.1086C29.3477 16.208 37.1955 36.0973 35.0242 37.2363C32.8529 38.3752 23.1657 16.4059 27.8643 12.1162C32.5628 7.82656 46.2212 9.89553 48.476 14.6821Z" stroke="white" stroke-miterlimit="10"/>
</svg>
