<svg width="50" height="32" viewBox="0 0 50 32" fill="none" xmlns="http://www.w3.org/2000/svg">
<path d="M6.26387 0H17.4102C20.4621 0 22.6654 2.92106 21.827 5.85549C21.6125 6.6061 21.2103 7.28967 20.6583 7.84167L14.3479 14.1521C12.4701 16.0299 12.3879 19.048 14.1606 21.0253L19.9775 27.5133C21.5308 29.2459 20.3011 32 17.9741 32C17.3447 32 16.7352 31.7793 16.2517 31.3764L6.29978 23.0831C5.45674 22.3806 4.86824 21.4202 4.62503 20.3501L1.38821 6.10811C0.677113 2.97929 3.05527 0 6.26387 0Z" fill="#D12D2D"/>
<path d="M32.2639 0H43.4102C46.4621 0 48.6654 2.92106 47.827 5.85549C47.6125 6.6061 47.2103 7.28967 46.6583 7.84167L40.3479 14.1521C38.4701 16.0299 38.3879 19.048 40.1606 21.0253L45.9775 27.5133C47.5308 29.2459 46.3011 32 43.9741 32C43.3447 32 42.7352 31.7793 42.2517 31.3764L32.2998 23.0831C31.4567 22.3806 30.8682 21.4202 30.625 20.3501L27.3882 6.10811C26.6771 2.97929 29.0553 0 32.2639 0Z" fill="#D12D2D"/>
</svg>
