<svg width="46" height="52" viewBox="0 0 46 52" fill="none" xmlns="http://www.w3.org/2000/svg">
<path d="M13.011 39.412C13.2289 39.0968 14.7528 37.8374 16.4945 36.578C18.2363 35.3186 19.5422 34.2168 19.3242 34.2168C18.8882 34.0592 12.357 39.2544 12.357 39.7272C12.357 40.2 12.575 39.8833 13.011 39.412Z" fill="white"/>
<path d="M35.5954 19.4313C35.3756 19.4313 35.1558 19.5872 34.936 19.5872C34.7163 19.5872 34.7162 19.5872 34.7162 19.7431C34.7162 20.0548 34.936 20.0548 35.1558 19.899C35.1558 19.7431 35.3756 19.7431 35.5954 19.7431C35.8151 19.899 36.0349 19.7431 36.0349 19.5872C36.0329 19.4313 35.8151 19.2754 35.5954 19.4313Z" fill="white"/>
<path d="M16.0578 27.3712C15.6182 27.3712 15.3984 27.5271 14.5214 28.461C13.6443 29.0845 12.7652 30.0184 10.3497 31.8861C9.91015 32.3537 9.47264 32.8199 9.47264 32.9758C9.25287 33.1317 9.91219 32.9758 10.132 32.8199C10.3517 32.6641 11.2288 31.7302 12.1079 30.9522C16.2775 27.5271 16.4973 27.3712 16.0578 27.3712Z" fill="white"/>
<path d="M35.3756 17.5621C35.5954 17.5621 35.8151 17.4063 35.8151 17.2504C35.8151 16.9386 35.1558 16.9386 35.1558 17.2504C35.1558 17.4063 35.1558 17.5621 35.3756 17.5621Z" fill="white"/>
<path d="M35.5953 16.7842C35.8151 16.9401 36.2547 16.7842 36.2547 16.4724C36.2547 16.4724 36.0348 16.4724 35.8151 16.4724C35.3755 16.4724 35.3756 16.6283 35.5953 16.7842Z" fill="white"/>
<path d="M44.8136 2.14846C45.4729 2.14846 45.9104 1.52492 45.4729 1.37049C45.4729 1.37049 45.0334 1.05872 44.5959 0.592521C44.1563 0.124866 43.4991 -0.185451 43.4991 0.124862C43.4991 0.280748 43.0595 0.436635 42.622 0.436635C36.2567 1.99403 32.7444 3.23965 31.6455 3.86174C31.4257 4.17351 31.2059 4.48527 31.2059 4.79559C31.2059 5.1059 30.9862 5.41767 30.9862 5.72944C30.7664 5.88533 30.5466 6.35153 30.5466 6.97507C30.5466 7.44272 30.3268 8.06481 30.107 8.53246C29.8872 9.31043 29.8872 9.46632 29.4477 9.31043C26.8145 8.84278 18.0337 9.31043 13.862 10.2443C13.4225 10.2443 12.3257 10.4002 11.4466 10.5561C7.93425 11.0237 6.8374 11.334 4.86146 11.9576C2.88552 12.5811 1.12931 13.6708 0.909534 14.137C0.909534 14.2929 0.90957 14.4488 0.689793 14.7591C-0.189316 16.0047 -0.18938 17.718 0.469951 20.3637C0.689729 20.9858 1.12929 22.2314 1.34701 23.0108C1.56679 23.9447 1.78659 24.7241 1.78659 25.0344C2.00637 25.5021 2.22614 26.28 2.44592 27.3698C2.66569 28.3036 3.54274 30.3287 4.64162 32.5082C4.8614 32.6641 5.0812 33.2861 5.0812 33.442C5.0812 33.7538 5.52075 34.3759 5.74053 34.6876C5.96031 35.1553 6.39985 35.6215 6.39985 35.6215C6.39985 35.7774 6.39992 36.0891 6.61969 36.3995C6.83947 36.7112 7.05924 37.1774 7.27902 37.6451C7.49879 38.1127 7.71853 38.8907 8.15808 39.5128C9.25491 41.6923 9.91427 43.5614 10.134 45.585C10.3538 47.1424 10.5736 47.7645 11.0111 48.388C12.5475 50.7234 14.3037 51.5028 18.2555 51.8131C19.3524 51.969 21.1085 51.969 21.9876 51.969C23.524 52.1249 25.9395 51.6573 25.9395 51.347C25.9395 51.347 26.1593 51.1911 26.379 51.0352C27.0384 50.8793 27.9155 50.2572 28.7946 49.4778C29.4539 48.8542 30.1112 47.4542 30.5507 46.0527C30.7705 45.4291 30.9903 44.0291 31.21 43.0938C31.4298 42.004 31.8694 40.4466 31.8694 39.6687C32.0891 38.7348 32.5287 37.3333 32.7464 36.2436C32.9662 35.3097 33.4058 33.4406 33.6235 32.1949C34.2828 29.5478 34.5026 28.3022 35.3797 26.4345C36.039 24.8771 36.4765 23.4756 36.6962 21.9196C36.916 21.2976 37.1358 19.896 37.3556 18.9607C38.0149 16.7813 38.015 14.6018 37.5754 13.5106C37.5754 12.887 37.1358 12.5767 36.4785 12.1091C35.6014 11.487 33.6256 10.8635 32.9663 10.8635C32.5267 10.8635 32.5267 10.7076 32.9663 9.30606C33.186 8.52809 33.4057 7.59278 33.4057 6.97069C33.6255 6.03684 33.6255 5.88096 34.2828 5.41331C35.5953 4.48382 43.2772 1.99257 44.8136 2.14846ZM2.00844 14.4488C2.22822 14.2929 2.22818 14.137 2.22818 14.137C2.0084 13.9811 2.88751 13.2032 3.76456 12.8914C4.20412 12.8914 4.64165 12.5796 5.0812 12.4238C6.17804 11.9561 9.25287 11.334 12.3256 11.0223C12.985 10.8664 13.862 10.7105 14.7411 10.5546C18.9127 9.77663 26.1572 9.46486 28.5706 9.93251C29.8872 10.0884 29.8872 9.93251 29.23 12.5796C29.0102 13.2017 28.7904 14.4474 28.5706 15.2268C28.1311 17.2504 27.9113 17.5621 26.8145 17.8739C26.375 17.8739 24.1793 18.0298 20.8867 18.0298C15.6182 18.0298 15.1786 18.0298 10.7893 17.2518C9.69242 17.0959 8.37377 16.7842 7.71649 16.7842C6.61966 16.4724 3.98441 15.6944 2.44802 14.9165C1.56891 14.6032 1.56889 14.6032 2.00844 14.4488ZM21.546 36.87C21.7658 36.87 21.9856 36.7141 22.2054 36.5583C22.4251 36.2465 23.3022 35.6244 23.9615 35.0009C24.8385 34.3773 25.7177 33.5994 25.9374 33.2876C26.377 32.9758 27.2541 32.1978 27.9134 31.5743C28.5727 30.9522 29.4498 30.0169 29.6695 29.861L30.1091 29.239V29.861C30.1091 30.1728 30.1091 30.3287 30.1091 30.3287C29.8893 30.3287 29.6696 30.4846 29.4498 30.7963C29.23 30.9522 29.0103 31.4184 28.7905 31.4184C28.5707 31.5743 28.5706 31.7302 28.5706 31.7302C28.5706 31.8861 28.1311 32.042 27.9113 32.3537C27.6915 32.6655 27.0343 33.1317 26.5948 33.5994C26.375 33.9111 25.7176 34.3773 25.4979 34.6891C25.0583 35.0009 24.6208 35.4671 24.4011 35.623C23.9615 35.9347 23.3042 36.5568 22.8647 36.8686C22.4251 37.3362 22.2054 37.6465 22.2054 37.8024C22.4251 37.4907 23.0845 37.0245 23.7417 36.5568C24.1813 36.245 25.0583 35.3112 25.9374 34.6876C26.5968 34.0641 27.254 33.442 27.6936 33.1303C28.1331 32.8185 28.7904 32.1964 29.0102 31.7287C29.6695 31.2611 29.8872 31.1052 30.107 31.2611C30.107 31.417 30.107 31.417 29.8873 31.417C29.4477 31.5729 29.4477 31.8846 29.8873 32.3508C29.8873 32.5067 29.8873 32.6626 29.8873 32.6626C29.6675 32.6626 29.4477 32.5067 29.4477 32.3508C29.4477 32.1949 29.228 32.0391 29.0082 32.0391C29.0082 32.0391 29.0082 32.1949 29.0082 32.3508C29.0082 32.5067 29.0082 32.6626 29.0082 32.6626C28.7884 32.6626 28.5686 32.6626 28.5686 32.9744C28.1291 33.7523 23.9594 37.4892 20.6669 39.8246L16.715 42.6276C15.838 43.5614 14.9589 44.185 14.7391 44.3409C14.5193 44.4967 14.2995 44.6526 14.0798 44.9644C13.6402 45.2762 13.6402 45.2762 13.6402 45.1203C13.6402 45.1203 13.6402 44.8085 13.86 44.8085C14.0798 44.4967 14.0798 44.4967 13.86 44.6526C12.983 44.9644 13.6402 44.185 15.1766 42.9394C18.6889 40.1363 21.1044 38.4245 21.5419 38.2686C21.7617 38.2686 21.9815 38.1127 22.2012 37.801C22.2012 37.801 21.9814 37.9569 21.7617 37.9569C21.5419 37.9569 20.8846 38.1127 20.445 38.4245C19.7857 39.0466 18.689 39.6701 14.7371 42.7835C14.2975 43.0952 13.86 43.5614 13.6402 43.8732C13.2006 44.3409 13.2006 44.3409 12.9809 44.185C12.7611 43.5614 14.0777 42.1614 19.566 38.2686C20.443 37.6465 20.8826 37.1789 20.8826 37.023C20.8826 36.8671 18.4671 38.4245 17.59 39.3584C17.1504 39.6701 16.2734 40.2922 15.3943 41.0716C14.5152 41.6937 13.6381 42.4732 13.1986 42.7849L12.759 43.2526L12.5393 42.6305C12.3195 42.1628 12.5393 42.007 12.9788 41.3849C13.8559 40.7628 20.443 35.9347 20.8826 35.9347C20.8826 35.9347 21.1023 35.9347 21.1023 36.0906C21.1023 36.0906 21.3221 35.9347 21.5419 35.7788C21.7617 35.4671 21.9815 35.1553 22.2012 35.1553C22.421 34.9994 22.6408 34.6876 23.0803 34.3773C23.5199 34.0656 23.9574 33.5994 24.397 33.2876C24.6167 32.9758 25.4937 32.3537 26.1531 31.7302C26.8124 30.9522 27.9092 30.1728 28.3488 29.7066C29.4456 28.6169 30.3248 27.8374 30.105 27.683C29.8852 27.683 29.4457 27.9948 29.0082 28.461C28.1312 29.3948 26.5926 30.9522 24.399 32.9758C23.3021 33.7538 22.4231 34.6891 21.9835 34.9994C21.544 35.3112 21.3242 35.6215 20.8867 35.6215C20.4472 35.6215 14.9589 39.3584 13.2027 40.9158L12.3256 41.6937L11.8861 40.9158C11.2267 39.6701 11.4465 39.5143 13.4224 37.6465C15.6182 35.7774 17.5941 34.3773 18.0316 34.3773C18.0316 34.3773 18.2514 34.2214 18.2514 34.0656C18.2514 33.7538 17.1546 34.2214 15.3984 35.623C12.9829 37.6465 11.6664 38.5819 11.4466 38.8922C11.2268 39.2039 11.2268 39.0481 11.007 38.5804C10.7872 38.2686 10.7872 37.9569 11.2267 37.4907C11.4465 37.1789 11.6663 36.8686 11.8861 36.8686C11.8861 36.8686 12.5454 36.2465 13.2027 35.623C13.862 34.845 14.9588 34.0656 15.6181 33.5994C16.2775 32.9758 16.4953 32.8214 16.2776 32.8214C15.838 32.8214 14.5213 33.7552 13.2047 35.0009C11.6683 36.5583 10.5695 37.648 10.3518 37.3362C10.3518 37.3362 10.132 36.7127 9.9122 36.0906L9.69246 35.0009L10.7893 34.067C12.1059 32.8214 12.985 31.8875 12.7652 31.5758C12.7652 31.4199 14.3016 29.8625 14.5213 29.7081C14.7411 29.7081 15.1807 29.2404 15.838 28.7742C16.9348 27.8404 17.3743 27.5286 16.9348 27.5286C16.715 27.5286 16.715 27.5286 14.7391 29.2419C14.0797 29.864 12.7632 30.7993 12.1059 31.4213C11.4466 32.0449 11.009 32.5111 11.009 32.667C11.2288 32.667 11.4485 32.667 11.6683 32.3552L12.1079 32.0434L11.6683 32.5111C11.4485 32.8229 11.009 33.2891 10.5715 33.7567C9.91219 34.3802 9.6945 34.3802 9.47472 34.2244C9.03517 33.1346 8.81536 32.667 9.03514 32.667L9.69446 32.1993C9.91424 31.8875 10.5715 31.2655 11.2308 30.7978C12.7672 29.5522 13.2068 29.0845 13.6464 28.6183C13.8662 28.3066 14.3057 28.1507 14.3057 27.9948C14.7453 27.8389 14.5254 27.3712 14.0859 27.5271C14.0859 27.5271 13.6463 27.8389 13.4265 28.1507C13.2068 28.4624 12.11 29.3963 11.2308 30.3301C10.134 31.1081 9.25488 31.8875 9.25488 32.0434C8.81533 32.5111 8.81532 32.3552 8.37782 30.9537L7.93834 29.7081L9.03514 28.7742C10.5715 27.0609 11.0111 26.7506 11.2308 26.905C11.4506 26.905 11.4506 27.2168 10.7913 27.683C9.0351 29.2404 8.15812 30.486 8.8154 30.486C8.8154 30.486 9.03514 30.3301 9.03514 30.1743C9.03514 30.0184 10.3517 28.6169 11.6683 27.683C12.3277 27.0609 13.2047 26.7492 13.2047 27.0609C13.2047 27.2168 12.5454 27.8389 11.6683 28.6183C9.69238 30.3316 8.8154 31.4213 8.8154 31.5772C8.8154 32.0449 9.03517 31.889 9.47472 31.2655C9.6945 30.9537 10.3518 30.3316 11.0111 29.7081C11.6704 29.2404 12.5475 28.4624 12.9871 27.9948L13.8641 27.2168H18.4733L17.5962 27.9948C17.1567 28.3066 16.2796 29.2404 15.4005 29.7081C13.8641 30.9537 13.4245 31.4213 13.4245 31.7317C13.6443 32.0434 12.9849 32.6655 11.6683 33.6008C10.7913 34.5347 10.1319 35.3141 10.1319 35.3141C10.1319 35.47 10.5715 35.1582 11.009 34.8464C11.8861 34.2244 14.5213 31.7331 14.5213 31.5772C14.5213 31.5772 14.3015 31.5772 14.0818 31.5772C13.4224 31.7331 13.862 31.4213 15.6181 30.1757C16.9348 29.086 18.691 27.6845 18.9107 27.2168C18.9107 27.2168 19.1305 27.0609 19.5701 27.2168C20.2294 27.2168 20.2294 27.0609 16.2776 30.3316C15.1807 31.2655 14.3016 32.1993 14.5213 32.3552C14.7411 32.3552 13.2047 33.7567 11.4486 35.4685C10.7892 35.9362 10.3517 36.4024 10.5715 36.4024C10.7913 36.5583 11.8881 35.6244 13.2068 34.3788C13.8661 33.6008 14.5234 32.9773 14.9629 32.8214C15.4025 32.5096 15.4026 32.3537 15.1828 32.0434C15.1828 31.8875 15.1828 31.7317 16.0598 30.9537C16.7192 30.486 18.0357 29.3963 18.9128 28.6183C20.4491 27.5286 20.8887 27.2168 21.3283 27.2168C21.5481 27.2168 21.9876 27.2168 21.9876 27.2168C21.9876 27.3727 19.3544 29.7081 17.5982 31.1096C16.0618 32.1993 15.6223 32.667 16.0618 32.5111C16.2816 32.5111 16.939 31.889 17.8181 31.2655C20.2336 29.5522 20.2335 29.3963 21.5501 28.3066C22.2095 27.683 22.6469 27.2168 22.6469 27.2168C22.6469 27.0609 22.8667 27.0609 22.8667 27.2168C23.0865 27.3727 22.2074 28.3066 18.0378 31.8875C17.5982 32.5096 16.941 33.1332 16.941 33.289C16.941 33.4449 16.5015 34.067 15.4046 34.8464C12.9891 36.5597 11.4527 37.9612 11.4527 38.1157C11.2329 38.4274 11.6725 38.4274 12.112 37.9598C12.7713 37.0259 17.6003 33.6008 17.8201 33.6008C18.0398 33.6008 18.2596 33.6008 18.2596 33.4449C18.2596 33.4449 18.9189 32.5111 20.0158 31.7317C22.4313 29.8625 25.5041 27.2168 25.5041 26.905C25.7239 26.7492 26.3811 26.7492 26.3811 27.0609C26.3811 27.2168 24.625 28.7742 24.1854 29.0845C23.9657 29.2404 23.3083 29.7081 22.649 30.3301C22.2094 30.7978 21.1126 31.5758 20.6731 32.0434C18.6971 33.4449 18.4773 33.7567 18.6971 33.9126C18.9169 33.9126 19.1367 33.7567 19.5742 33.4449C20.4512 32.667 23.7459 30.0198 24.6229 29.2404C24.8427 28.9286 25.7197 28.3066 26.1593 27.8389C26.8186 27.0609 27.9155 26.5933 28.1353 26.7492C28.355 26.7492 24.8426 30.1743 23.7437 30.9537C23.524 31.2655 23.0844 31.5758 22.8667 31.8875C22.6469 32.0434 21.9876 32.5096 21.5501 33.1332C21.1106 33.6008 20.673 34.067 20.4532 34.067C20.4532 34.2229 20.0138 34.6906 15.4046 38.1157C12.9891 39.8289 11.8923 40.9187 12.5516 40.9187C12.7714 40.9187 12.9912 40.6069 12.9912 40.451C13.4307 39.9834 20.0158 34.8464 20.8949 34.5347L21.5543 34.2229C21.5543 34.067 21.3345 34.067 21.1147 34.067C20.8949 34.2229 21.1147 33.7552 21.774 33.289C22.2136 32.8214 22.8708 32.3552 22.8708 32.3552C22.8708 32.1993 23.0906 31.8875 23.7479 31.4213C25.0645 30.4875 26.6008 29.086 28.357 27.3727C28.7966 26.905 29.8934 26.4388 29.6736 26.5947C29.6736 26.7506 29.0143 27.3727 28.1373 28.1521C27.2602 29.086 26.3811 29.8654 26.1613 30.0198C25.9415 30.3316 25.0645 31.1096 24.1854 31.7331C23.5261 32.3567 22.649 33.2905 22.2095 33.6023C21.5501 34.3802 21.5501 34.3802 21.5501 34.2244L21.1106 34.692C20.8908 34.8479 20.8908 35.1597 20.8908 35.1597C21.1106 35.1597 21.3303 35.0038 21.3303 35.0038C21.3303 34.8479 23.0865 33.1346 24.8427 31.7346C25.2822 31.2669 25.7197 30.9566 25.9395 30.8007C25.9395 30.6448 26.5989 30.1772 27.0364 29.711C27.4759 29.2433 27.9134 28.933 28.1332 28.7771C28.1332 28.6212 28.5727 28.3095 29.23 27.9992C29.6695 27.5315 30.1071 27.0653 30.3269 26.7535C30.7664 26.2859 30.7664 26.2859 30.5466 27.3756C30.5466 28.1536 30.3268 28.6212 30.107 28.7771C29.8872 28.933 29.4477 29.4007 29.0102 29.8669C28.3509 30.6448 25.7177 33.1361 25.2781 33.6037C25.0583 33.7596 24.6188 34.0714 24.4011 34.3817C23.9615 34.5376 23.524 35.0052 23.524 35.0052C22.6428 35.6244 21.3263 36.87 21.546 36.87ZM29.2279 33.4435V32.9758C29.2279 32.8199 29.8873 33.4435 29.8873 33.5994C29.8873 33.9111 29.4477 33.9111 29.2279 33.4435ZM29.6675 34.845C29.6675 35.1568 29.4477 35.3126 29.4477 35.3126C29.2279 35.3126 29.2279 35.1568 29.2279 35.0009C29.2279 34.845 29.2279 34.6891 29.4477 34.6891C29.4477 34.6891 29.6675 34.6891 29.6675 34.845ZM27.0342 43.2526C26.8145 42.7849 27.2541 42.3187 27.4738 42.7849C27.6936 42.9408 27.6936 43.2526 27.4738 43.4085C27.4718 43.7202 27.4718 43.7202 27.0342 43.2526ZM27.4718 44.3438C27.4718 44.4997 27.252 44.8114 27.252 44.8114C27.0322 44.8114 27.0322 44.6555 27.0322 44.4997C27.0322 44.1879 27.0322 44.032 27.252 44.032C27.254 44.032 27.4718 44.032 27.4718 44.3438ZM23.3022 46.3674C23.0824 46.2115 22.8626 46.3674 23.0824 46.5233C23.0824 46.6791 23.0824 46.9909 22.8626 47.1453C22.2032 47.613 22.2033 47.613 21.9835 47.1453C21.9835 46.6777 22.4231 46.0556 23.5199 45.4321C23.9594 45.1203 23.9594 45.1203 24.1792 45.4321C24.399 45.5879 24.6187 45.7438 24.399 45.7438C24.399 45.8997 24.1792 45.7438 24.1792 45.7438C23.9594 45.2762 23.7396 45.5879 23.7396 45.8997C23.9594 46.3674 23.9594 46.3674 23.3022 46.3674ZM23.5219 48.0807C23.0823 48.3924 22.6449 48.3924 22.6449 48.0807C22.6449 47.9248 23.0845 47.3027 23.3043 47.3027C23.7418 47.3012 23.7417 47.7689 23.5219 48.0807ZM21.546 47.1453C21.7658 47.1453 21.7658 47.3012 21.7658 47.613C21.7658 48.0806 21.7658 48.391 21.546 48.391C21.546 48.391 21.3263 48.0792 21.546 47.9233C21.546 47.2998 21.1065 47.4557 20.669 48.0792C20.2294 48.391 19.7919 48.5468 19.7919 48.5468H19.5721C19.7919 48.391 20.0117 48.2351 20.0117 48.0792C20.0117 47.9233 21.3283 46.5218 21.7679 46.3659C21.9877 46.21 21.9876 45.7424 21.548 45.8983C21.1085 46.0541 19.3523 48.0777 19.3523 48.3895C19.3523 48.5454 19.1326 48.7013 18.693 48.7013C18.4732 48.7013 18.2535 48.5454 18.4733 48.3895C18.9128 48.2336 18.9128 47.9218 18.4733 48.0777C18.2535 48.2336 18.693 47.766 19.7898 46.6762C20.4491 46.2086 21.1065 45.5865 21.546 45.5865C21.7658 45.4306 22.4231 44.9644 23.0824 44.6526C23.7418 44.0291 24.1792 43.8747 24.1792 44.0291C24.399 44.185 24.399 44.3409 23.7396 44.8071C22.8626 45.4291 21.3242 46.9865 21.3242 47.1424C21.3262 47.1453 21.3263 47.1453 21.546 47.1453ZM21.1065 48.391C21.1065 48.391 21.1065 48.391 21.1065 48.5468L20.8867 48.7027V48.5468C20.8867 48.391 20.8867 48.391 21.1065 48.391ZM17.1545 46.2115C16.0577 47.1453 15.1787 47.7689 15.1787 47.7689C15.1787 47.1468 20.8867 42.3187 21.9835 42.1643C22.4231 42.0084 22.4231 41.8525 21.9835 41.8525C21.7637 41.8525 21.1064 42.0084 20.6669 42.3202C18.9107 43.5658 15.6182 46.3688 15.1787 46.9909C14.5193 47.7689 14.3015 47.7689 14.0818 47.1468C14.0818 46.835 14.9589 45.9012 16.2776 44.8114L19.3503 42.632C20.4472 41.6981 21.3262 41.0746 21.3262 41.2304C21.546 41.2304 22.2033 40.6069 22.6428 40.1407C22.8626 39.9848 23.5199 39.5186 24.1792 38.8951C24.8385 38.2715 25.7156 37.6495 26.1552 37.3377L26.5948 36.87L26.8145 37.3377C27.0343 37.6495 27.0343 37.8053 26.5948 37.9598C26.375 37.9598 26.3749 38.1157 26.3749 38.2715C26.3749 38.2715 25.9354 38.7392 25.2781 39.2054C24.8386 39.673 24.4011 40.1393 24.1813 40.2951C23.9615 40.451 23.522 40.7628 23.3043 41.0731C22.6449 41.6952 21.9876 42.4746 22.2074 42.4746C22.2074 42.4746 22.647 42.1628 23.0865 41.8525C23.3063 41.3849 23.9636 41.0746 24.1833 40.9187C24.1833 40.7628 24.6229 40.2966 24.8427 40.1407C25.2822 39.8289 25.502 39.673 25.7197 39.673C26.1593 39.673 25.9395 40.2966 25.7197 40.2966C25.4999 40.2966 25.2801 40.4525 25.2801 40.6084C25.2801 40.6084 24.8406 41.2319 24.1833 41.6981C23.524 42.1658 22.8668 42.7878 22.4272 43.0996C22.2074 43.4114 21.7679 43.7231 21.5501 43.7231C21.5501 43.7231 20.0138 44.8129 18.4774 46.0585C16.2817 47.9277 15.4046 48.5498 15.4046 48.238C15.4046 48.0821 20.8929 43.7231 21.5501 43.4114C21.9897 43.0996 21.9896 43.0996 21.9896 42.9437C21.546 42.7864 20.4471 43.7202 17.1545 46.2115ZM27.2541 37.0245C26.8145 36.5568 27.0343 36.2465 27.4738 36.7127C27.6936 36.8686 27.6936 37.0245 27.6936 37.1804C27.4717 37.1804 27.2541 37.1803 27.2541 37.0245ZM27.6916 38.1157V38.5833C27.4718 38.7392 27.4718 38.7392 27.252 38.5833C26.8124 38.4274 27.0323 37.9598 27.4718 37.9598C27.4718 37.9598 27.6916 37.9598 27.6916 38.1157ZM27.6916 35.9347C27.9113 35.9347 28.3509 36.4024 28.3509 36.5583C28.5707 36.7141 28.1311 36.7141 27.9113 36.4024C27.4718 36.2465 27.4718 35.9347 27.6916 35.9347ZM27.9113 35.1568C27.6915 35.1568 27.6916 35.1568 27.6916 35.3126C27.6916 35.4685 25.0583 37.9598 23.5199 39.0495C23.0803 39.5172 22.4231 39.9834 22.4231 40.1393C22.4231 40.1393 21.9835 40.451 21.7638 40.451C21.1044 40.7628 20.2273 41.3849 17.3723 43.7202C14.2995 46.0556 14.0798 46.3674 13.86 46.2115C13.6402 45.8997 14.0798 45.2776 14.9568 44.6541C16.4932 43.4085 18.6889 41.6952 20.445 40.4496C21.3221 39.826 22.4211 39.0481 22.6408 38.7363C23.0804 38.4245 23.9574 37.6465 24.6167 37.1789C25.4938 36.5568 26.3728 35.7774 26.8124 35.3112C27.6895 34.5332 28.129 34.3773 28.129 34.8435C28.3509 35.0009 28.1311 35.1568 27.9113 35.1568ZM26.5948 42.3187C26.375 42.4746 26.1552 42.4746 26.1552 42.3187C25.9354 42.1628 26.375 41.8511 26.8145 42.007C26.8145 42.1628 26.8145 42.3187 26.5948 42.3187ZM26.8145 43.4085C26.8145 43.7202 26.5947 43.8761 26.3749 43.8761C26.1551 44.032 25.9354 43.5644 26.1552 43.4085C26.375 43.0982 26.8145 43.0982 26.8145 43.4085ZM26.3749 41.0731C26.1551 40.9172 26.1552 40.7613 26.1552 40.6055C26.375 40.2937 26.375 40.2937 26.5948 40.6055C26.8145 40.7613 26.8145 40.9172 26.8145 41.0731C26.5947 41.229 26.5947 41.229 26.3749 41.0731ZM26.3749 39.8275L26.1552 39.5157C25.9354 39.2039 26.375 38.5819 26.5948 38.5819C26.5948 38.5819 26.8145 38.5819 26.8145 38.7377C27.0343 39.0495 27.0343 39.2054 26.8145 39.5157L26.3749 39.8275ZM25.2781 44.4982C24.8386 44.3423 24.8386 44.1864 25.2781 44.0305C25.4979 43.8747 25.7177 43.8747 25.9374 44.0305C25.9374 44.0305 25.9374 44.1864 25.9374 44.3423C25.7156 44.6541 25.7156 44.6541 25.2781 44.4982ZM25.9353 45.5894C25.9353 45.7453 25.9353 45.9012 25.9353 45.9012C25.7156 46.0571 25.4959 46.0571 25.4959 45.9012C25.2761 45.5894 25.276 45.4335 25.7156 45.4335C25.7156 45.4335 25.9353 45.4335 25.9353 45.5894ZM24.6188 43.7202C24.399 43.4085 24.6188 43.0967 25.0584 43.2526V43.7202C24.8386 44.032 24.8386 44.032 24.6188 43.7202ZM25.2781 43.0982C25.0583 42.9423 25.7177 42.4746 25.9374 42.6305C25.9374 42.6305 25.9374 42.7864 25.9374 42.9423C25.9354 43.2526 25.4958 43.2526 25.2781 43.0982ZM25.4959 41.6966C25.2761 41.3849 25.2761 41.3849 25.4959 41.229C25.7156 41.0731 25.9353 41.0731 25.9353 41.3849C26.1551 41.8525 25.9354 42.007 25.4959 41.6966ZM16.9348 47.7689C17.8118 46.9909 18.9108 46.2115 20.2274 45.2776C20.8867 44.81 21.7637 44.032 22.6428 43.4085C23.3022 42.7849 24.1792 42.1628 24.399 42.007L24.8385 41.6952L25.2781 42.007C25.4979 42.3187 25.0584 42.6305 24.6188 42.4746C24.1792 42.1628 23.9594 42.4746 24.1792 42.7864C24.399 42.9423 24.399 43.0982 23.7396 43.5644C23.3001 43.8761 22.6429 44.4982 22.4231 44.81C21.9835 45.1217 21.7638 45.2776 21.7638 45.2776C21.7638 45.1217 21.5439 45.1217 21.5439 45.1217C21.1044 45.1217 20.2273 45.7453 18.9086 46.9909C18.2493 47.6144 17.5921 48.2365 17.5921 48.3924C17.3723 48.5483 17.1526 48.5483 16.9328 48.5483L16.2735 48.3924L16.9348 47.7689ZM23.9595 46.6791C24.1793 46.3674 24.1792 46.3674 24.399 46.6791C24.6187 46.835 24.6188 46.9909 24.6188 47.1468C24.6188 47.3027 24.399 47.4586 24.1792 47.4586C23.9594 47.4571 23.7418 46.9895 23.9595 46.6791ZM24.8385 47.4571C24.8385 47.4571 25.0584 47.4571 25.0584 47.613C25.0584 47.7689 24.8385 47.9248 24.8385 47.9248C24.6188 47.9248 24.6188 47.7689 24.6188 47.7689C24.6188 47.613 24.6188 47.4571 24.8385 47.4571ZM24.6188 46.5233C24.6188 46.0556 24.8386 45.8997 25.0584 46.2115V46.6791C24.8386 46.6791 24.8386 46.6791 24.6188 46.5233ZM24.6188 44.9659C24.6188 44.81 24.6188 44.6541 24.6188 44.6541C24.8386 44.4982 25.2781 44.6541 25.2781 44.9659C25.2781 45.2776 24.8386 45.4335 24.6188 44.9659ZM25.2781 46.9894C25.4979 46.8336 25.7177 46.8336 25.9374 47.1453C25.9374 47.1453 25.9374 47.3012 25.9374 47.4571C26.1572 47.613 25.4979 47.613 25.2781 47.3012C25.2781 47.3012 25.2781 47.1453 25.2781 46.9894ZM25.9353 46.835C25.7156 46.3674 26.1551 46.0571 26.3749 46.3674C26.5947 46.5233 26.5948 46.835 26.5948 46.835C26.375 47.1453 26.1551 47.1453 25.9353 46.835ZM26.1552 45.4335C25.9354 45.4335 25.9354 44.9659 26.1552 44.8114C26.5947 44.4997 26.8145 44.8114 26.5948 45.1232C26.5948 45.2776 26.375 45.4335 26.1552 45.4335ZM26.8145 45.5894V45.7453C27.0343 46.2129 26.8145 46.2129 26.5948 46.0571C26.5948 45.8997 26.5947 45.7438 26.8145 45.5894ZM27.0342 39.8275C27.4738 39.5157 27.4738 39.5157 27.9113 39.6716C28.1311 39.8275 27.9113 39.9834 27.6916 40.1393C27.252 40.451 27.0322 40.451 27.0322 40.2951C26.8145 40.1393 26.8145 39.9834 27.0342 39.8275ZM27.0342 41.3849C27.254 41.0731 27.6936 41.0731 27.4738 41.3849C27.4738 41.6966 27.4738 41.8525 27.6936 41.8525C27.254 42.007 26.8145 41.6966 27.0342 41.3849ZM28.1311 40.6069C28.3509 40.2951 28.3509 40.2951 28.3509 40.6069C28.3509 40.7628 28.3509 41.0746 28.3509 41.0746C28.1311 41.2304 28.1311 41.2304 27.9113 41.0746C27.6915 40.9172 27.6916 40.7613 28.1311 40.6069ZM28.1311 39.3613C27.9114 39.2054 27.9114 39.2054 28.1311 39.0495C28.3509 38.8936 28.5706 38.8936 28.5706 38.8936V39.3613C28.3509 39.5157 28.3509 39.5157 28.1311 39.3613ZM27.9113 37.648C27.9113 37.648 27.9114 37.4921 28.1311 37.3362C28.3509 37.3362 28.5706 37.4921 28.5706 37.8039C28.7904 37.9598 28.1311 37.9598 27.9113 37.648ZM28.5706 36.87C28.7904 36.87 29.0102 36.87 29.0102 37.0259C29.0102 37.1818 29.0102 37.3377 29.0102 37.3377C28.5707 37.3362 28.3509 37.0245 28.5706 36.87ZM28.3509 35.4685C28.3509 35.3126 28.5707 35.3126 28.7905 35.4685C29.0103 35.4685 29.23 35.6244 29.23 35.7803C29.23 35.9362 29.0102 36.0921 29.0102 36.0921C28.5707 36.2465 28.1311 35.7788 28.3509 35.4685ZM28.5706 34.067C28.5706 33.5994 28.7904 33.5994 29.0102 33.9111C29.0102 34.067 29.0103 34.2229 28.7905 34.3788C28.5707 34.5347 28.5706 34.3788 28.5706 34.067ZM8.37371 26.4374C8.59349 26.4374 8.59349 26.4374 8.37371 26.905C7.93415 27.5286 7.49675 27.8389 7.49675 27.683C7.49675 27.2154 8.15393 26.4374 8.37371 26.4374ZM7.27691 27.0595L7.05717 26.5918C6.83739 26.2801 7.0572 26.1242 7.49675 26.28C7.71653 26.28 7.71653 26.2801 7.49675 26.5918L7.27691 27.0595ZM8.15397 28.3051C8.37375 28.1492 8.81327 27.6816 9.25077 27.3712C9.47054 26.9036 9.69041 26.7492 9.91019 26.7492C10.3497 26.7492 9.91012 27.2168 8.81329 28.3066C8.59351 28.6183 8.15396 29.0845 7.93623 29.0845C7.71646 29.2404 7.71647 28.7727 8.15397 28.3051ZM24.6188 27.0595C25.0584 27.0595 24.8385 27.0595 24.399 27.5271C24.1792 27.683 23.3021 28.3051 22.8626 28.9286C22.2032 29.5507 21.1065 30.486 20.2274 31.1081C19.5681 31.7317 18.691 32.5096 18.2514 32.8214C17.5921 33.4449 17.1546 33.5994 17.5921 32.9773C17.5921 32.8214 18.2514 32.1993 18.9086 31.5758C19.568 31.1081 20.8846 30.0184 21.5439 29.3963C23.3021 27.5271 24.1792 26.905 24.6188 27.0595ZM25.9353 26.2815C23.0823 26.5933 21.1064 26.5933 18.0316 26.5933C13.6401 26.5933 11.8861 26.4374 8.81129 25.9712L7.2749 25.6594L8.3717 25.3476C9.46854 24.88 10.7872 24.7241 14.0798 24.2579C16.713 23.9461 17.3723 23.7903 22.2012 23.7903L26.8104 23.6344L26.5907 24.102C26.1511 25.1918 27.2499 25.6594 29.2258 25.1918C30.5425 25.0359 30.9821 25.0359 30.9821 25.3476C30.9841 25.8138 29.4477 25.9697 25.9353 26.2815ZM29.0102 24.4138C28.5707 24.7256 27.6936 25.0359 27.4738 24.7256V23.6358C27.6936 23.1682 27.9134 21.7681 27.9134 20.8328C28.353 18.0298 28.353 18.1857 29.4498 18.0298C30.5466 17.8739 30.5466 17.718 30.1091 19.1195C29.8893 19.7416 29.6696 20.9872 29.4498 22.0784C29.4477 23.3226 29.2279 24.102 29.0102 24.4138ZM17.8139 50.8822V50.7263C17.8139 50.7263 18.0337 50.7263 18.0337 50.8822C18.2535 51.194 18.0337 51.194 17.8139 50.8822ZM20.6669 51.3499C20.6669 51.3499 20.2273 50.8822 20.0075 50.416C19.7878 49.9483 19.568 49.638 19.3482 49.638C19.1284 49.638 19.1284 50.1057 19.568 50.7278C19.7877 50.8837 19.7878 51.1954 19.7878 51.3513C19.7878 51.5072 19.1285 50.8837 19.1285 50.4175C18.9087 50.1057 18.6889 49.9498 18.6889 49.9498C18.4691 49.7939 18.4691 50.7278 18.9086 51.0396C18.9086 51.1954 18.9086 51.3513 18.9086 51.3513C18.6889 51.3513 18.4692 51.0396 18.4692 50.7278C18.0296 50.2601 17.8098 49.9498 17.8098 50.2601C17.8098 50.416 17.59 50.416 17.3703 50.416C17.1505 50.2601 17.1505 50.416 17.1505 50.7278C17.5901 51.3513 17.3702 51.1954 16.9307 50.5719C16.4911 49.9484 16.4911 49.9484 16.4911 50.2601L16.2713 50.7278L16.0516 50.2601L15.612 49.7925V50.2601C15.3922 50.5719 15.3922 50.5719 15.1724 50.2601C14.9527 49.9484 14.9527 49.9483 14.733 50.416C14.733 50.7278 14.7329 50.7278 14.5131 50.416C14.2933 50.2601 13.8538 50.1042 13.6361 49.9483C13.1965 49.9483 11.8799 48.391 11.4404 47.613C11.2206 47.3012 11.0008 46.2115 10.781 45.2776C10.781 44.032 10.3415 42.9423 9.90397 42.0084C8.80714 39.2054 7.05095 35.6244 7.05095 35.4685C6.83117 35.3126 6.83121 35.1568 6.83121 35.0009C6.83121 34.845 6.61144 34.5332 6.17189 34.067C5.51255 32.9773 3.9762 29.7081 3.5387 28.7728C3.5387 28.3051 3.3189 27.3712 3.09912 26.4374C2.87934 25.6594 2.4398 24.5682 2.4398 24.2579C1.34297 21.1446 0.683575 18.0298 0.683575 16.7842C0.683575 16.1621 0.903344 15.0709 1.3429 15.0709H1.56274C1.56274 15.2268 2.22207 15.5385 3.09912 15.8489C3.97618 16.1592 4.85531 16.4724 5.07509 16.6268C5.07509 16.7827 5.5146 16.7827 5.95415 16.9386C6.17393 16.9386 7.71033 17.2504 9.4665 17.5621C15.3943 18.496 15.6141 18.6519 20.0034 18.6519C23.0762 18.6519 24.8324 18.6519 25.9313 18.496C26.8084 18.3401 27.4677 18.3401 27.4677 18.3401C27.4677 18.3401 27.4676 19.274 27.2479 20.5196C27.2479 21.6093 27.0281 22.6991 27.0281 23.0108C27.0281 23.3226 27.0281 23.3226 26.8083 23.1667C26.149 22.8549 15.1745 23.3226 13.4183 23.7903C12.759 23.9461 11.6622 24.102 11.0029 24.2579C10.1258 24.2579 8.80717 24.5697 7.93012 24.8814C5.7344 25.505 5.73437 25.6594 6.61347 27.6845C6.83325 28.4624 7.2728 29.5522 7.2728 30.1757C7.49258 30.7993 7.93219 31.889 8.15196 32.667C8.59152 33.9126 8.81129 34.5347 9.68834 37.3377C9.68834 37.8053 9.90805 38.4274 10.1278 38.7392C10.3476 39.051 11.0049 40.7628 11.0049 40.7628C11.0049 40.7628 11.005 41.0746 11.2247 41.3849C11.4445 41.6966 11.6642 42.0084 11.4445 42.4746C11.4445 42.7864 11.4444 42.9423 11.6642 42.9423C11.6642 42.9423 11.8841 43.0982 11.8841 43.254C11.8841 43.5658 12.3236 44.1879 12.5434 44.6555C12.7632 45.1232 12.9829 45.9012 13.2027 46.3688C13.6423 48.2365 13.6422 48.2365 14.9588 48.7042C16.0557 49.016 17.1546 49.1718 18.9107 49.1718L19.7898 49.3277L20.4491 50.4175C20.6669 51.0381 20.8866 51.3499 20.6669 51.3499ZM20.4471 49.3263C20.4471 48.8586 20.6669 49.1704 21.1065 50.1042C21.3262 50.416 21.3262 50.8822 21.3262 50.8822C21.1064 50.8822 20.4471 49.6366 20.4471 49.3263ZM22.2033 50.8822C21.9835 50.8822 21.3262 49.7925 21.3262 49.3248C21.3262 48.8572 21.546 49.1689 21.9855 49.7925C22.2053 50.2601 22.4251 50.5704 22.4251 50.7263C22.6428 50.7263 22.423 50.8822 22.2033 50.8822ZM23.0824 50.5719C23.0824 50.8837 22.8627 50.7278 22.4231 49.7939C21.9835 49.016 21.9835 49.016 22.2033 49.016C22.423 49.016 22.6428 49.1718 22.8626 49.638C23.0824 49.9484 23.3022 50.416 23.0824 50.5719ZM24.399 50.8822C23.9594 50.8822 23.7396 50.5704 23.5219 50.1042C23.5219 49.6366 23.3022 49.3263 23.0824 49.3263C22.8626 49.1704 22.8626 49.0145 23.5219 49.0145C23.7417 49.0145 23.9615 49.0145 23.9615 49.1704C23.9615 49.1704 23.9615 49.4822 24.1813 49.638C24.4011 49.7939 24.6209 49.9498 24.1813 50.1057C23.9615 50.2616 23.9615 50.4175 24.4011 50.4175C24.8406 50.4175 24.8406 50.5734 24.8406 50.7292C24.8386 50.7263 24.6187 50.8822 24.399 50.8822ZM25.4959 50.416C25.2761 50.5719 25.0563 50.2601 24.8365 49.638C24.6168 49.3263 24.397 49.016 24.1772 49.016C23.9574 48.8601 23.9574 48.7042 24.1772 48.7042C24.397 48.7042 24.8365 49.016 25.0563 49.4822C25.4958 49.9484 25.7156 50.416 25.4959 50.416ZM25.4959 49.3263C25.0563 48.8586 25.0563 48.5483 25.0563 48.3924C25.2761 48.2365 25.4958 48.5483 25.9333 49.016C26.3749 49.9484 26.1552 50.2601 25.4959 49.3263ZM27.4718 49.3263C27.0323 49.4822 26.8124 49.7939 26.8124 49.7939C26.5926 49.7939 25.7156 48.2365 25.9353 48.0807C26.1551 47.7689 26.5947 48.0806 27.0322 48.7042C27.0322 49.016 27.252 49.016 27.4718 49.016C27.6916 49.0145 27.6916 49.0145 27.4718 49.3263ZM28.1311 48.5468C27.6916 48.7027 27.4718 48.7027 27.2541 48.391C26.8145 48.0792 26.8145 47.7674 26.8145 47.613C27.0343 47.3012 27.2541 47.3012 27.4738 47.7689C27.6936 48.0807 27.9134 48.3924 28.1332 48.3924C28.5707 48.391 28.5707 48.391 28.1311 48.5468ZM28.5706 47.7689C28.3509 48.0807 28.3509 48.0806 27.9113 47.613C27.4718 47.3012 27.4718 46.835 27.4718 46.835C27.4718 46.6791 27.6916 46.5233 27.6916 46.3674C27.6916 46.0556 27.6916 46.2115 28.1311 46.5233C28.3509 46.6791 28.5706 46.9909 28.5706 47.1453V47.7689ZM29.2279 45.7438V46.3674C29.0082 46.5233 29.0082 46.5233 28.3509 46.0556C27.6916 45.5879 27.6915 45.4321 27.9113 45.1217C28.1311 44.9659 28.3509 44.9659 28.5706 45.2776C28.7904 45.4335 29.0102 45.5894 29.23 45.5894C29.2279 45.5894 29.2279 45.5894 29.2279 45.7438ZM29.4477 45.1217V45.4335L28.7884 44.9659C28.5686 44.81 28.3488 44.4982 28.3488 44.1879V43.7202L29.0082 44.1879C29.4478 44.4982 29.6675 44.81 29.4477 45.1217ZM29.8873 43.0982C29.8873 43.5658 29.6675 44.1879 29.4477 44.1879C29.2279 44.1879 28.5706 43.254 28.5706 42.9423C28.5706 42.4746 28.7904 42.4746 29.0102 42.7864C29.23 42.9423 29.4498 43.0982 29.4498 42.9423C29.6696 42.9423 29.6695 42.7864 29.23 42.4746C28.7904 42.007 28.5707 41.8525 28.7905 41.5408C29.0103 40.9172 29.0103 40.9172 29.6675 41.5408C30.1071 42.007 30.107 42.1628 29.8873 43.0982ZM30.107 41.3849C29.6675 41.229 29.0102 40.451 29.23 40.1393C29.4497 39.9834 29.4497 39.9834 29.8893 40.2951C30.3288 40.7628 30.3288 40.2951 29.8893 39.6716C29.2299 39.2039 29.23 38.5819 29.4498 38.7377C29.8894 38.7377 30.5466 39.6716 30.5466 40.1393C30.5466 40.9172 30.3268 41.3849 30.107 41.3849ZM30.107 38.7377C29.4477 37.8039 29.4477 37.4921 30.3269 38.2701C30.5466 38.5819 30.7663 38.8936 30.7663 39.0481C30.7643 39.2054 30.5466 39.2054 30.107 38.7377ZM30.9841 38.2701C30.5445 38.2701 29.6675 37.1803 29.8873 36.7127C29.8873 36.4009 29.8873 36.4009 30.5466 37.0245C30.7664 37.1803 30.9862 37.648 30.9862 37.8024C30.9841 37.9598 30.9841 38.2701 30.9841 38.2701ZM31.2039 36.87C31.2039 36.7141 30.9841 36.7141 30.7643 36.7141C30.3248 36.7141 30.105 36.0921 30.105 35.6244C30.3248 35.3126 30.3248 35.3126 30.7643 35.7803C31.2039 36.0921 31.2039 36.5583 31.2039 36.7141C31.2039 36.87 31.2039 36.87 31.2039 36.87ZM30.5466 34.845C30.107 34.3773 30.3268 34.067 30.7663 34.5332C30.9861 34.6891 31.206 35.0009 31.4258 35.0009C31.6455 35.0009 31.8652 35.0009 31.8652 35.3126C31.8632 35.7788 30.9841 35.6244 30.5466 34.845ZM31.8632 34.5332C31.4237 34.5332 30.5466 33.5994 30.5466 33.4435C30.5466 33.1317 30.5466 33.1317 30.7663 33.4435C31.4257 34.0656 31.6434 33.5994 31.2059 32.9758C30.7664 32.8199 30.7663 32.5082 30.7663 32.3537C30.7663 32.042 30.7664 32.042 30.9862 32.3537C30.9862 32.5096 31.4257 32.8214 31.6455 32.9758C32.0851 33.2876 32.0851 33.5994 32.0851 34.0656C31.8633 34.3788 31.8632 34.5332 31.8632 34.5332ZM31.4237 32.1979C30.5466 31.264 30.3268 30.4846 30.9841 31.264L31.8611 31.8861C32.3007 32.1979 32.3007 32.3537 32.3007 32.6641C32.083 32.8214 32.083 32.8214 31.4237 32.1979ZM32.5226 30.9522C32.5226 30.9522 32.3028 30.7963 31.8632 30.4846C31.6435 30.0169 31.4237 30.0169 31.4237 30.1728C31.4237 30.3287 31.6435 30.6405 31.8632 30.9508C32.083 31.2611 32.5226 31.5729 32.5226 31.7287C32.5226 31.8846 32.3027 31.7287 31.6434 31.1052C31.2038 30.4831 30.9841 30.1713 30.9841 29.7037C30.9841 29.236 30.9841 29.0802 31.2039 29.3919C31.8632 29.7066 32.7403 30.6419 32.5226 30.9522ZM32.7403 30.0184C32.7403 30.1743 32.3007 29.7066 32.3007 29.5507C32.3007 29.3948 32.3007 29.3948 32.5205 29.5507C32.7402 29.8625 32.9601 30.0184 32.7403 30.0184ZM32.7403 29.2404C32.5205 29.0845 32.5205 28.6183 32.96 28.6183C32.96 28.6183 33.1798 28.7742 33.1798 28.9301C33.1798 29.3963 32.9601 29.3963 32.7403 29.2404ZM34.7162 26.1256L34.4964 26.7492V26.1256C34.4964 25.8139 34.4964 25.658 34.7162 25.658V25.5021C34.7162 25.3462 34.7162 25.3462 34.7162 25.3462C34.9359 25.3462 34.936 25.3462 34.936 25.3462C34.936 25.3462 34.9359 25.6594 34.7162 26.1256ZM37.1317 15.5386C37.1317 17.2518 36.6922 19.5872 36.2546 20.8328C36.0349 21.3005 36.0349 21.9225 36.0349 22.2343C36.0349 23.1682 35.1578 25.0373 34.938 24.8814V24.4138C34.938 24.4138 35.1578 23.9461 35.1578 23.6358C35.1578 23.1682 35.3776 22.5461 35.3776 22.3902C35.8171 21.7681 35.5974 21.4564 35.1578 22.0784C34.9381 22.3902 34.938 22.2343 35.3776 20.521C35.3776 19.899 35.3776 19.899 35.1578 20.3652C35.1578 20.521 34.938 20.8328 34.7183 20.8328C34.4985 20.8328 34.4985 20.8328 34.4985 20.9887L34.7183 21.1446C34.938 21.1446 34.938 21.1446 34.7183 21.7681C34.7183 21.924 34.4985 22.5461 34.4985 23.1696C34.4985 23.7932 34.2787 24.2594 34.2787 24.4153C34.0589 24.4153 34.0589 24.5711 34.0589 24.727C34.0589 24.8829 34.059 25.0388 33.8392 25.0388C33.3996 25.0388 33.3996 25.0388 33.8392 25.5065C34.059 25.9741 34.0589 25.9741 33.6194 25.6623C33.1798 25.3506 33.1798 25.3506 33.1798 25.6623C33.1798 25.8182 33.1798 25.9741 33.3996 25.9741C33.6194 26.13 33.6193 26.4418 33.1798 26.2859C32.5204 26.13 32.5204 26.4418 33.1798 26.7535C33.3996 26.7535 33.3996 26.9094 33.3996 27.0653C33.1798 27.2212 32.9601 27.0653 32.7403 26.9094C32.081 26.4418 32.081 26.9094 32.7403 27.3771C32.9601 27.533 33.3996 27.8447 33.3996 28.0006V28.4683L32.7403 28.1565C32.3007 27.6888 32.081 27.6888 32.081 28.1565H31.8611C31.6414 28.0006 31.4216 27.8447 31.4216 28.0006C31.2019 28.1565 31.4216 28.3124 31.8611 28.7786C32.0809 29.0903 32.081 29.2462 32.081 29.2462C31.8612 29.2462 31.6414 28.9345 31.4216 28.7786C30.9821 28.4668 30.982 28.3109 31.2018 27.2212C31.4216 26.4432 31.6414 25.8197 31.8611 25.6638C32.0809 25.352 31.8611 25.1961 30.9841 24.7299L30.107 24.1079L30.3269 22.2387C30.3269 20.371 30.9862 17.4121 31.2039 17.568C31.6435 17.568 35.3756 16.1665 36.4724 15.5444L37.1317 15.0767V15.5386ZM34.0589 11.6458C36.6942 12.5796 37.5713 13.8253 36.0349 15.0709C35.5954 15.3827 34.4985 15.8489 33.4016 16.1606L31.6455 16.7827L31.8652 15.693C32.085 13.5135 32.5246 11.0222 32.5246 11.1781C32.7402 11.1781 33.3996 11.334 34.0589 11.6458ZM32.7403 6.97507C32.7403 7.28684 32.3007 9.31043 31.8632 11.334C31.4237 13.3576 31.2039 15.2268 31.2039 15.6944C31.2039 16.4724 30.7643 17.2518 30.107 17.4077C29.23 17.5636 28.5707 17.5636 28.7905 17.2518C29.0103 16.9401 29.23 15.5386 29.8873 12.2693C30.9841 7.44273 31.4236 6.04121 31.6434 5.41913L32.083 4.79704L32.5226 5.2647C32.9621 5.57647 32.9621 5.73235 32.9621 6.04267C32.7403 6.19564 32.7403 6.6633 32.7403 6.97507ZM43.0575 1.99257C41.5211 2.30434 36.6921 3.70585 35.5932 4.17205C35.1537 4.32794 34.7162 4.6397 34.4964 4.6397C34.2766 4.95147 34.0569 4.79559 33.6174 4.48382L32.958 4.01616L34.2746 3.39262C36.6901 2.45877 38.4463 1.99112 42.6159 1.05726C43.7127 0.745493 43.9325 0.745493 44.1523 1.05726C44.596 1.52492 44.5959 1.6808 43.0575 1.99257Z" fill="white"/>
</svg>
