<svg width="58" height="51" viewBox="0 0 58 51" fill="none" xmlns="http://www.w3.org/2000/svg">
<path d="M55.6272 18.6868C55.6272 18.8892 55.6272 19.294 55.3635 19.294C55.3635 19.4965 55.3635 19.6989 55.3635 19.6989C55.6272 19.6989 55.6271 19.9013 55.8908 19.9013C56.1545 19.9013 56.4183 18.2838 56.1546 18.0814C55.8909 17.8771 55.6272 18.0795 55.6272 18.6868Z" fill="white"/>
<path d="M46.1441 4.93695C46.1441 4.73452 45.6167 3.92671 45.0918 3.11701L44.3007 1.90435L43.5097 2.10678C42.4573 2.30921 42.4573 2.3092 41.1389 0.894112L40.8752 0.489258L39.8229 0.894112C39.5592 1.09654 38.2432 1.70193 37.1884 2.10678L35.3451 3.11701L35.6087 3.92672V4.93695C35.345 5.13937 35.0814 5.3418 35.3451 5.54423C35.3451 6.75689 35.0813 7.56659 34.8176 7.76902C34.2903 7.76902 34.2902 8.17386 34.2902 10.5992V13.4294L32.9743 13.8342C31.3946 14.2391 31.3945 14.4415 31.3945 15.2493C31.3945 16.0571 30.3423 17.8771 30.0786 17.8771C30.0786 17.8771 30.0786 17.8771 30.0786 18.0795C30.0786 18.4843 29.2875 18.6868 29.0263 18.2819C28.7626 18.2819 28.2351 18.2819 27.4465 18.8892C26.1305 19.4965 25.8668 19.6989 25.6031 20.7091C25.0758 21.9218 24.8121 22.3266 22.4438 26.3695C20.3367 29.4021 20.3368 29.4021 20.3368 30.8172C20.3368 32.0298 20.3367 32.2322 19.8094 32.4347C19.5457 32.6371 18.4933 33.2425 17.7022 33.8498C16.6474 34.457 15.8588 35.0624 15.8588 35.0624C15.5951 35.0624 15.3315 35.2648 15.0678 35.6697C14.5404 36.0746 14.013 36.6799 13.7518 36.8824C13.2244 37.0848 13.2245 37.2872 13.4882 37.6902C13.7518 37.8926 13.7518 38.095 13.7518 38.095C13.7518 38.095 12.9608 38.2975 11.6448 38.4999C10.5925 38.7023 9.27394 39.1071 8.74655 39.3077C8.21917 39.5101 7.69182 39.915 7.43059 39.915C7.43059 40.5222 7.16691 40.5222 6.63952 40.5222C6.11214 40.3198 5.05976 40.5222 4.53237 40.5222C3.48007 40.7247 3.21641 40.9271 3.21641 41.3319C3.21641 41.7368 2.68907 41.9392 1.90045 41.5344H1.10938C1.10938 41.7368 0.845614 42.5446 0.845614 43.5567C0.581921 45.5791 0.582003 45.5791 2.1617 45.9839C2.68908 46.1864 3.21389 46.3888 3.21389 46.7936C3.47758 47.1985 4.00508 47.1985 5.05739 47.4009C5.84846 47.6034 6.90068 47.8058 7.42807 47.8058C7.95545 47.8058 8.21918 48.0082 9.0078 48.413C9.79887 49.2228 10.0626 49.2228 11.6422 49.4233C12.697 49.6257 13.7493 49.8281 14.2767 49.8281C15.3315 50.0306 16.9111 50.0306 18.7545 49.6257C19.8068 49.4233 20.3342 49.4233 20.5979 49.8281C20.8616 49.8281 21.3891 50.233 21.914 50.233C22.4414 50.4354 22.9662 50.4354 23.4936 50.4354C24.8096 50.6378 29.2875 50.233 30.606 49.8281C31.3971 49.6257 32.1857 49.4233 32.4494 49.4233C35.6112 48.816 36.6635 48.4131 37.4546 47.8058C37.982 47.4009 38.5069 46.9961 38.5069 46.7955C38.7706 46.5931 39.0343 46.5931 39.5616 46.5931C40.614 46.998 42.4598 46.3907 43.7758 45.178L45.6192 43.7629C46.4103 43.1557 47.1989 42.1454 47.4626 41.7406C47.99 41.3357 48.2536 41.1333 48.5173 41.1333C48.5173 41.1333 48.7811 40.9309 48.7811 40.7284C48.7811 40.526 51.4155 37.0886 52.2041 36.2808C52.9951 35.6735 54.8386 32.8433 55.3635 31.6306C55.8909 30.6204 55.8909 30.418 55.6272 29.8107C55.3635 29.4059 55.3635 29.0029 55.3635 28.8005C55.3635 28.8005 55.0998 28.3956 54.5725 28.1932L54.045 27.7883L54.8361 26.1708C55.3635 25.3611 55.8885 23.946 56.4158 23.1382C56.6795 22.3285 56.9432 21.1159 57.2069 20.711C57.4706 20.3062 57.7343 19.2959 57.7343 18.6886C57.998 17.6784 57.7342 17.476 56.9431 16.2614C56.1521 15.4517 55.3635 14.4415 54.5725 14.0366L53.5202 13.0264L53.7838 11.004C53.7838 8.77925 54.0475 8.98168 51.1493 7.36417C50.0946 6.75689 49.0422 6.15151 48.7785 5.94908C48.2512 5.54423 47.7262 5.54423 46.9352 5.54423C46.1441 5.54423 46.1441 5.3418 46.1441 4.93695ZM2.95024 45.1723C2.95024 45.3748 2.95024 45.5772 2.95024 45.5772C2.42285 45.5772 2.42286 45.1723 2.15917 44.7694C2.15917 44.567 2.15917 44.567 2.15917 44.567C2.15917 44.7694 1.89544 44.9718 1.63175 44.9718C1.63175 44.9718 1.36806 44.3645 1.63175 43.5567C1.89544 42.1416 1.89543 42.1416 2.42282 42.3441C2.68651 42.5465 2.95024 42.7489 2.95024 43.7592V45.1723ZM37.7157 2.71405C38.7681 2.3092 40.614 1.50139 40.614 1.70382C40.8777 1.70382 41.405 2.51352 41.405 2.71405C41.405 2.71405 40.3527 2.91648 39.5616 3.32133C38.5069 3.72618 37.7183 3.9286 37.4546 4.13103C37.1909 4.33345 36.9272 4.33346 36.6636 3.72618C36.6636 3.52187 36.9271 3.31943 37.7157 2.71405ZM38.5069 4.33156C39.5617 3.92671 43.5121 2.91648 43.7758 2.91648C44.0395 2.91648 45.0918 4.73642 45.0918 5.3418C45.3555 5.74665 45.0918 5.74666 43.7758 5.94908C42.7235 5.94908 40.8776 6.35393 39.5616 6.75689C37.982 7.16174 36.6636 7.56659 36.6636 7.56659C36.3999 7.56659 36.3998 7.16174 36.3998 6.55635C36.3998 5.54422 36.6635 5.13937 38.5069 4.33156ZM4.2662 46.5874V46.385C4.2662 46.1826 4.52997 46.1826 4.52997 46.1826C4.52997 46.1826 4.79362 46.1826 4.79362 46.385C4.79362 46.3869 4.52989 46.5874 4.2662 46.5874ZM6.637 46.9923C5.321 46.9923 5.32108 46.7899 5.05739 44.567C4.79369 43.3543 4.79366 43.1519 4.52997 43.1519C4.26627 43.1519 4.0025 43.1519 4.2662 43.5567C4.2662 43.9616 4.26624 44.164 4.00255 44.164C3.47516 44.164 3.47516 41.9392 4.00255 41.3338C4.52993 40.929 6.10961 40.7266 6.637 41.1314C7.16438 41.3338 7.16437 41.7387 7.42807 43.7592C7.42807 45.1742 7.69184 46.3869 7.69184 46.5893C7.95306 46.7899 7.69177 46.9923 6.637 46.9923ZM19.0158 48.8122C17.6998 49.2171 15.0653 49.2171 12.9582 49.0146C10.0601 48.6098 10.0601 48.6098 9.79887 45.5772C9.27148 43.3524 9.27147 43.1519 8.74655 43.3524C8.74655 43.5548 8.74651 44.1602 9.0102 44.9699C9.2739 45.7796 9.27397 46.7899 9.27397 46.9923C9.27397 47.5996 9.2739 47.5996 9.0102 47.1947C8.21913 46.385 7.69425 40.3198 8.74655 39.9169C10.5899 39.3096 11.6447 39.1071 12.9607 38.9066L14.5405 38.7042L15.3315 40.3217C15.8589 41.1295 16.3838 42.5465 16.9111 43.1519C17.1748 43.7592 17.9635 44.7694 18.2272 45.5772C18.4909 46.1845 19.0183 47.1947 19.2795 47.5996L20.0706 48.6098L19.0158 48.8122ZM36.3998 47.5996C35.6087 48.0044 31.922 49.0146 29.8149 49.2171C29.2875 49.2171 28.7625 49.4195 28.4988 49.4195C27.7078 49.6219 24.021 49.8244 22.9687 49.6219C22.4413 49.4195 21.9164 49.2171 21.6527 49.0146C21.1254 48.6098 19.5457 46.3869 19.0183 45.1723C18.7546 44.5651 17.9635 43.5548 17.4386 42.5446C16.9112 41.7368 16.3862 40.5222 15.8588 39.9169C15.5951 39.3096 15.3315 38.2993 15.0678 37.8945L14.5405 37.2872L15.0678 36.4794C16.1201 35.6697 20.3368 32.8395 20.8617 32.8395C21.1254 32.8395 22.4414 33.8498 24.0235 35.0643C25.3395 36.277 27.1829 37.6921 27.974 38.2993C30.081 39.7144 32.7155 41.9392 34.2952 43.1519L36.666 44.9718C37.457 45.3767 37.9819 45.7815 37.9819 45.9821C37.9795 46.1845 36.9272 47.1947 36.3998 47.5996ZM54.3087 28.9972C54.8361 29.4021 54.8361 29.6045 54.5725 29.6045C54.3088 29.4021 54.3088 29.4021 54.5725 29.8069C54.8361 30.0093 55.0998 30.6166 54.8361 31.222C54.3087 32.2322 52.729 34.6595 51.413 36.0746C50.6219 36.8843 49.8334 38.0969 49.306 38.7023C47.4626 41.1295 42.9847 45.1724 41.6687 45.5772C41.1413 45.7796 40.6165 45.7796 40.0891 45.7796C39.5617 45.7796 36.666 43.9597 34.5589 42.1398C33.5066 41.5325 32.1881 40.3198 31.3995 39.7144C30.3472 39.1071 28.765 37.8945 27.7127 37.0867C21.1278 31.6269 20.8642 31.6269 21.1278 30.0093C21.1278 29.8069 22.4438 27.5821 23.7623 25.5617C25.0783 23.3369 26.3967 21.114 26.3967 20.7091C26.6604 19.8994 27.7127 19.0916 28.2401 19.294C28.7675 19.294 29.0312 19.294 29.0312 19.0916C29.2949 18.8892 31.1383 19.294 32.718 19.8994C35.8773 21.3145 42.9897 23.9441 43.2533 23.9441C43.2533 23.9441 43.7807 23.9442 44.0444 24.1466L46.6789 25.1568C47.4699 25.5617 48.786 25.9646 49.5771 26.3695C50.3682 26.7743 50.893 27.1792 51.1567 27.1792C51.1567 27.1792 51.6842 27.3816 52.4728 27.7865C53.0002 27.9889 53.5275 28.3937 53.5275 28.3937C53.7838 28.3918 54.0475 28.5943 54.3087 28.9972ZM56.6795 17.8771C56.9432 19.0897 55.6272 23.3369 54.045 25.9646C53.7813 26.5719 53.254 27.1773 53.254 27.1773C52.9903 27.1773 50.3558 26.167 49.5672 25.7622C49.0398 25.3573 46.9327 24.5495 44.8256 23.7398C38.5044 21.515 33.7629 19.697 32.9743 19.2921C32.4469 18.8873 31.6582 18.6849 31.3945 18.6849L30.8672 18.4824L31.3945 17.6746C31.6582 17.2698 31.9219 16.462 32.1856 15.8547C32.4493 14.8445 32.4494 14.642 33.2404 14.4396C34.8201 14.0348 36.6635 13.6299 41.1414 13.2269C44.5645 12.8221 50.097 13.0245 52.2041 13.6318C53.7838 14.0366 56.4158 16.2595 56.6795 17.8771ZM50.0946 7.56659L50.6219 8.17386L49.8309 7.97145C48.7786 7.76902 49.0398 8.17387 50.3583 8.57872C51.4106 8.78114 51.6742 8.98357 51.6742 10.1962C51.6742 10.6011 51.6743 10.8035 51.938 10.6011C52.2017 10.3987 52.2017 9.9938 52.2017 9.79327C51.938 9.38842 52.2016 9.38842 52.4653 9.38842C52.729 9.38842 52.9928 9.38842 52.7291 11.0059C52.7291 12.0162 52.4653 12.8259 52.4653 12.8259C52.4653 12.8259 51.9379 12.8259 51.413 12.6234C51.1493 12.6234 48.7786 12.421 46.6715 12.421C43.2484 12.2186 42.1937 12.421 39.5592 12.6234C34.8177 13.2307 34.8176 13.2307 35.0813 12.2186V9.99381L35.3451 8.57872L39.0318 7.56849C41.1389 7.16364 43.246 6.55825 44.0371 6.55825C47.9875 6.14961 47.4626 6.14961 50.0946 7.56659Z" fill="white"/>
<path d="M49.3059 12.2167C50.3582 12.4191 50.8856 12.4191 51.413 11.8119C51.6766 11.407 51.9404 11.2046 51.9404 11.0022C52.2041 10.7997 51.413 10.7997 51.1493 11.2046C51.1493 11.2046 50.8856 11.2046 50.6219 11.2046C50.0945 11.0022 49.8308 11.407 50.3582 11.6094C50.8856 11.8119 50.622 11.8119 50.0946 11.8119C49.5672 11.6094 48.7785 11.6094 48.7785 11.407C48.5148 11.2046 48.2512 11.2046 48.5149 11.6094C48.5149 11.8119 48.7785 12.0143 49.3059 12.2167Z" fill="white"/>
<path d="M55.3636 17.6746C55.0999 18.0795 55.6272 18.0795 55.8909 17.6746C56.1546 17.4722 56.1546 17.2698 55.6272 16.8649C55.0998 16.2576 52.9928 15.2474 52.7291 15.4498C52.4654 15.4498 52.7291 15.6523 52.9928 15.8547C54.8362 16.6644 55.6273 17.2717 55.3636 17.6746Z" fill="white"/>
<path d="M50.3583 33.8497C50.3583 33.8497 50.622 34.0522 50.8857 34.0522C51.1494 34.0522 51.413 33.4449 51.1493 33.2425C50.8857 33.0419 50.0946 33.6473 50.3583 33.8497Z" fill="white"/>
<path d="M49.8334 35.8721C49.5698 35.4673 49.5697 35.6697 49.5697 35.8721C49.5697 36.277 49.5698 36.4794 49.8334 36.4794C50.0971 36.4794 50.3607 36.277 50.3607 36.277C50.3583 36.0746 50.0947 35.8721 49.8334 35.8721Z" fill="white"/>
<path d="M51.1493 28.5943C52.4653 29.2015 52.9928 29.2015 52.7291 28.9991C52.7291 28.7967 49.5696 27.1792 49.5696 27.3816C49.3059 27.5821 49.8334 27.987 51.1493 28.5943Z" fill="white"/>
<path d="M51.9405 31.6269L51.6768 31.8293C51.6768 32.0317 51.6768 32.2341 51.4131 32.2341C51.4131 32.2341 51.4131 32.4366 51.4131 32.639C51.4131 32.8414 51.4132 33.0438 51.6768 33.0438C51.6768 33.0438 51.9405 32.8414 51.9405 32.639C51.9405 32.2341 51.9405 32.2341 52.2042 32.2341C52.2042 32.2341 52.4679 32.0317 52.4679 31.8293C52.4655 31.6269 52.2017 31.6269 51.9405 31.6269Z" fill="white"/>
<path d="M48.2512 37.0848C48.2512 37.2872 48.2512 37.4896 48.5149 37.4896C48.7786 37.4896 49.0424 37.2872 49.0424 37.0848C49.0424 36.6818 48.2512 36.6818 48.2512 37.0848Z" fill="white"/>
<path d="M52.9927 25.5598C52.729 25.5598 52.2016 25.5598 52.2016 25.5598C51.9379 25.5598 51.6742 25.1549 51.1493 24.9525C50.6219 24.75 50.0946 24.5476 50.0946 24.5476C49.3035 24.5476 49.8308 24.7501 50.6219 25.3554C51.9379 25.9627 51.6743 25.9627 50.3583 25.3554C48.5149 24.5476 46.6714 23.5355 46.4077 23.1306C46.144 22.9282 45.8804 22.7258 45.8804 22.9282C45.353 23.3331 48.5149 25.153 51.4106 26.1632C52.9903 26.7705 52.9902 26.7705 53.2539 26.1632C53.5201 25.9646 53.5201 25.7622 52.9927 25.5598Z" fill="white"/>
<path d="M54.8361 22.3247C54.5724 22.3247 54.5725 22.7296 54.5725 22.932C54.5725 23.1344 54.3087 23.3369 54.045 23.3369C53.7813 23.3369 53.7814 23.5393 53.7814 23.7417C53.7814 24.1466 54.3088 23.9441 54.5725 23.3369C55.0998 22.7296 55.0998 22.1242 54.8361 22.3247Z" fill="white"/>
<path d="M53.5202 24.1447C52.9928 24.1447 52.9927 24.1447 52.9927 24.3471C53.2564 24.752 52.9927 24.7519 52.2017 24.5495C51.1494 24.1447 51.4105 24.7519 52.4653 25.1568C53.2564 25.3592 53.2565 25.3592 53.7814 24.9544C54.3088 24.3471 54.3088 24.3471 53.5202 24.1447Z" fill="white"/>
<path d="M52.2017 30.0094C51.6743 29.8069 51.6743 29.8069 51.6743 30.0094C51.6743 30.2118 51.6743 30.4142 51.938 30.4142C52.4654 30.6166 52.4654 30.6166 51.938 30.6166C51.6743 30.6166 51.6743 30.8191 51.6743 31.0215C51.6743 31.0215 51.938 31.2239 52.2017 31.2239C52.7291 31.2239 52.7291 31.0215 52.7291 31.0215C52.7291 30.8191 52.7291 30.8191 52.7291 30.8191C53.2565 30.8172 53.2564 30.4123 52.2017 30.0094Z" fill="white"/>
<path d="M50.6219 28.7948C50.3582 28.9972 50.3582 28.7948 51.6742 29.6045C52.7265 30.2118 53.2539 30.2118 53.2539 30.0093C53.2564 29.6045 50.8856 28.5942 50.6219 28.7948Z" fill="white"/>
<path d="M55.6272 20.3043C55.3635 20.3043 54.8361 21.3145 54.8361 21.7194C54.8361 22.1242 55.0999 22.1242 55.3636 21.7194C55.3636 21.5169 55.3635 21.1121 55.6272 20.9096C55.8909 20.5067 55.8909 20.3043 55.6272 20.3043Z" fill="white"/>
<path d="M47.1989 37.8945C47.4626 38.5018 47.99 38.2993 47.99 37.6921C47.99 37.2872 47.7262 37.0848 47.7262 37.0848C47.1988 37.0848 46.9352 37.4896 47.1989 37.8945Z" fill="white"/>
<path d="M45.0919 40.9271C44.8282 40.9271 44.3008 40.5222 43.7759 40.3198C43.5122 40.1174 42.9848 39.915 42.9848 39.915C42.1937 39.7125 42.7211 40.3198 43.7759 40.7228C44.8282 41.5325 45.6193 41.5325 45.6193 41.1276C45.6193 40.9271 45.3555 40.9271 45.0919 40.9271Z" fill="white"/>
<path d="M37.9795 42.5446L34.5564 39.9169C31.922 38.0969 31.3971 37.6921 31.3971 37.8945C31.3971 37.8945 31.9244 38.5018 32.7131 39.1072C36.3998 41.7349 37.1909 42.3422 38.2432 42.9494C39.8229 44.1621 39.8229 43.7573 37.9795 42.5446Z" fill="white"/>
<path d="M41.1414 43.5548C40.0891 43.15 34.029 38.7023 34.029 38.2975C34.029 38.095 33.7654 37.8926 33.5017 37.8926C33.238 37.8926 32.9743 37.8926 32.9743 38.095C32.9743 38.4999 36.3973 41.1276 39.2955 42.9476C40.3478 43.5548 41.1389 44.1602 41.4026 44.1602C41.93 44.1621 41.93 43.7573 41.1414 43.5548Z" fill="white"/>
<path d="M32.9767 46.9923C32.9767 47.1947 32.4493 47.3971 32.1856 47.3971C31.9219 47.3971 31.922 47.3971 31.922 47.5996C31.922 48.0044 32.1857 48.0044 32.4494 47.802C32.4494 47.5996 32.713 47.5996 32.9767 47.5996C33.2404 47.802 33.5041 47.5996 33.5041 47.1947C33.5017 46.9923 33.2379 46.7899 32.9767 46.9923Z" fill="white"/>
<path d="M41.1415 42.5446C40.6141 42.1398 39.8254 41.5344 39.0343 41.1295C37.982 40.1193 37.191 40.1193 37.7183 40.7247C37.982 40.9271 38.7706 41.5344 39.8254 42.1398C40.8777 42.747 41.6688 43.15 41.9325 43.15C42.1937 43.3524 41.9301 42.9495 41.1415 42.5446Z" fill="white"/>
<path d="M30.606 47.802C29.29 47.802 29.0262 48.0044 29.2899 48.2068C29.2899 48.4093 29.5536 48.4093 29.8173 48.4093C30.081 48.2068 30.6084 48.2068 30.8696 48.2068C31.1333 48.2068 31.3971 48.0044 31.3971 48.0044C31.3946 47.802 31.1309 47.802 30.606 47.802Z" fill="white"/>
<path d="M46.1441 39.1072C46.1441 38.9047 45.8804 38.9047 45.6167 38.9047C45.353 38.9047 45.3531 39.3096 45.8805 39.512C46.6715 39.7144 46.9352 39.512 46.1441 39.1072Z" fill="white"/>
<path d="M40.8776 41.1295C39.5616 40.3217 39.298 40.1193 39.298 40.3217C39.298 40.5241 40.8776 41.9392 42.1961 42.5465C43.2484 43.1538 43.7758 43.1538 43.7758 42.7489C43.7758 42.7489 43.2484 42.3441 42.7235 42.3441C42.4574 42.1398 41.405 41.5344 40.8776 41.1295Z" fill="white"/>
<path d="M28.4989 48.0044C28.2353 47.5996 27.708 48.0044 27.9716 48.4093C28.2353 48.6117 29.024 48.6117 29.024 48.4093C29.024 48.2049 28.7626 48.0044 28.4989 48.0044Z" fill="white"/>
<path d="M45.6192 40.1174C45.3555 40.1174 45.0919 40.1174 44.8282 39.915C44.3008 39.7125 44.3007 39.7125 44.3007 39.915C44.3007 40.1174 44.3007 40.3198 44.5644 40.3198C45.3555 40.7247 46.1441 40.7247 46.1441 40.3198C46.1441 40.1174 45.8805 40.1174 45.6192 40.1174Z" fill="white"/>
<path d="M43.7733 41.5344C43.5096 41.5344 42.7211 40.9271 42.1937 40.5241C41.1389 39.7163 41.1389 39.7163 41.1389 39.9169C41.1389 40.1193 41.6663 40.7247 42.1937 41.1295C42.9848 41.7368 43.7734 41.9392 44.0371 41.9392C44.5645 42.1398 44.5644 41.7349 43.7733 41.5344Z" fill="white"/>
<path d="M13.7493 47.5996C13.7493 47.5996 13.7493 47.802 13.7493 48.0044C14.013 48.4093 14.5405 48.4093 14.5405 48.0044C14.5405 47.5996 14.013 47.3971 13.7493 47.5996Z" fill="white"/>
<path d="M12.6946 47.5996C12.4309 47.5996 12.1672 47.3971 12.1672 46.9923C11.9035 46.1845 11.3762 46.385 11.6399 47.1947C11.6399 47.3971 11.9035 48.0025 11.9035 48.2049C11.9035 48.4074 11.9036 48.4074 12.431 48.4074C12.9584 48.4074 13.222 48.2049 13.222 48.2049C13.222 47.5996 12.9583 47.3971 12.6946 47.5996Z" fill="white"/>
<path d="M6.63697 45.982C6.37327 45.982 6.10955 45.5772 6.10955 45.3748C6.10955 45.1723 5.84594 44.9699 5.58225 44.9699C5.31856 44.9699 5.31851 45.7796 5.8459 46.385C6.10959 46.7899 6.10958 46.7899 6.63697 46.5874C7.16435 46.3869 7.16435 45.982 6.63697 45.982Z" fill="white"/>
<path d="M26.6555 47.802C26.3918 47.802 26.3919 48.4093 26.9193 48.6117C27.183 49.0165 27.7103 49.0165 27.7103 48.6117C27.7079 48.4074 27.1804 47.802 26.6555 47.802Z" fill="white"/>
<path d="M11.1148 47.1947C11.1148 46.385 10.3238 44.7675 10.0625 44.9699C9.79883 45.1723 10.3262 46.9923 10.8536 47.8001C10.8536 48.2049 11.1173 48.205 11.381 48.205C11.381 48.0025 11.381 48.0025 11.381 47.8001C11.1149 47.802 11.1148 47.3971 11.1148 47.1947Z" fill="white"/>
<path d="M25.0733 47.3971C24.8096 47.3971 24.8097 48.0044 25.6007 48.4074C25.8644 48.8122 26.6554 49.0146 26.6554 48.8122C26.6554 48.6098 25.337 47.3971 25.0733 47.3971Z" fill="white"/>
<path d="M24.5484 48.4074C24.2847 48.205 24.0211 47.5977 23.7574 47.1947C23.7574 46.7899 23.4936 46.5875 23.2299 46.5875C22.9663 46.5875 23.23 47.3953 23.7574 48.205C24.2847 48.8123 24.8097 49.2152 24.8097 49.2152C25.3371 49.2171 25.337 48.8122 24.5484 48.4074Z" fill="white"/>
<path d="M15.8564 48.0044C15.0654 48.0044 14.5404 48.2068 14.8041 48.6117C14.8041 48.6117 15.0678 48.6117 15.3315 48.6117C15.3315 48.4093 15.8589 48.4093 16.1226 48.4093C16.9088 48.4074 16.645 48.0044 15.8564 48.0044Z" fill="white"/>
<path d="M21.6503 45.7796C21.3866 45.1724 21.1229 44.7694 20.8592 44.7694C20.5955 44.7694 20.8592 45.5772 21.6503 46.7918L22.4414 48.0044L21.6503 47.3972C20.8592 46.5893 19.8069 44.7694 19.0159 42.9495C18.7522 42.5446 18.4885 42.1398 18.2248 42.1398C17.9611 42.1398 17.9611 42.1398 19.0159 44.1621C20.3319 46.5875 21.6504 48.6098 22.1753 48.205C22.439 48.205 22.4389 48.205 22.7026 48.6098C22.9663 48.8122 23.23 49.0147 23.4937 49.0147C23.7574 49.0147 23.4938 48.6098 22.9664 48.0044C22.4415 47.3972 21.914 46.3869 21.6503 45.7796Z" fill="white"/>
</svg>
