<svg width="58" height="52" viewBox="0 0 58 52" fill="none" xmlns="http://www.w3.org/2000/svg">
<path d="M7.65689 27.4823C7.65689 27.4823 7.19695 27.7415 7.19695 28.0007C6.73693 28.2598 7.19687 28.519 7.65689 28.2598C7.65689 28.2598 8.11704 28.0007 8.11704 27.7415C8.57705 27.4823 8.1169 27.2232 7.65689 27.4823Z" fill="white"/>
<path d="M14.5486 26.7072C15.0086 26.9664 15.9286 26.7072 15.9286 26.1889C15.9286 26.1889 15.4686 26.1889 15.0085 26.1889C14.0885 26.1889 14.0886 26.4481 14.5486 26.7072Z" fill="white"/>
<path d="M19.1445 43.0153C20.9846 41.2036 21.9003 40.4261 20.5246 41.2036C19.1445 41.9811 16.8486 44.3087 16.8486 44.5679C16.8443 45.0862 16.8445 45.0862 19.1445 43.0153Z" fill="white"/>
<path d="M21.9002 28.2598C21.4402 29.0373 22.3604 29.0374 23.2804 28.519C23.7405 28.2599 23.7405 28.2598 23.2804 27.7415C22.3604 27.4823 22.3602 27.4823 21.9002 28.2598Z" fill="white"/>
<path d="M25.5761 21.7879C26.0361 21.7879 26.4962 21.7879 26.4962 21.7879C26.4962 21.2696 25.1161 21.0105 24.6604 21.0105C23.2804 21.0105 23.2804 22.0447 24.6604 22.563C25.5804 22.8222 26.4961 22.563 25.1203 22.0447C24.656 21.7879 24.6561 21.7879 25.5761 21.7879Z" fill="white"/>
<path d="M22.8203 24.118C23.2804 24.6363 23.7404 24.3772 23.7404 23.5997C23.2804 23.3405 23.2804 23.3405 22.8203 23.3405V24.118Z" fill="white"/>
<path d="M26.4962 24.118C26.4962 24.6364 26.4961 24.8955 26.9562 24.8955C26.9562 24.8955 27.4161 24.6363 27.4161 24.3772C27.4161 24.118 26.9562 23.8589 26.9562 23.8589C26.4961 23.8589 26.4962 23.8589 26.4962 24.118Z" fill="white"/>
<path d="M28.792 27.4823C27.872 27.7415 27.872 28.0006 28.792 28.0006C29.712 28.0006 30.1721 27.4823 29.7121 27.2231C29.7121 26.9664 29.252 27.2231 28.792 27.4823Z" fill="white"/>
<path d="M28.7918 28.7781C28.3318 28.7781 28.3318 29.0373 28.7918 29.2964C29.2519 29.8148 29.2518 29.8148 29.2518 29.2964C29.7118 28.7781 29.2519 28.5189 28.7918 28.7781Z" fill="white"/>
<path d="M10.4129 26.1889C9.49283 26.4481 9.49277 26.7072 9.49277 26.9664C9.49277 27.2256 10.8728 26.9664 10.8728 26.4481C11.3328 26.1889 10.8729 25.9297 10.4129 26.1889Z" fill="white"/>
<path d="M15.0087 27.4823C14.5487 27.7415 14.0886 28.0006 14.0886 28.2598C14.5486 28.519 14.5486 28.519 15.4686 28.0006C16.3886 27.2231 16.3887 26.9664 15.0087 27.4823Z" fill="white"/>
<path d="M15.9288 24.6363C15.0088 24.6363 15.0086 25.1546 15.4687 25.4138C15.9287 25.673 16.8488 25.4138 16.3887 25.1547C15.9287 24.8955 15.9288 24.8955 15.9288 24.6363Z" fill="white"/>
<path d="M18.6844 23.5997C17.7644 23.5997 17.7645 23.5997 17.7645 24.118C17.7645 24.3772 17.7645 24.6363 18.2245 24.3772H19.6045C20.0645 24.3772 19.6045 23.8588 18.6844 23.5997Z" fill="white"/>
<path d="M16.3886 19.717C15.9286 19.717 15.9285 20.4945 16.8485 20.7537C16.8485 21.0129 17.3087 21.0129 17.3087 21.0129C17.7644 21.0105 16.8443 19.717 16.3886 19.717Z" fill="white"/>
<path d="M22.3604 25.4114C22.3604 25.1523 22.3604 24.8931 22.3604 24.8931C21.9004 24.3748 21.4404 24.3748 20.9803 24.6339C20.9803 24.8931 20.9803 25.1523 20.9803 25.1523C21.4404 25.6706 22.8204 25.6706 22.3604 25.4114Z" fill="white"/>
<path d="M16.3887 22.5654C15.4687 22.5654 15.4686 22.5655 15.4686 23.0838C15.9286 23.3429 15.9287 23.343 16.3887 23.343C17.3044 23.3405 17.3044 22.8246 16.3887 22.5654Z" fill="white"/>
<path d="M30.172 24.8955H29.712C28.792 24.8955 28.7919 25.673 29.2519 25.9322C29.7119 26.1913 30.632 25.9322 30.172 25.673V24.8955Z" fill="white"/>
<path d="M53.6028 21.5288C53.1428 21.2696 52.6828 20.7513 52.2228 20.4921C51.7627 20.2329 49.9268 19.4555 48.5468 18.6804C45.791 17.6437 44.8711 17.387 41.1953 16.0911C39.8153 15.832 39.3595 15.3136 39.3595 15.0545C39.3595 14.7953 38.8995 14.5361 38.4395 14.277C37.5194 13.7586 37.0594 13.4995 37.0594 13.2427C37.0594 12.9836 36.5995 12.4652 36.5995 12.4652C36.1395 12.4652 36.1393 11.431 36.1393 10.3943C36.1393 8.58257 36.1393 8.06426 34.7593 7.28918C34.2993 6.77085 33.3792 6.25493 32.9235 6.25493C32.4635 5.99577 32.4636 5.73659 33.8436 4.18402C34.3036 3.14735 35.6793 2.11313 36.1393 1.59479C37.0594 0.817295 37.0594 0.560547 36.1393 0.560547C35.6793 0.560547 34.3036 1.59479 32.9235 3.40895L30.6278 6.25736H28.792C26.0362 6.25736 24.6563 6.51652 23.2805 8.06909C21.9005 9.3625 21.9004 11.1742 22.8204 12.2109C23.2804 12.7292 22.8204 12.9884 20.9846 13.2476C20.5246 13.2476 19.6046 13.5067 18.6889 13.7659C17.3088 14.2842 17.3089 14.5434 17.3089 15.5776C17.3089 16.6119 17.3087 16.871 16.8487 16.871C14.0929 16.871 9.49724 19.4603 6.28143 22.8246C4.44566 24.6363 3.98558 25.4138 3.52557 27.7439C3.06555 29.5556 2.60555 30.3332 2.14553 30.3332C1.68552 30.3332 1.22552 30.3331 0.765504 30.5923C-0.154527 31.1106 -0.614686 30.5923 3.52116 36.5459C5.81694 40.6877 8.57714 45.607 8.57714 46.6412C8.57714 47.1596 8.57706 47.4187 9.03708 47.1596C9.95711 47.1596 10.4172 47.4187 11.7929 48.1962C14.0887 49.4896 19.1446 50.7855 23.7405 51.3014C25.5762 51.5605 28.3363 51.5605 30.1721 51.5605C32.9279 51.3014 41.1996 50.008 43.9554 49.2305C44.8754 48.9713 45.7911 48.9713 46.2511 48.9713C46.7111 48.9713 47.6311 48.453 48.0869 48.1938C49.4669 47.4163 49.467 47.4163 49.927 47.9346C50.3871 48.453 50.8471 48.1938 51.3071 47.1571C51.7671 46.6388 52.6871 44.3087 53.6028 42.2378C55.8986 34.9909 56.3586 33.9542 56.8186 32.6608C57.7386 31.6266 57.7385 31.1082 57.2785 28.7782C57.2785 25.9297 55.4428 22.3063 53.6028 21.5288ZM25.5762 8.06909C26.9563 7.80993 26.9562 7.55076 26.0362 7.55076V7.2916C26.0362 7.03244 26.9564 7.03242 28.3321 7.03242C29.7122 7.03242 29.7121 7.03243 29.7121 7.55076C29.7121 8.06909 29.7121 8.06909 29.7121 8.06909C29.7121 7.80993 28.7921 7.80994 28.3321 7.80994C27.4121 7.80994 27.412 8.58743 28.792 9.10334C30.6278 10.14 33.3879 9.88083 33.3879 8.585C33.3879 8.06667 32.4679 8.06669 32.0078 8.32585C31.5478 8.58502 31.5479 8.32585 31.5479 7.80752C32.0079 7.03002 32.0079 7.03001 32.9279 7.28918C34.308 7.54835 35.2236 9.61923 33.8478 9.36007C33.8478 9.36007 33.388 9.8784 32.9279 10.3943V10.9127C32.9279 10.6535 32.4679 10.9127 32.0078 11.1718C31.5478 11.431 31.0878 11.6901 31.0878 11.6901C30.6277 11.6901 30.6278 11.6902 30.6278 11.9493C30.6278 12.2085 30.6277 12.2085 30.1677 12.2085C29.2476 11.9493 29.2477 12.2085 29.7077 12.7268C30.1677 12.986 30.6278 12.986 30.6278 12.986C31.0878 12.986 31.5479 12.986 31.5479 12.986C31.5479 13.2452 31.0878 13.2452 30.6278 13.5043C29.7078 13.5043 29.2478 13.5043 29.2478 12.986C28.3278 12.2085 27.412 12.2085 27.8678 12.986C27.8678 13.2452 27.8676 13.5043 27.4076 13.5043C26.0276 13.5043 24.1918 12.2109 24.1918 11.4334C23.7404 10.14 24.6562 8.32826 25.5762 8.06909ZM20.5203 14.0226C21.4403 13.7635 21.4403 13.7635 21.9003 14.0226C21.9003 14.2818 22.3604 14.2818 22.8204 14.0226C23.7404 13.7635 24.2004 13.7635 25.1161 14.0226C27.8719 14.8001 33.848 14.541 34.308 13.5043C34.768 12.986 35.228 12.986 35.688 13.7635C35.688 14.2818 36.148 14.541 37.068 14.7977C37.528 14.7977 37.988 15.0569 37.528 15.3161C37.068 15.5752 36.608 15.5752 36.1479 15.5752H35.688C34.768 15.8344 36.1481 16.8686 36.6081 16.8686C37.0681 16.8686 37.528 17.9053 37.068 18.162C37.068 18.162 35.688 18.162 34.7723 17.9029C32.0165 17.3845 31.5565 17.3845 31.5565 17.9029C31.5565 18.162 31.0964 18.6804 30.6364 18.9395C29.7164 19.717 29.2564 19.717 28.8007 18.9395C28.8007 18.6804 28.3406 18.4212 27.8806 18.4212C27.4205 18.4212 26.5005 17.9029 26.5005 17.3845C26.0405 16.8662 25.5805 16.8662 25.1205 16.8662C24.6605 17.1254 24.6606 16.8662 24.6606 16.607C24.6606 15.8295 23.7405 15.8296 23.2805 16.3479C23.2805 16.3479 23.2805 16.3479 23.2805 16.0887C22.8205 15.3112 22.3603 15.3112 21.9003 15.5704C21.4403 16.0887 22.3605 17.3821 23.2805 17.3821C23.7405 17.3821 24.2004 17.3821 24.2004 17.3821C24.2004 17.6413 21.9048 19.1939 21.4448 19.1939C20.5247 19.1939 20.5247 18.6755 21.4448 18.4163C22.3648 17.898 22.3647 17.1229 20.9846 16.6046C18.6845 15.8344 18.2245 14.541 20.5203 14.0226ZM25.5762 17.9053L25.1161 18.1645L24.6562 17.9053C24.6562 17.6461 24.6562 17.6461 24.6562 17.6461C25.1162 17.6461 25.5762 17.6461 25.5762 17.9053ZM2.14113 31.8833C1.68111 31.365 1.68117 31.365 3.06122 31.6241C3.98125 31.6241 4.44119 31.8833 3.52116 32.1425C3.06114 32.6608 2.60114 32.6608 2.14113 31.8833ZM3.98131 32.92C4.44132 32.4016 4.90132 32.4016 5.36134 32.92C5.36134 32.92 4.90126 33.4383 4.44125 33.6975C3.0612 34.2134 3.06128 33.9542 3.98131 32.92ZM3.98131 35.25C3.98131 34.9909 4.44131 34.4725 5.36134 33.9566C6.28137 33.4383 6.28143 33.1791 6.28143 33.6975C6.28143 33.9566 5.82135 34.475 5.36134 34.9909C4.44131 35.5068 4.44132 35.5068 3.98131 35.25ZM5.36134 36.5435C5.36134 36.2843 5.36126 35.7659 5.82128 35.5068C6.74131 34.7293 6.74129 34.7293 7.20131 35.2476C7.20131 35.5068 6.74144 36.0251 6.28143 36.541C5.3614 37.3209 5.36134 37.321 5.36134 36.5435ZM5.81708 38.3552C5.81708 38.096 5.817 37.5777 6.27702 37.3185C6.73704 36.8002 7.19711 36.8002 7.19711 36.8002C7.65713 37.3209 6.27709 38.6144 5.81708 38.3552ZM6.73696 40.1669C6.27694 40.1669 6.27708 39.1303 7.19711 38.3552L8.1172 37.8369V38.3552C8.1172 38.8735 8.11707 39.3918 7.65705 39.6486C7.65705 39.9078 7.19697 40.1669 6.73696 40.1669ZM7.65705 41.2036C7.65705 40.9444 7.65718 40.4261 8.1172 40.4261C8.57722 40.1669 8.57706 40.1669 9.03708 40.4261C9.03708 40.6852 9.03716 41.2036 8.57714 41.4603C8.11712 41.7171 8.11707 41.7195 7.65705 41.2036ZM9.03708 43.7904C9.03708 43.5312 8.57714 43.0129 8.57714 42.7537C8.57714 42.4946 8.57714 42.4946 8.57714 42.4946C9.03716 42.4946 9.49723 42.7537 9.49723 43.2721C9.95295 44.3087 9.4928 44.8271 9.03708 43.7904ZM13.6287 47.6755C12.2487 47.1571 12.2487 46.6412 12.2487 46.3821C12.2487 45.8637 12.2486 45.6046 11.7885 45.3454C11.3285 45.0862 10.8687 44.8271 10.8687 44.5679C10.8687 43.7904 10.4086 40.1669 9.94856 39.3894C9.94856 39.1303 9.48849 38.096 9.02847 37.3185C8.10844 34.4701 8.10844 33.1767 9.02847 32.3992C10.4085 31.6217 10.4085 31.6217 10.8642 32.14C10.8642 32.3992 11.7843 32.9175 12.7 33.4334C13.62 34.2109 13.62 34.4677 14.08 38.0936C14.08 40.1645 14.5402 43.2697 14.5402 45.0838C15.0002 46.8956 15.0001 48.4481 15.0001 48.4481C15.0001 48.4481 14.0887 48.1914 13.6287 47.6755ZM15.9288 42.497C15.9288 41.9787 17.3089 39.9077 17.7646 39.9077C18.2246 39.6486 18.6846 39.1303 19.6004 38.8711C20.0604 38.3528 20.5204 37.8368 20.9804 37.5777C20.9804 37.5777 21.4404 37.3185 20.9804 37.3185C20.5204 37.0593 18.2246 38.3552 16.8445 39.9077L15.9244 40.9444V40.1669C15.4644 39.1303 16.3844 38.3552 19.1402 36.8026C19.6002 36.2843 20.0603 35.7684 20.0603 35.5092C20.0603 35.25 18.2246 36.5459 16.3846 37.8393C14.5445 39.3918 15.4644 37.8393 17.3045 36.0275C20.5203 33.1791 21.4403 33.4383 21.4403 37.0618C21.4403 38.6143 21.4403 38.8735 19.6046 40.1693C18.6845 40.9468 17.3089 41.9811 17.3089 42.2402C16.3888 43.0153 15.9288 43.0153 15.9288 42.497ZM15.9288 35.5068C16.3889 35.5068 16.8487 35.2476 16.8487 34.9884C17.7687 34.2109 20.0645 32.6584 20.0645 33.1767C20.0645 33.1767 19.1445 33.6951 18.6845 34.2134C17.7645 34.7317 16.8445 35.5068 16.3888 36.0251L15.4687 36.8026V36.0251C15.4687 35.5068 15.4688 35.5068 15.9288 35.5068ZM15.4687 34.2134C15.4687 34.2134 15.4688 33.695 15.9288 33.4359C16.3889 33.1767 16.8489 32.6584 17.3089 32.3992C17.7689 31.6217 18.6889 31.6217 18.6889 32.3992C19.1489 32.6584 18.689 32.9175 18.229 32.9175C17.7689 33.1767 16.8487 33.4359 16.8487 33.695C16.3887 33.9542 15.9287 34.2134 15.4687 34.2134ZM17.3045 49.2281C16.8444 49.2281 16.3846 48.9689 16.3846 48.9689C16.3846 48.7097 16.3846 48.7097 16.3846 48.7097C16.8446 48.7097 17.3045 48.7097 17.3045 48.9689V49.2281ZM16.3888 47.4163V45.3454C16.3888 43.7928 16.3888 43.7928 19.1446 41.7219C21.4404 39.3919 21.9003 39.3918 21.9003 40.4285V41.7219C21.9003 41.9811 21.9004 42.4994 21.4403 42.4994C20.9803 42.4994 20.0603 43.0177 19.6046 43.7928C18.6845 44.3111 18.2245 44.8295 18.2245 45.0862C17.7645 45.0862 16.3888 46.898 16.8445 46.898C16.8445 47.1571 18.6846 45.6046 19.6004 44.5679C20.0604 44.0496 20.5204 43.5312 21.4362 43.2745L21.8961 42.497V43.0153C21.8961 43.5337 21.436 44.0496 20.976 44.5679C20.516 45.0862 19.596 45.8613 19.136 46.3796C18.2246 47.4163 17.3045 47.6755 16.3888 47.4163ZM20.9804 45.6046C21.9004 44.3111 22.3603 44.3112 21.9003 44.8271C21.9003 44.8271 21.9004 45.3454 20.9804 45.8613L20.0603 46.3796L20.9804 45.6046ZM21.4403 50.0031C20.9803 50.0031 20.9804 49.7439 20.9804 49.4848C21.4404 49.4848 22.3604 49.4848 22.3604 49.744C22.3604 49.7464 21.9004 50.0031 21.4403 50.0031ZM21.4403 47.6755C20.5203 47.6755 20.5204 47.6755 20.9804 46.898C21.9004 46.1205 22.3604 46.1205 22.3604 46.898C22.3604 47.4163 21.9004 47.6755 21.4403 47.6755ZM26.9563 48.1914C26.9563 48.1914 26.4963 48.4505 26.9563 48.9689C26.9563 49.7464 26.9562 49.7464 26.0362 48.7097C26.0362 48.1914 25.5761 48.1914 25.1161 48.1914C25.1161 48.4505 25.1162 48.7097 25.5762 49.2281C26.0363 49.7464 26.0362 50.2623 26.0362 50.2623C25.1162 50.2623 24.6562 49.2281 24.6562 48.7097C24.6562 48.4506 24.1962 48.1914 24.1962 47.9322C23.7362 47.9322 23.2761 45.0838 23.2761 40.6853C23.2761 36.8026 22.8162 33.4383 22.8162 33.1791C22.8162 33.1791 22.8161 32.6608 23.2761 31.8857L24.1962 30.8491L25.1161 31.8857C25.5761 32.6632 26.4963 33.4383 26.4963 33.9566C27.4164 34.9909 27.4163 48.1914 26.9563 48.1914ZM30.632 49.2281C30.632 48.9689 30.6322 48.9689 31.0922 48.9689H31.5521C31.5521 49.228 31.0922 49.4872 31.0922 49.4872C30.6322 49.4872 30.632 49.4872 30.632 49.2281ZM31.0922 50.5215V50.2623C31.0922 50.0031 31.5521 50.0031 31.5521 50.0031C31.5521 50.0031 32.012 50.0031 32.012 50.2623C32.0077 50.2623 31.5479 50.5215 31.0922 50.5215ZM32.0078 48.1914C32.0078 47.9322 32.0078 47.673 32.4678 47.673C32.4678 47.673 32.9279 47.673 32.9279 47.9322C32.9279 48.1914 32.4678 48.4505 32.4678 48.4505C32.0078 48.4505 32.0078 48.4505 32.0078 48.1914ZM32.4678 49.2281C32.4678 48.9689 32.9279 48.9689 32.9279 48.9689C32.9279 48.9689 33.3879 48.9689 33.3879 49.2281C33.3879 49.2281 32.9278 49.4872 32.4678 49.4872V49.2281ZM33.8478 50.2623C33.3878 50.2623 33.3879 50.0031 33.3879 50.0031C33.3879 49.7439 33.3878 49.744 33.8478 49.744C33.8478 49.744 34.308 49.7439 34.308 50.0031L33.8478 50.2623ZM33.3879 45.8613C32.9279 46.1205 32.0078 46.6388 32.0078 46.898C32.0078 47.1571 31.5479 47.4163 31.5479 47.1571C31.0879 46.6388 30.6278 46.6388 30.6278 47.4163C30.6278 47.6755 30.1677 48.1938 30.1677 48.1938C28.7876 48.1938 29.7078 47.1571 32.0078 45.8637C33.3879 44.8295 34.7637 44.5703 34.7637 44.8295C34.768 45.0862 33.8479 45.3454 33.3879 45.8613ZM32.0078 45.0862C29.7121 46.3796 29.252 46.6388 29.252 46.1229C29.252 45.8637 30.1721 45.0862 32.0078 44.052C33.8436 43.0178 34.7637 42.7586 34.7637 43.0178C34.768 43.2745 33.3879 44.3087 32.0078 45.0862ZM29.252 44.0496C29.252 43.5312 29.7121 43.0153 31.5479 41.7195C34.3037 40.1669 34.3036 40.1669 34.3036 40.942C34.3036 41.4603 33.8436 41.9786 32.9235 42.7537L30.1677 44.3063C29.2519 44.8271 29.252 44.8271 29.252 44.0496ZM34.308 39.9077C33.848 39.9077 32.4678 40.4261 31.5521 41.2012C30.1721 41.9787 28.7962 42.7537 28.7962 42.7537C28.7962 42.7537 28.7962 42.4946 28.7962 42.2354C28.7962 41.7171 33.8522 38.8711 34.7679 38.8711C34.7679 38.8711 35.2278 38.8711 35.2278 39.3894C35.2235 39.6486 34.768 39.9077 34.308 39.9077ZM28.792 40.6853C28.792 40.4261 30.1721 39.6486 32.0078 38.6143C34.7636 36.8026 34.7637 36.5434 34.7637 37.3209C34.7637 37.5801 33.8437 38.3576 31.5479 39.3919C30.1722 40.1669 28.792 40.6853 28.792 40.6853ZM35.2236 35.5068C35.2236 35.7659 33.8437 36.5434 31.5479 37.8369L28.3321 39.6486L28.792 38.6143C28.792 37.5777 30.172 36.8026 33.8478 35.25L35.2278 34.7317V35.5068H35.2236ZM31.0922 33.695C32.9279 32.6584 33.8479 32.6584 32.4722 33.4359C32.4722 33.695 31.5522 34.2134 30.6364 34.7293C28.332 35.766 28.7921 34.9909 31.0922 33.695ZM30.1721 33.1791C30.1721 32.6608 32.0121 31.6265 32.4678 31.8857C32.4678 32.1449 32.4679 32.4041 32.0078 32.6632C30.6321 33.1791 30.1721 33.4359 30.1721 33.1791ZM34.308 33.695C34.308 33.9542 34.3078 34.4725 33.8478 34.7317C32.4678 35.25 29.252 36.8026 29.252 36.5435C29.252 36.2843 30.1722 35.7659 31.5479 34.9909C32.928 33.9542 34.308 33.695 34.308 33.695ZM35.6836 47.1571C35.6836 46.1205 35.6837 46.1205 36.1437 47.4163C36.6038 48.1938 37.0636 48.7097 37.0636 48.9689C36.1436 49.4872 35.2236 48.4505 35.6836 47.1571ZM39.8195 47.6755C39.3595 47.6755 39.3595 47.1571 39.3595 46.898C39.3595 46.6388 38.8994 45.8613 38.8994 45.6046C37.9794 44.8271 37.0593 44.8271 37.5194 45.6046C37.5194 45.8637 37.9794 46.6412 38.4395 47.1571C38.8995 47.9346 38.8995 48.4505 38.4395 48.4505C37.9794 48.7097 37.5194 47.9322 37.0594 46.1205C36.5994 45.343 36.1394 44.8271 35.6794 44.8271C35.2194 45.0862 35.2193 44.0496 36.1393 38.6143C37.0594 33.695 37.0595 33.4359 38.4353 32.1425L39.8153 30.8491L41.1953 32.4016C42.1153 33.4383 42.1152 33.9542 42.1152 34.7317C42.1152 35.25 41.6553 35.7684 41.1953 36.0251C40.7353 36.2843 40.7352 37.0594 41.6553 36.8026C42.1153 36.5434 42.1152 37.0618 40.7352 41.7219C40.7352 43.0153 40.2753 44.052 39.8153 44.052C39.8153 44.052 39.8153 45.0862 39.8153 45.8637C40.2796 47.1571 39.8195 47.6755 39.8195 47.6755ZM46.7112 32.6608C48.547 31.3674 49.0069 31.3674 49.4669 31.6266C49.4669 31.8857 49.4669 32.1449 48.0869 32.6608C47.6268 33.1791 46.7068 33.4383 46.2511 33.6975C43.0353 35.25 43.4952 35.25 43.4952 34.7341C43.4952 34.2182 43.4952 34.2158 43.4952 34.2158C43.9552 34.2134 45.3355 33.4359 46.7112 32.6608ZM44.4153 32.92L45.3354 32.1425C46.2554 31.365 47.6313 30.5899 48.0913 30.8491C48.0913 30.8491 47.6312 31.3674 46.2555 31.8857L44.4153 32.92ZM46.2511 34.4725C47.6311 33.695 49.0069 33.1791 49.4669 33.1791C50.3869 33.1791 49.927 33.6974 49.007 34.2158C48.5469 34.2158 46.7112 34.9933 45.7911 35.5092C42.1196 37.3209 42.5753 36.2843 46.2511 34.4725ZM46.2511 36.0251C48.0869 35.2476 49.4669 34.4725 49.4669 34.4725C49.9269 34.4725 49.927 34.7317 49.927 35.25C49.467 35.7684 49.467 36.2867 49.007 36.2867C49.007 36.2867 47.1712 36.805 45.7911 37.8393C42.5753 39.3918 42.5753 39.3918 43.0353 38.6168C43.0353 38.096 44.4153 37.0618 46.2511 36.0251ZM43.9554 39.6486C44.8754 39.1303 46.2512 38.3552 46.7112 37.8369C48.547 36.5434 49.4669 36.5434 49.4669 37.3185C49.4669 37.5777 49.0068 38.096 48.5468 38.096C48.0868 38.096 43.951 40.4261 43.0353 41.2012V41.9787C43.4953 42.2378 43.4952 42.7562 43.4952 43.0153C43.0352 43.5337 42.5752 43.5337 42.1152 43.0153C42.1152 43.0153 42.1152 42.2378 42.1152 41.7219C42.5752 40.9444 43.0353 40.4261 43.9554 39.6486ZM45.3354 41.4627C45.3354 41.7219 44.8755 41.9811 44.8755 41.9811C44.4155 41.9811 44.4153 41.7219 44.4153 41.7219C44.4153 41.4628 44.4155 41.2036 44.8755 41.2036C44.8755 41.2036 45.3354 41.2036 45.3354 41.4627ZM41.6597 45.8613C41.6597 45.343 41.6597 45.0838 41.6597 45.0838C42.5797 45.0838 43.0396 45.6021 42.5795 46.1205C42.1195 46.898 41.6597 46.6388 41.6597 45.8613ZM43.0353 47.1571C42.5753 47.4163 42.5753 47.4163 42.5753 47.4163C42.5753 46.898 43.0352 46.6388 43.4952 46.898C43.4952 46.898 43.4953 47.1571 43.0353 47.1571ZM43.0353 44.8271C43.0353 44.5679 43.0352 44.0496 43.4952 43.7904C43.9552 43.2721 43.9553 43.5312 44.4153 44.0496C44.4153 44.3087 44.4154 44.5679 43.9554 44.8271C43.4954 45.0862 43.4953 45.0862 43.0353 44.8271ZM44.8755 45.8613C43.9554 46.3796 43.4953 46.3796 44.4153 45.8613C44.4153 45.343 44.8754 45.343 45.3354 45.343C45.7954 45.3454 45.7955 45.6046 44.8755 45.8613ZM45.3354 43.7904C44.8754 43.5312 44.8754 42.497 45.3354 42.497C45.7954 42.497 45.7955 42.497 46.2555 42.7561C46.2512 43.5336 45.7954 44.0496 45.3354 43.7904ZM46.7112 44.5679C46.2512 44.5679 46.2511 44.5679 46.2511 44.5679C46.2511 44.3087 46.2512 44.0496 46.7112 44.0496H47.1712C47.1712 44.3087 46.7112 44.5679 46.7112 44.5679ZM46.7112 41.9787C46.2512 41.4603 46.7112 41.2012 47.1712 41.7195C47.6312 42.2378 47.6311 42.497 47.6311 42.497C47.1711 42.497 46.7112 42.497 46.7112 41.9787ZM48.5512 39.1327C48.0912 39.3918 48.0913 39.651 48.0913 40.4261C48.5513 41.4603 48.0911 41.7195 47.6311 40.9444C47.1711 40.1669 46.7111 40.1669 46.2511 40.6853C46.2511 40.6853 46.2511 40.6852 46.2511 40.4261C45.7911 39.9077 48.5469 38.3552 49.007 38.6143C49.0112 38.6143 49.0112 38.8735 48.5512 39.1327ZM49.927 43.7904C49.927 44.0496 49.0069 43.5312 49.4669 43.0129C49.4669 42.4946 49.467 42.4946 49.927 43.0129V43.7904ZM50.387 41.9787C50.387 41.9787 49.927 41.9787 49.927 41.7195C49.467 40.942 49.4669 40.942 50.387 41.4603C50.387 41.7195 50.387 41.9787 50.387 41.9787ZM51.3071 41.2036C50.8471 40.9444 50.387 40.1693 50.387 39.651L49.927 38.6168L51.3071 39.651C51.7671 40.1693 51.767 40.9444 51.767 41.2036C51.767 41.7195 51.7671 41.7195 51.3071 41.2036ZM54.5229 31.6241C54.5229 32.1425 54.0627 32.6584 54.0627 33.1767C54.0627 33.695 53.6029 33.9542 53.1428 33.9542C53.1428 33.9542 53.1428 34.2134 53.1428 34.4725C53.1428 34.9909 52.6828 35.5092 52.2228 35.5092C52.2228 35.5092 52.2228 35.5092 52.2228 35.7684C52.2228 36.0275 51.7628 36.2867 51.7628 36.5459C51.3028 36.805 51.3028 37.0642 51.7628 38.0984C53.1429 39.9102 52.6827 39.9102 51.3027 38.3576C50.3826 37.3209 50.3826 36.805 51.3027 34.9933C51.3027 34.7341 51.3028 34.2158 51.7628 33.6999C52.2228 32.6632 54.0586 30.8515 54.9786 30.8515C54.9829 30.8491 54.9829 31.1082 54.5229 31.6241ZM54.5229 28.7782C54.5229 28.7782 54.0628 29.0373 53.6028 29.8148C52.6828 30.3332 52.2227 31.1082 51.767 31.1082C50.847 31.3674 49.0113 30.3307 49.4713 29.8148C49.4713 29.5557 49.4712 29.5556 49.0111 29.5556C48.5511 29.5556 48.0913 29.2965 48.0913 29.0373C47.6313 28.2598 46.2555 28.7781 44.8755 30.5899L43.0397 32.4016L42.1196 31.1082C40.2838 29.5556 38.9037 29.2965 38.4436 30.5899C37.9836 31.1082 37.0638 31.6266 36.6081 32.1425C34.768 32.92 34.768 32.92 33.8522 31.1058C33.3922 30.5875 32.9321 30.0691 32.9321 30.0691C32.4721 30.0691 31.552 30.5875 30.1763 31.3626C29.2562 32.3968 28.3405 32.9151 28.3405 32.9151C27.8805 32.9151 27.4207 32.3968 26.5049 31.3626C24.6692 29.0325 23.2889 29.0325 21.9089 31.3626C21.9089 31.8809 21.449 32.3968 20.989 32.3968C20.529 32.3968 18.6931 30.5851 19.1488 30.0667C19.6089 29.8076 19.1489 29.5484 18.6889 29.8075C17.7689 29.8075 17.3087 30.0667 16.8487 30.8418C15.9287 32.1352 14.5529 32.9127 13.6329 32.6535C12.7129 32.3944 10.4172 30.0643 10.8773 29.5484C11.3373 29.0325 10.8771 28.7709 10.4171 29.0301C10.4171 29.0301 9.95717 29.2892 9.95717 29.5484C9.95717 29.8076 9.49723 30.0667 9.49723 30.3259C9.03721 30.3259 9.03716 30.8442 8.57714 31.1034C8.57714 31.3625 8.11707 31.6217 7.65705 31.8809C7.19703 32.1401 6.73704 32.14 6.27702 31.6217C4.44126 30.3283 4.4412 29.0325 5.35693 26.1865C6.73698 23.0814 11.7887 18.9395 15.4645 17.9029C17.3003 17.1254 21.436 17.3845 19.1402 18.162C18.6802 18.4212 19.1403 19.7146 20.0603 19.9738C20.9804 20.2329 22.3561 20.2329 23.2761 19.4554C24.6562 18.6779 26.492 18.9371 27.412 19.9738C28.332 20.7513 30.1679 20.7513 31.5479 19.7146C32.4679 18.6804 33.8436 18.6804 35.2236 19.1963C36.1437 19.7146 37.5195 19.7146 37.9795 19.1963C38.4395 19.1963 38.8994 18.4188 38.8994 17.9029C38.8994 17.1254 38.8995 16.8662 39.3595 16.8662C40.2796 16.8662 47.1711 19.4554 49.4669 20.4897C52.6827 22.0423 54.5228 24.1132 55.4386 26.9616C55.9029 28.519 55.9029 29.0373 54.5229 28.7782Z" fill="white"/>
<path d="M49.927 26.7072C49.927 26.9664 49.4669 26.9664 49.0069 26.9664C48.5469 26.9664 48.5467 26.9664 48.5467 27.2255C48.5467 27.4847 48.5469 27.7439 49.0069 27.7439C49.9269 27.7439 50.8426 27.4847 50.3869 26.7072C50.3869 26.1889 50.387 26.1889 49.927 26.7072Z" fill="white"/>
<path d="M50.8469 23.8589C50.8469 23.8589 50.8469 23.8588 50.8469 24.3772C50.8469 24.6363 50.847 24.8955 51.307 24.8955C51.7671 24.8955 51.767 24.6363 51.767 24.3772C51.307 23.8588 50.8469 23.8589 50.8469 23.8589Z" fill="white"/>
<path d="M45.7952 25.4114C45.7952 25.4114 45.7952 25.6706 45.7952 25.9298C46.2552 26.4481 47.1754 26.4481 47.6354 25.9298C47.6311 25.6706 46.2509 25.1523 45.7952 25.4114Z" fill="white"/>
<path d="M32.4677 16.8686C32.9277 16.8686 33.3878 16.8686 33.3878 16.8686C33.3878 16.8686 33.8479 16.8686 34.3079 16.6095C35.2279 16.0911 34.7679 15.832 32.9279 15.832C31.5478 16.0936 31.5477 16.6119 32.4677 16.8686Z" fill="white"/>
<path d="M27.8718 17.6461C28.3318 17.6461 28.7918 17.6461 29.2519 17.387C29.2519 17.387 29.7119 17.387 30.172 17.387C30.632 17.387 31.092 17.387 31.092 17.387C31.092 17.1278 30.172 17.1278 29.712 17.1278C28.792 17.1278 27.8761 16.8686 27.4161 16.8686C26.4961 16.8686 26.4962 16.8686 26.4962 17.1278C26.4962 17.387 27.4161 17.6461 27.8718 17.6461Z" fill="white"/>
<path d="M47.171 22.8246C47.171 22.3063 46.7109 22.3063 46.2509 22.3063C45.3309 22.3063 45.3309 22.3063 45.791 22.8246C46.251 23.3405 47.171 23.3405 47.171 22.8246Z" fill="white"/>
<path d="M41.1995 20.2353C40.2794 19.9762 40.2794 19.9762 40.2794 20.2353C40.2794 20.4945 40.2794 20.7537 41.1995 20.7537C41.6595 20.7537 42.1195 20.4945 42.1195 20.4945C42.1195 20.4945 41.6595 20.2353 41.1995 20.2353Z" fill="white"/>
<path d="M34.7677 26.9664C34.7677 27.2256 35.2278 27.4847 35.6878 27.2256C36.1478 26.9664 36.1478 26.7072 35.6878 26.4481C34.7678 26.1889 34.3077 26.4481 34.7677 26.9664Z" fill="white"/>
<path d="M46.251 21.5288C46.7111 21.5288 46.7112 21.2696 46.7112 21.0105C46.7112 20.4921 45.7911 20.4921 45.7911 21.0105C45.7954 21.2696 45.7953 21.5288 46.251 21.5288Z" fill="white"/>
<path d="M37.0636 26.7072C37.0636 26.7072 37.0636 26.9664 37.0636 27.2256C37.5236 27.4847 37.5237 27.4847 37.5237 27.2256C37.9837 26.7072 37.5236 26.4481 37.0636 26.7072Z" fill="white"/>
<path d="M32.4678 23.3405C32.0078 23.3405 32.0079 24.118 32.9279 24.3771C33.848 24.6363 34.308 24.6363 34.308 24.3771C34.308 24.118 32.9278 23.3405 32.4678 23.3405Z" fill="white"/>
<path d="M35.2236 21.788C35.2236 21.5288 34.7637 21.2696 34.7637 21.2696C34.3037 21.2696 34.3035 21.2696 34.3035 21.5288C34.3035 22.0471 34.3037 22.3063 34.7637 22.3063C34.768 22.3063 35.2236 22.0471 35.2236 21.788Z" fill="white"/>
<path d="M39.3595 22.0471C39.8195 22.0471 39.3595 21.7879 39.3595 21.5288C38.8995 21.2696 38.8993 21.5287 38.8993 21.7879C38.8993 21.7879 38.8993 22.0471 38.8993 22.3062C39.3594 22.3062 39.3595 22.3062 39.3595 22.0471Z" fill="white"/>
<path d="M39.8194 24.6363C39.8194 24.6363 39.3593 24.6363 38.8993 24.6363C38.4393 24.6363 38.4393 24.6363 38.4393 24.3771C38.4393 24.3771 37.9794 24.118 37.9794 24.3771C37.9794 24.3771 37.9793 24.8955 38.4393 25.1547C39.3594 25.9322 40.2751 25.9321 39.8194 25.4138V24.6363Z" fill="white"/>
<path d="M43.9552 23.5997C43.9552 23.5997 44.4153 23.8589 44.8753 23.8589C45.3353 23.8589 45.3353 23.0814 44.8753 22.8246C43.9553 22.5655 43.4952 23.0814 43.9552 23.5997Z" fill="white"/>
<path d="M42.5753 21.2696C42.5753 21.2696 42.5753 21.5288 42.5753 21.7879C43.0353 22.0471 43.0352 22.0471 43.0352 21.7879C43.4953 21.2696 43.0353 21.0104 42.5753 21.2696Z" fill="white"/>
<path d="M41.6595 24.118C42.1195 24.3772 43.0395 24.118 43.0395 23.5997C43.0395 23.5997 42.5795 23.5997 42.1194 23.5997C41.1994 23.5997 41.1995 23.8588 41.6595 24.118Z" fill="white"/>
<path d="M50.8469 42.497C50.8469 42.497 50.8469 42.497 50.8469 42.7562C50.8469 43.0153 50.8469 43.2745 50.8469 43.0154C50.8469 43.0154 50.8469 42.7562 50.8469 42.497Z" fill="white"/>
</svg>
