<svg width="78" height="52" viewBox="0 0 78 52" fill="none" xmlns="http://www.w3.org/2000/svg">
<path d="M59.6539 36.0782C59.2983 35.8126 59.2982 35.8126 58.9426 35.8126C58.9426 36.0783 58.9426 36.3439 58.9426 36.3439C59.2982 36.8751 60.0096 36.6095 59.6539 36.0782Z" fill="white"/>
<path d="M55.7449 37.6694C55.7449 37.6694 55.7449 37.935 55.7449 38.2007C56.1005 38.2007 56.1007 38.2007 56.1007 37.935C56.4563 37.935 56.1007 37.6694 56.1007 37.4038C55.745 37.1382 55.7449 37.4038 55.7449 37.6694Z" fill="white"/>
<path d="M56.1006 35.8126C56.1006 35.547 55.7449 35.547 55.3892 35.547C54.6779 35.547 54.678 35.8126 55.0336 36.0783C55.3893 36.3439 56.1006 36.3439 56.1006 35.8126Z" fill="white"/>
<path d="M63.5597 36.6095C63.5597 36.3439 63.2039 36.0782 63.2039 36.0782C62.8483 36.0782 62.8483 36.0783 62.8483 36.3439C62.8483 36.8751 62.8483 37.1407 63.2039 37.1407C63.2073 37.1382 63.5597 36.8751 63.5597 36.6095Z" fill="white"/>
<path d="M34.4314 48.2814C34.4314 48.2814 34.0758 48.547 34.0758 48.8126C34.0758 49.0783 34.0759 49.3439 33.7202 49.3439C33.3645 49.3439 33.3644 49.3439 33.3644 49.6095C33.3644 49.8751 34.0758 49.8751 34.7838 49.3439C35.4951 48.8126 35.4951 48.2814 34.4314 48.2814Z" fill="white"/>
<path d="M40.4712 48.2814C40.4712 48.2814 39.7599 48.547 39.4043 48.547C39.0486 48.547 39.0485 48.8126 39.0485 49.0782C39.0485 49.6095 39.4042 49.6095 39.7599 49.0782C39.7599 48.8126 40.1156 48.8126 40.4712 48.8126C40.8269 49.0783 41.1825 48.8126 41.1825 48.547C41.1791 48.2814 40.8236 48.2814 40.4712 48.2814Z" fill="white"/>
<path d="M41.8907 48.547C41.535 48.547 41.1793 48.547 41.8907 48.8126C41.8907 49.0783 42.2463 49.3439 42.2463 49.3439C42.2463 49.3439 42.6019 49.0783 42.6019 48.8126C42.6019 48.547 42.2463 48.547 41.8907 48.547Z" fill="white"/>
<path d="M44.0212 47.2215C43.6655 47.2215 43.6656 47.4871 43.6656 47.7527C43.6656 48.0183 43.6655 48.2839 44.0212 48.2839C44.0212 48.2839 44.3769 48.0183 44.3769 47.4871C44.3769 47.2215 44.0212 47.2215 44.0212 47.2215Z" fill="white"/>
<path d="M36.2065 49.6095C35.8508 49.8751 36.2064 50.1407 36.5621 50.1407C36.9177 50.1407 37.2735 49.8751 36.9178 49.6095C36.9178 49.0782 36.2065 49.0782 36.2065 49.6095Z" fill="white"/>
<path d="M36.5621 48.2814C36.9178 48.2814 36.9179 48.0158 36.9179 47.7502C36.9179 47.219 36.5622 47.219 36.2065 47.219C36.2065 47.219 36.2065 47.219 36.2065 47.7502C36.2065 48.0158 36.2065 48.2814 36.5621 48.2814Z" fill="white"/>
<path d="M53.9699 38.9975C53.6143 39.2631 53.6143 39.5287 53.6143 39.5287C53.6143 39.7943 53.9699 39.5287 54.3255 39.2631C54.3255 38.7319 54.3256 38.7319 53.9699 38.9975Z" fill="white"/>
<path d="M46.5075 45.8934C46.1518 45.8934 46.1519 45.8934 46.1519 46.159C46.1519 46.4246 45.7962 46.4246 45.4405 46.4246C45.0849 46.159 45.0849 46.4246 45.0849 46.6902C45.0849 47.2215 45.0849 47.2215 46.1519 46.6902C47.2189 46.159 47.2188 45.8934 46.5075 45.8934Z" fill="white"/>
<path d="M28.0361 11.935C28.7475 11.935 29.4555 11.935 29.1031 11.4038C29.1031 11.4038 28.7475 11.1382 28.0361 11.1382C26.9691 11.1407 26.6168 11.6694 28.0361 11.935Z" fill="white"/>
<path d="M22.7078 12.2006C22.3522 12.2006 22.352 12.7319 22.352 13.2631C22.7077 13.5287 23.419 13.2631 23.419 12.9975C24.127 12.2006 23.4192 11.935 22.7078 12.2006Z" fill="white"/>
<path d="M25.5498 12.2006C25.9055 12.2006 26.2612 11.935 26.2612 11.6694C26.2612 11.1382 25.1942 11.1382 25.1942 11.6694C25.1942 11.935 25.1941 12.2006 25.5498 12.2006Z" fill="white"/>
<path d="M64.6267 35.0158C64.6267 35.0158 64.9824 35.2814 65.3381 35.2814C65.6938 35.2814 65.6938 34.7502 65.3381 34.4846C64.9824 34.2215 64.2711 34.4871 64.6267 35.0158Z" fill="white"/>
<path d="M65.3381 37.935C65.3381 38.2007 65.338 38.4663 66.0493 38.7319C66.405 38.7319 66.7607 39.2631 66.7607 39.2631C66.7607 39.7943 67.472 39.5287 67.472 39.2631C67.472 38.9975 67.4719 38.9975 67.1163 38.9975C66.7606 38.9975 66.405 38.4663 66.0493 38.2007C65.6936 37.4038 65.3381 37.4038 65.3381 37.935Z" fill="white"/>
<path d="M18.7987 14.8543C18.4431 14.8543 18.4431 14.8543 18.4431 15.1199C18.4431 15.6511 18.7987 15.6511 19.1543 15.1199C19.1543 14.8543 19.5101 14.3231 19.5101 14.3231C19.5101 14.0574 19.5101 14.0574 19.5101 14.0574C19.1544 14.0574 19.1543 14.0574 19.1543 14.3231C19.1543 14.5887 18.7987 14.8543 18.7987 14.8543Z" fill="white"/>
<path d="M19.1543 12.4663C19.1543 12.4663 18.7988 12.4663 18.4431 12.4663C17.7318 12.4663 17.7317 12.7319 18.0873 12.9975C18.443 13.2631 19.1543 12.9975 19.1543 12.4663Z" fill="white"/>
<path d="M20.9327 14.0574C21.2884 14.0574 21.9997 12.9975 21.6441 12.4663C21.2884 12.2006 20.5771 12.4663 20.5771 13.2631C20.5771 13.5287 20.577 14.0574 20.9327 14.0574Z" fill="white"/>
<path d="M23.419 10.0782C23.419 9.81264 23.0634 9.81263 23.0634 9.81263C22.3521 9.81263 21.9963 10.0782 22.352 10.3439C22.7077 10.6095 23.419 10.6095 23.419 10.0782Z" fill="white"/>
<path d="M20.2214 11.6694C20.577 11.6694 20.577 11.1382 20.2214 10.8726C19.8657 10.607 19.1545 10.8726 19.5102 11.4038C19.5102 11.4063 19.8657 11.6694 20.2214 11.6694Z" fill="white"/>
<path d="M69.2437 36.6095C68.5324 36.6095 68.5323 36.6095 68.5323 36.8751C68.5323 37.1407 68.5323 37.4063 68.5323 37.4063C68.888 37.4063 69.2436 37.1407 69.5993 36.8751C69.955 36.6095 69.5994 36.6095 69.2437 36.6095Z" fill="white"/>
<path d="M70.3108 34.4871L70.6664 34.7527C71.3777 34.7527 71.7334 33.9559 71.3778 33.6927C71.0221 33.4246 69.9551 34.2215 70.3108 34.4871Z" fill="white"/>
<path d="M72.0857 32.0991C71.73 32.0991 71.0187 32.6303 71.3743 32.8959C71.73 33.1615 72.0856 33.1615 72.4413 32.6303C72.4413 32.0991 72.4414 32.0991 72.0857 32.0991Z" fill="white"/>
<path d="M68.5357 36.3439C68.5357 36.3439 68.8914 36.0783 68.8914 35.547C68.8914 35.2814 68.5357 35.2814 68.5357 35.2814C68.18 35.2814 68.1801 35.547 68.1801 35.8127C68.1801 36.0783 68.18 36.3439 68.5357 36.3439Z" fill="white"/>
<path d="M69.2437 33.9559C68.888 33.6902 68.5323 33.9558 68.5323 34.4871C68.5323 34.7527 68.5323 35.0183 68.5323 35.0183C68.8913 35.0158 69.5994 34.2215 69.2437 33.9559Z" fill="white"/>
<path d="M70.3107 35.2814C69.955 35.0158 69.5993 35.2814 69.5993 35.8126C69.5993 36.0783 69.5993 36.3439 69.5993 36.3439C69.955 36.3439 70.6664 35.547 70.3107 35.2814Z" fill="white"/>
<path d="M32.6531 48.2814C31.9418 48.2814 31.5861 48.547 31.9417 48.8126C32.2974 49.0783 33.0087 49.0783 33.0087 48.547C33.0087 48.2814 32.6531 48.2814 32.6531 48.2814Z" fill="white"/>
<path d="M3.88065 23.3439C3.88065 23.6095 3.88059 23.6095 4.23626 23.6095C4.59193 23.3439 4.94764 23.6095 4.94764 23.8751C4.94764 24.1407 4.94758 24.4063 5.30325 24.4063C5.65892 24.4063 5.65898 24.1407 4.94764 23.3463C4.58865 22.8126 3.88065 22.8126 3.88065 23.3439Z" fill="white"/>
<path d="M3.8806 22.2814C4.9476 22.0158 4.94754 20.9559 4.23621 21.219C3.88054 21.219 3.52483 21.4846 3.52483 21.7502C3.16916 22.2814 3.52493 22.2814 3.8806 22.2814Z" fill="white"/>
<path d="M7.43059 19.6303C7.78626 19.6303 7.78626 18.8335 7.43059 19.0991C6.71925 19.0991 6.00793 19.3647 6.3636 19.6303C6.36692 19.8959 6.72258 19.8959 7.43059 19.6303Z" fill="white"/>
<path d="M4.58865 28.1199C6.00799 28.3855 6.00804 28.3855 6.71938 30.5079C7.07505 31.5678 7.4307 32.8959 7.78637 33.1615C8.4977 34.2215 11.6953 36.6095 13.1147 37.1407C14.5373 37.6719 17.3794 38.2031 18.7987 38.2031C19.5101 38.2031 20.2181 38.4687 20.2181 38.7344C20.2181 39.5312 22.3488 42.7135 23.4158 43.776C24.8351 44.8359 26.6134 45.8984 28.7441 46.6952C30.1634 46.9608 30.1634 47.2264 30.1634 48.0208C30.1634 49.0807 31.2304 50.4088 32.6498 51.2056C33.0055 51.4712 34.4248 51.7368 35.8475 51.7368C36.9145 52.0024 38.3339 52.0024 39.0452 52.0024C40.1122 51.7368 45.4406 49.88 46.1519 49.3488C46.5076 49.0832 46.8633 49.0832 46.8633 48.8176C47.5746 48.8176 50.4166 45.3696 51.1246 44.0416C51.8359 43.5104 51.836 42.4504 51.836 41.9192C52.1916 40.8592 52.1915 40.8592 53.9665 41.1224C54.3222 41.388 56.4529 41.6536 58.5836 41.9192C62.1369 42.1848 62.4926 42.1848 64.6233 41.9192C66.0459 41.6536 67.4653 41.1224 67.821 40.8592C68.5323 40.5936 71.3743 37.4113 71.3743 36.88C71.3743 36.6144 71.73 36.3488 72.0857 36.3488C72.4414 35.8176 73.8607 33.164 75.2834 29.716C76.3504 27.328 76.7027 25.7368 77.0584 23.6144C77.0584 20.6952 77.0583 20.1665 76.347 17.7785C75.6357 16.4529 74.9277 14.8592 74.572 14.3305C73.505 13.0049 73.8607 10.8825 75.2834 9.28886C76.3504 7.96329 76.3504 7.16647 75.2834 6.10651C74.5721 5.04407 73.5084 5.04407 72.7971 5.8409C72.0857 6.37212 71.7301 6.37212 71.3777 6.10651C69.9551 5.04407 67.8243 6.37212 68.5356 7.96329C68.5356 8.2289 69.2469 9.02325 69.6026 9.28886C70.3139 10.0857 70.6697 10.3488 69.9584 10.88C69.6027 11.6769 68.539 12.2056 68.8914 11.4113C68.8914 10.88 68.5357 10.6144 68.18 10.6144C67.8243 10.6144 67.8243 10.0832 67.4686 9.55199C67.4686 8.75516 67.1129 8.22642 66.7572 7.96081C66.0459 7.42959 66.046 7.16398 66.046 7.16398C66.046 6.89837 62.4926 5.83841 61.7813 5.83841C61.4256 5.83841 61.4256 5.5728 61.7813 5.30719C62.4926 5.04158 63.2007 4.77597 63.912 4.77597C66.0427 5.04158 67.1096 3.71602 66.0426 2.65358C65.687 2.38797 65.687 1.85674 65.687 1.59362C65.3313 0.533659 64.9757 0.268052 63.912 0.00244141C62.845 0.00244141 62.4926 0.00244122 61.7813 0.533661C61.4256 0.799272 61.4257 1.06488 61.4257 1.33049C61.4257 1.5961 60.7142 1.86171 60.3586 2.12732C60.0029 2.12732 59.6473 2.39293 59.6473 2.65854C59.6473 2.65854 58.936 2.39293 58.228 2.12732C57.161 1.33049 57.161 1.33049 54.6747 1.5961C46.1486 2.12732 43.3065 2.39293 40.1088 3.18728C39.0418 3.45289 36.5555 3.98411 34.7805 4.51285C28.3852 5.83842 24.8318 6.63525 21.2818 7.96081C18.0841 9.02077 18.0841 9.28638 16.6647 10.6144C15.9534 11.94 15.5978 12.4712 15.5978 14.0624C15.5978 15.1248 15.9534 16.1848 15.9534 16.4504C16.309 16.9816 15.9534 16.9816 13.1114 16.9816H8.84995C8.49428 17.2472 7.783 17.5128 7.07499 17.5128C6.71932 17.5128 5.29993 18.3097 3.87726 19.104C2.10225 20.1665 1.74659 20.4296 1.39092 21.492C0.679588 23.0832 0.679588 23.88 1.39092 25.4712C2.45793 27.323 2.81363 27.8543 4.58865 28.1199ZM50.4166 43.2423C48.9939 45.8959 45.0883 49.3439 42.9576 49.6095L40.8268 50.4063C39.7598 50.9375 38.6962 50.9375 35.8542 50.6719C32.6565 50.6719 31.9452 49.8751 30.8815 47.4896C30.8815 46.9583 30.8815 46.9583 31.9485 46.9583C32.3041 47.2239 33.7235 46.9583 34.4348 46.9583C38.3438 46.1615 41.8938 44.5703 47.2255 40.3255C49.0005 39 50.7788 37.9375 51.1345 37.9375C51.4835 37.935 51.1279 41.6486 50.4166 43.2423ZM69.955 7.42711C69.955 7.1615 69.955 6.89589 69.955 6.89589C70.6663 6.89589 71.0221 7.1615 71.3777 7.69272C71.7334 8.48955 72.4447 8.22394 73.1527 7.1615C73.864 6.10154 74.2196 6.10154 74.5753 6.63028C74.931 7.69024 74.5754 8.48707 73.8641 9.01829C73.1527 9.2839 73.1527 9.81512 72.7971 11.1407C72.4414 12.7319 72.4414 12.9975 71.7301 12.2006C71.3744 11.935 71.3743 11.4038 71.3743 10.6095C71.73 9.54703 71.7299 9.54703 70.6629 9.01829C69.9549 8.48707 69.955 7.95585 69.955 7.42711ZM67.8244 15.3855L68.5356 12.9975H69.6026C72.4446 12.9975 73.8641 14.323 74.9311 17.2423C75.2867 18.0391 75.6424 19.0991 75.6424 19.6303C75.9981 20.6902 75.9981 24.1407 75.6424 26.5287C75.2868 27.5887 74.9311 28.3855 74.9311 28.3855C74.5754 27.8543 74.2197 27.8543 74.2197 28.6511C74.2197 28.9167 74.2196 28.9167 74.5753 28.9167H74.9311C74.9311 28.9167 72.8003 32.8959 72.0889 33.9583C71.7333 34.4896 71.7333 35.0183 71.7333 35.0183C71.7333 35.2839 70.314 37.1407 68.18 39.2631C67.4687 39.7943 66.7607 40.323 65.3381 40.5887C64.2711 41.1199 62.8516 41.1199 62.4959 41.1199C59.2983 41.1199 56.1007 40.5887 54.6813 40.323L52.5506 39.7918V38.4663C52.1949 37.1407 52.5505 36.8751 53.9732 35.547C55.0402 34.7502 56.4596 33.4246 57.1709 32.6278C58.5902 31.0366 59.3016 30.2398 62.855 25.2006C63.5663 24.1382 64.2743 23.3439 64.6299 23.0782C65.3379 22.2814 67.4687 17.5079 67.8244 15.3855ZM62.1403 2.38548C62.496 2.38548 62.8516 2.11987 62.8516 1.58865C62.8516 1.05743 62.8517 1.05743 63.2073 1.05743C63.9187 1.05743 64.2743 1.32304 63.5629 1.85426C63.2073 2.38548 63.563 3.17983 64.2743 3.17983C64.9856 3.17983 65.3413 3.17983 65.3413 3.44544C65.3413 3.97666 64.63 3.97666 63.922 3.71105C63.2106 3.71105 62.855 3.71105 62.147 3.97666C60.7276 4.50788 60.7275 4.50788 60.3719 3.71105C60.0095 3.18232 60.7177 2.9167 62.1403 2.38548ZM19.5101 9.54703C21.9965 8.48707 26.9691 7.15902 34.7872 5.30223C42.2462 3.71105 45.4439 3.17983 48.9972 2.91422C50.0642 2.91422 51.8393 2.64861 53.262 2.64861C54.6813 2.383 56.1038 2.383 56.4595 2.383C57.1709 2.64861 58.946 4.23979 59.3016 5.03662C59.6573 5.56784 59.6573 5.56784 57.5267 5.83345C55.0403 6.09906 50.4199 6.89341 46.1585 7.95585C45.0915 8.22146 43.6723 8.48707 43.3166 8.48707C41.8972 8.75268 34.7904 10.3439 33.3711 10.8751C32.6597 11.4063 30.8847 11.6719 29.8177 12.2006C26.9757 12.9975 22.3588 14.8543 19.8691 16.1798C18.8021 16.7111 17.7384 17.5054 17.7384 17.5054C17.3827 17.5054 17.3827 16.7086 17.027 15.1174C16.668 12.7319 17.7351 10.6095 19.5101 9.54703ZM17.735 18.3022C18.802 17.771 20.5771 16.9767 21.6441 16.4454C25.1974 14.5887 34.0791 11.4038 40.8268 10.0782C42.6019 9.81264 45.0915 9.28142 46.1551 8.75268C52.1948 7.42711 54.6812 6.89589 57.8789 6.89589C61.7879 6.63028 63.2073 6.89589 64.6299 7.69272C65.6969 8.48955 66.7607 10.0807 66.7607 10.8776C66.7607 11.4088 66.7606 11.9375 67.1163 12.2031C67.4719 12.4687 67.472 15.1224 66.7607 15.6511C66.7607 15.9167 66.4049 16.7111 66.0493 17.7735C65.3379 19.3647 61.7847 25.2006 59.654 28.1199C58.587 28.9167 58.2346 29.9767 58.2346 29.9767C58.2346 30.5079 53.6175 34.4871 50.4198 36.8751C46.8665 39.2631 46.8665 39.2631 46.1551 38.7319C45.7995 38.4663 45.4439 38.2006 45.4439 38.4663C45.0882 38.4663 45.4439 38.7319 45.7995 39.2631C46.5109 39.7943 46.5108 39.7943 44.3802 41.1199C41.8938 42.9767 39.0519 44.5678 36.5655 45.3647C34.7905 45.8959 31.237 46.1615 30.5257 45.8959C28.395 45.3647 25.9087 44.0391 24.486 43.2423C23.419 42.4454 22.711 41.6511 21.9997 39.7943C20.9327 37.9375 20.5804 37.4063 20.2247 37.4063C16.6714 37.1407 12.0543 36.0807 12.4099 35.5495V34.7527C12.0543 34.2215 12.0543 34.2215 12.0543 34.7527C11.6987 35.0183 11.343 35.0183 10.2794 34.2215C9.56803 33.6902 8.85991 32.8959 8.50424 32.6303C7.7929 31.5678 7.08491 28.6511 7.43725 28.1199C7.43725 28.1199 7.79302 27.5887 7.79302 26.7943C7.79302 25.9975 9.21563 24.4063 10.635 23.3463C11.3463 22.8151 11.702 22.8151 11.702 23.3463C11.702 23.6119 11.7021 23.8776 12.0577 23.8776C12.4134 23.8776 12.4133 23.0807 11.702 22.8176C11.702 22.552 12.4133 22.0208 15.2553 19.8984C15.601 19.6303 16.668 18.8335 17.735 18.3022ZM2.81368 21.2215C3.16935 20.6902 3.88067 20.4246 3.88067 20.4246C4.23634 20.4246 4.592 20.159 4.94766 19.8934C5.659 18.5678 7.7897 18.0366 11.6987 18.0366C13.4737 18.0366 15.252 18.0366 15.252 18.3022C15.6077 18.3022 14.8964 18.8335 14.1851 19.3622C12.7624 20.159 10.6317 21.7502 9.92035 22.5445C9.56468 22.5445 8.8534 23.3414 8.14538 24.1357C7.07838 25.1982 6.37026 25.9925 6.37026 26.2581C6.37026 26.7893 6.01471 27.0549 5.65904 27.0549C3.88403 27.0549 3.52832 27.055 2.46132 25.4638C1.39099 23.8751 1.39101 22.2814 2.81368 21.2215Z" fill="white"/>
<path d="M24.4828 19.3647C24.4828 19.8959 24.4827 20.1615 24.8384 20.1615C25.1941 20.1615 25.5498 19.8959 25.1942 19.6303C25.1942 18.8334 24.4828 18.8335 24.4828 19.3647Z" fill="white"/>
<path d="M22.3521 16.9767C22.7077 17.2423 22.7078 17.2423 23.0634 16.9767C23.4191 16.7111 23.7748 16.4454 23.7748 16.4454C24.1305 16.4454 24.4861 16.4454 24.4861 16.4454C24.4861 15.9142 23.4191 15.9142 22.7111 16.4454C22.3521 16.7111 21.9964 16.9767 22.3521 16.9767Z" fill="white"/>
<path d="M17.3793 20.4246C17.3793 20.4246 17.0236 20.4246 16.6679 20.4246C15.9566 20.4246 15.9566 20.6902 16.3123 20.9559C16.668 21.2215 17.3793 20.9559 17.3793 20.4246Z" fill="white"/>
<path d="M10.6283 30.771C10.6283 30.771 10.6283 30.771 10.6283 31.3022C10.6283 31.5678 10.6284 31.8334 10.9841 31.8334C11.3398 31.8334 11.3397 31.5678 11.3397 31.3022C11.3397 30.771 10.984 30.771 10.6283 30.771Z" fill="white"/>
<path d="M19.1544 22.2814C18.7987 22.547 19.8657 22.547 19.8657 22.0158C20.2214 21.4846 19.8657 21.219 19.1544 21.7502C19.1544 21.7527 19.1544 22.0183 19.1544 22.2814Z" fill="white"/>
<path d="M19.51 20.9558C19.8657 20.6902 19.51 20.159 18.7986 20.159C18.443 20.159 18.443 20.6902 18.7986 20.9558C18.7986 20.9558 19.1543 20.9558 19.51 20.9558Z" fill="white"/>
<path d="M17.7349 27.8543C17.0236 27.5887 16.3123 27.8543 16.668 28.3855C16.668 28.3855 17.0237 28.6511 17.3793 28.6511C17.735 28.6511 18.0873 28.1199 17.7349 27.8543Z" fill="white"/>
<path d="M18.7986 35.2814C17.7316 35.2814 17.7316 35.547 18.0873 35.8127C18.4429 36.0783 18.7986 36.0783 19.1542 35.547C19.5099 35.2814 19.51 35.2814 18.7986 35.2814Z" fill="white"/>
<path d="M14.5374 29.4454C14.5374 29.4454 14.893 29.4454 15.6044 29.4454H16.3156C15.6009 28.9142 14.5374 28.9142 14.5374 29.4454Z" fill="white"/>
<path d="M18.4431 33.159C18.7988 33.159 19.1543 33.159 19.1543 32.8934C19.51 32.3622 18.443 32.6278 18.0873 32.8934C18.0873 33.159 18.0875 33.4246 18.4431 33.159Z" fill="white"/>
<path d="M23.0634 32.6303C23.4191 32.6303 23.4192 32.0991 22.7078 31.8334C21.9965 31.3022 21.9964 31.3022 22.352 32.0991C22.352 32.3647 22.7078 32.6303 23.0634 32.6303Z" fill="white"/>
<path d="M48.2859 37.1382C48.2859 36.607 47.2189 36.3414 46.5109 36.607C46.5109 36.607 46.5109 36.8726 46.5109 37.1382C46.8633 37.4038 48.2859 37.4038 48.2859 37.1382Z" fill="white"/>
<path d="M25.1942 41.383C25.1942 41.383 25.1942 41.6486 25.1942 41.9142C25.5499 42.1798 25.5498 42.1798 25.5498 41.9142C25.9055 41.383 25.5499 41.1199 25.1942 41.383Z" fill="white"/>
<path d="M11.6953 27.5887C11.6953 27.8543 11.6953 28.1199 11.6953 28.1199C12.4066 28.6511 12.7624 28.1199 12.4067 27.5887C12.051 27.323 12.051 27.323 11.6953 27.5887Z" fill="white"/>
<path d="M55.3892 30.5079C55.3892 30.2423 55.0336 30.2423 55.0336 30.2423C54.3222 30.2423 53.9665 30.5079 54.3222 30.7735C54.6812 31.0366 55.3892 31.0366 55.3892 30.5079Z" fill="white"/>
<path d="M12.4067 25.9975C12.4067 25.9975 12.7623 25.7319 12.7623 25.4663C12.7623 25.2007 12.4067 24.935 12.4067 24.935C12.051 24.935 12.0511 25.2007 12.0511 25.4663C12.0511 25.7319 12.051 25.9975 12.4067 25.9975Z" fill="white"/>
<path d="M45.7995 37.1382C46.1552 37.1382 46.1552 36.607 45.7995 36.3414C45.4438 36.0758 44.7325 36.3414 45.0881 36.8726C45.0881 36.8751 45.4438 37.1382 45.7995 37.1382Z" fill="white"/>
<path d="M43.6655 37.6694C44.3768 38.2006 45.0849 37.6694 44.3769 37.1382C44.0212 36.8726 43.6656 36.8726 43.3099 37.1382C42.9576 37.1382 42.9575 37.4038 43.6655 37.6694Z" fill="white"/>
<path d="M31.5894 41.1199C31.5894 40.5886 30.8781 40.5886 30.5224 41.1199C30.5224 41.1199 30.5225 41.3855 31.2338 41.9167C31.5895 42.1823 31.9451 42.4479 32.3008 42.4479C33.0121 42.4479 33.0121 41.6511 32.3008 41.6511C31.5895 41.6486 31.5894 41.383 31.5894 41.1199Z" fill="white"/>
<path d="M26.6167 38.7319C26.9724 38.7319 26.9724 37.6719 26.6167 37.4063C26.2611 37.1407 25.9054 37.4063 25.9054 38.2031C25.9054 38.4663 26.2611 38.7319 26.6167 38.7319Z" fill="white"/>
<path d="M29.8111 40.0574C29.8111 39.5262 28.7442 38.9975 28.3885 39.2606C28.3885 39.2606 28.3884 39.5262 28.7441 39.7918C29.1031 40.323 29.8111 40.323 29.8111 40.0574Z" fill="white"/>
<path d="M25.9054 40.5887V41.3855C26.6167 42.1823 27.3247 42.1823 26.9724 41.3855C26.6167 40.323 26.6167 40.3231 25.9054 40.5887Z" fill="white"/>
<path d="M29.1031 41.9142C29.1031 41.9142 28.7473 41.9142 28.3917 41.9142C27.6803 41.9142 27.3248 42.1798 27.6805 42.4454C28.0361 42.7111 29.1031 42.4454 29.1031 41.9142Z" fill="white"/>
<path d="M37.2735 40.5887C37.2735 40.8543 37.6292 40.8543 37.9849 40.5887C38.3405 40.323 38.6962 40.323 39.0519 40.5887C39.4075 40.5887 39.7631 40.5887 39.7631 40.323C39.7631 40.0574 39.4075 39.7918 39.4075 39.7918C38.6928 39.5262 37.2735 40.0574 37.2735 40.5887Z" fill="white"/>
</svg>
