<svg width="42" height="31" viewBox="0 0 42 31" fill="none" xmlns="http://www.w3.org/2000/svg">
<path d="M18.1482 20.8585C17.6297 20.8585 17.1324 20.6506 16.7657 20.2806C16.3991 19.9106 16.1931 19.4088 16.1931 18.8855C16.1931 18.734 16.1334 18.5886 16.0272 18.4815C15.921 18.3743 15.777 18.3141 15.6268 18.3141C15.4766 18.3141 15.3326 18.3743 15.2264 18.4815C15.1202 18.5886 15.0605 18.734 15.0605 18.8855C15.0607 19.7118 15.3861 20.5043 15.9651 21.0886C16.5441 21.6729 17.3293 22.0012 18.1482 22.0014C18.2984 22.0014 18.4424 21.9412 18.5486 21.834C18.6548 21.7268 18.7144 21.5815 18.7144 21.4299C18.7144 21.2784 18.6548 21.133 18.5486 21.0259C18.4424 20.9187 18.2984 20.8585 18.1482 20.8585Z" fill="#FE7F32"/>
<path d="M35.3152 0.0646418C35.2306 0.0588324 35.1457 0.0718154 35.0666 0.102676C34.9875 0.133537 34.916 0.181525 34.8573 0.24326L32.2266 3.07732C32.128 3.18352 32.0733 3.32365 32.0735 3.46917V10.5359C31.9126 11.1398 31.5823 11.6841 31.1223 12.1033C30.6623 12.5224 30.0921 12.7986 29.4803 12.8987C29.0254 12.228 28.428 11.668 27.7316 11.2596C27.0352 10.8512 26.2574 10.6047 25.4547 10.5378V8.10867C25.8322 7.88499 26.1263 7.54213 26.2916 7.133C26.4569 6.72387 26.4841 6.27122 26.3691 5.84491C26.2541 5.4186 26.0033 5.04234 25.6553 4.77421C25.3074 4.50607 24.8816 4.36096 24.4438 4.36128H23.3928C22.9549 4.36074 22.529 4.5057 22.1809 4.77376C21.8327 5.04182 21.5817 5.41808 21.4666 5.84444C21.3515 6.2708 21.3786 6.72355 21.5439 7.13277C21.7092 7.542 22.0033 7.88495 22.3809 8.10867V10.5153H19.8732V8.10867C20.2507 7.88501 20.5448 7.54217 20.7101 7.13308C20.8754 6.72398 20.9027 6.27136 20.7877 5.84507C20.6727 5.41878 20.422 5.04252 20.074 4.77435C19.7261 4.50619 19.3004 4.36103 18.8626 4.36128H17.8116C17.3737 4.36074 16.9479 4.5057 16.5997 4.77376C16.2516 5.04182 16.0006 5.41808 15.8855 5.84444C15.7703 6.2708 15.7975 6.72355 15.9628 7.13277C16.128 7.542 16.4222 7.88495 16.7998 8.10867V10.5378C15.9971 10.6047 15.2192 10.8512 14.5229 11.2596C13.8265 11.668 13.2291 12.228 12.7741 12.8987C12.1623 12.7986 11.5922 12.5224 11.1322 12.1033C10.6722 11.6841 10.3419 11.1398 10.1809 10.5359V3.46819C10.1812 3.32267 10.1264 3.18254 10.0279 3.07634L7.39812 0.24326C7.33935 0.181481 7.26785 0.133467 7.18868 0.102605C7.10952 0.071743 7.0246 0.0587837 6.93993 0.0646418C5.20713 0.0783283 3.54978 0.781994 2.32847 2.02255C1.10716 3.2631 0.420707 4.94016 0.418457 6.68887V9.09483C0.420428 10.3644 0.907942 11.5843 1.77936 12.5001C2.65077 13.4158 3.83883 13.9568 5.09584 14.0103C6.98625 15.5384 9.30296 16.4316 11.7215 16.5648L11.8247 16.5687V17.3345H7.53953C7.4652 17.3344 7.39159 17.3492 7.32291 17.3779C7.25424 17.4066 7.19183 17.4486 7.13926 17.5016L3.65428 21.0198C3.60163 21.0728 3.55986 21.1358 3.53138 21.2051C3.50289 21.2744 3.48825 21.3487 3.48828 21.4237V23.1619C3.48828 23.5733 3.65022 23.9678 3.93846 24.2587C4.22671 24.5496 4.61765 24.713 5.0253 24.713C5.43294 24.713 5.82388 24.5496 6.11213 24.2587C6.40038 23.9678 6.56231 23.5733 6.56231 23.1619V22.4713L8.57985 20.4356H12.0198C12.0522 20.5617 12.0846 20.6864 12.124 20.8102L8.15595 23.6282C8.10064 23.6675 8.05275 23.7165 8.01455 23.7729L6.34195 26.2402C6.2774 26.3352 6.24288 26.4477 6.24294 26.5628V28.6348C6.24294 29.0461 6.40487 29.4406 6.69312 29.7315C6.98136 30.0224 7.37231 30.1858 7.77995 30.1858C8.18759 30.1858 8.57854 30.0224 8.86679 29.7315C9.15503 29.4406 9.31697 29.0461 9.31697 28.6348V27.3456L10.2955 25.9023L13.7455 23.4532C14.9241 24.6116 16.503 25.2619 18.1482 25.2665H24.1073C25.7525 25.2619 27.3313 24.6116 28.5099 23.4532L31.96 25.9023L32.9385 27.3456V28.6348C32.9385 29.0461 33.1004 29.4406 33.3886 29.7315C33.6769 30.0224 34.0678 30.1858 34.4755 30.1858C34.8831 30.1858 35.2741 30.0224 35.5623 29.7315C35.8506 29.4406 36.0125 29.0461 36.0125 28.6348V26.5628C36.0126 26.4477 35.978 26.3352 35.9135 26.2402L34.2409 23.7729C34.2027 23.7165 34.1548 23.6675 34.0995 23.6282L30.1314 20.8111C30.1702 20.6874 30.2042 20.5626 30.2356 20.4366H33.6772L35.6947 22.4723V23.1619C35.6947 23.5733 35.8567 23.9678 36.1449 24.2587C36.4332 24.5496 36.8241 24.713 37.2318 24.713C37.6394 24.713 38.0303 24.5496 38.3186 24.2587C38.6068 23.9678 38.7688 23.5733 38.7688 23.1619V21.4237C38.7687 21.2722 38.709 21.1269 38.6028 21.0198L35.1162 17.5016C35.0636 17.4486 35.0012 17.4066 34.9325 17.3779C34.8638 17.3492 34.7902 17.3344 34.7159 17.3345H30.4307V16.5687L30.5449 16.5641C32.9597 16.4295 35.2724 15.5365 37.1596 14.0103C38.4166 13.9568 39.6047 13.4158 40.4761 12.5001C41.3475 11.5843 41.835 10.3644 41.837 9.09483V6.68887C41.8348 4.94008 41.1483 3.26292 39.9269 2.02234C38.7055 0.781758 37.0481 0.0781576 35.3152 0.0646418ZM33.207 3.69513L34.7043 2.08169V6.85246L33.207 8.88715V3.69513ZM23.3928 5.50417H24.4431C24.5579 5.50193 24.672 5.52281 24.7787 5.56559C24.8854 5.60838 24.9826 5.67221 25.0646 5.75334C25.1466 5.83448 25.2117 5.9313 25.2561 6.03813C25.3006 6.14497 25.3235 6.25968 25.3235 6.37555C25.3235 6.49142 25.3006 6.60613 25.2561 6.71297C25.2117 6.8198 25.1466 6.91662 25.0646 6.99776C24.9826 7.07889 24.8854 7.14272 24.7787 7.1855C24.672 7.22829 24.5579 7.24917 24.4431 7.24693H23.3928C23.278 7.24917 23.1639 7.22829 23.0572 7.1855C22.9505 7.14272 22.8533 7.07889 22.7713 6.99776C22.6894 6.91662 22.6242 6.8198 22.5798 6.71297C22.5353 6.60613 22.5124 6.49142 22.5124 6.37555C22.5124 6.25968 22.5353 6.14497 22.5798 6.03813C22.6242 5.9313 22.6894 5.83448 22.7713 5.75334C22.8533 5.67221 22.9505 5.60838 23.0572 5.56559C23.1639 5.52281 23.278 5.50193 23.3928 5.50417ZM23.5135 8.38982H24.3224V10.5153H23.5135V8.38982ZM17.9317 8.38982H18.7407V10.5153H17.9317V8.38982ZM17.811 5.50417H18.8626C18.9774 5.50193 19.0915 5.52281 19.1982 5.56559C19.3049 5.60838 19.4021 5.67221 19.4841 5.75334C19.5661 5.83448 19.6312 5.9313 19.6756 6.03813C19.7201 6.14497 19.743 6.25968 19.743 6.37555C19.743 6.49142 19.7201 6.60613 19.6756 6.71297C19.6312 6.8198 19.5661 6.91662 19.4841 6.99776C19.4021 7.07889 19.3049 7.14272 19.1982 7.1855C19.0915 7.22829 18.9774 7.24917 18.8626 7.24693H17.8116C17.6968 7.24917 17.5828 7.22829 17.476 7.1855C17.3693 7.14272 17.2722 7.07889 17.1902 6.99776C17.1082 6.91662 17.0431 6.8198 16.9986 6.71297C16.9542 6.60613 16.9313 6.49142 16.9313 6.37555C16.9313 6.25968 16.9542 6.14497 16.9986 6.03813C17.0431 5.9313 17.1082 5.83448 17.1902 5.75334C17.2722 5.67221 17.3693 5.60838 17.476 5.56559C17.5828 5.52281 17.6968 5.50193 17.8116 5.50417H17.811ZM9.04839 8.88715L7.55118 6.85279V2.08038L9.04839 3.69513V8.88715ZM1.55099 9.09483V6.68887C1.5527 5.334 2.05073 4.02761 2.9493 3.02094C3.84787 2.01427 5.08353 1.3784 6.41864 1.23562V7.04153C6.41866 7.16421 6.4578 7.28362 6.53028 7.38211L8.80085 10.4676L5.13693 12.8742C4.17222 12.8307 3.26123 12.4137 2.59338 11.7098C1.92553 11.0059 1.5522 10.0693 1.55099 9.09483ZM6.28015 13.4871L9.31697 11.492C9.58622 12.0952 9.98668 12.6295 10.4886 13.0552C10.9905 13.4809 11.581 13.787 12.2163 13.9508C12.0274 14.4231 11.9049 14.9197 11.8522 15.4261L11.7739 15.4232C9.7982 15.3145 7.8934 14.6433 6.28015 13.4871ZM11.839 19.2937H8.34428C8.2699 19.2937 8.19623 19.3084 8.1275 19.3371C8.05876 19.3658 7.9963 19.4078 7.94368 19.4609L5.59577 21.8316C5.54312 21.8846 5.50136 21.9475 5.47287 22.0168C5.44439 22.0862 5.42974 22.1605 5.42977 22.2355V23.1619C5.42977 23.2702 5.38716 23.374 5.31131 23.4505C5.23545 23.5271 5.13257 23.5701 5.0253 23.5701C4.91802 23.5701 4.81514 23.5271 4.73929 23.4505C4.66343 23.374 4.62082 23.2702 4.62082 23.1619V21.6598L7.77542 18.4767H11.8247C11.8247 18.7487 11.8202 19.0217 11.839 19.2937ZM9.5603 25.0268C9.50496 25.0663 9.45697 25.1154 9.41857 25.1718L8.28344 26.8469C8.21883 26.942 8.1843 27.0546 8.18443 27.1699V28.6357C8.18443 28.744 8.14182 28.8478 8.06596 28.9244C7.99011 29.0009 7.88723 29.0439 7.77995 29.0439C7.67268 29.0439 7.5698 29.0009 7.49394 28.9244C7.41809 28.8478 7.37547 28.744 7.37547 28.6357V26.7418L8.89146 24.506L12.5722 21.8936C12.7005 22.1339 12.8437 22.3658 13.0009 22.5879L9.5603 25.0268ZM18.1482 24.1239C16.7715 24.1239 15.4511 23.572 14.4776 22.5896C13.5042 21.6072 12.9573 20.2748 12.9573 18.8855V16.0182C12.9553 15.2434 13.1576 14.482 13.5433 13.812C13.9196 13.1577 14.4595 12.6144 15.109 12.2364C15.7586 11.8584 16.495 11.6591 17.2447 11.6582H25.0107C25.7606 11.6592 26.4972 11.8587 27.1468 12.2369C27.7964 12.6151 28.3362 13.1587 28.7125 13.8134C29.4389 15.0715 29.2982 16.5109 29.2982 17.9069C29.322 18.5098 29.299 19.1137 29.2292 19.713C29.0359 20.9433 28.4138 22.0636 27.4748 22.8722C26.5358 23.6809 25.3417 24.1247 24.1073 24.1239H18.1482ZM29.6832 21.8907L33.364 24.503L34.88 26.7389V28.6328C34.88 28.7411 34.8373 28.8449 34.7615 28.9214C34.6856 28.998 34.5828 29.041 34.4755 29.041C34.3682 29.041 34.2653 28.998 34.1895 28.9214C34.1136 28.8449 34.071 28.7411 34.071 28.6328V27.1669C34.0711 27.0517 34.0366 26.9391 33.972 26.844L32.8369 25.1698C32.7985 25.1134 32.7505 25.0644 32.6951 25.0248L29.2545 22.5846C29.4118 22.3627 29.555 22.1309 29.6832 21.8907ZM34.4816 18.4773L37.6362 21.6605V23.1626C37.6362 23.2708 37.5936 23.3746 37.5178 23.4512C37.4419 23.5277 37.339 23.5707 37.2318 23.5707C37.1245 23.5707 37.0216 23.5277 36.9457 23.4512C36.8699 23.3746 36.8273 23.2708 36.8273 23.1626V22.2355C36.8272 22.084 36.7675 21.9387 36.6613 21.8316L34.3121 19.4609C34.2595 19.4079 34.1971 19.3658 34.1284 19.3371C34.0597 19.3084 33.9861 19.2937 33.9118 19.2937H30.4171C30.4359 19.0217 30.4314 18.7494 30.4314 18.4773H34.4816ZM30.4915 15.4226L30.4026 15.4261C30.3499 14.9197 30.2274 14.4231 30.0385 13.9508C30.6737 13.787 31.2642 13.4808 31.7661 13.0552C32.2681 12.6295 32.6685 12.0952 32.9378 11.492L35.9753 13.4875C34.3651 14.6421 32.4639 15.313 30.4915 15.4226ZM40.7044 9.09483C40.7032 10.0693 40.3299 11.0059 39.662 11.7098C38.9942 12.4137 38.0832 12.8307 37.1185 12.8742L33.4562 10.4676L35.7268 7.38211C35.7992 7.28362 35.8384 7.16421 35.8384 7.04153V1.23497C37.1735 1.37781 38.4091 2.0137 39.3077 3.02036C40.2062 4.02702 40.7043 5.33337 40.7061 6.68821L40.7044 9.09483Z" fill="#FE7F32"/>
</svg>
