<svg width="156" height="150" viewBox="0 0 156 150" fill="none" xmlns="http://www.w3.org/2000/svg">
<path d="M34.5657 104.444C22.85 92.7287 22.85 73.7338 34.5657 62.0181L72.1704 24.4134C79.9809 16.6029 92.6442 16.6029 100.455 24.4134L135.365 59.3233C139.27 63.2285 139.27 69.5602 135.365 73.4654L83.6177 125.212C75.8073 133.023 63.144 133.023 55.3335 125.212L34.5657 104.444Z" fill="#D12D2D"/>
<path d="M66.7558 79.3805L59.1756 71.8003C59.1756 71.8154 59.1115 71.9248 58.9833 72.1284C58.8626 72.3245 58.7193 72.5433 58.5534 72.7846C58.3874 73.026 58.2403 73.2409 58.1121 73.4295C57.9839 73.6181 57.916 73.7161 57.9085 73.7237L56.9921 72.8073C57.0901 72.6489 57.1957 72.4603 57.3088 72.2416C57.4295 72.0153 57.5389 71.7777 57.6369 71.5288C57.7425 71.2724 57.818 71.0084 57.8632 70.7368C57.916 70.4578 57.9236 70.1862 57.8858 69.9223L58.8023 69.0058L67.9664 78.1699L66.7558 79.3805ZM72.3389 74.001C71.8185 74.5215 71.2717 74.8345 70.6984 74.9401C70.1328 75.0381 69.5633 74.9665 68.9901 74.7251C68.4244 74.4762 67.8813 74.0915 67.3609 73.5711L63.4124 69.6226C62.8769 69.0871 62.4885 68.5403 62.2471 67.9821C61.9982 67.4164 61.9265 66.8545 62.0321 66.2964C62.1453 65.7307 62.4658 65.1839 62.9938 64.6559C63.5218 64.1279 64.0648 63.8111 64.623 63.7055C65.1811 63.6 65.743 63.6716 66.3087 63.9205C66.8669 64.1619 67.4137 64.5503 67.9492 65.0858L71.8977 69.0343C72.4257 69.5623 72.8103 70.1129 73.0517 70.6861C73.3006 71.2518 73.376 71.8175 73.278 72.3832C73.1724 72.9413 72.8594 73.4806 72.3389 74.001ZM71.3433 73.0054C71.6299 72.7188 71.7619 72.4209 71.7393 72.1116C71.7242 71.7949 71.6149 71.4818 71.4112 71.1726C71.2076 70.8483 70.9662 70.5466 70.6871 70.2675L66.716 66.2964C66.4219 66.0022 66.1202 65.7533 65.8109 65.5497C65.4941 65.3385 65.1811 65.2291 64.8719 65.2216C64.5702 65.2065 64.2723 65.346 63.9781 65.6402C63.6839 65.9344 63.5406 66.236 63.5482 66.5453C63.5557 66.8545 63.6651 67.1675 63.8763 67.4843C64.0799 67.7936 64.3288 68.0953 64.623 68.3894L68.5941 72.3605C68.8732 72.6396 69.1711 72.8847 69.4879 73.0959C69.8047 73.292 70.1214 73.3976 70.4382 73.4127C70.7626 73.4203 71.0643 73.2845 71.3433 73.0054ZM78.4212 67.7151L71.7687 56.0167L72.8096 54.9759L79.4734 66.6629L78.4212 67.7151ZM73.0359 64.502C72.4098 65.128 71.765 65.3883 71.1012 65.2827C70.4375 65.1771 69.7813 64.7999 69.1326 64.1513L68.4199 63.4385C67.7486 62.7672 67.3677 62.1148 67.2772 61.4813C67.1867 60.8477 67.462 60.2104 68.1031 59.5692C68.7442 58.9281 69.374 58.6453 69.9925 58.7207C70.611 58.7961 71.2521 59.1657 71.9158 59.8295L72.7191 60.6327C73.3753 61.2889 73.7486 61.9413 73.8391 62.59C73.9372 63.2311 73.6694 63.8685 73.0359 64.502ZM72.1195 63.5856C72.3156 63.3895 72.4061 63.1934 72.391 62.9973C72.3759 62.7861 72.2929 62.5749 72.1421 62.3637C71.9988 62.145 71.8253 61.9338 71.6217 61.7302L70.8184 60.9269C70.5091 60.6176 70.2037 60.3951 69.902 60.2594C69.6078 60.1161 69.3137 60.1915 69.0195 60.4857C68.7253 60.7798 68.6537 61.0777 68.8045 61.3794C68.9479 61.6736 69.1741 61.9753 69.4834 62.2845L70.2866 63.0878C70.4903 63.2915 70.6977 63.4687 70.9089 63.6195C71.1201 63.7553 71.3275 63.8345 71.5311 63.8571C71.7348 63.8647 71.9309 63.7742 72.1195 63.5856ZM83.1051 63.1444C82.479 63.7704 81.8379 64.0344 81.1817 63.9363C80.5255 63.8232 79.8694 63.4385 79.2132 62.7823L78.5004 62.0696C77.8367 61.4058 77.4558 60.761 77.3577 60.1349C77.2597 59.4938 77.5312 58.8527 78.1723 58.2116C78.8209 57.5629 79.4545 57.2839 80.073 57.3744C80.6915 57.4498 81.3326 57.8194 81.9963 58.4831L82.7883 59.2751C83.452 59.9388 83.8292 60.595 83.9197 61.2437C84.0102 61.8772 83.7386 62.5108 83.1051 63.1444ZM82.1887 62.228C82.3848 62.0319 82.479 61.832 82.4715 61.6283C82.4564 61.4171 82.3735 61.206 82.2226 60.9948C82.0718 60.7836 81.8983 60.5799 81.7022 60.3838L80.8876 59.5692C80.5783 59.26 80.2729 59.0375 79.9712 58.9017C79.677 58.7584 79.3829 58.8338 79.0887 59.128C78.7946 59.4222 78.7229 59.7201 78.8737 60.0218C79.0171 60.3159 79.2433 60.6176 79.5526 60.9269L80.3558 61.7302C80.5595 61.9338 80.7669 62.1111 80.9781 62.2619C81.1893 62.3977 81.3967 62.4769 81.6003 62.4995C81.804 62.507 82.0001 62.4165 82.1887 62.228ZM54.4936 98.3744C54.5275 98.2047 54.6406 98.001 54.833 97.7635C55.0027 97.639 55.1498 97.5598 55.2742 97.5259C55.3873 97.458 55.5175 97.4071 55.6645 97.3731C55.8003 97.3279 55.953 97.2883 56.1227 97.2543C56.2472 97.243 56.383 97.243 56.53 97.2543C56.6658 97.2543 56.7959 97.26 56.9204 97.2713C57.1127 97.2826 57.2824 97.3279 57.4295 97.4071C57.7689 97.656 58.1026 97.9445 58.4307 98.2726C58.7475 98.5894 59.0643 98.9288 59.3811 99.2908C59.415 99.37 59.4716 99.4492 59.5508 99.5284C59.6187 99.5963 59.6752 99.6642 59.7205 99.732C60.0486 100.06 60.2579 100.281 60.3484 100.394C60.4502 100.496 60.5181 100.552 60.5521 100.564C60.5747 100.496 60.5917 100.4 60.603 100.275C60.603 100.139 60.603 100.015 60.603 99.9017C60.5577 99.6981 60.5068 99.4888 60.4502 99.2738C60.3937 99.0363 60.3258 98.6629 60.2466 98.1538C60.2466 97.5202 60.3088 96.9828 60.4333 96.5416C60.5577 96.0777 60.7557 95.5743 61.0272 95.0312C61.0499 94.9407 61.0725 94.8615 61.0951 94.7936C61.1177 94.7031 61.146 94.6069 61.18 94.5051C61.3723 94.177 61.5816 93.8659 61.8079 93.5717C62.0342 93.2776 62.2604 93.04 62.4867 92.859C62.8601 92.463 63.2447 92.248 63.6407 92.2141C63.686 92.1915 63.7312 92.1688 63.7765 92.1462C63.833 92.1123 63.8953 92.0727 63.9631 92.0274C64.0197 91.9708 64.0819 91.9312 64.1498 91.9086C64.2064 91.8747 64.2969 91.852 64.4213 91.8407C64.6137 91.8068 64.823 91.7898 65.0493 91.7898C65.2755 91.7898 65.4961 91.8068 65.7111 91.8407C65.9261 91.852 66.1241 91.8803 66.3051 91.9256C66.4861 91.9708 66.6219 92.0161 66.7124 92.0613C66.8142 92.1179 66.9047 92.1632 66.9839 92.1971C67.0744 92.2197 67.1762 92.2537 67.2894 92.2989C67.3686 92.3329 67.4704 92.3894 67.5948 92.4686C67.708 92.5365 67.8155 92.6101 67.9173 92.6893C67.9738 92.7232 68.0248 92.7515 68.07 92.7741C68.1153 92.7967 68.1492 92.8194 68.1718 92.842C68.2397 92.8646 68.2963 92.8986 68.3415 92.9438C68.3868 92.9891 68.4377 93.04 68.4943 93.0966C68.5056 93.1305 68.5169 93.1531 68.5282 93.1644C68.5508 93.1644 68.5678 93.1701 68.5791 93.1814C68.6583 93.2153 68.7149 93.2719 68.7488 93.3511C68.8507 93.4303 68.9695 93.5378 69.1052 93.6736C69.2523 93.798 69.3937 93.9281 69.5295 94.0639C69.6879 94.2223 69.8463 94.392 70.0047 94.573C70.1631 94.754 70.3101 94.935 70.4459 95.116C70.5025 95.1274 70.5307 95.1556 70.5307 95.2009C70.6213 95.3367 70.7118 95.4837 70.8023 95.6421C70.8928 95.7779 70.989 95.9193 71.0908 96.0664C71.1926 96.2135 71.2831 96.3719 71.3623 96.5416C71.4415 96.6887 71.5207 96.847 71.5999 97.0168C71.6791 97.1412 71.7526 97.2826 71.8205 97.441C71.8884 97.5768 71.9506 97.7069 72.0072 97.8313C72.3127 98.3857 72.5446 98.8439 72.703 99.206C72.8501 99.5567 72.9632 99.8508 73.0424 100.088C73.0311 100.1 73.0254 100.117 73.0254 100.139C73.0254 100.162 73.0367 100.185 73.0594 100.207C73.0707 100.241 73.1046 100.32 73.1612 100.445C73.2178 100.569 73.2687 100.711 73.3139 100.869C73.4044 101.073 73.4836 101.265 73.5515 101.446C73.6081 101.616 73.659 101.712 73.7042 101.735C73.7721 102.051 73.8853 102.334 74.0437 102.583C74.202 102.832 74.2926 103.104 74.3152 103.398C74.2926 103.488 74.2812 103.59 74.2812 103.703C74.2926 103.805 74.3208 104.003 74.3661 104.297C74.4566 104.659 74.5358 104.999 74.6037 105.315C74.6829 105.621 74.7564 105.898 74.8243 106.147C74.8809 106.339 74.9318 106.537 74.977 106.741C75.0223 106.945 75.0506 107.154 75.0619 107.369C75.1071 107.414 75.1298 107.584 75.1298 107.878C75.1637 108.183 75.1863 108.444 75.1977 108.659C75.2203 108.885 75.2259 109.105 75.2146 109.32C75.2146 109.524 75.1977 109.733 75.1637 109.948C75.1524 110.163 75.1241 110.395 75.0789 110.644C75.0223 110.95 74.9657 111.221 74.9092 111.459C74.8639 111.708 74.8243 111.906 74.7904 112.053L74.7904 112.087L74.7394 112.138C74.7055 112.217 74.6772 112.29 74.6546 112.358C74.632 112.426 74.598 112.494 74.5528 112.562C74.4736 112.822 74.4 113.031 74.3322 113.19C74.2643 113.348 74.1907 113.49 74.1115 113.614C73.9418 114.055 73.659 114.395 73.263 114.632C73.1272 114.677 72.9915 114.711 72.8557 114.734C72.72 114.757 72.6238 114.74 72.5672 114.683C72.4654 114.74 72.3466 114.745 72.2108 114.7C72.0977 114.655 71.9789 114.604 71.8545 114.547C71.4811 114.355 71.1926 114.078 70.989 113.716C70.8871 113.569 70.7966 113.41 70.7174 113.241C70.6495 113.06 70.5873 112.862 70.5307 112.647C70.4402 112.375 70.3893 112.087 70.378 111.781C70.3554 111.464 70.3724 111.221 70.4289 111.051C70.5081 111.017 70.5817 110.944 70.6495 110.831C70.7061 110.706 70.7287 110.582 70.7174 110.457L70.7344 110.339C70.7344 110.339 70.7287 110.322 70.7174 110.288C70.7514 110.209 70.7796 110.112 70.8023 109.999C70.8249 109.863 70.8362 109.739 70.8362 109.626C70.8362 109.558 70.8362 109.456 70.8362 109.32C70.8362 109.185 70.8475 109.015 70.8702 108.811C70.9041 108.438 70.9211 108.127 70.9211 107.878C70.9211 107.629 70.9267 107.363 70.938 107.08C71.0059 106.899 71.0399 106.741 71.0399 106.605C71.0286 106.458 71.0003 106.305 70.955 106.147C70.8532 105.728 70.7118 105.281 70.5307 104.806C70.3497 104.308 70.1744 103.85 70.0047 103.432L69.6822 102.668C69.4559 102.125 69.2127 101.61 68.9525 101.124C68.6923 100.615 68.4377 100.122 68.1888 99.6472C68.0078 99.2852 67.9003 99.0645 67.8664 98.9853C67.8211 98.8948 67.7759 98.8269 67.7306 98.7817L66.2202 97.1016C66.0958 96.9319 65.994 96.7961 65.9148 96.6943C65.8469 96.5812 65.7846 96.4963 65.7281 96.4398C65.6828 96.3719 65.6319 96.3096 65.5753 96.2531C65.5188 96.1965 65.4509 96.1286 65.3717 96.0494C65.2699 95.9702 65.1794 95.9137 65.1002 95.8797C65.0323 95.8345 64.9531 95.8005 64.8626 95.7779C64.6363 95.6421 64.4496 95.546 64.3026 95.4894C64.1555 95.4102 63.9745 95.3876 63.7595 95.4215C63.5558 95.4441 63.3409 95.5233 63.1146 95.6591C62.877 95.7836 62.6451 95.925 62.4188 96.0834C62.2944 96.1626 62.1699 96.3096 62.0455 96.5246C61.921 96.7169 61.8305 96.8753 61.7739 96.9998C61.525 97.1582 61.344 97.4184 61.2309 97.7804C61.1064 98.1312 61.0442 98.431 61.0442 98.6799C61.1008 98.7364 61.1404 98.8552 61.163 99.0363C61.1856 99.2173 61.2083 99.4209 61.2309 99.6472C61.2535 99.8508 61.2761 100.054 61.2988 100.258C61.3327 100.45 61.3723 100.581 61.4176 100.648L61.757 101.192C61.8701 101.486 61.9889 101.718 62.1133 101.887C62.2491 102.046 62.3849 102.181 62.5206 102.295C62.6677 102.396 62.8148 102.498 62.9619 102.6C63.109 102.702 63.2391 102.843 63.3522 103.024C63.4653 103.183 63.5332 103.318 63.5558 103.432C63.6237 103.545 63.6916 103.669 63.7595 103.805C63.8161 103.929 63.8783 104.048 63.9462 104.161C63.9914 104.229 64.0536 104.348 64.1328 104.518C64.2234 104.676 64.3195 104.863 64.4213 105.078L64.8626 105.994C64.9418 106.096 65.021 106.198 65.1002 106.3C65.1794 106.401 65.2642 106.498 65.3547 106.588C65.5357 106.86 65.7055 107.097 65.8638 107.301C66.0222 107.505 66.2033 107.799 66.4069 108.183C66.4861 108.33 66.5596 108.472 66.6275 108.608C66.6954 108.743 66.7689 108.874 66.8481 108.998C66.9726 109.236 67.1027 109.467 67.2385 109.694C67.3629 109.909 67.4817 110.095 67.5948 110.254C67.7306 110.435 67.872 110.655 68.0191 110.916C68.1549 111.165 68.2737 111.385 68.3755 111.577L68.5452 111.951C68.6696 112.211 68.7998 112.488 68.9355 112.782C69.0713 113.077 69.2014 113.365 69.3258 113.648C69.4616 113.919 69.5804 114.174 69.6822 114.412C69.7954 114.66 69.8915 114.858 69.9707 115.006C69.9933 115.073 69.9933 115.141 69.9707 115.209C69.9594 115.288 69.9481 115.356 69.9368 115.413C69.8915 115.571 69.8576 115.673 69.835 115.718C69.8236 115.775 69.7897 115.798 69.7331 115.786C69.6652 115.854 69.603 115.95 69.5465 116.075C69.5012 116.188 69.4842 116.329 69.4955 116.499C69.5069 116.533 69.5125 116.606 69.5125 116.72C69.4446 116.901 69.3541 117.07 69.241 117.229C69.1505 117.387 69.0373 117.512 68.9016 117.602C68.7432 117.715 68.5678 117.789 68.3755 117.823C68.1832 117.857 68.0304 117.828 67.9173 117.738C67.872 117.647 67.7928 117.545 67.6797 117.432C67.5666 117.342 67.4082 117.251 67.2045 117.161C67.0348 117.217 66.899 117.206 66.7972 117.127C66.6954 117.07 66.5823 116.901 66.4578 116.618C66.3673 116.437 66.2598 116.216 66.1354 115.956C66.0109 115.696 65.8978 115.458 65.796 115.243C65.6715 115.006 65.5471 114.779 65.4226 114.564C65.2868 114.338 65.1285 114.089 64.9474 113.818C64.7777 113.535 64.5741 113.218 64.3365 112.867C64.1102 112.505 63.8274 112.064 63.488 111.544L61.5873 108.794L61.18 108.217C60.9424 107.934 60.6991 107.635 60.4502 107.318C60.2013 106.978 59.9581 106.633 59.7205 106.283L58.4986 104.654C58.3402 104.427 58.1762 104.195 58.0065 103.958C57.8368 103.72 57.6784 103.516 57.5313 103.347C57.4295 103.2 57.2994 103.024 57.141 102.821C56.9713 102.606 56.8185 102.408 56.6828 102.227C56.4452 101.876 56.1793 101.52 55.8852 101.158C55.6023 100.784 55.3647 100.445 55.1724 100.139L54.9348 99.9696C54.799 99.7886 54.6859 99.6302 54.5954 99.4945C54.5162 99.3474 54.4313 99.1946 54.3408 99.0363C54.2956 98.9005 54.2616 98.81 54.239 98.7647C54.2277 98.7082 54.2447 98.6459 54.2899 98.578C54.2899 98.5328 54.3125 98.4649 54.3578 98.3744C54.4031 98.2613 54.437 98.1821 54.4596 98.1368L54.4936 98.3744ZM79.7617 95.2698C79.7617 95.0662 79.8352 94.9248 79.9823 94.8456C80.1181 94.7551 80.2368 94.8399 80.3387 95.1001C80.4066 95.1228 80.4405 95.1567 80.4405 95.202C80.4292 95.2133 80.4292 95.2246 80.4405 95.2359C80.4631 95.3943 80.4971 95.5414 80.5423 95.6771L80.6441 96.0505C80.7347 96.3446 80.8252 96.6727 80.9157 97.0348C81.0062 97.3742 81.091 97.7419 81.1702 98.1379L81.1533 98.1209C81.1759 98.1888 81.2098 98.2454 81.2551 98.2906L81.2721 98.3076L81.3399 98.613C81.3965 98.8733 81.4474 99.1391 81.4927 99.4107C81.5266 99.6709 81.5492 99.9424 81.5606 100.225L81.5775 100.548C81.6115 100.853 81.6284 101.164 81.6284 101.481L81.5945 101.617C81.5492 101.82 81.5096 102.007 81.4757 102.177C81.4418 102.347 81.3965 102.505 81.3399 102.652L81.323 102.635C81.2664 102.827 81.1815 102.991 81.0684 103.127C80.9779 103.263 80.8704 103.382 80.746 103.484C80.3952 103.721 80.0162 103.84 79.6089 103.84C79.213 103.829 78.8453 103.744 78.5059 103.585C78.3361 103.506 78.1778 103.404 78.0307 103.28C77.8723 103.167 77.7195 103.059 77.5725 102.958C77.5046 102.912 77.4424 102.861 77.3858 102.805C77.3066 102.748 77.2387 102.692 77.1821 102.635C77.1256 102.579 77.0803 102.522 77.0464 102.465C77.0011 102.42 76.9502 102.369 76.8936 102.313L76.5882 102.007C76.4298 101.804 76.2827 101.6 76.1469 101.396C76.0112 101.193 75.8698 100.972 75.7227 100.734L75.5699 100.48C75.4907 100.333 75.4116 100.186 75.3324 100.039C75.2532 99.8915 75.174 99.7331 75.0948 99.5634C74.9477 99.2127 74.8006 98.8733 74.6535 98.5452C74.4951 98.2058 74.3367 97.889 74.1784 97.5948C74.167 97.5609 74.1388 97.5213 74.0935 97.476C73.8672 97.1366 73.805 96.8594 73.9068 96.6445L73.8899 96.6614C73.9125 96.5483 73.9577 96.4578 74.0256 96.3899C74.0822 96.3107 74.1784 96.2259 74.3141 96.1353C74.5291 95.9883 74.8515 95.9374 75.2814 95.9826C75.7114 96.0052 76.1413 96.1749 76.5712 96.4917C76.673 96.5709 76.7692 96.6784 76.8597 96.8142C76.9389 96.9386 77.0181 97.0744 77.0973 97.2215L77.1991 97.3912C77.2104 97.4025 77.2274 97.4081 77.25 97.4081L77.3179 97.4421C77.4084 97.4873 77.482 97.5382 77.5385 97.5948L77.7422 97.7985C77.7761 97.8324 77.8101 97.8663 77.844 97.9003C77.8893 97.9229 77.9289 97.9512 77.9628 97.9851C78.0646 98.1548 78.1551 98.3245 78.2343 98.4943C78.3135 98.664 78.3814 98.8224 78.438 98.9694L78.5737 99.3428C78.5964 99.3654 78.6133 99.3824 78.6246 99.3937C78.6473 99.3937 78.6699 99.405 78.6925 99.4276C78.8283 99.7444 78.981 100.056 79.1507 100.361C79.3091 100.655 79.4788 100.927 79.6598 101.176L79.6768 101.193C79.7108 101.204 79.739 101.221 79.7617 101.243C79.773 101.255 79.7786 101.294 79.7786 101.362L79.7617 101.515C79.8635 101.866 79.9879 102.115 80.135 102.262C80.2708 102.397 80.4235 102.414 80.5932 102.313C80.6385 102.222 80.6724 102.086 80.6951 101.905C80.729 101.713 80.7516 101.487 80.7629 101.227C80.8082 101.068 80.8308 100.898 80.8308 100.717C80.8195 100.525 80.8138 100.338 80.8138 100.157L80.7969 99.9028C80.7403 99.3258 80.6498 98.7488 80.5253 98.1718C80.3896 97.5835 80.2425 96.9839 80.0841 96.3729C80.0389 96.1467 79.9936 95.9543 79.9483 95.7959C79.8918 95.6262 79.8296 95.4509 79.7617 95.2698ZM73.1092 92.317C72.8716 92.5093 72.5605 92.6507 72.1758 92.7412C71.9609 92.7752 71.712 92.7412 71.4291 92.6394C71.1463 92.5376 70.8861 92.3679 70.6485 92.1303C70.4561 91.9606 70.326 91.7965 70.2582 91.6381C70.2016 91.4684 70.1733 91.2931 70.1733 91.1121C70.1959 90.6369 70.343 90.2635 70.6145 89.992C70.7277 89.8562 70.9257 89.7261 71.2085 89.6017C71.5027 89.4659 71.7855 89.3754 72.057 89.3301C72.1702 89.3301 72.2663 89.3358 72.3455 89.3471C72.4247 89.3584 72.4983 89.3867 72.5662 89.432C72.6906 89.5112 72.7698 89.6017 72.8037 89.7035C72.849 89.794 72.8829 89.9071 72.9056 90.0429L72.8886 90.0259C72.9225 90.1051 72.9508 90.19 72.9734 90.2805C72.9961 90.3484 73.0187 90.4389 73.0413 90.552L73.0244 90.5351C73.0583 90.6143 73.0866 90.7104 73.1092 90.8236C73.1318 90.9141 73.1601 90.9989 73.1941 91.0781C73.2846 91.4854 73.3242 91.7626 73.3129 91.9097C73.3129 92.0454 73.245 92.1812 73.1092 92.317ZM85.5692 88.6817C85.5692 88.478 85.6427 88.3592 85.7898 88.3253C85.9369 88.2687 86.067 88.3423 86.1801 88.5459C86.248 88.6138 86.2989 88.8231 86.3329 89.1738C86.3894 89.4114 86.4517 89.6547 86.5195 89.9036C86.5761 90.1412 86.61 90.4014 86.6214 90.6842L86.6553 90.786L86.7062 90.9727C86.7062 91.2216 86.6836 91.5045 86.6383 91.8212C86.6044 92.1267 86.5309 92.4605 86.4177 92.8225L86.3498 92.9922C86.3159 93.094 86.2706 93.2072 86.2141 93.3316C86.1688 93.4448 86.1122 93.5579 86.0444 93.671C86.033 93.7276 86.0104 93.7955 85.9765 93.8747C85.9539 93.9426 85.9312 93.9991 85.9086 94.0444L85.7219 94.2311C85.9369 94.4687 86.1009 94.7458 86.2141 95.0626C86.3272 95.3794 86.4121 95.634 86.4686 95.8263C86.4799 95.9055 86.4743 96.0017 86.4517 96.1148C86.4177 96.2166 86.3838 96.3184 86.3498 96.4203L86.2989 96.6748C86.2876 96.754 86.2537 96.8558 86.1971 96.9803C86.1518 97.1161 86.0896 97.2575 86.0104 97.4046C85.9425 97.5403 85.8633 97.6761 85.7728 97.8119C85.6936 97.9363 85.6201 98.0325 85.5522 98.1004C85.4956 98.1795 85.3995 98.2531 85.2637 98.321C85.1506 98.3889 85.0374 98.4454 84.9243 98.4907C84.913 98.502 84.8734 98.519 84.8055 98.5416C84.7037 98.666 84.5453 98.7792 84.3303 98.881C84.138 98.9828 83.9117 99.0733 83.6515 99.1525L83.6855 99.1525C83.4818 99.2204 83.2668 99.243 83.0406 99.2204C82.8143 99.1978 82.6107 99.1186 82.4296 98.9828C82.2486 98.8471 82.1355 98.666 82.0902 98.4398C82.0563 98.2022 82.0676 97.9646 82.1242 97.727C82.1242 97.5686 82.1751 97.3819 82.2769 97.167C82.3674 96.9407 82.4805 96.7257 82.6163 96.5221C82.7408 96.3071 82.8652 96.1261 82.9897 95.979C83.1254 95.8206 83.2386 95.7301 83.3291 95.7075C83.363 95.5831 83.3291 95.4473 83.2272 95.3002C83.2159 95.2889 83.2046 95.2776 83.1933 95.2663C83.1933 95.2436 83.1876 95.2267 83.1763 95.2154C83.1311 95.0796 83.0745 94.9891 83.0066 94.9438C82.9161 94.8533 82.8369 94.7402 82.769 94.6044C82.7125 94.5026 82.6502 94.4064 82.5824 94.3159C82.5032 94.2141 82.4013 94.1349 82.2769 94.0783L81.615 93.2128C81.5132 93.1789 81.4227 93.1336 81.3435 93.0771C81.2756 93.0092 81.2021 92.947 81.1229 92.8904C80.9871 92.7546 80.8287 92.6528 80.6477 92.5849C80.5346 92.517 80.4214 92.4492 80.3083 92.3813C80.2065 92.3021 80.0764 92.2398 79.918 92.1946C79.8727 92.1946 79.7822 92.1607 79.6465 92.0928C79.6238 92.138 79.6408 92.2794 79.6974 92.517C79.7653 92.7433 79.8501 93.0318 79.9519 93.3825C80.0651 93.7898 80.1895 94.2424 80.3253 94.7402C80.461 95.2154 80.5459 95.6622 80.5798 96.0809C80.5912 96.16 80.5685 96.194 80.512 96.1827C80.4554 96.1714 80.3875 96.1374 80.3083 96.0809C80.2291 96.0017 80.1556 95.9055 80.0877 95.7924C80.0085 95.6679 79.9463 95.5378 79.901 95.402C79.8784 95.3115 79.8162 95.1022 79.7143 94.7741C79.6125 94.446 79.505 94.0896 79.3919 93.705C79.2674 93.309 79.143 92.9356 79.0185 92.5849C78.8941 92.2342 78.8036 91.9966 78.747 91.8722L76.7445 90.0733C76.6766 89.9601 76.6257 89.8187 76.5918 89.649C76.5578 89.4567 76.5408 89.27 76.5408 89.089C76.5295 88.9645 76.5126 88.8457 76.4899 88.7326C76.4673 88.5968 76.439 88.4894 76.4051 88.4102L76.4051 88.2744C76.4051 87.9124 76.4277 87.6861 76.473 87.5956C76.5069 87.4937 76.6314 87.4259 76.8463 87.3919L76.9651 87.375C77.0556 87.3523 77.1574 87.3297 77.2706 87.3071C77.3724 87.2731 77.4969 87.2505 77.6439 87.2392C77.8702 87.2618 78.0965 87.2958 78.3228 87.341C78.549 87.3636 78.7583 87.4372 78.9507 87.5616L79.2052 87.7144C79.2505 87.737 79.3014 87.7653 79.358 87.7992C79.4032 87.8218 79.4598 87.8558 79.5277 87.901C79.6747 88.0029 79.7766 88.1839 79.8331 88.4441C79.901 88.693 79.9519 88.9589 79.9859 89.2417C80.0085 89.4001 80.0368 89.5642 80.0707 89.7339C80.1047 89.8809 80.1443 90.011 80.1895 90.1242C80.3027 90.1468 80.4837 90.2034 80.7326 90.2939C80.9702 90.3731 81.2191 90.4636 81.4793 90.5654C81.7282 90.6559 81.9714 90.7521 82.209 90.8539C82.4353 90.9444 82.605 91.0123 82.7181 91.0576L83.1424 91.0406L83.8382 91.363C83.94 91.3517 83.9966 91.363 84.0079 91.397C84.0192 91.4309 84.0362 91.4818 84.0588 91.5497C84.0588 91.5723 84.0645 91.6006 84.0758 91.6346C84.0984 91.6572 84.121 91.6685 84.1437 91.6685L84.2285 91.7194L84.3643 91.7873C84.4208 91.8439 84.5057 91.9061 84.6188 91.974C84.732 92.0419 84.8168 92.1041 84.8734 92.1607C84.93 92.2172 84.9696 92.2794 84.9922 92.3473C85.0601 92.4378 85.111 92.6019 85.1449 92.8395C85.1562 92.9413 85.1845 93.0488 85.2298 93.1619C85.2637 93.2637 85.309 93.3543 85.3655 93.4334L85.6031 92.9583C85.6823 92.8338 85.7445 92.7037 85.7898 92.5679C85.8351 92.4322 85.8633 92.3021 85.8747 92.1776L85.8577 92.1946L85.8747 92.1097C85.9652 91.6119 85.9934 91.1424 85.9595 90.7012C85.9143 90.2486 85.8407 89.7791 85.7389 89.2926C85.705 89.1229 85.6484 88.9193 85.5692 88.6817ZM83.7533 96.3354C83.7307 96.3354 83.6685 96.409 83.5667 96.556C83.4761 96.6918 83.38 96.8672 83.2782 97.0821C83.1763 97.2971 83.0915 97.529 83.0236 97.7779C82.9444 98.0155 82.9274 98.2248 82.9727 98.4058C83.0179 98.4963 83.1198 98.5303 83.2782 98.5076C83.4252 98.4737 83.561 98.3945 83.6855 98.2701C83.776 98.1795 83.8608 98.0381 83.94 97.8458C84.155 97.3367 84.0927 96.8332 83.7533 96.3354ZM92.1807 92.9653C91.4227 93.6102 90.5911 93.8761 89.686 93.7629C88.7922 93.6385 87.938 93.2368 87.1235 92.558C86.8972 92.377 86.6539 92.0998 86.3937 91.7264C86.1222 91.3644 85.9016 91.008 85.7319 90.6573C85.483 90.0916 85.2623 89.509 85.07 88.9093C84.8777 88.2871 84.7419 87.6988 84.6627 87.1444C84.5835 86.59 84.5666 86.0979 84.6118 85.668C84.6571 85.2154 84.7985 84.8703 85.0361 84.6328C85.2284 84.4404 85.4094 84.3386 85.5791 84.3273C85.7488 84.316 85.8733 84.3273 85.9525 84.3612L86.0034 84.0388C86.026 83.9709 86.0373 83.9256 86.0373 83.903C86.0373 83.8578 86.06 83.7559 86.1052 83.5975C86.1392 83.5636 86.3032 83.5693 86.5974 83.6145C86.8915 83.6598 87.2309 83.8182 87.6156 84.0897C87.8871 84.316 88.0625 84.514 88.1417 84.6837C88.2209 84.8534 88.2831 85.0174 88.3284 85.1758C88.351 85.3116 88.4019 85.453 88.4811 85.6001C88.549 85.7358 88.6791 85.8886 88.8714 86.0583C88.9393 86.1262 88.9563 86.1997 88.9223 86.2789C88.8884 86.3581 88.8318 86.4373 88.7526 86.5165C88.6169 86.6522 88.4641 86.7371 88.2944 86.771C88.136 86.7937 87.9776 86.7937 87.8192 86.771C87.6609 86.7484 87.5081 86.7088 87.361 86.6522C87.214 86.5731 87.0952 86.5108 87.0047 86.4656C87.016 86.4995 87.0216 86.5165 87.0216 86.5165C87.0103 86.5052 87.0103 86.5165 87.0216 86.5504L87.1404 86.8389L87.1235 86.822L87.2932 87.1274L87.395 87.4329L87.5986 88.0438L88.1587 89.5542C88.3057 89.9276 88.4924 90.2953 88.7187 90.6573C88.945 90.9967 89.2221 91.3192 89.5502 91.6246C89.901 91.9075 90.28 92.1168 90.6873 92.2525C91.0946 92.3883 91.434 92.3204 91.7055 92.0489C91.7621 91.9923 91.8073 91.9018 91.8413 91.7774C91.8752 91.766 91.9035 91.7491 91.9261 91.7264C91.9487 91.7038 91.9714 91.6812 91.994 91.6586C92.1298 91.5228 92.2146 91.3022 92.2486 90.9967C92.2938 90.6799 92.3051 90.3292 92.2825 89.9445C92.2599 89.5372 92.2146 89.1073 92.1467 88.6548C92.0789 88.2022 92.011 87.7497 91.9431 87.2971L91.8582 86.771C91.8243 86.6013 91.7847 86.426 91.7394 86.245C91.6829 86.0526 91.6263 85.8603 91.5697 85.668C91.4566 85.238 91.3604 84.8364 91.2812 84.463C91.1907 84.0784 91.2077 83.8238 91.3321 83.6994C91.4566 83.5749 91.598 83.5693 91.7564 83.6824C91.813 83.739 91.9318 84.0162 92.1128 84.514C92.2825 85.0004 92.4296 85.6793 92.554 86.5504L92.6389 86.9407C92.6615 87.1444 92.6955 87.3594 92.7407 87.5856C92.7746 87.7327 92.7916 87.8854 92.7916 88.0438L92.8256 88.4172C92.8482 88.6887 92.8821 88.9376 92.9274 89.1639C92.9726 89.3675 93.0292 89.5938 93.0971 89.8427C93.1423 90.6347 93.0801 91.2739 92.9104 91.7604C92.7407 92.2469 92.4975 92.6485 92.1807 92.9653ZM98.4687 82.5025C98.4121 82.5591 98.3555 82.6157 98.299 82.6723C98.2424 82.7062 98.1745 82.7401 98.0953 82.7741L98.1123 82.8589L98.1632 83.1814C98.1745 83.2379 98.1632 83.3171 98.1293 83.419C98.1066 83.5095 98.1293 83.6113 98.1971 83.7244C98.1971 83.7471 98.2028 83.764 98.2141 83.7753L98.2311 83.7923C98.2763 83.9281 98.2933 84.1148 98.282 84.3523C98.2707 84.5899 98.2367 84.7936 98.1802 84.9633C98.1689 85.0198 98.1575 85.0764 98.1462 85.133C98.1349 85.1896 98.1293 85.2405 98.1293 85.2857C98.1066 85.4215 98.0783 85.5403 98.0444 85.6421C98.0218 85.7552 97.9652 85.8797 97.8747 86.0155C97.7842 86.2191 97.6767 86.3945 97.5523 86.5415C97.4391 86.6773 97.2977 86.8187 97.128 86.9658L96.8904 87.0676L96.551 87.1695L96.4322 87.2204C96.4096 87.243 96.3813 87.26 96.3473 87.2713C96.336 87.2826 96.3247 87.2939 96.3134 87.3052C96.2568 87.3618 96.172 87.424 96.0588 87.4919C95.561 87.6729 95.035 87.7465 94.4806 87.7125C93.8583 87.6559 93.2926 87.407 92.7835 86.9658C92.693 86.8753 92.5799 86.7508 92.4441 86.5925C92.2857 86.4341 92.1273 86.2757 91.9689 86.1173C91.8219 85.9476 91.6804 85.7835 91.5447 85.6251C91.4202 85.4554 91.3184 85.3197 91.2392 85.2178C90.9677 84.9011 90.7527 84.573 90.5943 84.2335C90.4812 83.9846 90.3907 83.7244 90.3228 83.4529C90.2662 83.1701 90.2153 82.8929 90.1701 82.6213C90.0796 82.214 90.0343 81.8294 90.0343 81.4673L90.0513 81.4843C90.0286 81.2128 90.0343 80.9469 90.0682 80.6867C90.1022 80.4265 90.1531 80.1719 90.221 79.923L90.2719 79.7703C90.3171 79.5214 90.385 79.3064 90.4755 79.1254C90.566 78.9218 90.6735 78.7351 90.798 78.5654C90.9337 78.3844 91.0638 78.2543 91.1883 78.1751C91.3127 78.0732 91.4598 77.9827 91.6295 77.9035L91.7144 77.8866C91.9746 77.8074 92.2292 77.7338 92.4781 77.6659C92.7156 77.5867 92.9532 77.5415 93.1908 77.5302C93.4284 77.4962 93.649 77.5132 93.8527 77.5811C94.0676 77.6377 94.26 77.7508 94.4297 77.9205C94.5089 77.9544 94.5372 78.0393 94.5145 78.1751C94.4919 78.2882 94.3674 78.4353 94.1412 78.6163C94.0167 78.7634 93.8923 78.967 93.7678 79.2272C93.6547 79.4761 93.5529 79.7477 93.4624 80.0418C93.3718 80.336 93.304 80.6414 93.2587 80.9582C93.2135 81.2524 93.1965 81.5183 93.2078 81.7558C93.253 82.05 93.3209 82.3555 93.4114 82.6723C93.4906 82.9777 93.5981 83.2775 93.7339 83.5717C93.7678 83.6509 93.8583 83.7867 94.0054 83.979C94.1525 84.1713 94.2939 84.358 94.4297 84.539L94.6842 84.8954L94.7521 84.9633C94.8653 85.1443 94.9784 85.314 95.0915 85.4724C95.2047 85.6308 95.3121 85.7609 95.414 85.8627C95.5271 85.9759 95.6968 86.0777 95.9231 86.1682C96.138 86.2474 96.2964 86.2587 96.3983 86.2021C96.6019 86.1342 96.7886 86.0155 96.9583 85.8457C97.0488 85.7552 97.1337 85.6478 97.2128 85.5233C97.292 85.3989 97.3656 85.2687 97.4335 85.133C97.4674 85.0538 97.4844 84.9802 97.4844 84.9124C97.4731 84.8332 97.4617 84.7427 97.4504 84.6408C97.4391 84.5616 97.4222 84.4881 97.3995 84.4202C97.3882 84.341 97.3939 84.2675 97.4165 84.1996C97.4504 83.9168 97.4391 83.6452 97.3826 83.385C97.3147 83.1135 97.2411 82.9155 97.1619 82.791C96.9017 82.8476 96.551 82.8137 96.1098 82.6892C95.6685 82.5421 95.2725 82.3385 94.9218 82.0783C94.6503 81.7389 94.4636 81.4617 94.3618 81.2467C94.26 81.0318 94.2034 80.8621 94.1921 80.7376C94.1808 80.5905 94.2034 80.4774 94.26 80.3982C94.3279 80.3077 94.4014 80.2228 94.4806 80.1436C94.605 80.0192 94.7804 79.9117 95.0067 79.8212C95.2216 79.7194 95.4309 79.7363 95.6346 79.8721L95.7025 79.8042C95.7703 79.8042 95.8552 79.8551 95.957 79.957C96.0362 79.9909 96.0984 80.0305 96.1437 80.0758C96.2003 80.1097 96.2682 80.1776 96.3473 80.2794C96.3473 80.2794 96.37 80.2794 96.4152 80.2794L96.534 80.2964C96.6585 80.3077 96.7433 80.3473 96.7886 80.4152C96.8225 80.4717 96.8621 80.5453 96.9074 80.6358L97.0092 80.8055L97.145 80.9073L97.4335 81.1279C97.4674 81.1619 97.5183 81.292 97.5862 81.5183C97.6541 81.7219 97.7163 81.9086 97.7729 82.0783L97.8577 81.9934C97.9143 81.9595 97.9709 81.9142 98.0274 81.8577C98.1745 81.7558 98.2707 81.5918 98.3159 81.3655C98.3612 81.1166 98.3668 80.8507 98.3329 80.5679C98.3216 80.3077 98.3103 80.0362 98.299 79.7533C98.2763 79.4592 98.2424 79.1424 98.1971 78.803C98.1745 78.7351 98.1689 78.7068 98.1802 78.7181C98.1689 78.5937 98.1406 78.4749 98.0953 78.3617C98.0614 78.2373 98.0331 78.1072 98.0105 77.9714C97.8973 77.5415 97.7898 77.1059 97.688 76.6647C97.6993 76.5855 97.7333 76.5176 97.7898 76.461C97.8351 76.3931 97.8973 76.3535 97.9765 76.3422C98.0444 76.3196 98.1123 76.3422 98.1802 76.4101C98.2481 76.4554 98.299 76.5629 98.3329 76.7326L98.3329 76.6986C98.5366 77.1059 98.6949 77.6037 98.8081 78.192C98.9325 78.769 99.0117 79.346 99.0457 79.923C99.0683 80.4887 99.04 81.0148 98.9608 81.5013C98.8703 81.9765 98.7063 82.3102 98.4687 82.5025ZM96.9583 82.1122L96.8734 81.8916L96.7037 81.5522C96.6698 81.4956 96.6528 81.4447 96.6528 81.3995C96.6415 81.3429 96.6189 81.2976 96.5849 81.2637C96.5736 81.2524 96.568 81.2467 96.568 81.2467C96.568 81.2241 96.5623 81.2071 96.551 81.1958L96.0928 80.9073C95.9231 80.7829 95.7251 80.7206 95.4988 80.7206C95.4649 80.732 95.4253 80.7489 95.38 80.7716C95.3348 80.7716 95.2952 80.7885 95.2612 80.8225C95.2499 80.8111 95.2443 80.8394 95.2443 80.9073C95.2443 80.9073 95.2782 80.9639 95.3461 81.077C95.38 81.0883 95.414 81.1223 95.4479 81.1788C95.4705 81.2241 95.4932 81.2694 95.5158 81.3146C95.561 81.3825 95.6289 81.473 95.7194 81.5861C95.8213 81.688 96.0419 81.8181 96.3813 81.9765L96.5001 82.0953L96.9583 82.1122ZM105.741 76.9611C105.56 77.0969 105.362 77.1817 105.147 77.2157C104.932 77.2496 104.712 77.2553 104.485 77.2327C104.259 77.1874 104.044 77.1195 103.84 77.029C103.625 76.9272 103.439 76.8084 103.28 76.6726C103.201 76.5934 103.128 76.5199 103.06 76.452C102.981 76.3728 102.918 76.288 102.873 76.1975C102.816 76.2088 102.743 76.1579 102.652 76.0447C102.562 75.909 102.46 75.7619 102.347 75.6035C102.279 75.513 102.211 75.4225 102.143 75.332C102.075 75.2414 102.019 75.1622 101.974 75.0944C101.917 75.0152 101.86 74.936 101.804 74.8568C101.736 74.8342 101.725 74.9247 101.77 75.1283C101.815 75.3093 101.86 75.4903 101.906 75.6714L102.008 76.0447C102.008 76.1579 102.03 76.271 102.075 76.3841C102.121 76.4746 102.172 76.5708 102.228 76.6726C102.285 76.7971 102.341 76.9328 102.398 77.0799C102.443 77.2157 102.466 77.3628 102.466 77.5212C102.545 78.0755 102.573 78.6356 102.551 79.2012C102.528 79.7669 102.381 80.1855 102.109 80.4571C101.906 80.6607 101.612 80.7965 101.227 80.8644C100.854 80.9209 100.475 80.7795 100.09 80.4401C99.9315 80.327 99.7788 80.1403 99.6317 79.8801C99.5072 79.8688 99.4111 79.8405 99.3432 79.7952C99.264 79.7386 99.1791 79.6877 99.0886 79.6425L98.5625 79.1843C98.5286 79.1051 98.489 79.0202 98.4437 78.9297C98.4098 78.8279 98.3645 78.7261 98.308 78.6242L98.0874 78.0642L97.6122 77.6909C97.4425 77.408 97.2558 77.1308 97.0522 76.8593C96.8372 76.5765 96.6279 76.3106 96.4242 76.0617C96.3564 75.9712 96.2828 75.8863 96.2036 75.8071C96.1244 75.7053 96.0566 75.6035 96 75.5017C95.9434 75.4451 95.8868 75.3772 95.8303 75.298C95.7737 75.1962 95.7171 75.0944 95.6606 74.9925C95.5701 74.7889 95.4852 74.6475 95.406 74.5683L95.3721 74.5683C95.3608 74.557 95.3438 74.5513 95.3212 74.5513C95.3098 74.54 95.2929 74.523 95.2702 74.5004C95.1684 74.4438 95.1741 74.359 95.2872 74.2458C95.5361 73.9969 95.7398 73.8725 95.8982 73.8725C96.0566 73.8725 96.2206 73.9008 96.3903 73.9573C96.5034 74.0026 96.6222 74.0422 96.7467 74.0761C96.8711 74.0874 97.0182 74.0648 97.1879 74.0083C97.5952 73.8725 97.9403 73.8781 98.2231 74.0252C98.5173 74.161 98.7266 74.2798 98.851 74.3816L99.0207 74.6871C99.1565 74.936 99.2923 75.1849 99.428 75.4338C99.5751 75.6714 99.7505 75.9146 99.9541 76.1635C100.067 76.3672 100.18 76.5934 100.294 76.8423C100.407 77.0686 100.514 77.2892 100.616 77.5042C100.808 77.9002 100.989 78.2735 101.159 78.6242C101.329 78.9523 101.47 79.1503 101.583 79.2182C101.662 79.2974 101.725 79.3257 101.77 79.3031C101.804 79.1334 101.804 78.8618 101.77 78.4885C101.747 78.1038 101.691 77.6739 101.6 77.1987C101.521 76.7122 101.419 76.2031 101.295 75.6714C101.17 75.117 101.035 74.5966 100.888 74.1101L100.837 73.8895C100.769 73.6179 100.678 73.3238 100.565 73.007C100.452 72.6676 100.322 72.4356 100.175 72.3112L100.09 72.2263C100.079 72.215 100.067 72.215 100.056 72.2263C100.045 72.215 100.028 72.1981 100.005 72.1754C99.9372 71.9944 99.8466 71.8021 99.7335 71.5984C99.6317 71.3835 99.5412 71.1798 99.462 70.9875C99.3375 70.7499 99.2414 70.5519 99.1735 70.3935C99.1056 70.2125 99.0999 70.0937 99.1565 70.0371C99.2357 69.9579 99.3488 69.8901 99.4959 69.8335C99.643 69.7769 99.807 69.7486 99.9881 69.7486C100.169 69.7486 100.361 69.7826 100.565 69.8505C100.769 69.8957 100.955 69.9919 101.125 70.139C101.25 70.2182 101.374 70.3426 101.498 70.5123C101.781 70.501 101.985 70.5123 102.109 70.5463C102.234 70.5576 102.364 70.6198 102.5 70.7329C102.816 71.1855 103.128 71.6889 103.433 72.2433L103.586 72.4979L103.925 72.7694L104.129 73.3125C104.208 73.5048 104.287 73.7084 104.366 73.9234C104.446 74.1157 104.531 74.2572 104.621 74.3477C104.666 74.3703 104.706 74.3986 104.74 74.4325C104.774 74.4438 104.802 74.4721 104.825 74.5174C104.847 74.54 104.87 74.5626 104.893 74.5853C104.904 74.5966 104.91 74.6135 104.91 74.6362C105.011 74.919 105.113 75.1679 105.215 75.3829C105.317 75.5978 105.413 75.7506 105.503 75.8411L105.673 75.875C105.73 75.7958 105.764 75.6487 105.775 75.4338C105.798 75.2075 105.803 74.9416 105.792 74.6362C105.769 74.3194 105.735 73.9913 105.69 73.6519C105.645 73.2898 105.594 72.9448 105.537 72.6167L105.402 72.1754C105.334 71.8586 105.266 71.5645 105.198 71.293C105.13 71.0214 105.057 70.7329 104.977 70.4275L104.893 70.2408C104.836 70.1163 104.762 69.9636 104.672 69.7826C104.581 69.6016 104.508 69.4262 104.451 69.2565C104.383 69.0755 104.344 68.9114 104.333 68.7643C104.321 68.5946 104.361 68.4645 104.451 68.374C104.553 68.2722 104.678 68.2722 104.825 68.374C104.847 68.3967 104.87 68.4306 104.893 68.4758C104.926 68.5098 104.96 68.5664 104.994 68.6456C105.017 68.6682 105.04 68.7474 105.062 68.8831C105.096 69.0302 105.153 69.2112 105.232 69.4262C105.3 69.6298 105.385 69.7713 105.487 69.8505C105.554 70.0089 105.617 70.2068 105.673 70.4444C105.73 70.6594 105.781 70.88 105.826 71.1063C105.973 71.3439 106.08 71.6097 106.148 71.9039L106.42 73.5331L106.403 73.5161C106.437 73.5953 106.454 73.6575 106.454 73.7028C106.465 73.7367 106.471 73.7763 106.471 73.8216C106.471 73.8668 106.471 73.9121 106.471 73.9573C106.471 73.98 106.476 74.0083 106.488 74.0422C106.567 74.325 106.595 74.6135 106.573 74.9077C106.561 75.1905 106.527 75.4621 106.471 75.7223C106.403 75.9712 106.329 76.1918 106.25 76.3841C106.16 76.5651 106.08 76.6896 106.013 76.7575C105.956 76.8141 105.871 76.8763 105.758 76.9442L105.741 76.9611ZM111.951 70.1738C111.589 70.3549 111.159 70.3775 110.662 70.2417C110.175 70.0946 109.694 69.8175 109.219 69.4102C108.936 69.1726 108.631 68.7653 108.303 68.1883C107.963 67.6 107.647 66.9438 107.352 66.2197C107.352 66.1744 107.33 66.0952 107.284 65.9821C107.239 65.8463 107.205 65.7106 107.183 65.5748C107.126 65.3825 107.075 65.2071 107.03 65.0487C106.973 64.879 106.894 64.7546 106.792 64.6754L106.741 64.4887C106.719 64.3982 106.702 64.3473 106.691 64.336C106.691 64.3133 106.685 64.2964 106.674 64.285C106.651 64.3982 106.64 64.5453 106.64 64.7263C106.594 64.7715 106.555 64.8677 106.521 65.0148C106.476 65.1505 106.447 65.3146 106.436 65.5069C106.425 65.6766 106.43 65.8633 106.453 66.067C106.476 66.248 106.532 66.4064 106.623 66.5421C106.691 67.0626 106.815 67.5717 106.996 68.0695C107.177 68.5673 107.358 69.0425 107.539 69.495C107.596 69.6195 107.647 69.7383 107.692 69.8514C107.737 69.9645 107.777 70.072 107.811 70.1738C107.878 70.2191 107.935 70.287 107.98 70.3775C108.026 70.4454 108.071 70.5246 108.116 70.6151C108.15 70.6943 108.184 70.7735 108.218 70.8527C108.263 70.9205 108.308 70.9771 108.354 71.0224C108.433 71.0563 108.472 71.1072 108.472 71.1751L108.455 71.1581C108.546 71.4975 108.659 71.7804 108.795 72.0067C108.942 72.2216 109.066 72.4026 109.168 72.5497C109.259 72.6855 109.327 72.7986 109.372 72.8891C109.428 72.9683 109.423 73.0419 109.355 73.1097L109.321 73.1437L108.982 73.3134C109.095 73.4944 109.1 73.6358 108.999 73.7377C108.874 73.8621 108.614 73.9187 108.218 73.9074C107.822 73.8734 107.46 73.7603 107.132 73.5679L107.013 73.5849C106.956 73.5283 106.911 73.4718 106.877 73.4152C106.832 73.37 106.787 73.3134 106.741 73.2455C106.685 73.1663 106.623 73.0815 106.555 72.9909C106.487 72.9004 106.402 72.8156 106.3 72.7364C106.221 72.6572 106.119 72.5893 105.995 72.5327L106.012 72.5158C105.966 72.5158 105.932 72.5045 105.91 72.4818C105.774 72.3008 105.638 72.1085 105.503 71.9048C105.355 71.6899 105.225 71.4693 105.112 71.243C105.09 71.2204 105.073 71.2147 105.061 71.226C105.05 71.2147 105.033 71.1977 105.01 71.1751C104.999 71.1638 104.982 71.1581 104.96 71.1581C104.948 71.1468 104.931 71.1298 104.909 71.1072L104.671 70.8696L104.009 69.529L103.958 69.512C103.924 69.5007 103.885 69.4724 103.839 69.4271L103.161 68.0355C103.014 67.6848 102.866 67.368 102.719 67.0852C102.561 66.791 102.386 66.5704 102.193 66.4233C102.046 66.2763 102.029 66.1462 102.142 66.033C102.222 65.9538 102.34 65.8803 102.499 65.8124C102.668 65.7332 102.844 65.671 103.025 65.6257C103.206 65.5805 103.387 65.5465 103.568 65.5239C103.749 65.5013 103.913 65.4956 104.06 65.5069L104.162 65.5748C104.298 65.6653 104.377 65.7219 104.399 65.7445C104.467 65.7898 104.547 65.835 104.637 65.8803C104.728 65.9255 104.818 65.9708 104.909 66.016C105.022 66.0613 105.146 66.1179 105.282 66.1857C105.418 66.2536 105.553 66.3555 105.689 66.4912L105.859 66.7967L105.842 66.4742C105.831 66.1914 105.825 65.8577 105.825 65.473C105.825 65.0883 105.842 64.7093 105.876 64.336C105.899 63.9513 105.944 63.6006 106.012 63.2838C106.08 62.967 106.181 62.7407 106.317 62.605C106.43 62.4918 106.583 62.4183 106.775 62.3843C106.968 62.3504 107.166 62.3561 107.369 62.4013C107.573 62.4239 107.771 62.4862 107.963 62.588C108.167 62.6785 108.342 62.786 108.489 62.9104C108.636 63.0123 108.761 63.148 108.863 63.3177C108.953 63.3177 109.044 63.329 109.134 63.3517C109.225 63.3743 109.344 63.4026 109.491 63.4365C109.581 63.5723 109.655 63.7024 109.711 63.8268C109.768 63.9513 109.824 64.0757 109.881 64.2002L110.305 65.0657L110.509 65.4051L110.526 65.4221L111.408 67.3567C111.431 67.3793 111.448 67.3963 111.459 67.4076C111.482 67.4076 111.499 67.4133 111.51 67.4246C111.635 67.7527 111.759 68.0469 111.884 68.3071C112.008 68.5447 112.115 68.72 112.206 68.8332C112.24 68.8445 112.263 68.8558 112.274 68.8671C112.285 68.8784 112.302 68.8841 112.325 68.8841C112.438 68.7257 112.528 68.4994 112.596 68.2052C112.675 67.8998 112.715 67.566 112.715 67.204C112.726 66.8306 112.709 66.4403 112.664 66.033C112.63 65.6144 112.557 65.2128 112.444 64.8281C112.41 64.681 112.364 64.5226 112.308 64.3529C112.24 64.1719 112.172 63.9909 112.104 63.8099C112.025 63.5723 111.946 63.3234 111.867 63.0632C111.787 62.803 111.714 62.5597 111.646 62.3334C111.589 62.0958 111.555 61.8922 111.544 61.7225C111.544 61.5415 111.572 61.4227 111.629 61.3661C111.686 61.3095 111.748 61.2926 111.816 61.3152C111.884 61.3152 111.94 61.3378 111.985 61.3831C112.087 61.4396 112.144 61.5302 112.155 61.6546L112.359 62.2316L112.528 62.6728C112.574 62.8312 112.63 62.9896 112.698 63.148C112.766 63.3064 112.823 63.4987 112.868 63.725L113.224 65.3372L113.224 65.3033C113.281 65.4504 113.326 65.6314 113.36 65.8463C113.405 66.05 113.439 66.2649 113.462 66.4912C113.473 66.7062 113.473 66.9211 113.462 67.1361C113.45 67.3511 113.417 67.5321 113.36 67.6792L113.377 67.6622C113.377 67.7301 113.366 67.8432 113.343 68.0016C113.32 68.16 113.298 68.3297 113.275 68.5107C113.252 68.6691 113.224 68.8218 113.19 68.9689C113.145 69.1047 113.105 69.1895 113.071 69.2235C113.037 69.2574 112.975 69.297 112.885 69.3423L112.783 69.4102C112.738 69.478 112.692 69.5459 112.647 69.6138C112.591 69.6704 112.534 69.7269 112.477 69.7835C112.296 69.9645 112.121 70.0946 111.951 70.1738ZM105.859 66.7967C105.87 66.8306 105.87 66.8419 105.859 66.8306C105.836 66.808 105.836 66.808 105.859 66.8306L105.859 66.7967ZM109.421 52.8826C109.659 53.2559 109.896 53.6519 110.134 54.0705C110.371 54.4891 110.626 54.9473 110.897 55.4451L112.374 54.1044C112.43 54.0705 112.481 54.0196 112.527 53.9517C112.572 53.8612 112.628 53.7933 112.696 53.7481C113.228 53.3068 113.709 52.9731 114.139 52.7468C114.58 52.5092 114.97 52.3565 115.31 52.2886C115.661 52.2094 115.96 52.1924 116.209 52.2377C116.458 52.2829 116.656 52.3565 116.803 52.4583C116.905 52.5375 116.933 52.611 116.888 52.6789C116.843 52.7468 116.792 52.7977 116.735 52.8316C116.724 52.8656 116.707 52.8939 116.684 52.9165C116.662 52.9165 116.639 52.9278 116.617 52.9504C116.492 52.8712 116.311 52.8599 116.074 52.9165C115.825 52.9617 115.547 53.0579 115.242 53.205C114.925 53.3408 114.586 53.5331 114.224 53.782C113.862 54.0083 113.505 54.2628 113.155 54.5457C113.109 54.6135 113.064 54.6588 113.019 54.6814C112.974 54.7041 112.928 54.738 112.883 54.7833L111.339 56.1918C111.622 56.6557 111.938 57.1082 112.289 57.5495C112.64 57.9681 112.934 58.4206 113.172 58.9071L113.596 59.2635C113.89 59.8292 114.167 60.3892 114.427 60.9436C114.688 61.4753 114.936 61.9731 115.174 62.437C115.412 62.9008 115.644 63.3138 115.87 63.6758C116.096 64.0379 116.328 64.3151 116.566 64.5074C116.679 64.6205 116.826 64.6884 117.007 64.711C117.063 64.6092 117.103 64.4565 117.126 64.2528C117.148 64.0266 117.16 63.7777 117.16 63.5061C117.171 63.2233 117.165 62.9235 117.143 62.6067C117.131 62.2786 117.109 61.9618 117.075 61.6563C117.03 61.2717 116.99 60.8474 116.956 60.3835C116.922 59.9197 116.832 59.5237 116.684 59.1956C116.684 59.173 116.639 59.0372 116.549 58.7883C116.469 58.5281 116.385 58.2396 116.294 57.9228C116.204 57.606 116.13 57.3175 116.074 57.0573C116.017 56.7745 116.011 56.6104 116.057 56.5652C116.113 56.5086 116.192 56.5086 116.294 56.5652C116.328 56.5991 116.362 56.667 116.396 56.7688C116.441 56.7688 116.492 56.7971 116.549 56.8537C116.752 57.1252 116.967 57.6683 117.194 58.4828C117.409 59.2861 117.584 60.2647 117.72 61.4187L117.872 62.7934C117.906 63.4156 117.901 63.9983 117.855 64.5413C117.81 65.0844 117.68 65.4634 117.465 65.6784C117.228 65.9159 116.99 66.0517 116.752 66.0857C116.515 66.097 116.271 66.0574 116.023 65.9669C115.853 65.9782 115.672 65.9895 115.48 66.0008C115.276 66.0008 115.078 65.9951 114.886 65.9838C114.693 65.9725 114.518 65.9555 114.359 65.9329C114.201 65.8877 114.071 65.8254 113.969 65.7462C113.652 65.4747 113.29 65.0222 112.883 64.3886C112.464 63.7437 112.068 63.0083 111.695 62.1824L111.508 62.0297C111.395 61.826 111.276 61.6394 111.152 61.4697C111.039 61.2886 110.937 61.0963 110.847 60.8927C110.609 60.4514 110.332 60.0272 110.015 59.6199C109.71 59.2013 109.41 58.7657 109.116 58.3131L108.012 59.1786C107.605 59.518 107.204 59.8179 106.808 60.0781C106.4 60.3496 106.033 60.5589 105.704 60.706C105.365 60.8644 105.06 60.9549 104.788 60.9775C104.505 61.0115 104.29 60.9662 104.143 60.8417C104.087 60.7852 104.087 60.7286 104.143 60.672C104.155 60.6381 104.171 60.6098 104.194 60.5872C104.217 60.5646 104.273 60.5532 104.364 60.5532L104.55 60.2647C104.924 60.1177 105.331 59.914 105.772 59.6538C106.202 59.3823 106.706 59.0033 107.283 58.5168C107.543 58.3018 107.769 58.0982 107.962 57.9058C108.165 57.7022 108.363 57.5268 108.556 57.3798L108.64 57.4985L107.877 55.8185C107.786 55.6601 107.707 55.5017 107.639 55.3433C107.583 55.1736 107.503 55.0152 107.402 54.8681C107.164 54.54 106.909 54.2176 106.638 53.9008C106.378 53.5727 106.146 53.2842 105.942 53.0353C105.738 52.7864 105.586 52.5658 105.484 52.3734C105.382 52.1811 105.382 52.034 105.484 51.9322C105.563 51.853 105.693 51.7795 105.874 51.7116C106.067 51.6324 106.281 51.5871 106.519 51.5758C106.745 51.5532 106.994 51.5758 107.266 51.6437C107.537 51.7116 107.792 51.8417 108.029 52.034C108.075 52.0793 108.12 52.1245 108.165 52.1698C108.21 52.215 108.256 52.2716 108.301 52.3395C108.369 52.3621 108.454 52.4017 108.556 52.4583C108.657 52.5149 108.765 52.5771 108.878 52.645C108.98 52.7015 109.082 52.7581 109.183 52.8147C109.274 52.8599 109.353 52.8826 109.421 52.8826Z" fill="white"/>
</svg>
