<svg width="143" height="143" viewBox="0 0 143 143" fill="none" xmlns="http://www.w3.org/2000/svg">
<g opacity="0.2">
<mask id="path-1-inside-1_4334_726" fill="white">
<path d="M143 71.501C143 52.538 135.467 34.3517 122.058 20.9428C108.649 7.53399 90.4627 0.000977994 71.4998 0.000976563C52.5368 0.000975131 34.3505 7.53399 20.9416 20.9428C7.53277 34.3517 -0.000241277 52.538 -0.000244141 71.501H0.627716C0.627719 52.7045 8.09457 34.678 21.3857 21.3869C34.6767 8.09579 52.7033 0.628935 71.4998 0.628937C90.2962 0.628938 108.323 8.09579 121.614 21.3869C134.905 34.678 142.372 52.7045 142.372 71.501H143Z"/>
</mask>
<path d="M143 71.501C143 52.538 135.467 34.3517 122.058 20.9428C108.649 7.53399 90.4627 0.000977994 71.4998 0.000976563C52.5368 0.000975131 34.3505 7.53399 20.9416 20.9428C7.53277 34.3517 -0.000241277 52.538 -0.000244141 71.501H0.627716C0.627719 52.7045 8.09457 34.678 21.3857 21.3869C34.6767 8.09579 52.7033 0.628935 71.4998 0.628937C90.2962 0.628938 108.323 8.09579 121.614 21.3869C134.905 34.678 142.372 52.7045 142.372 71.501H143Z" stroke="#FE7F32" stroke-width="2" mask="url(#path-1-inside-1_4334_726)"/>
</g>
<path d="M69.1479 72.8597C68.6294 72.8597 68.1321 72.6518 67.7655 72.2818C67.3988 71.9118 67.1928 71.41 67.1928 70.8867C67.1928 70.7351 67.1332 70.5898 67.027 70.4826C66.9208 70.3755 66.7768 70.3153 66.6266 70.3153C66.4764 70.3153 66.3324 70.3755 66.2262 70.4826C66.12 70.5898 66.0603 70.7351 66.0603 70.8867C66.0605 71.713 66.3858 72.5055 66.9648 73.0898C67.5438 73.6741 68.3291 74.0024 69.1479 74.0026C69.2981 74.0026 69.4421 73.9424 69.5483 73.8352C69.6545 73.728 69.7142 73.5827 69.7142 73.4311C69.7142 73.2796 69.6545 73.1342 69.5483 73.027C69.4421 72.9199 69.2981 72.8597 69.1479 72.8597Z" fill="#FE7F32"/>
<path d="M86.3149 52.0658C86.2303 52.06 86.1455 52.073 86.0664 52.1039C85.9872 52.1347 85.9158 52.1827 85.8571 52.2444L83.2263 55.0785C83.1278 55.1847 83.073 55.3248 83.0733 55.4703V62.537C82.9124 63.141 82.5821 63.6853 82.122 64.1044C81.662 64.5236 81.0919 64.7998 80.4801 64.8999C80.0252 64.2292 79.4277 63.6692 78.7314 63.2608C78.035 62.8524 77.2571 62.6058 76.4544 62.539V60.1099C76.832 59.8862 77.1261 59.5433 77.2914 59.1342C77.4566 58.7251 77.4839 58.2724 77.3689 57.8461C77.2539 57.4198 77.003 57.0435 76.6551 56.7754C76.3071 56.5072 75.8814 56.3621 75.4435 56.3625H74.3925C73.9546 56.3619 73.5288 56.5069 73.1806 56.7749C72.8325 57.043 72.5815 57.4193 72.4664 57.8456C72.3512 58.272 72.3784 58.7247 72.5437 59.134C72.7089 59.5432 73.0031 59.8861 73.3807 60.1099V62.5165H70.8729V60.1099C71.2505 59.8862 71.5446 59.5434 71.7099 59.1343C71.8751 58.7252 71.9024 58.2725 71.7875 57.8463C71.6725 57.42 71.4217 57.0437 71.0738 56.7755C70.7259 56.5074 70.3002 56.3622 69.8624 56.3625H68.8114C68.3735 56.3619 67.9476 56.5069 67.5995 56.7749C67.2513 57.043 67.0003 57.4193 66.8852 57.8456C66.7701 58.272 66.7973 58.7247 66.9625 59.134C67.1278 59.5432 67.4219 59.8861 67.7996 60.1099V62.539C66.9968 62.6058 66.219 62.8524 65.5226 63.2608C64.8262 63.6692 64.2288 64.2292 63.7739 64.8999C63.1621 64.7998 62.5919 64.5236 62.1319 64.1044C61.6719 63.6853 61.3416 63.141 61.1807 62.537V55.4694C61.1809 55.3239 61.1262 55.1837 61.0276 55.0775L58.3979 52.2444C58.3391 52.1827 58.2676 52.1346 58.1884 52.1038C58.1093 52.0729 58.0244 52.06 57.9397 52.0658C56.2069 52.0795 54.5495 52.7832 53.3282 54.0237C52.1069 55.2643 51.4205 56.9413 51.4182 58.69V61.096C51.4202 62.3656 51.9077 63.5855 52.7791 64.5013C53.6505 65.417 54.8386 65.958 56.0956 66.0114C57.986 67.5396 60.3027 68.4328 62.7213 68.566L62.8245 68.5699V69.3356H58.5393C58.465 69.3356 58.3913 69.3504 58.3227 69.379C58.254 69.4077 58.1916 69.4498 58.139 69.5028L54.654 73.021C54.6014 73.074 54.5596 73.1369 54.5311 73.2063C54.5026 73.2756 54.488 73.3499 54.488 73.4249V75.1631C54.488 75.5745 54.65 75.969 54.9382 76.2599C55.2265 76.5508 55.6174 76.7142 56.0251 76.7142C56.4327 76.7142 56.8236 76.5508 57.1119 76.2599C57.4001 75.969 57.5621 75.5745 57.5621 75.1631V74.4725L59.5796 72.4368H63.0196C63.052 72.5628 63.0843 72.6876 63.1238 72.8113L59.1557 75.6294C59.1004 75.6687 59.0525 75.7177 59.0143 75.7741L57.3417 78.2414C57.2772 78.3364 57.2426 78.4489 57.2427 78.564V80.6359C57.2427 81.0473 57.4046 81.4418 57.6929 81.7327C57.9811 82.0236 58.3721 82.187 58.7797 82.187C59.1873 82.187 59.5783 82.0236 59.8665 81.7327C60.1548 81.4418 60.3167 81.0473 60.3167 80.6359V79.3468L61.2952 77.9034L64.7453 75.4544C65.9238 76.6128 67.5027 77.263 69.1479 77.2677H75.107C76.7522 77.263 78.3311 76.6128 79.5097 75.4544L82.9597 77.9034L83.9382 79.3468V80.6359C83.9382 81.0473 84.1002 81.4418 84.3884 81.7327C84.6767 82.0236 85.0676 82.187 85.4752 82.187C85.8829 82.187 86.2738 82.0236 86.5621 81.7327C86.8503 81.4418 87.0123 81.0473 87.0123 80.6359V78.564C87.0123 78.4489 86.9778 78.3364 86.9132 78.2414L85.2406 75.7741C85.2024 75.7177 85.1545 75.6687 85.0992 75.6294L81.1311 72.8123C81.17 72.6886 81.204 72.5638 81.2353 72.4378H84.677L86.6945 74.4734V75.1631C86.6945 75.5745 86.8564 75.969 87.1447 76.2599C87.4329 76.5508 87.8239 76.7142 88.2315 76.7142C88.6391 76.7142 89.0301 76.5508 89.3183 76.2599C89.6066 75.969 89.7685 75.5745 89.7685 75.1631V73.4249C89.7684 73.2734 89.7087 73.1281 89.6025 73.021L86.1159 69.5028C86.0634 69.4498 86.001 69.4077 85.9323 69.379C85.8636 69.3504 85.79 69.3356 85.7157 69.3356H81.4305V68.5699L81.5447 68.5653C83.9595 68.4306 86.2722 67.5377 88.1594 66.0114C89.4164 65.958 90.6044 65.417 91.4758 64.5013C92.3472 63.5855 92.8348 62.3656 92.8367 61.096V58.69C92.8346 56.9413 92.1481 55.2641 90.9267 54.0235C89.7053 52.7829 88.0478 52.0793 86.3149 52.0658ZM84.2068 55.6963L85.704 54.0829V58.8536L84.2068 60.8883V55.6963ZM74.3925 57.5054H75.4429C75.5577 57.5031 75.6718 57.524 75.7785 57.5668C75.8852 57.6096 75.9824 57.6734 76.0644 57.7545C76.1463 57.8357 76.2114 57.9325 76.2559 58.0393C76.3004 58.1462 76.3232 58.2609 76.3232 58.3767C76.3232 58.4926 76.3004 58.6073 76.2559 58.7141C76.2114 58.821 76.1463 58.9178 76.0644 58.9989C75.9824 59.0801 75.8852 59.1439 75.7785 59.1867C75.6718 59.2295 75.5577 59.2504 75.4429 59.2481H74.3925C74.2777 59.2504 74.1637 59.2295 74.0569 59.1867C73.9502 59.1439 73.8531 59.0801 73.7711 58.9989C73.6891 58.9178 73.624 58.821 73.5795 58.7141C73.5351 58.6073 73.5122 58.4926 73.5122 58.3767C73.5122 58.2609 73.5351 58.1462 73.5795 58.0393C73.624 57.9325 73.6891 57.8357 73.7711 57.7545C73.8531 57.6734 73.9502 57.6096 74.0569 57.5668C74.1637 57.524 74.2777 57.5031 74.3925 57.5054ZM74.5132 60.391H75.3222V62.5165H74.5132V60.391ZM68.9315 60.391H69.7404V62.5165H68.9315V60.391ZM68.8108 57.5054H69.8624C69.9772 57.5031 70.0913 57.524 70.198 57.5668C70.3047 57.6096 70.4019 57.6734 70.4839 57.7545C70.5658 57.8357 70.631 57.9325 70.6754 58.0393C70.7199 58.1462 70.7428 58.2609 70.7428 58.3767C70.7428 58.4926 70.7199 58.6073 70.6754 58.7141C70.631 58.821 70.5658 58.9178 70.4839 58.9989C70.4019 59.0801 70.3047 59.1439 70.198 59.1867C70.0913 59.2295 69.9772 59.2504 69.8624 59.2481H68.8114C68.6966 59.2504 68.5825 59.2295 68.4758 59.1867C68.3691 59.1439 68.2719 59.0801 68.1899 58.9989C68.108 58.9178 68.0428 58.821 67.9984 58.7141C67.9539 58.6073 67.931 58.4926 67.931 58.3767C67.931 58.2609 67.9539 58.1462 67.9984 58.0393C68.0428 57.9325 68.108 57.8357 68.1899 57.7545C68.2719 57.6734 68.3691 57.6096 68.4758 57.5668C68.5825 57.524 68.6966 57.5031 68.8114 57.5054H68.8108ZM60.0481 60.8883L58.5509 58.854V54.0816L60.0481 55.6963V60.8883ZM52.5508 61.096V58.69C52.5525 57.3352 53.0505 56.0288 53.9491 55.0221C54.8476 54.0155 56.0833 53.3796 57.4184 53.2368V59.0427C57.4184 59.1654 57.4576 59.2848 57.53 59.3833L59.8006 62.4688L56.1367 64.8754C55.172 64.8319 54.261 64.4148 53.5931 63.711C52.9253 63.0071 52.552 62.0705 52.5508 61.096ZM57.2799 65.4883L60.3167 63.4931C60.586 64.0964 60.9864 64.6307 61.4884 65.0564C61.9903 65.4821 62.5808 65.7882 63.216 65.952C63.0271 66.4243 62.9046 66.9208 62.852 67.4273L62.7737 67.4244C60.798 67.3157 58.8932 66.6444 57.2799 65.4883ZM62.8387 71.2949H59.344C59.2697 71.2948 59.196 71.3096 59.1273 71.3383C59.0585 71.3669 58.9961 71.409 58.9434 71.4621L56.5955 73.8328C56.5429 73.8858 56.5011 73.9487 56.4726 74.018C56.4441 74.0873 56.4295 74.1617 56.4295 74.2367V75.1631C56.4295 75.2714 56.3869 75.3752 56.3111 75.4517C56.2352 75.5283 56.1323 75.5713 56.0251 75.5713C55.9178 75.5713 55.8149 75.5283 55.739 75.4517C55.6632 75.3752 55.6206 75.2714 55.6206 75.1631V73.661L58.7752 70.4779H62.8245C62.8245 70.7499 62.82 71.0229 62.8387 71.2949ZM60.5601 77.028C60.5047 77.0675 60.4567 77.1166 60.4183 77.173L59.2832 78.8481C59.2186 78.9432 59.1841 79.0558 59.1842 79.1711V80.6369C59.1842 80.7452 59.1416 80.849 59.0657 80.9255C58.9899 81.0021 58.887 81.0451 58.7797 81.0451C58.6724 81.0451 58.5696 81.0021 58.4937 80.9255C58.4178 80.849 58.3752 80.7452 58.3752 80.6369V78.743L59.8912 76.5071L63.572 73.8948C63.7003 74.1351 63.8435 74.367 64.0007 74.589L60.5601 77.028ZM69.1479 76.1251C67.7712 76.1251 66.4509 75.5732 65.4774 74.5908C64.5039 73.6084 63.957 72.276 63.957 70.8867V68.0193C63.9551 67.2445 64.1573 66.4832 64.543 65.8132C64.9194 65.1588 65.4593 64.6155 66.1088 64.2376C66.7583 63.8596 67.4947 63.6603 68.2445 63.6594H76.0105C76.7604 63.6604 77.4969 63.8599 78.1465 64.2381C78.7961 64.6163 79.336 65.1599 79.7122 65.8145C80.4387 67.0727 80.2979 68.5121 80.2979 69.9081C80.3218 70.511 80.2987 71.1149 80.229 71.7142C80.0357 72.9445 79.4136 74.0648 78.4746 74.8734C77.5356 75.6821 76.3414 76.1259 75.107 76.1251H69.1479ZM80.683 73.8919L84.3637 76.5042L85.8797 78.74V80.634C85.8797 80.7422 85.8371 80.8461 85.7612 80.9226C85.6854 80.9991 85.5825 81.0422 85.4752 81.0422C85.368 81.0422 85.2651 80.9991 85.1892 80.9226C85.1134 80.8461 85.0708 80.7422 85.0708 80.634V79.1681C85.0709 79.0529 85.0364 78.9402 84.9717 78.8452L83.8366 77.171C83.7982 77.1146 83.7502 77.0655 83.6949 77.026L80.2542 74.5858C80.4116 74.3639 80.5548 74.1321 80.683 73.8919ZM85.4814 70.4785L88.636 73.6617V75.1637C88.636 75.272 88.5934 75.3758 88.5175 75.4524C88.4417 75.5289 88.3388 75.5719 88.2315 75.5719C88.1242 75.5719 88.0214 75.5289 87.9455 75.4524C87.8696 75.3758 87.827 75.272 87.827 75.1637V74.2367C87.827 74.0852 87.7672 73.9399 87.661 73.8328L85.3118 71.4621C85.2593 71.409 85.1968 71.367 85.1282 71.3383C85.0595 71.3096 84.9859 71.2949 84.9116 71.2949H81.4169C81.4356 71.0229 81.4311 70.7505 81.4311 70.4785H85.4814ZM81.4913 67.4237L81.4023 67.4273C81.3496 66.9208 81.2271 66.4243 81.0383 65.952C81.6735 65.7882 82.264 65.482 82.7659 65.0564C83.2678 64.6307 83.6683 64.0964 83.9376 63.4931L86.975 65.4886C85.3649 66.6433 83.4636 67.3142 81.4913 67.4237ZM91.7042 61.096C91.703 62.0705 91.3297 63.0071 90.6618 63.711C89.994 64.4148 89.083 64.8319 88.1183 64.8754L84.456 62.4688L86.7265 59.3833C86.799 59.2848 86.8381 59.1654 86.8382 59.0427V53.2361C88.1732 53.379 89.4089 54.0149 90.3074 55.0215C91.206 56.0282 91.704 57.3346 91.7058 58.6894L91.7042 61.096Z" fill="#FE7F32"/>
<path d="M42.1916 100.925L42.7178 101.545C42.9466 101.744 43.1831 101.958 43.4271 102.188C43.6865 102.417 43.9381 102.647 44.1822 102.876C44.4568 103.152 44.739 103.435 45.0288 103.726C45.3339 104.001 45.639 104.276 45.944 104.552C46.2186 104.812 46.4856 105.087 46.7449 105.378C47.0194 105.669 47.2635 105.921 47.4771 106.136C47.7211 106.457 47.9271 106.656 48.0948 106.732C48.2779 106.84 48.4381 106.977 48.5753 107.146C48.7584 107.406 48.9796 107.62 49.2389 107.788C49.3152 107.819 49.3914 107.857 49.4677 107.903C49.544 107.964 49.6279 108.025 49.7194 108.087C49.9177 108.194 50.0702 108.324 50.177 108.477C50.2533 108.553 50.3219 108.615 50.3829 108.66C50.4592 108.722 50.5355 108.775 50.6118 108.821C50.7033 108.882 50.7795 108.928 50.8406 108.959C50.9016 109.005 50.9626 109.043 51.0236 109.074C51.0846 109.104 51.1456 109.135 51.2067 109.165C51.2677 109.211 51.3363 109.265 51.4126 109.326C51.4889 109.403 51.5651 109.456 51.6414 109.487C51.7329 109.533 51.8244 109.579 51.916 109.624C52.0075 109.655 52.099 109.716 52.1905 109.808C52.2821 109.9 52.366 109.984 52.4422 110.061C52.7168 110.305 52.9761 110.481 53.2202 110.589C53.3575 110.68 53.4795 110.772 53.5863 110.864C53.6931 110.956 53.8075 111.04 53.9295 111.116C54.1125 111.346 54.3566 111.514 54.6617 111.621C54.86 111.667 54.9896 111.713 55.0507 111.759C55.0659 111.805 55.1727 111.828 55.371 111.828C55.5388 111.874 55.6761 111.904 55.7828 111.92C55.8896 111.935 55.9888 111.95 56.0803 111.966C56.0193 111.996 56.0193 112.05 56.0803 112.126C56.1413 112.188 56.1718 112.241 56.1718 112.287C56.2786 112.287 56.3625 112.279 56.4235 112.264C56.4998 112.264 56.576 112.256 56.6523 112.241C56.6066 112.272 56.6294 112.295 56.721 112.31L56.7896 112.356C57.1404 112.279 57.3921 112.195 57.5447 112.103L57.5904 112.035C57.5904 112.004 57.6896 111.935 57.8879 111.828C58.0404 111.66 58.1472 111.453 58.2082 111.208C58.2692 110.979 58.315 110.726 58.3455 110.451L58.2997 110.221C58.3608 110.16 58.4447 110.129 58.5514 110.129C58.6582 110.129 58.7574 110.175 58.8489 110.267C58.9404 110.374 59.0167 110.581 59.0777 110.887C59.1082 111.025 59.1235 111.162 59.1235 111.3C59.1235 111.453 59.1311 111.591 59.1463 111.713C59.2074 111.836 59.2379 111.927 59.2379 111.989C59.2531 112.065 59.2455 112.142 59.215 112.218C59.1997 112.295 59.1768 112.394 59.1463 112.517C59.1921 112.853 59.0777 113.22 58.8031 113.618C58.7879 113.741 58.7574 113.863 58.7116 113.986C58.6811 114.108 58.643 114.23 58.5972 114.353C58.5209 114.475 58.437 114.59 58.3455 114.697C58.254 114.819 58.1701 114.942 58.0938 115.064L57.6591 115.432C57.354 115.646 57.0337 115.799 56.6981 115.891C56.3625 115.982 56.0193 116.044 55.6684 116.074L55.3481 116.028C55.1651 116.044 54.9744 116.044 54.7761 116.028C54.593 116.028 54.3947 116.021 54.1812 116.005L53.5176 115.868C52.9837 115.73 52.4804 115.516 52.0075 115.225C51.5194 114.904 51.0312 114.529 50.5431 114.1C50.238 113.855 49.9101 113.572 49.5592 113.251C49.2236 112.945 48.8804 112.616 48.5296 112.264C48.194 111.912 47.8584 111.545 47.5228 111.162C47.2025 110.78 46.905 110.405 46.6305 110.038C46.3864 109.732 46.1576 109.426 45.944 109.12C45.7305 108.829 45.5169 108.546 45.3034 108.27C45.2271 108.178 45.1508 108.079 45.0746 107.972C45.0136 107.88 44.9525 107.804 44.8915 107.742C44.8152 107.712 44.7466 107.643 44.6856 107.536C44.6398 107.444 44.5864 107.352 44.5254 107.26C44.4492 107.169 44.3805 107.069 44.3195 106.962C44.2585 106.87 44.1975 106.771 44.1364 106.664C43.6636 106.036 43.2365 105.455 42.8551 104.919C42.4738 104.368 42.1382 103.879 41.8484 103.45C41.6195 103.175 41.3907 102.907 41.1619 102.647C40.9484 102.371 40.7577 102.111 40.5899 101.866L40.3382 101.591C40.3382 101.683 40.3306 101.782 40.3153 101.889C40.3153 101.981 40.3153 102.081 40.3153 102.188C40.3001 102.586 40.2848 102.945 40.2696 103.267C40.2696 103.573 40.2467 103.879 40.2009 104.185C40.1399 104.491 40.0713 104.774 39.995 105.034C39.934 105.279 39.8501 105.47 39.7433 105.608L39.606 106.09C39.5755 106.197 39.5374 106.289 39.4916 106.365C39.4459 106.426 39.4077 106.472 39.3772 106.503C39.3162 106.579 39.2552 106.717 39.1942 106.916C39.1179 107.084 39.0721 107.245 39.0569 107.398C39.0416 107.52 39.0187 107.635 38.9882 107.742C38.973 107.865 38.9577 107.972 38.9425 108.064C38.9425 108.171 38.9501 108.247 38.9654 108.293L39.0569 108.477C39.0721 108.538 39.0874 108.584 39.1026 108.615C39.1179 108.66 39.1332 108.706 39.1484 108.752C39.1484 108.798 39.1255 108.829 39.0798 108.844C39.0493 108.859 39.0035 108.882 38.9425 108.913C38.8662 108.959 38.7899 108.982 38.7137 108.982C38.6069 108.982 38.5001 109.012 38.3933 109.074C38.3323 109.089 38.2789 109.089 38.2332 109.074C38.1874 109.074 38.1416 109.081 38.0959 109.097C37.9586 109.097 37.8976 109.074 37.9128 109.028C37.9433 108.982 37.9128 108.959 37.8213 108.959L37.5467 109.211C37.5162 109.242 37.4552 109.257 37.3637 109.257C37.2112 109.257 37.1273 109.227 37.112 109.165C37.112 109.165 37.0968 109.158 37.0662 109.142L36.9747 109.074C36.8679 109.058 36.7688 108.989 36.6773 108.867C36.6315 108.775 36.5934 108.676 36.5629 108.569C36.5324 108.477 36.5095 108.347 36.4942 108.178C36.4637 108.01 36.4408 107.819 36.4256 107.605C36.4103 107.406 36.3951 107.176 36.3798 106.916C36.3951 106.794 36.3951 106.664 36.3798 106.526C36.3798 106.373 36.3722 106.235 36.3569 106.113C36.3569 106.082 36.3646 106.059 36.3798 106.044C36.3798 105.799 36.3874 105.554 36.4027 105.309C36.4179 105.049 36.4256 104.827 36.4256 104.644C36.4103 104.506 36.4103 104.322 36.4256 104.093C36.4408 103.863 36.479 103.565 36.54 103.198C36.5857 102.754 36.6391 102.272 36.7001 101.752C36.7764 101.216 36.8527 100.665 36.929 100.099L37.2035 98.3087L37.3179 97.1152C37.3789 96.6714 37.44 96.22 37.501 95.7609C37.5772 95.2866 37.6459 94.8199 37.7069 94.3608C37.7069 94.2843 37.7222 94.1925 37.7527 94.0854C37.7832 93.9783 37.8137 93.8711 37.8442 93.764C37.89 93.6416 37.9281 93.5269 37.9586 93.4197C37.9891 93.3126 37.9967 93.2208 37.9815 93.1443C37.9205 92.9454 37.9205 92.7618 37.9815 92.5934C38.0577 92.4251 38.0806 92.2415 38.0501 92.0426L38.0272 91.9278C37.9815 91.7289 37.9967 91.5147 38.073 91.2851L38.1188 91.0556C38.1493 90.8414 38.195 90.6807 38.2561 90.5736C38.2713 90.4971 38.2866 90.4282 38.3018 90.367C38.3323 90.3058 38.3628 90.2522 38.3933 90.2063C38.4544 90.0992 38.5306 90.0304 38.6221 89.9998L38.6908 89.9539C38.7365 89.9079 38.8052 89.885 38.8967 89.885C38.973 89.885 39.0187 89.885 39.034 89.885C39.0493 89.885 39.1332 89.8697 39.2857 89.8391C39.3315 89.8391 39.3772 89.8391 39.423 89.8391C39.4687 89.8238 39.5145 89.8161 39.5603 89.8161C39.6213 89.8161 39.6899 89.8926 39.7662 90.0457C39.8577 90.1834 39.8959 90.2981 39.8806 90.39C39.9416 90.4206 39.995 90.4588 40.0408 90.5047L40.4297 91.2622C40.5213 91.3693 40.5975 91.4764 40.6585 91.5835C40.7196 91.6906 40.7653 91.7748 40.7958 91.836V91.9737L40.8416 92.295L40.8874 92.5934C40.9636 92.5169 41.0323 92.4328 41.0933 92.341C41.1543 92.2338 41.2306 92.1267 41.3221 92.0196L41.6195 91.6753C41.6653 91.6294 41.6958 91.5835 41.7111 91.5376C41.7416 91.4917 41.7721 91.4534 41.8026 91.4228C41.8484 91.3157 41.9094 91.201 41.9856 91.0785C42.0772 90.9561 42.1763 90.849 42.2831 90.7572C42.4966 90.4971 42.6873 90.3288 42.8551 90.2522C43.0687 90.1298 43.3509 90.0151 43.7017 89.9079C44.0678 89.8008 44.4034 89.7626 44.7085 89.7932L45.0746 89.7014H45.5322L45.8754 89.8161C46.3483 89.862 46.7372 89.9845 47.0423 90.1834C47.3932 90.3517 47.6677 90.5047 47.866 90.6424C48.0643 90.7802 48.255 90.9561 48.4381 91.1704C48.5143 91.2622 48.5677 91.354 48.5982 91.4458C48.644 91.5376 48.6898 91.6447 48.7355 91.7671C48.8118 91.8436 48.8728 91.9278 48.9186 92.0196C48.9796 92.1114 49.0406 92.2032 49.1016 92.295C49.1931 92.4022 49.277 92.5093 49.3533 92.6164L49.4906 92.9607C49.5516 93.3126 49.5821 93.6875 49.5821 94.0854C49.5516 94.4373 49.483 94.7893 49.3762 95.1412C49.2847 95.4779 49.1703 95.7839 49.033 96.0593C48.9109 96.3042 48.7736 96.5337 48.6211 96.7479C48.4686 96.9621 48.3084 97.1687 48.1406 97.3676C47.7898 97.7502 47.4618 98.0792 47.1567 98.3546L46.6076 98.8366C46.4245 98.9743 46.2339 99.0968 46.0356 99.2039C45.8525 99.311 45.6695 99.4028 45.4864 99.4793C45.2119 99.5558 44.9068 99.6706 44.5712 99.8236L44.0907 100.007L43.7704 100.214C43.6941 100.244 43.5873 100.298 43.45 100.374C43.328 100.436 43.2441 100.497 43.1983 100.558L42.1916 100.925ZM40.8416 98.8596C40.8874 98.8902 40.9331 98.9208 40.9789 98.9514C41.0399 98.9667 41.0933 98.9896 41.139 99.0202C41.2306 99.0509 41.2916 99.0662 41.3221 99.0662C41.3679 98.9896 41.4441 98.959 41.5509 98.9743H41.6882C41.7492 98.959 41.8026 98.9284 41.8484 98.8825L41.8941 98.8366L41.9399 98.8137C42.0924 98.7525 42.2373 98.6989 42.3746 98.653C42.5119 98.5918 42.6492 98.5229 42.7865 98.4464C42.8933 98.4158 42.9848 98.3776 43.061 98.3317C43.1373 98.2858 43.2288 98.2245 43.3356 98.148C43.5492 97.9797 43.7398 97.7961 43.9076 97.5972C44.0907 97.3829 44.289 97.1381 44.5025 96.8627C44.8534 96.373 45.1508 95.8451 45.3949 95.2789C45.6542 94.7128 45.8373 94.1389 45.944 93.5575L46.0127 93.0754C46.0279 92.9377 46.0356 92.8077 46.0356 92.6852C46.0356 92.5475 46.0356 92.4175 46.0356 92.295C46.0508 92.1114 46.0432 91.9431 46.0127 91.7901C45.9974 91.6218 45.9746 91.4687 45.944 91.331L45.8068 91.0785L45.7381 91.0326C45.5703 90.8643 45.3796 90.7572 45.1661 90.7113C44.9678 90.6501 44.7237 90.6577 44.4339 90.7343L44.2509 90.872L44.0907 91.0097C44.0144 91.0862 43.9076 91.201 43.7704 91.354C43.6483 91.507 43.5263 91.6677 43.4043 91.836C43.0992 92.1114 42.8475 92.4175 42.6492 92.7541C42.4966 93.0907 42.3517 93.4121 42.2145 93.7181C42.0924 94.0089 41.9551 94.2843 41.8026 94.5444C41.7263 94.6822 41.6577 94.8122 41.5967 94.9346C41.5509 95.057 41.4975 95.2024 41.4365 95.3707C41.406 95.4472 41.3755 95.5238 41.345 95.6003C41.3297 95.6615 41.3068 95.7303 41.2763 95.8068C41.2763 95.8221 41.2687 95.8374 41.2535 95.8527C41.2535 95.8527 41.2535 95.8681 41.2535 95.8987L41.139 96.3807C41.078 96.7632 41.0018 97.1917 40.9102 97.666C40.834 98.1404 40.8111 98.5382 40.8416 98.8596ZM41.8941 98.8366C41.8789 98.8366 41.856 98.8519 41.8255 98.8825L41.8941 98.8366Z" fill="white"/>
<path d="M57.0229 101.201C57.1144 101.109 57.1907 101.063 57.2517 101.063C57.45 101.063 57.5568 101.163 57.572 101.361C57.5873 101.484 57.5415 101.622 57.4347 101.775C57.328 101.928 57.1907 102.111 57.0229 102.325C56.9619 102.463 56.8475 102.677 56.6797 102.968C56.5119 103.244 56.3441 103.481 56.1763 103.68L56.1305 103.84C56.1305 103.886 56.1 103.94 56.039 104.001C55.978 104.062 55.9398 104.123 55.9246 104.185C55.8483 104.276 55.7644 104.376 55.6729 104.483C55.5966 104.59 55.5127 104.697 55.4212 104.804C55.2992 104.942 55.1772 105.095 55.0551 105.263C54.9331 105.416 54.8187 105.577 54.7119 105.745L54.4831 106.044C54.3458 106.212 54.2009 106.38 54.0484 106.549C53.9111 106.702 53.7585 106.84 53.5907 106.962L53.2475 107.191C52.8509 107.452 52.4619 107.673 52.0806 107.857C51.6992 108.056 51.2874 108.148 50.845 108.133C50.7535 108.133 50.6238 108.125 50.4561 108.11C50.3035 108.094 50.1357 108.071 49.9527 108.041C49.7696 108.01 49.5866 107.964 49.4035 107.903C49.2357 107.842 49.0832 107.765 48.9459 107.673H48.9688C48.7552 107.597 48.5341 107.436 48.3052 107.191C48.0764 106.947 47.9239 106.572 47.8476 106.067C47.7103 105.853 47.6417 105.661 47.6417 105.493L47.5959 105.401C47.5807 105.172 47.5959 104.934 47.6417 104.69C47.6722 104.445 47.7103 104.2 47.7561 103.955V103.863C47.7866 103.802 47.8019 103.749 47.8019 103.703L47.8476 103.473C47.8934 103.259 47.9468 103.045 48.0078 102.83C48.0688 102.616 48.1603 102.387 48.2824 102.142L48.5341 101.775L48.5569 101.729V101.752C48.6027 101.66 48.6561 101.56 48.7171 101.453C48.7934 101.331 48.8696 101.208 48.9459 101.086C49.0222 100.964 49.0985 100.856 49.1747 100.765C49.251 100.673 49.3196 100.604 49.3806 100.558C49.5942 100.344 49.8306 100.122 50.09 99.8925C50.3493 99.6629 50.5781 99.5329 50.7764 99.5023C50.7764 99.5023 50.7764 99.4793 50.7764 99.4334C50.7459 99.3263 50.7459 99.2498 50.7764 99.2039C50.9442 99.0509 51.1425 98.8978 51.3713 98.7448C51.6001 98.5918 51.7755 98.5153 51.8976 98.5153C51.9738 98.5153 52.0348 98.5076 52.0806 98.4923C52.1569 98.477 52.2408 98.4694 52.3323 98.4694C52.4238 98.4694 52.4848 98.4923 52.5153 98.5382C52.5764 98.5229 52.6297 98.5153 52.6755 98.5153C52.7365 98.5153 52.7899 98.5153 52.8357 98.5153C52.8967 98.5153 53.0187 98.5382 53.2018 98.5841C53.4001 98.6301 53.606 98.7219 53.8195 98.8596C54.0484 98.9973 54.2543 99.1886 54.4373 99.4334C54.6204 99.6629 54.7424 99.969 54.8034 100.352C54.8034 100.703 54.7272 101.04 54.5746 101.361C54.5594 101.407 54.5212 101.492 54.4602 101.614C54.3992 101.736 54.3306 101.874 54.2543 102.027C54.178 102.165 54.0865 102.303 53.9797 102.44C53.8882 102.578 53.8043 102.693 53.728 102.785L53.6136 102.876C53.4458 103.091 53.2704 103.289 53.0874 103.473C52.9043 103.657 52.7136 103.833 52.5153 104.001C52.4391 104.078 52.3323 104.177 52.195 104.299C52.0577 104.422 51.9128 104.544 51.7603 104.667C51.6077 104.789 51.4628 104.904 51.3255 105.011C51.1882 105.103 51.0891 105.164 51.0281 105.195L50.5018 105.47C50.3645 105.638 50.2883 105.784 50.273 105.906C50.2578 106.013 50.2654 106.151 50.2959 106.319L50.3416 106.664C50.3569 106.786 50.4484 106.878 50.6162 106.939C50.7993 107.016 50.9899 107.054 51.1882 107.054C51.356 107.054 51.5848 107 51.8747 106.893C52.1797 106.786 52.5077 106.625 52.8585 106.411C53.2094 106.197 53.5755 105.937 53.9568 105.631C54.3382 105.325 54.689 104.965 55.0094 104.552C55.0399 104.475 55.078 104.407 55.1238 104.345C55.1848 104.269 55.2305 104.2 55.261 104.139L55.5814 103.657C55.7187 103.473 55.8636 103.267 56.0161 103.037C56.1839 102.792 56.3365 102.555 56.4737 102.325C56.6263 102.081 56.7559 101.859 56.8627 101.66C56.9695 101.461 57.0229 101.308 57.0229 101.201ZM54.0026 100.788C53.9568 100.726 53.8806 100.665 53.7738 100.604C53.6518 100.635 53.4763 100.757 53.2475 100.971C53.034 101.17 52.828 101.392 52.6297 101.637L52.4696 101.752L52.3323 101.981L52.2636 102.119C51.8518 102.639 51.5086 103.136 51.234 103.611C50.9594 104.07 50.784 104.407 50.7077 104.621C50.9366 104.514 51.1425 104.376 51.3255 104.208L51.5315 104.047L51.9204 103.772C52.5001 103.282 52.973 102.777 53.3391 102.257C53.7204 101.736 53.9416 101.247 54.0026 100.788Z" fill="white"/>
<path d="M65.1969 100.925C65.3342 100.788 65.4639 100.757 65.5859 100.834C65.7232 100.895 65.7613 101.032 65.7003 101.247C65.7003 101.338 65.5935 101.514 65.38 101.775C65.2579 101.974 65.1359 102.18 65.0139 102.394C64.8918 102.593 64.7393 102.792 64.5562 102.991L64.5105 103.083L64.419 103.244C64.2512 103.412 64.0452 103.588 63.8012 103.772C63.5724 103.955 63.2978 104.131 62.9775 104.299L62.8173 104.368C62.7258 104.414 62.619 104.46 62.497 104.506C62.3902 104.552 62.2758 104.59 62.1537 104.621C62.108 104.651 62.047 104.682 61.9707 104.713C61.9097 104.743 61.8563 104.766 61.8105 104.781H61.5588C61.5436 105.087 61.4673 105.386 61.33 105.677C61.1927 105.967 61.0783 106.197 60.9868 106.365C60.9411 106.426 60.8724 106.488 60.7809 106.549C60.6894 106.595 60.5978 106.641 60.5063 106.687L60.3004 106.824C60.2394 106.87 60.1479 106.916 60.0258 106.962C59.9038 107.023 59.7665 107.077 59.614 107.123C59.4767 107.169 59.3318 107.207 59.1792 107.237C59.0419 107.268 58.9275 107.283 58.836 107.283C58.7445 107.299 58.6301 107.283 58.4928 107.237C58.3708 107.207 58.2564 107.169 58.1496 107.123C58.1343 107.123 58.0962 107.107 58.0352 107.077C57.8826 107.092 57.6996 107.061 57.486 106.985C57.2877 106.924 57.0742 106.832 56.8454 106.709L56.8683 106.732C56.6852 106.641 56.525 106.511 56.3878 106.342C56.2505 106.174 56.1666 105.983 56.1361 105.768C56.1056 105.554 56.1513 105.355 56.2733 105.172C56.4106 104.988 56.5784 104.835 56.7767 104.713C56.8835 104.605 57.0437 104.514 57.2572 104.437C57.4708 104.345 57.692 104.276 57.9208 104.231C58.1496 104.169 58.3555 104.131 58.5386 104.116C58.7369 104.1 58.8741 104.116 58.9504 104.162C59.0572 104.1 59.1258 103.986 59.1563 103.817C59.1563 103.802 59.1563 103.787 59.1563 103.772C59.1716 103.756 59.1792 103.741 59.1792 103.726C59.2402 103.603 59.2631 103.504 59.2479 103.427C59.2479 103.305 59.2708 103.175 59.3165 103.037C59.347 102.93 59.3699 102.823 59.3852 102.716C59.4004 102.593 59.3852 102.471 59.3394 102.348L59.4767 101.316C59.4309 101.224 59.4004 101.132 59.3852 101.04C59.3852 100.948 59.3775 100.856 59.3623 100.765C59.3623 100.581 59.3241 100.405 59.2479 100.237C59.2174 100.114 59.1869 99.9919 59.1563 99.8695C59.1411 99.7471 59.0953 99.617 59.0191 99.4793C58.9886 99.4487 58.9504 99.3645 58.9047 99.2268C58.8589 99.2421 58.775 99.3492 58.653 99.5482C58.5462 99.7471 58.4089 99.9996 58.2411 100.306C58.0428 100.658 57.8216 101.048 57.5776 101.476C57.3488 101.889 57.1047 102.249 56.8454 102.555C56.7996 102.616 56.7615 102.624 56.731 102.578C56.7005 102.532 56.6776 102.463 56.6623 102.371C56.6623 102.264 56.6776 102.149 56.7081 102.027C56.7386 101.889 56.7844 101.759 56.8454 101.637C56.8911 101.56 56.9903 101.377 57.1428 101.086C57.2954 100.795 57.4632 100.482 57.6462 100.145C57.8293 99.793 57.997 99.4564 58.1496 99.135C58.3021 98.8137 58.4013 98.5918 58.447 98.4694L58.3098 95.8987C58.3403 95.7762 58.4013 95.6462 58.4928 95.5085C58.5996 95.3554 58.714 95.2177 58.836 95.0953C58.9123 95.0035 58.9809 94.9117 59.0419 94.8199C59.1182 94.7128 59.1716 94.6209 59.2021 94.5444L59.2936 94.4526C59.5377 94.2078 59.7055 94.0701 59.797 94.0395C59.8885 93.9936 60.0182 94.0318 60.186 94.1542L60.2775 94.2231C60.3538 94.269 60.4377 94.3226 60.5292 94.3838C60.6207 94.4297 60.7199 94.4985 60.8267 94.5903C60.9639 94.7587 61.0936 94.9346 61.2156 95.1183C61.3529 95.2866 61.4444 95.4779 61.4902 95.6921L61.5588 95.9675C61.5741 96.0134 61.5894 96.067 61.6046 96.1282C61.6199 96.1741 61.6351 96.2353 61.6504 96.3118C61.6809 96.4801 61.6275 96.6714 61.4902 96.8856C61.3682 97.0999 61.2233 97.3141 61.0555 97.5283C60.9639 97.6507 60.8724 97.7808 60.7809 97.9185C60.7046 98.0409 60.6436 98.1557 60.5978 98.2628C60.6589 98.3546 60.7428 98.5153 60.8495 98.7448C60.9563 98.959 61.0631 99.1886 61.1699 99.4334C61.2766 99.6629 61.3758 99.8925 61.4673 100.122C61.5588 100.336 61.6275 100.497 61.6732 100.604L61.9707 100.879L62.2224 101.568C62.2987 101.629 62.3292 101.675 62.3139 101.706C62.2987 101.736 62.2758 101.782 62.2453 101.843C62.23 101.859 62.2148 101.882 62.1995 101.912C62.1995 101.943 62.2071 101.966 62.2224 101.981L62.2453 102.073L62.291 102.211C62.291 102.287 62.3063 102.387 62.3368 102.509C62.3673 102.632 62.3826 102.731 62.3826 102.807C62.3826 102.884 62.3673 102.953 62.3368 103.014C62.3215 103.121 62.2453 103.267 62.108 103.45C62.047 103.527 61.9936 103.618 61.9478 103.726C61.9021 103.817 61.8715 103.909 61.8563 104.001L62.3368 103.84C62.4741 103.81 62.6037 103.764 62.7258 103.703C62.8478 103.641 62.9546 103.573 63.0461 103.496H63.0232L63.0919 103.45C63.4885 103.175 63.8241 102.876 64.0986 102.555C64.3732 102.218 64.6401 101.851 64.8995 101.453C64.991 101.316 65.0901 101.14 65.1969 100.925ZM58.8131 104.873C58.7979 104.858 58.7064 104.866 58.5386 104.896C58.386 104.927 58.203 104.98 57.9894 105.057C57.7759 105.133 57.5623 105.233 57.3488 105.355C57.1352 105.462 56.9827 105.592 56.8911 105.745C56.8606 105.837 56.9064 105.929 57.0284 106.021C57.1505 106.097 57.2954 106.136 57.4632 106.136C57.5852 106.136 57.7377 106.097 57.9208 106.021C58.4089 105.822 58.7064 105.439 58.8131 104.873Z" fill="white"/>
<path d="M70.0382 92.8459C69.9467 93.2591 69.8399 93.6875 69.7179 94.1313C69.5958 94.575 69.4585 95.057 69.306 95.5773L71.2051 95.6691C71.2661 95.6844 71.3348 95.6844 71.411 95.6691C71.5026 95.6385 71.5865 95.6309 71.6627 95.6462C72.3187 95.7074 72.8678 95.8068 73.3102 95.9446C73.7678 96.0823 74.1339 96.2429 74.4084 96.4266C74.6983 96.6102 74.9118 96.8015 75.0491 97.0004C75.1864 97.1993 75.2703 97.3829 75.3008 97.5513C75.3161 97.6737 75.2855 97.7425 75.2093 97.7578C75.133 97.7731 75.0644 97.7731 75.0034 97.7578C74.9728 97.7731 74.9423 97.7808 74.9118 97.7808C74.8966 97.7655 74.8737 97.7578 74.8432 97.7578C74.8127 97.6201 74.6983 97.4901 74.5 97.3676C74.3017 97.2299 74.05 97.1075 73.7449 97.0004C73.4398 96.878 73.0814 96.7785 72.6695 96.702C72.2729 96.6102 71.861 96.5413 71.4339 96.4954C71.3577 96.5107 71.2966 96.5107 71.2509 96.4954C71.2051 96.4801 71.1517 96.4725 71.0907 96.4725L69.1001 96.3807C68.978 96.8856 68.8865 97.4059 68.8255 97.9415C68.7797 98.4617 68.673 98.9667 68.5052 99.4564L68.5509 99.9843C68.3679 100.566 68.1772 101.132 67.9789 101.683C67.7959 102.218 67.6281 102.723 67.4755 103.198C67.323 103.672 67.201 104.108 67.1094 104.506C67.0179 104.904 66.9874 105.248 67.0179 105.539C67.0179 105.692 67.0713 105.837 67.1781 105.975C67.2849 105.944 67.4145 105.868 67.5671 105.745C67.7348 105.608 67.9103 105.447 68.0933 105.263C68.2916 105.08 68.4899 104.873 68.6882 104.644C68.9018 104.414 69.1001 104.185 69.2831 103.955C69.5119 103.664 69.7712 103.351 70.0611 103.014C70.3509 102.677 70.5568 102.348 70.6789 102.027C70.6941 102.012 70.7551 101.889 70.8619 101.66C70.9839 101.43 71.1212 101.178 71.2738 100.902C71.4263 100.627 71.5712 100.382 71.7085 100.168C71.861 99.9384 71.9678 99.8236 72.0288 99.8236C72.1051 99.8236 72.1585 99.8772 72.189 99.9843C72.189 100.03 72.1661 100.099 72.1204 100.191C72.1509 100.221 72.1661 100.275 72.1661 100.352C72.1204 100.673 71.8992 101.185 71.5026 101.889C71.106 102.578 70.5645 103.358 69.878 104.231L69.0543 105.263C68.6577 105.707 68.2611 106.097 67.8645 106.434C67.4679 106.771 67.1247 106.939 66.8349 106.939C66.5145 106.939 66.2628 106.87 66.0798 106.732C65.912 106.579 65.7747 106.388 65.6679 106.159C65.5459 106.051 65.4162 105.937 65.279 105.814C65.1417 105.677 65.012 105.539 64.89 105.401C64.768 105.263 64.6612 105.133 64.5697 105.011C64.4934 104.873 64.4476 104.743 64.4324 104.621C64.4019 104.223 64.4629 103.672 64.6154 102.968C64.768 102.249 64.9968 101.484 65.3018 100.673L65.279 100.443C65.34 100.229 65.3857 100.023 65.4162 99.8236C65.462 99.6247 65.523 99.4258 65.5993 99.2268C65.7366 98.7678 65.8357 98.2934 65.8967 97.8037C65.973 97.3141 66.0645 96.8168 66.1713 96.3118L64.8442 96.1511C64.3408 96.1052 63.868 96.0364 63.4256 95.9446C62.968 95.8527 62.579 95.7456 62.2587 95.6232C61.9231 95.5008 61.6561 95.3554 61.4578 95.1871C61.2443 95.0188 61.1299 94.8428 61.1146 94.6592C61.1146 94.5827 61.1528 94.5444 61.229 94.5444C61.2595 94.5291 61.2901 94.5215 61.3206 94.5215C61.3511 94.5215 61.3968 94.5521 61.4578 94.6133L61.7782 94.5444C62.129 94.6975 62.5409 94.8352 63.0137 94.9576C63.4866 95.0647 64.0815 95.1489 64.7985 95.2101C65.1188 95.2407 65.4086 95.256 65.6679 95.256C65.9425 95.256 66.1942 95.2713 66.423 95.3019L66.4001 95.4396L67.0179 93.787C67.0637 93.6187 67.1171 93.458 67.1781 93.305C67.2543 93.152 67.3077 92.9913 67.3382 92.823C67.3993 92.4404 67.445 92.0502 67.4755 91.6524C67.5213 91.2545 67.5594 90.9026 67.5899 90.5965C67.6204 90.2905 67.6662 90.038 67.7272 89.8391C67.7882 89.6402 67.8874 89.5407 68.0247 89.5407C68.1314 89.5407 68.2687 89.579 68.4365 89.6555C68.6196 89.732 68.795 89.8467 68.9628 89.9998C69.1306 90.1375 69.2831 90.3211 69.4204 90.5506C69.5577 90.7802 69.6416 91.0403 69.6721 91.331C69.6721 91.3922 69.6721 91.4534 69.6721 91.5147C69.6721 91.5759 69.6645 91.6447 69.6492 91.7212C69.6797 91.7824 69.7102 91.8666 69.7407 91.9737C69.7712 92.0808 69.8018 92.1956 69.8323 92.318C69.8628 92.4251 69.8933 92.5322 69.9238 92.6393C69.9543 92.7312 69.9924 92.8 70.0382 92.8459Z" fill="white"/>
<path d="M74.1482 105.791C74.0719 105.853 73.9804 105.906 73.8736 105.952C73.7821 105.998 73.6753 106.051 73.5533 106.113L73.5762 106.136L73.599 106.182C73.599 106.166 73.6219 106.182 73.6677 106.227C73.7134 106.258 73.7516 106.289 73.7821 106.319C73.8431 106.35 73.8965 106.388 73.9422 106.434C73.988 106.48 74.0185 106.518 74.0338 106.549L74.0795 106.687L74.1024 106.709C74.2397 106.878 74.3617 107.046 74.4685 107.214C74.5905 107.398 74.6821 107.589 74.7431 107.788L74.7888 108.729C74.8194 108.974 74.8422 109.211 74.8575 109.441C74.8727 109.67 74.8804 109.892 74.8804 110.107C74.8804 111.132 74.6897 111.927 74.3083 112.494C73.9423 113.075 73.4846 113.427 72.9355 113.549C72.9202 113.549 72.905 113.549 72.8897 113.549C72.8897 113.565 72.8821 113.572 72.8668 113.572H72.844C72.4474 113.481 72.127 113.351 71.883 113.182C71.6389 113.014 71.433 112.784 71.2652 112.494C71.0974 112.218 70.9449 111.882 70.8076 111.484C70.6703 111.086 70.5177 110.619 70.3499 110.084V109.877C70.3194 109.724 70.3118 109.594 70.3271 109.487L70.1898 108.683L70.0983 108.156C70.0677 107.972 70.0372 107.819 70.0067 107.696V107.719L69.9839 107.582C69.9686 107.475 69.961 107.367 69.961 107.26C69.9457 107.153 69.9381 107.046 69.9381 106.939L69.8923 106.342L69.961 104.368L69.9152 104.185C69.9305 104.139 69.9381 104.085 69.9381 104.024C69.9228 103.963 69.9076 103.902 69.8923 103.84V103.06C69.8923 102.509 69.9228 101.889 69.9839 101.201C70.0449 100.497 70.144 99.7853 70.2813 99.0662C70.3576 98.5918 70.4491 98.1021 70.5559 97.5972C70.6627 97.0769 70.7771 96.5643 70.8991 96.0593C71.0211 95.5544 71.1508 95.0724 71.2881 94.6133C71.4406 94.1389 71.5855 93.7028 71.7228 93.305C71.9669 92.7082 72.3024 92.2032 72.7296 91.7901C73.1719 91.3769 73.6372 91.0173 74.1253 90.7113C74.4151 90.543 74.7202 90.39 75.0405 90.2522C75.3609 90.1145 75.6965 90.0074 76.0473 89.9309C76.0931 89.9156 76.1464 89.9079 76.2075 89.9079C76.2685 89.9079 76.3295 89.9079 76.3905 89.9079C76.7414 89.9079 77.0769 90.0227 77.3973 90.2522C77.7329 90.4818 77.9845 90.9179 78.1523 91.5606C78.1981 91.6983 78.221 91.836 78.221 91.9737C78.221 92.0961 78.2057 92.2109 78.1752 92.318C78.16 92.4251 78.1371 92.5399 78.1066 92.6623C78.0761 92.7847 78.0456 92.9224 78.0151 93.0754C77.9998 93.2132 77.9846 93.3815 77.9693 93.5804L77.5803 93.8329C77.5651 93.8788 77.5574 93.9553 77.5574 94.0624C77.5574 94.1695 77.5422 94.3073 77.5117 94.4756C77.4812 94.6439 77.382 94.8887 77.2142 95.2101H77.2371L77.0312 95.6691C76.9702 95.7456 76.9091 95.8527 76.8481 95.9905C76.8024 96.1129 76.749 96.2429 76.688 96.3807C76.6117 96.549 76.5354 96.7097 76.4592 96.8627C76.3981 97.0157 76.3295 97.1458 76.2532 97.2529L75.91 97.6431L75.6583 97.9874C75.6278 98.0333 75.5897 98.0868 75.5439 98.148C75.5134 98.1939 75.4753 98.2399 75.4295 98.2858L75.1549 98.6301C74.9871 98.7831 74.827 98.9514 74.6744 99.135C74.5372 99.3186 74.4304 99.464 74.3541 99.5711L74.0567 99.6629C73.9804 99.8006 73.9117 99.9154 73.8507 100.007C73.8202 100.053 73.7897 100.114 73.7592 100.191C73.7287 100.252 73.6906 100.344 73.6448 100.466C73.6295 100.512 73.5914 100.589 73.5304 100.696C73.4846 100.788 73.4312 100.879 73.3702 100.971C73.3092 101.078 73.2406 101.231 73.1643 101.43C73.1185 101.537 73.088 101.683 73.0728 101.866C73.0575 102.035 73.0499 102.218 73.0499 102.417L72.9813 103.198L72.8897 103.519V103.611C72.8897 103.641 72.8821 103.664 72.8668 103.68C72.8668 103.695 72.8745 103.718 72.8897 103.749C72.905 103.779 72.9202 103.817 72.9355 103.863C72.9507 103.894 72.9584 103.917 72.9584 103.932C72.9889 104.009 73.0041 104.131 73.0041 104.299C73.0041 104.376 72.9965 104.445 72.9813 104.506C72.9813 104.567 72.9813 104.636 72.9813 104.713C72.966 104.789 72.9584 104.858 72.9584 104.919C72.9584 104.98 72.9584 105.049 72.9584 105.126C72.9584 105.172 72.9584 105.225 72.9584 105.286C72.9736 105.332 72.9813 105.378 72.9813 105.424C72.9965 105.439 73.0041 105.455 73.0041 105.47L73.0499 105.447L73.4846 105.355C73.7287 105.233 74.1329 104.996 74.6973 104.644C75.2617 104.276 75.8566 103.71 76.482 102.945L76.688 102.67L77.649 101.224C77.6642 101.193 77.6795 101.155 77.6947 101.109C77.71 101.063 77.71 101.01 77.6947 100.948C77.771 100.856 77.8549 100.795 77.9464 100.765C78.0379 100.734 78.1218 100.719 78.1981 100.719C78.2744 100.749 78.3201 100.818 78.3354 100.925C78.3354 101.017 78.2896 101.155 78.1981 101.338L78.1523 101.407C78.1676 101.423 78.1752 101.438 78.1752 101.453C78.1752 101.53 78.1523 101.591 78.1066 101.637V101.614L77.9693 101.821L77.7862 102.05V102.027L77.7176 102.257L77.6032 102.417C77.5727 102.54 77.4812 102.708 77.3286 102.922C77.1913 103.121 77.0541 103.289 76.9168 103.427L76.5278 104.024C76.4363 104.192 76.2685 104.353 76.0244 104.506C75.7956 104.644 75.5744 104.797 75.3609 104.965L74.9261 105.355C74.8194 105.447 74.6973 105.524 74.56 105.585C74.4227 105.631 74.2855 105.7 74.1482 105.791ZM73.3931 99.2268V99.2957L73.416 99.2498C73.477 99.2192 73.6219 99.1044 73.8507 98.9055C74.0948 98.7066 74.3541 98.4694 74.6287 98.1939C74.9185 97.9032 75.1931 97.5895 75.4524 97.2529C75.727 96.9009 75.9176 96.5643 76.0244 96.2429C76.2075 95.9828 76.3829 95.6844 76.5507 95.3478C76.7337 95.0111 76.9015 94.6668 77.0541 94.3149C77.2066 93.963 77.3286 93.611 77.4202 93.2591C77.5117 92.8918 77.5574 92.5552 77.5574 92.2491C77.5574 92.0808 77.5346 91.9125 77.4888 91.7442C77.4125 91.4381 77.2524 91.1857 77.0083 90.9867C76.7795 90.7878 76.5125 90.7113 76.2075 90.7572C75.9329 90.8031 75.7346 90.872 75.6126 90.9638C75.5058 91.0556 75.399 91.1933 75.2922 91.3769L75.1092 91.7212C75.1092 91.7365 75.1016 91.7518 75.0863 91.7671C75.0863 91.7671 75.0863 91.7748 75.0863 91.7901C75.071 91.8819 75.0329 91.9661 74.9719 92.0426C74.7583 92.4404 74.5829 92.8995 74.4456 93.4197C74.3083 93.9247 74.1787 94.4297 74.0567 94.9346C74.0414 95.0417 74.0185 95.1489 73.988 95.256C73.9728 95.3478 73.9575 95.4472 73.9422 95.5544C73.866 95.8604 73.805 96.1817 73.7592 96.5184C73.7134 96.855 73.6753 97.1764 73.6448 97.4824C73.6143 97.7578 73.5838 98.0333 73.5533 98.3087C73.5228 98.5688 73.477 98.8137 73.416 99.0432L73.3931 99.2268ZM73.416 107.49C73.3702 107.398 73.3092 107.322 73.2329 107.26C73.1719 107.199 73.1033 107.138 73.027 107.077C72.9813 107.398 72.9584 107.781 72.9584 108.224C72.9584 108.775 72.9813 109.334 73.027 109.9C73.088 110.481 73.1643 110.94 73.2558 111.277V111.369L73.3245 111.553L73.3931 111.805C73.4236 111.897 73.4618 111.973 73.5075 112.035C73.5533 112.111 73.5914 112.142 73.6219 112.126C73.7439 112.096 73.8202 112.004 73.8507 111.851C73.8812 111.698 73.9117 111.53 73.9422 111.346C73.9422 111.331 73.9422 111.315 73.9422 111.3C73.9575 111.3 73.9651 111.292 73.9651 111.277L73.988 110.979C74.0033 110.856 74.0033 110.719 73.988 110.566C73.988 110.413 73.9804 110.26 73.9651 110.107C73.9499 109.984 73.9346 109.854 73.9194 109.716C73.9194 109.594 73.9194 109.471 73.9194 109.349C73.9041 109.318 73.8965 109.28 73.8965 109.234C73.8965 109.204 73.8965 109.173 73.8965 109.142V109.097L73.8736 108.706C73.8431 108.676 73.8278 108.653 73.8278 108.638C73.8278 108.622 73.8202 108.607 73.805 108.592V108.569L73.7363 108.293C73.7058 108.201 73.6677 108.102 73.6219 107.995C73.5762 107.888 73.5228 107.773 73.4618 107.651L73.4389 107.582L73.416 107.49Z" fill="white"/>
<path d="M82.9892 105.172C82.8366 105.172 82.6841 105.141 82.5315 105.08C82.501 105.141 82.4629 105.187 82.4171 105.218C82.3866 105.248 82.3485 105.279 82.3027 105.309C82.2417 105.355 82.1807 105.416 82.1197 105.493C82.0587 105.554 82.0053 105.661 81.9595 105.814C81.8527 106.029 81.6926 106.235 81.479 106.434C81.2807 106.618 81.0595 106.778 80.8155 106.916C80.5714 107.054 80.3121 107.161 80.0375 107.237C79.7782 107.329 79.5418 107.375 79.3282 107.375H79.2596C79.2443 107.375 79.2291 107.367 79.2138 107.352C79.1985 107.352 79.1833 107.352 79.168 107.352L78.8477 107.26L78.4816 107.077H78.3672C77.8333 107 77.3452 106.725 76.9028 106.25C76.4757 105.761 76.2317 105.179 76.1706 104.506C76.1554 104.276 76.163 104.07 76.1935 103.886C76.2088 103.687 76.2317 103.488 76.2622 103.289C76.2622 103.259 76.2698 103.236 76.285 103.221C76.285 103.19 76.285 103.159 76.285 103.129C76.2545 102.853 76.3079 102.517 76.4452 102.119C76.5672 101.706 76.7503 101.293 76.9944 100.879C77.2537 100.451 77.5588 100.053 77.9096 99.6859C78.2604 99.3033 78.6418 99.0049 79.0536 98.7907L79.168 98.6989C79.4121 98.5306 79.6714 98.4082 79.946 98.3317C80.2206 98.2552 80.4646 98.2169 80.6782 98.2169C80.8002 98.2169 80.9146 98.2245 81.0214 98.2399C81.1282 98.2552 81.235 98.2858 81.3417 98.3317C81.7841 98.5459 82.1426 98.7831 82.4171 99.0432C82.707 99.3033 82.8748 99.6553 82.9205 100.099V100.122C82.9358 100.198 82.9281 100.283 82.8976 100.374C82.8671 100.466 82.707 100.512 82.4171 100.512H82.257C81.7841 100.558 81.3341 100.765 80.907 101.132C80.4799 101.499 80.0985 101.935 79.7629 102.44C79.4426 102.945 79.1833 103.473 78.985 104.024C78.8019 104.575 78.7104 105.057 78.7104 105.47C78.7104 105.592 78.7486 105.73 78.8248 105.883C78.9163 106.036 79.0155 106.182 79.1223 106.319C79.2443 106.442 79.3663 106.549 79.4884 106.641C79.6104 106.732 79.7248 106.778 79.8316 106.778C79.9079 106.778 79.9689 106.763 80.0146 106.732C80.0604 106.702 80.1138 106.671 80.1748 106.641C80.2206 106.61 80.2739 106.579 80.335 106.549C80.396 106.503 80.4646 106.465 80.5409 106.434C80.6782 106.373 80.8231 106.258 80.9756 106.09C81.1282 105.921 81.2655 105.745 81.3875 105.562C81.5248 105.363 81.6392 105.172 81.7307 104.988C81.8375 104.804 81.9061 104.667 81.9366 104.575C81.7078 104.284 81.5629 104.047 81.5019 103.863C81.4409 103.68 81.4104 103.504 81.4104 103.335C81.4104 103.228 81.4104 103.121 81.4104 103.014C81.4256 102.907 81.4256 102.785 81.4104 102.647C81.3799 102.28 81.4256 101.974 81.5477 101.729C81.6697 101.469 81.8527 101.338 82.0968 101.338C82.1273 101.338 82.1502 101.338 82.1654 101.338C82.1807 101.323 82.2036 101.316 82.2341 101.316C82.3561 101.3 82.4705 101.308 82.5773 101.338C82.6841 101.354 82.7527 101.423 82.7832 101.545H82.829C82.8442 101.56 82.8748 101.622 82.9205 101.729C82.9815 101.821 83.0197 101.928 83.0349 102.05C83.0502 102.081 83.0578 102.134 83.0578 102.211C83.0883 102.287 83.1188 102.333 83.1493 102.348C83.1798 102.364 83.1798 102.433 83.1493 102.555C83.1188 102.723 83.1112 102.83 83.1264 102.876V102.945C83.1264 102.96 83.1188 102.976 83.1036 102.991C83.1036 103.006 83.1036 103.022 83.1036 103.037V103.083L83.1264 103.06V103.083C83.1417 103.098 83.1493 103.136 83.1493 103.198C83.1493 103.259 83.1569 103.32 83.1722 103.381C83.1875 103.427 83.1951 103.481 83.1951 103.542L83.1493 103.749C83.1188 103.856 83.0807 103.963 83.0349 104.07C83.0044 104.162 82.9586 104.261 82.8976 104.368L82.9205 104.414C82.951 104.46 82.9892 104.506 83.0349 104.552C83.0807 104.583 83.1875 104.598 83.3553 104.598C83.4925 104.598 83.668 104.544 83.8815 104.437C84.1103 104.315 84.2934 104.169 84.4307 104.001C84.6442 103.741 84.873 103.42 85.1171 103.037C85.3764 102.654 85.5823 102.318 85.7349 102.027C85.7501 102.012 85.773 101.966 85.8035 101.889C85.834 101.813 85.8722 101.713 85.9179 101.591C86.0094 101.361 86.1086 101.132 86.2154 100.902C86.3221 100.658 86.4365 100.535 86.5586 100.535C86.7111 100.535 86.8026 100.627 86.8331 100.811L86.7187 101.086H86.7416C86.6348 101.56 86.4518 102.065 86.1925 102.601C85.9332 103.121 85.6281 103.596 85.2772 104.024C84.9417 104.437 84.5679 104.766 84.1561 105.011C83.7595 105.24 83.3705 105.294 82.9892 105.172ZM82.3027 103.749V103.817C82.3332 103.741 82.3561 103.664 82.3714 103.588C82.3866 103.511 82.4019 103.435 82.4171 103.358V103.083C82.4019 102.991 82.379 102.907 82.3485 102.83C82.3332 102.754 82.2798 102.708 82.1883 102.693C82.1731 102.693 82.1578 102.716 82.1426 102.762C82.1273 102.807 82.1197 102.853 82.1197 102.899C82.1197 102.93 82.1121 102.968 82.0968 103.014C82.0968 103.045 82.1044 103.121 82.1197 103.244V103.267C82.1502 103.297 82.1731 103.351 82.1883 103.427C82.2188 103.488 82.2417 103.557 82.257 103.634L82.3027 103.749Z" fill="white"/>
<path d="M87.8814 105.906C87.5305 105.876 87.2255 105.753 86.9661 105.539C86.7221 105.309 86.5162 105.057 86.3484 104.781C86.1958 104.506 86.0738 104.238 85.9823 103.978C85.906 103.718 85.8602 103.527 85.845 103.404C85.7992 103.083 85.7763 102.739 85.7763 102.371C85.7763 101.514 85.8907 100.581 86.1196 99.5711C86.1196 99.4793 86.1272 99.3033 86.1424 99.0432C86.1577 98.7831 86.1806 98.4847 86.2111 98.148C86.2568 97.8114 86.3026 97.4748 86.3484 97.1381C86.4094 96.7862 86.4628 96.4878 86.5085 96.2429C86.5085 95.9522 86.5314 95.6538 86.5772 95.3478C86.6382 95.0264 86.7068 94.7434 86.7831 94.4985C86.8441 94.269 86.8975 94.0395 86.9433 93.8099C87.0043 93.5651 87.0424 93.3126 87.0577 93.0525C87.0577 93.0372 87.0653 92.9683 87.0805 92.8459C87.1111 92.7082 87.1492 92.5552 87.195 92.3869L87.1263 92.2262C87.1263 92.1497 87.1339 92.1038 87.1492 92.0885C87.195 91.7059 87.2407 91.3004 87.2865 90.872C87.3322 90.4435 87.3933 90.0533 87.4695 89.7014C87.5458 89.3341 87.6297 89.0357 87.7212 88.8062C87.828 88.5767 87.95 88.4619 88.0873 88.4619C88.2551 88.4619 88.5068 88.5614 88.8424 88.7603C89.1932 88.9439 89.4754 89.2347 89.689 89.6325C89.9025 89.7549 90.1161 89.9539 90.3296 90.2293C90.5432 90.5047 90.6881 90.8337 90.7644 91.2163C90.8101 91.4764 90.772 91.8283 90.65 92.2721C90.5279 92.7006 90.383 93.1749 90.2152 93.6952V93.764C90.2305 93.8405 90.2381 93.9094 90.2381 93.9706C90.2534 94.0318 90.261 94.1007 90.261 94.1772L89.6432 96.2889C89.6737 96.4725 89.6966 96.6944 89.7119 96.9545C89.7271 97.1993 89.7424 97.3982 89.7576 97.5513C89.7576 97.5819 89.7576 97.6125 89.7576 97.6431C89.7729 97.6584 89.7805 97.6813 89.7805 97.7119V97.8037L89.117 99.8236C89.117 99.9001 89.1246 99.9613 89.1398 100.007V100.053L89.1856 100.306C89.2008 100.352 89.2085 100.451 89.2085 100.604C89.2085 100.696 89.2237 100.818 89.2542 100.971C89.1475 101.277 89.0483 101.568 88.9568 101.843C88.8805 102.104 88.8042 102.364 88.728 102.624L88.8424 103.381C88.6441 103.932 88.5602 104.345 88.5907 104.621C88.6212 104.728 88.6746 104.781 88.7509 104.781C88.8424 104.781 88.9949 104.674 89.2085 104.46C89.4373 104.231 89.6814 103.94 89.9407 103.588C90.2 103.236 90.4593 102.846 90.7186 102.417C90.9932 101.989 91.2373 101.568 91.4508 101.155H91.4279C91.4584 101.109 91.4737 101.063 91.4737 101.017C91.4889 100.971 91.5042 100.933 91.5195 100.902L91.5881 100.627V100.65C91.6186 100.589 91.6644 100.505 91.7254 100.397C91.7864 100.275 91.8474 100.145 91.9084 100.007C92.0152 99.793 92.1144 99.5941 92.2059 99.4104C92.2974 99.2268 92.3737 99.135 92.4347 99.135H92.4805C92.5567 99.0585 92.6406 99.0202 92.7321 99.0202C92.8389 99.0202 92.9152 99.0738 92.9609 99.1809C92.9609 99.2574 92.9304 99.3875 92.8694 99.5711C92.8237 99.7394 92.6711 100.061 92.4118 100.535H92.4347L92.3432 100.765C92.2059 101.132 92 101.568 91.7254 102.073C91.4661 102.563 91.1762 103.052 90.8559 103.542C90.8712 103.527 90.8559 103.55 90.8101 103.611C90.7796 103.657 90.7491 103.695 90.7186 103.726C90.5966 103.909 90.4669 104.1 90.3296 104.299C90.2076 104.498 90.078 104.682 89.9407 104.85C89.8034 105.019 89.6661 105.164 89.5288 105.286C89.3915 105.394 89.2695 105.447 89.1627 105.447C89.1475 105.447 89.1322 105.447 89.117 105.447C89.1017 105.432 89.0864 105.424 89.0712 105.424C88.8271 105.577 88.6136 105.7 88.4305 105.791C88.2475 105.868 88.0644 105.906 87.8814 105.906Z" fill="white"/>
<path d="M96.6587 101.453C96.796 101.316 96.9409 101.27 97.0935 101.316C97.246 101.346 97.2689 101.484 97.1621 101.729C97.1926 101.79 97.1926 101.836 97.1621 101.866C97.1468 101.866 97.1392 101.874 97.1392 101.889C97.0477 102.012 96.9714 102.134 96.9104 102.257L96.7274 102.578C96.5901 102.838 96.4299 103.121 96.2469 103.427C96.0791 103.718 95.8884 104.024 95.6748 104.345V104.322C95.6443 104.384 95.6291 104.445 95.6291 104.506V104.529L95.4689 104.781C95.3316 104.996 95.1867 105.21 95.0342 105.424C94.8816 105.623 94.7138 105.822 94.5308 106.021L94.3249 106.25C94.1418 106.48 93.9435 106.702 93.73 106.916L93.6156 106.985C93.4478 107.092 93.2952 107.191 93.1579 107.283C93.0206 107.375 92.8834 107.452 92.7461 107.513V107.49C92.5783 107.582 92.4105 107.635 92.2427 107.651C92.0902 107.681 91.9376 107.689 91.7851 107.673C91.3885 107.597 91.0529 107.421 90.7783 107.146C90.519 106.87 90.3283 106.564 90.2063 106.227C90.1453 106.059 90.1071 105.883 90.0919 105.7C90.0614 105.516 90.0309 105.34 90.0004 105.172C89.9851 105.095 89.9775 105.019 89.9775 104.942C89.9622 104.85 89.9546 104.766 89.9546 104.69C89.9546 104.613 89.9622 104.544 89.9775 104.483C89.9775 104.422 89.9775 104.353 89.9775 104.276V103.863C90.008 103.618 90.0461 103.381 90.0919 103.152C90.1377 102.922 90.191 102.677 90.2521 102.417L90.3207 102.142C90.3665 101.989 90.4122 101.836 90.458 101.683C90.5037 101.53 90.5571 101.369 90.6182 101.201C90.7554 100.864 90.8851 100.535 91.0071 100.214C91.1292 99.8772 91.2359 99.5558 91.3275 99.2498C91.3427 99.2192 91.3503 99.1733 91.3503 99.1121C91.4266 98.7295 91.5715 98.5 91.7851 98.4235H91.7622C91.8537 98.3623 91.9453 98.3317 92.0368 98.3317C92.1283 98.3164 92.2503 98.324 92.4029 98.3546C92.6469 98.4005 92.8986 98.5841 93.1579 98.9055C93.4325 99.2115 93.6079 99.617 93.6842 100.122C93.6995 100.244 93.6918 100.382 93.6613 100.535C93.6308 100.673 93.5927 100.818 93.5469 100.971L93.5012 101.155C93.5012 101.17 93.5088 101.185 93.524 101.201L93.5469 101.27C93.5774 101.361 93.5927 101.446 93.5927 101.522V101.798C93.5927 101.843 93.5927 101.889 93.5927 101.935C93.6079 101.981 93.6156 102.027 93.6156 102.073C93.5698 102.257 93.5164 102.433 93.4554 102.601C93.3944 102.769 93.3334 102.922 93.2723 103.06L93.1122 103.404C93.1122 103.435 93.1122 103.458 93.1122 103.473C93.1274 103.488 93.1351 103.511 93.1351 103.542C93.013 103.848 92.9062 104.162 92.8147 104.483C92.7232 104.789 92.6546 105.087 92.6088 105.378V105.401C92.6241 105.432 92.6317 105.462 92.6317 105.493C92.6317 105.508 92.6088 105.539 92.563 105.585L92.4486 105.677C92.2808 105.983 92.1969 106.235 92.1969 106.434C92.1969 106.618 92.2885 106.732 92.4715 106.778C92.563 106.748 92.6774 106.679 92.8147 106.572C92.9673 106.465 93.1351 106.327 93.3181 106.159C93.4554 106.082 93.585 105.983 93.7071 105.86C93.8291 105.722 93.9511 105.592 94.0732 105.47L94.2333 105.286C94.5842 104.858 94.9121 104.407 95.2172 103.932C95.5223 103.443 95.8274 102.938 96.1325 102.417C96.2545 102.234 96.3536 102.073 96.4299 101.935C96.5062 101.782 96.5825 101.622 96.6587 101.453ZM94.1647 94.9576C93.8749 94.927 93.5698 94.8122 93.2495 94.6133C93.0817 94.4909 92.9368 94.2996 92.8147 94.0395C92.6927 93.7793 92.6317 93.4886 92.6317 93.1673C92.6164 92.9224 92.6393 92.7235 92.7003 92.5705C92.7766 92.4175 92.8757 92.2797 92.9978 92.1573C93.3334 91.8513 93.6842 91.6983 94.0503 91.6983C94.2181 91.683 94.4393 91.7289 94.7138 91.836C95.0037 91.9431 95.2554 92.0732 95.4689 92.2262C95.5452 92.3027 95.6062 92.3716 95.652 92.4328C95.6977 92.494 95.7282 92.5628 95.7435 92.6393C95.774 92.7771 95.7664 92.8918 95.7206 92.9836C95.6901 93.0754 95.6367 93.1749 95.5604 93.282V93.2591C95.5299 93.3356 95.4918 93.4121 95.446 93.4886C95.4155 93.5498 95.3698 93.6263 95.3087 93.7181V93.6952C95.2782 93.7717 95.2325 93.8558 95.1715 93.9477C95.1257 94.0242 95.0876 94.1007 95.0571 94.1772C94.8435 94.5138 94.6833 94.7281 94.5766 94.8199C94.485 94.9117 94.3477 94.9576 94.1647 94.9576Z" fill="white"/>
<path d="M102.727 105.47C102.651 105.47 102.574 105.47 102.498 105.47C102.437 105.455 102.369 105.432 102.292 105.401L102.246 105.47L102.063 105.722C102.033 105.768 101.972 105.814 101.88 105.86C101.804 105.906 101.751 105.99 101.72 106.113C101.705 106.128 101.697 106.143 101.697 106.159V106.182C101.636 106.304 101.522 106.442 101.354 106.595C101.186 106.748 101.026 106.862 100.874 106.939C100.828 106.97 100.782 107 100.736 107.031C100.691 107.061 100.652 107.092 100.622 107.123C100.515 107.199 100.416 107.26 100.324 107.306C100.233 107.367 100.111 107.413 99.9584 107.444C99.7601 107.52 99.5694 107.566 99.3864 107.582C99.2186 107.597 99.0279 107.597 98.8144 107.582L98.5855 107.49L98.2881 107.329L98.1737 107.283C98.1432 107.283 98.1127 107.276 98.0822 107.26C98.0669 107.26 98.0517 107.26 98.0364 107.26C97.9601 107.26 97.861 107.245 97.739 107.214C97.2813 107 96.8771 106.694 96.5263 106.296C96.1449 105.837 95.9314 105.286 95.8856 104.644C95.8856 104.521 95.8932 104.361 95.9085 104.162C95.9085 103.947 95.9085 103.733 95.9085 103.519C95.9237 103.305 95.939 103.098 95.9542 102.899C95.9847 102.7 96.0076 102.54 96.0229 102.417C96.0534 102.019 96.1297 101.652 96.2517 101.316C96.3432 101.071 96.4576 100.834 96.5949 100.604C96.7474 100.374 96.9 100.153 97.0525 99.9384C97.2661 99.6017 97.4949 99.311 97.739 99.0662V99.0891C97.9067 98.8902 98.0898 98.7142 98.2881 98.5612C98.4864 98.4082 98.6923 98.2705 98.9059 98.148L99.0432 98.0792C99.2415 97.9415 99.4321 97.842 99.6152 97.7808C99.8135 97.7043 100.012 97.6507 100.21 97.6201C100.424 97.5895 100.599 97.5895 100.736 97.6201C100.889 97.6354 101.049 97.6737 101.217 97.7349L101.285 97.7808C101.514 97.9032 101.735 98.0256 101.949 98.148C102.163 98.2552 102.353 98.3852 102.521 98.5382C102.704 98.676 102.841 98.8366 102.933 99.0202C103.04 99.2039 103.093 99.4104 103.093 99.64C103.124 99.7165 103.085 99.793 102.979 99.8695C102.887 99.9307 102.704 99.946 102.43 99.9154C102.246 99.9307 102.025 99.9843 101.766 100.076C101.522 100.168 101.27 100.283 101.011 100.42C100.752 100.558 100.5 100.719 100.256 100.902C100.027 101.071 99.8364 101.239 99.6838 101.407C99.516 101.637 99.3559 101.889 99.2033 102.165C99.0508 102.425 98.9211 102.7 98.8144 102.991C98.7838 103.068 98.7533 103.221 98.7228 103.45C98.6923 103.68 98.6618 103.902 98.6313 104.116L98.5627 104.529V104.621C98.5169 104.82 98.4788 105.011 98.4483 105.195C98.4178 105.378 98.4025 105.539 98.4025 105.677C98.4025 105.83 98.4483 106.013 98.5398 106.227C98.6313 106.426 98.7305 106.541 98.8372 106.572C99.0203 106.664 99.2262 106.709 99.455 106.709C99.5771 106.709 99.7067 106.694 99.844 106.664C99.9813 106.633 100.119 106.595 100.256 106.549C100.332 106.518 100.393 106.48 100.439 106.434C100.485 106.373 100.538 106.304 100.599 106.227C100.645 106.166 100.683 106.105 100.713 106.044C100.759 105.983 100.813 105.937 100.874 105.906C101.087 105.738 101.263 105.547 101.4 105.332C101.537 105.103 101.621 104.919 101.652 104.781C101.438 104.644 101.224 104.384 101.011 104.001C100.813 103.603 100.683 103.198 100.622 102.785C100.668 102.371 100.729 102.058 100.805 101.843C100.881 101.629 100.958 101.476 101.034 101.384C101.125 101.277 101.217 101.216 101.308 101.201C101.415 101.185 101.522 101.178 101.629 101.178C101.797 101.178 101.987 101.224 102.201 101.316C102.414 101.392 102.544 101.545 102.59 101.775H102.681C102.727 101.821 102.75 101.912 102.75 102.05C102.78 102.127 102.796 102.195 102.796 102.257C102.811 102.318 102.811 102.41 102.796 102.532C102.796 102.532 102.811 102.547 102.841 102.578L102.91 102.67C102.986 102.762 103.017 102.846 103.002 102.922C102.986 102.983 102.963 103.06 102.933 103.152L102.887 103.335L102.91 103.496L102.956 103.84C102.956 103.886 102.902 104.009 102.796 104.208C102.704 104.391 102.62 104.56 102.544 104.713H102.658C102.719 104.728 102.788 104.736 102.864 104.736C103.032 104.766 103.207 104.72 103.391 104.598C103.589 104.46 103.772 104.284 103.94 104.07C104.107 103.886 104.283 103.695 104.466 103.496C104.649 103.282 104.84 103.045 105.038 102.785C105.068 102.723 105.084 102.7 105.084 102.716C105.16 102.624 105.221 102.524 105.267 102.417C105.328 102.31 105.396 102.203 105.473 102.096C105.686 101.729 105.907 101.361 106.136 100.994C106.197 100.948 106.266 100.925 106.342 100.925C106.418 100.91 106.487 100.925 106.548 100.971C106.609 101.002 106.64 101.063 106.64 101.155C106.655 101.231 106.617 101.338 106.525 101.476L106.548 101.453C106.411 101.866 106.182 102.31 105.862 102.785C105.557 103.259 105.221 103.703 104.855 104.116C104.489 104.514 104.115 104.85 103.734 105.126C103.352 105.386 103.017 105.501 102.727 105.47ZM101.972 104.185L102.063 103.978L102.178 103.634C102.193 103.573 102.216 103.527 102.246 103.496C102.277 103.45 102.292 103.404 102.292 103.358C102.292 103.343 102.292 103.335 102.292 103.335C102.308 103.32 102.315 103.305 102.315 103.289L102.201 102.785C102.17 102.586 102.079 102.41 101.926 102.257C101.896 102.241 101.858 102.226 101.812 102.211C101.781 102.18 101.743 102.165 101.697 102.165C101.697 102.149 101.674 102.165 101.629 102.211C101.629 102.211 101.613 102.272 101.583 102.394C101.598 102.425 101.598 102.471 101.583 102.532C101.568 102.578 101.552 102.624 101.537 102.67C101.522 102.746 101.507 102.853 101.491 102.991C101.491 103.129 101.552 103.366 101.674 103.703V103.863L101.972 104.185Z" fill="white"/>
<path d="M23.593 62.0661C23.2681 62.5183 22.9693 63.0218 22.6967 63.5766C22.4242 64.1315 22.2463 64.6869 22.163 65.243C22.048 66.011 22.1346 66.6534 22.4227 67.1703C22.7128 67.674 23.1558 67.9704 23.7516 68.0596C24.2018 68.127 24.6075 68.0389 24.9689 67.7951C25.317 67.5494 25.6393 67.2051 25.9358 66.7622C26.2322 66.3192 26.5184 65.8544 26.7943 65.3678C27.0338 64.9434 27.2922 64.5286 27.5694 64.1233C27.8467 63.7181 28.17 63.3672 28.5393 63.0705C28.9105 62.7606 29.3428 62.541 29.8359 62.4118C30.331 62.2693 30.9228 62.2496 31.6113 62.3527C32.366 62.4657 33.0258 62.7607 33.5906 63.2378C34.1574 63.7017 34.567 64.3113 34.8194 65.0665C35.0719 65.8218 35.1257 66.6827 34.9811 67.6492C34.8859 68.2848 34.7219 68.8829 34.4891 69.4437C34.2582 69.9912 33.9935 70.4931 33.6951 70.9493C33.3835 71.4035 33.0731 71.8037 32.7641 72.15L31.3825 71.0701C31.6552 70.786 31.9281 70.4546 32.2014 70.0759C32.4615 69.6952 32.6914 69.2896 32.8912 68.8593C33.0777 68.427 33.2027 67.9989 33.2662 67.5753C33.3335 67.1251 33.3205 66.6696 33.227 66.2089C33.1223 65.733 32.9196 65.3236 32.619 64.9808C32.3183 64.638 31.8833 64.424 31.314 64.3387C30.8241 64.2654 30.4005 64.3373 30.0431 64.5546C29.6744 64.7566 29.3458 65.0526 29.0573 65.4426C28.7555 65.8306 28.4763 66.249 28.2196 66.6979C27.9801 67.1223 27.7263 67.5514 27.4584 67.9851C27.1771 68.4168 26.8612 68.8094 26.5104 69.163C26.1464 69.5146 25.7281 69.7769 25.2555 69.9498C24.7829 70.1227 24.2355 70.1626 23.6132 70.0695C22.8585 69.9565 22.2298 69.6796 21.7273 69.2389C21.2134 68.7829 20.8452 68.2134 20.6226 67.5303C20.3867 66.8452 20.317 66.0902 20.4134 65.2654C20.5521 64.3386 20.7866 63.5411 21.1167 62.8731C21.4488 62.1918 21.821 61.6045 22.2333 61.1112L23.593 62.0661Z" fill="#FE7F32"/>
<path d="M37.3554 59.03C37.0102 59.9157 36.539 60.6085 35.9418 61.1086C35.3321 61.6038 34.6536 61.9069 33.9063 62.018C33.1513 62.1117 32.3747 62.003 31.5764 61.6919C30.8154 61.3953 30.1985 60.9322 29.7255 60.3024C29.2525 59.6727 28.9553 58.9605 28.8338 58.166C28.7124 57.3716 28.8073 56.5751 29.1184 55.7768C29.517 54.7539 30.147 54.0224 31.0082 53.5821C31.8695 53.1419 32.8702 53.0074 34.0104 53.1788L33.7691 60.4343L32.5796 60.4448L32.7129 54.462L32.8103 54.931C32.3403 54.9203 31.8875 55.0312 31.4521 55.2638C31.0041 55.4915 30.6707 55.8861 30.452 56.4474C30.2672 56.9214 30.2204 57.3917 30.3116 57.8583C30.3903 58.32 30.5879 58.7347 30.9044 59.1023C31.221 59.4699 31.6349 59.7534 32.1464 59.9527C32.6828 60.1617 33.2005 60.2342 33.6997 60.1701C34.1863 60.1011 34.6235 59.9195 35.0112 59.6252C35.3913 59.3135 35.6786 58.9082 35.8731 58.4092C36.0043 58.0724 36.0683 57.7238 36.0651 57.3633C36.0668 56.9904 36.0213 56.6278 35.9287 56.2756L37.5333 55.9742C37.6445 56.463 37.6864 56.9822 37.659 57.5319C37.6364 58.0691 37.5352 58.5685 37.3554 59.03Z" fill="#FE7F32"/>
<path d="M40.6725 52.6149C40.2375 53.2581 39.7014 53.7521 39.0642 54.097C38.4345 54.4307 37.7484 54.5728 37.0061 54.5233C36.2602 54.4553 35.4991 54.1588 34.7228 53.6338C33.9576 53.1163 33.4065 52.5092 33.0695 51.8126C32.7214 51.1085 32.5777 50.3891 32.6382 49.6543C32.7063 48.9084 32.9578 48.2138 33.3928 47.5706C33.8278 46.9274 34.345 46.4852 34.9444 46.2441C35.5328 45.9955 36.1053 45.8898 36.662 45.9269L36.8607 46.2067L35.4981 45.067L36.4656 43.6364L43.3524 48.2938L42.3061 49.8408L40.5096 48.6259L41.0213 48.7295C41.1022 48.8489 41.1789 49.0462 41.2513 49.3214C41.3202 49.5781 41.3571 49.894 41.362 50.269C41.3745 50.633 41.3329 51.017 41.2374 51.4212C41.1308 51.8178 40.9425 52.2157 40.6725 52.6149ZM39.6729 51.3328C39.9354 50.9447 40.0996 50.5466 40.1654 50.1386C40.2312 49.7306 40.2041 49.3405 40.084 48.9684C39.9604 48.5777 39.7418 48.2198 39.4283 47.8946L38.0809 46.9834C37.6882 46.8471 37.2949 46.8074 36.9009 46.8642C36.4958 46.9135 36.1218 47.0484 35.7787 47.2689C35.4245 47.4819 35.1199 47.777 34.8649 48.154C34.5875 48.5644 34.4323 49.0089 34.3994 49.4877C34.3665 49.9665 34.4563 50.4312 34.6686 50.8819C34.8885 51.3215 35.2369 51.7026 35.7138 52.0251C36.1574 52.3251 36.6334 52.4935 37.1419 52.5303C37.6503 52.567 38.1299 52.4792 38.5806 52.2669C39.0313 52.0545 39.3954 51.7431 39.6729 51.3328Z" fill="#FE7F32"/>
<path d="M45.4821 46.3004L40.9359 41.4512L39.8957 42.4263L38.7557 41.2104L39.7959 40.2352L37.3923 37.6714C36.5682 36.7924 36.1318 35.9353 36.0829 35.1003C36.0438 34.256 36.4101 33.4722 37.1817 32.7489C37.3868 32.5566 37.6389 32.3753 37.938 32.205C38.2469 32.0255 38.5582 31.9172 38.872 31.8799L39.2208 33.3971C39.0505 33.3916 38.8979 33.4246 38.763 33.496C38.6189 33.5577 38.4932 33.6389 38.3858 33.7396C38.0244 34.0784 37.8605 34.4614 37.8941 34.8887C37.9276 35.316 38.2191 35.8227 38.7685 36.4087L41.1584 38.9579L43.0776 37.1586L44.2175 38.3746L42.2984 40.1738L46.8446 45.0231L45.4821 46.3004Z" fill="#FE7F32"/>
<path d="M47.3052 38.8828C46.8855 38.1667 46.6739 37.4217 46.6703 36.6479C46.6784 35.8673 46.8845 35.1335 47.2888 34.4466C47.6931 33.7596 48.2764 33.1927 49.0387 32.7459C49.8241 32.2856 50.6095 32.0502 51.3949 32.04C52.1803 32.0297 52.9039 32.2185 53.5658 32.6064C54.2277 32.9944 54.7685 33.5464 55.1882 34.2625C55.6079 34.9787 55.8287 35.726 55.8505 36.5046C55.8656 37.2717 55.671 37.9987 55.2667 38.6857C54.874 39.3659 54.2849 39.9361 53.4995 40.3965C52.7372 40.8433 51.9643 41.0867 51.1809 41.1269C50.4023 41.1488 49.6739 40.9782 48.9957 40.6154C48.3223 40.2342 47.7588 39.6567 47.3052 38.8828ZM48.9266 37.9558C49.1974 38.4178 49.5484 38.7784 49.9797 39.0377C50.4043 39.2855 50.8541 39.4175 51.3292 39.4339C51.8159 39.4435 52.2729 39.3231 52.7003 39.0726C53.1507 38.8086 53.4849 38.4653 53.7028 38.0427C53.9322 37.6134 54.0368 37.1564 54.0165 36.6717C53.9895 36.1755 53.8406 35.6964 53.5698 35.2344C53.299 34.7724 52.9571 34.4141 52.5441 34.1596C52.1244 33.8935 51.6712 33.7557 51.1845 33.7461C50.7026 33.7182 50.2364 33.8362 49.786 34.1002C49.347 34.3575 49.0163 34.7065 48.7936 35.1474C48.5825 35.5815 48.4847 36.05 48.5002 36.5531C48.5205 37.0377 48.6626 37.5053 48.9266 37.9558Z" fill="#FE7F32"/>
<path d="M55.517 34.1541C55.2661 33.3629 55.2245 32.5896 55.3922 31.8342C55.5726 31.0747 55.936 30.4046 56.4822 29.8241C57.0284 29.2436 57.7226 28.8197 58.5649 28.5526C59.4327 28.2774 60.2506 28.2216 61.0188 28.3852C61.787 28.5489 62.451 28.8931 63.0107 29.4178C63.5704 29.9426 63.9757 30.6006 64.2266 31.3918C64.4776 32.183 64.5276 32.9606 64.3767 33.7248C64.2217 34.4762 63.8712 35.1422 63.3249 35.7227C62.7915 36.2992 62.0909 36.7251 61.2231 37.0003C60.3809 37.2674 59.5733 37.3339 58.8004 37.1998C58.0363 37.0489 57.3636 36.7216 56.7824 36.2177C56.21 35.697 55.7882 35.0091 55.517 34.1541ZM57.3033 33.6086C57.4652 34.1191 57.7278 34.5485 58.091 34.8967C58.4503 35.2322 58.8597 35.4605 59.3195 35.5816C59.792 35.6986 60.2643 35.6822 60.7365 35.5324C61.2342 35.3746 61.636 35.1137 61.9419 34.7498C62.2606 34.3819 62.4637 33.9593 62.5511 33.4822C62.6345 32.9922 62.5952 32.492 62.4333 31.9816C62.2714 31.4711 62.0173 31.0461 61.6708 30.7066C61.3203 30.3542 60.9088 30.1196 60.4363 30.0026C59.9725 29.8688 59.4918 29.8808 58.9941 30.0387C58.5091 30.1925 58.1094 30.4597 57.7947 30.8404C57.4928 31.2171 57.2938 31.6524 57.1977 32.1464C57.1102 32.6235 57.1454 33.111 57.3033 33.6086Z" fill="#FE7F32"/>
<path d="M68.3936 35.4902C67.6332 35.5544 66.9243 35.4327 66.267 35.1254C65.6218 34.8036 65.091 34.3244 64.6746 33.6877C64.257 33.0377 64.0111 32.2725 63.9369 31.392C63.8593 30.4715 63.9797 29.6687 64.2981 28.9835C64.6299 28.2972 65.108 27.7531 65.7324 27.3511C66.3568 26.9492 67.0759 26.7139 67.8897 26.6453C68.5434 26.5902 69.1755 26.6779 69.7861 26.9086C70.4101 27.1381 70.9096 27.4856 71.2847 27.9511L71.2604 28.6182L70.4927 19.5133L72.3337 19.3581L73.6396 34.8464L71.7786 35.0033L71.6048 32.9422L71.8488 33.4456C71.5046 33.9852 71.0398 34.4476 70.4543 34.8328C69.8676 35.2047 69.1807 35.4239 68.3936 35.4902ZM68.8406 33.8605C69.3342 33.8189 69.7672 33.695 70.1394 33.489C70.5105 33.2696 70.8093 32.9891 71.0358 32.6476C71.2623 32.306 71.4103 31.9107 71.4799 31.4614L71.3483 29.9006C71.2079 29.5094 70.9852 29.1788 70.6803 28.909C70.3876 28.6246 70.0405 28.4121 69.639 28.2712C69.2498 28.116 68.8217 28.058 68.3547 28.0974C67.8478 28.1401 67.3916 28.3062 66.9861 28.5957C66.5927 28.8707 66.2873 29.2323 66.0699 29.6806C65.8524 30.1288 65.7673 30.6331 65.8145 31.1934C65.8606 31.7404 66.029 32.2233 66.3196 32.6422C66.609 33.0477 66.9785 33.3659 67.4278 33.5967C67.8761 33.8142 68.347 33.9021 68.8406 33.8605Z" fill="#FE7F32"/>
<path d="M89.8408 38.1744C89.3859 38.3171 88.8835 38.3774 88.3336 38.3553C87.7837 38.3332 87.2646 38.2297 86.7763 38.0448C85.9249 37.7225 85.2439 37.2714 84.7333 36.6916C84.2228 36.1118 83.8997 35.4527 83.7641 34.7143C83.6458 33.968 83.7431 33.1817 84.056 32.3554C84.3688 31.529 84.8292 30.8802 85.4371 30.4089C86.0575 29.9423 86.736 29.6624 87.4728 29.5691C88.2268 29.4681 88.9607 29.5527 89.6743 29.8229C90.3004 30.0599 90.8243 30.3585 91.2463 30.7186C91.6807 31.0835 92.0164 31.4826 92.2532 31.9158L90.9626 32.7156C90.8036 32.4549 90.5874 32.1942 90.314 31.9332C90.0407 31.6722 89.6974 31.4635 89.2842 31.3071C88.8334 31.1364 88.369 31.0966 87.8908 31.1875C87.4298 31.2707 87.0108 31.47 86.6338 31.7853C86.2692 32.1054 85.9922 32.5158 85.8026 33.0166C85.6224 33.4924 85.5669 33.9796 85.6358 34.4781C85.7095 34.964 85.9016 35.4018 86.2122 35.7914C86.5276 36.1684 86.9419 36.4541 87.4552 36.6485C87.7933 36.7765 88.119 36.8425 88.4324 36.8466C88.7583 36.8555 89.0671 36.815 89.3588 36.725L89.8408 38.1744Z" fill="#FE7F32"/>
<path d="M92.2309 35.4422C92.6892 34.7502 93.265 34.2323 93.9583 33.8886C94.6627 33.5522 95.4123 33.4144 96.2071 33.4751C97.0019 33.5357 97.7677 33.81 98.5044 34.2979C99.2634 34.8005 99.8204 35.4022 100.175 36.1029C100.53 36.8036 100.679 37.5365 100.622 38.3016C100.565 39.0666 100.307 39.7952 99.849 40.4872C99.3907 41.1793 98.8168 41.7065 98.1272 42.0688C97.4451 42.4199 96.7066 42.5651 95.9118 42.5044C95.1282 42.4511 94.3569 42.1732 93.5979 41.6705C92.8612 41.1827 92.3024 40.5958 91.9215 39.9101C91.5593 39.2206 91.3918 38.4914 91.4191 37.7227C91.465 36.9503 91.7356 36.1901 92.2309 35.4422ZM93.7769 36.4902C93.4812 36.9366 93.3119 37.4106 93.2688 37.912C93.2332 38.4022 93.3126 38.8643 93.507 39.2981C93.7126 39.7393 94.0219 40.0967 94.4349 40.3702C94.8702 40.6585 95.3255 40.8075 95.8008 40.8172C96.2873 40.8342 96.7437 40.727 97.17 40.4955C97.6037 40.2528 97.9684 39.9082 98.264 39.4617C98.5597 39.0152 98.7309 38.5506 98.7777 38.0677C98.8319 37.5737 98.7562 37.1061 98.5506 36.6649C98.3636 36.2199 98.0524 35.8532 97.6171 35.5649C97.193 35.284 96.734 35.1406 96.2401 35.1347C95.7574 35.1362 95.2936 35.2546 94.8488 35.4899C94.4225 35.7214 94.0652 36.0548 93.7769 36.4902Z" fill="#FE7F32"/>
<path d="M105.862 40.8717L104.244 42.6675L104.407 42.3729C104.923 42.1762 105.446 42.1028 105.975 42.1526C106.523 42.2028 107.017 42.3229 107.458 42.5127C107.918 42.703 108.263 42.9191 108.494 43.1611L107.089 44.3651C106.684 43.8825 106.213 43.5641 105.676 43.41C105.149 43.2655 104.619 43.2536 104.086 43.3741C103.563 43.5044 103.107 43.7545 102.72 44.1245L99.9766 46.7471L98.7 45.4116L104.71 39.6669L105.862 40.8717Z" fill="#FE7F32"/>
<path d="M111.271 47.5222L109.614 48.7026L109.848 48.4685C110.514 48.3817 111.157 48.5037 111.777 48.8347C112.408 49.1588 112.927 49.6596 113.333 50.3372C113.739 51.0147 113.868 51.6864 113.721 52.3521C113.592 53.0225 113.215 53.5526 112.59 53.9426L107.319 57.1011L106.349 55.4819L111.051 52.664C111.435 52.4185 111.682 52.1145 111.792 51.7518C111.921 51.3937 111.851 50.9907 111.583 50.5428C111.335 50.1294 110.997 49.825 110.567 49.6296C110.138 49.4341 109.664 49.3593 109.145 49.4049C108.633 49.462 108.113 49.6488 107.585 49.9653L104.243 51.9678L103.283 50.3658L110.414 46.0925L111.271 47.5222Z" fill="#FE7F32"/>
<path d="M108.683 61.7764C108.387 60.8732 108.311 60.0388 108.454 59.2732C108.61 58.5035 108.942 57.8383 109.448 57.2777C109.972 56.7257 110.641 56.3162 111.455 56.0493C112.231 55.7948 113.002 55.7605 113.767 55.9464C114.532 56.1322 115.214 56.4933 115.813 57.0297C116.411 57.5661 116.844 58.2413 117.111 59.0555C117.453 60.0987 117.431 61.0638 117.046 61.951C116.661 62.8382 115.973 63.5778 114.984 64.1699L110.56 58.4136L111.472 57.6497L115.171 62.3545L114.797 62.0542C115.167 61.7639 115.446 61.3906 115.635 60.9343C115.836 60.4738 115.843 59.9574 115.655 59.3849C115.497 58.9015 115.234 58.5086 114.867 58.2062C114.513 57.8996 114.097 57.7049 113.619 57.6221C113.141 57.5394 112.641 57.5835 112.12 57.7545C111.573 57.9338 111.127 58.2068 110.782 58.5734C110.45 58.9359 110.228 59.3539 110.115 59.8275C110.02 60.3097 110.055 60.8052 110.222 61.3141C110.335 61.6576 110.507 61.9675 110.738 62.2438C110.974 62.5328 111.24 62.7839 111.535 62.9971L110.487 64.2493C110.091 63.9425 109.729 63.5682 109.401 63.1263C109.077 62.6971 108.838 62.2471 108.683 61.7764Z" fill="#FE7F32"/>
<path d="M118.719 68.5139L116.337 68.9196L116.647 68.7895C117.174 68.9551 117.629 69.2216 118.013 69.5888C118.412 69.9682 118.725 70.369 118.953 70.7913C119.196 71.2257 119.333 71.6095 119.364 71.9427L117.516 72.0158C117.497 71.3856 117.325 70.8437 117 70.3902C116.676 69.95 116.267 69.6119 115.775 69.3759C115.283 69.1532 114.771 69.0669 114.237 69.1171L110.459 69.4726L110.286 67.6332L118.563 66.8545L118.719 68.5139Z" fill="#FE7F32"/>
</svg>
