<svg width="113" height="111" viewBox="0 0 113 111" fill="none" xmlns="http://www.w3.org/2000/svg">
<path d="M59.1482 66.8585C58.6297 66.8585 58.1324 66.6506 57.7657 66.2806C57.3991 65.9106 57.1931 65.4088 57.1931 64.8855C57.1931 64.734 57.1334 64.5886 57.0272 64.4815C56.921 64.3743 56.777 64.3141 56.6268 64.3141C56.4766 64.3141 56.3326 64.3743 56.2264 64.4815C56.1202 64.5886 56.0605 64.734 56.0605 64.8855C56.0607 65.7118 56.3861 66.5043 56.9651 67.0886C57.5441 67.6729 58.3293 68.0012 59.1482 68.0014C59.2984 68.0014 59.4424 67.9412 59.5486 67.834C59.6548 67.7268 59.7144 67.5815 59.7144 67.4299C59.7144 67.2784 59.6548 67.133 59.5486 67.0259C59.4424 66.9187 59.2984 66.8585 59.1482 66.8585Z" fill="#FE7F32"/>
<path d="M76.3152 46.0646C76.2306 46.0588 76.1457 46.0718 76.0666 46.1027C75.9875 46.1335 75.916 46.1815 75.8573 46.2433L73.2266 49.0773C73.128 49.1835 73.0733 49.3237 73.0735 49.4692V56.5359C72.9126 57.1398 72.5823 57.6841 72.1223 58.1033C71.6623 58.5224 71.0921 58.7986 70.4803 58.8987C70.0254 58.228 69.428 57.668 68.7316 57.2596C68.0352 56.8512 67.2574 56.6047 66.4547 56.5378V54.1087C66.8322 53.885 67.1263 53.5421 67.2916 53.133C67.4569 52.7239 67.4841 52.2712 67.3691 51.8449C67.2541 51.4186 67.0033 51.0423 66.6553 50.7742C66.3074 50.5061 65.8816 50.361 65.4438 50.3613H64.3928C63.9549 50.3607 63.529 50.5057 63.1809 50.7738C62.8327 51.0418 62.5817 51.4181 62.4666 51.8444C62.3515 52.2708 62.3786 52.7235 62.5439 53.1328C62.7092 53.542 63.0033 53.885 63.3809 54.1087V56.5153H60.8732V54.1087C61.2507 53.885 61.5448 53.5422 61.7101 53.1331C61.8754 52.724 61.9027 52.2714 61.7877 51.8451C61.6727 51.4188 61.422 51.0425 61.074 50.7744C60.7261 50.5062 60.3004 50.361 59.8626 50.3613H58.8116C58.3737 50.3607 57.9479 50.5057 57.5997 50.7738C57.2516 51.0418 57.0006 51.4181 56.8855 51.8444C56.7703 52.2708 56.7975 52.7235 56.9628 53.1328C57.128 53.542 57.4222 53.885 57.7998 54.1087V56.5378C56.9971 56.6047 56.2192 56.8512 55.5229 57.2596C54.8265 57.668 54.2291 58.228 53.7741 58.8987C53.1623 58.7986 52.5922 58.5224 52.1322 58.1033C51.6722 57.6841 51.3419 57.1398 51.1809 56.5359V49.4682C51.1812 49.3227 51.1264 49.1825 51.0279 49.0763L48.3981 46.2433C48.3393 46.1815 48.2679 46.1335 48.1887 46.1026C48.1095 46.0717 48.0246 46.0588 47.9399 46.0646C46.2071 46.0783 44.5498 46.782 43.3285 48.0225C42.1072 49.2631 41.4207 50.9402 41.4185 52.6889V55.0948C41.4204 56.3644 41.9079 57.5843 42.7794 58.5001C43.6508 59.4158 44.8388 59.9568 46.0958 60.0103C47.9862 61.5384 50.303 62.4316 52.7215 62.5648L52.8247 62.5687V63.3345H48.5395C48.4652 63.3344 48.3916 63.3492 48.3229 63.3779C48.2542 63.4066 48.1918 63.4486 48.1393 63.5016L44.6543 67.0198C44.6016 67.0728 44.5599 67.1358 44.5314 67.2051C44.5029 67.2744 44.4882 67.3487 44.4883 67.4237V69.1619C44.4883 69.5733 44.6502 69.9678 44.9385 70.2587C45.2267 70.5496 45.6177 70.713 46.0253 70.713C46.4329 70.713 46.8239 70.5496 47.1121 70.2587C47.4004 69.9678 47.5623 69.5733 47.5623 69.1619V68.4713L49.5798 66.4356H53.0198C53.0522 66.5617 53.0846 66.6864 53.124 66.8102L49.156 69.6282C49.1006 69.6675 49.0528 69.7165 49.0145 69.7729L47.342 72.2402C47.2774 72.3352 47.2429 72.4477 47.2429 72.5628V74.6348C47.2429 75.0461 47.4049 75.4406 47.6931 75.7315C47.9814 76.0224 48.3723 76.1858 48.78 76.1858C49.1876 76.1858 49.5785 76.0224 49.8668 75.7315C50.155 75.4406 50.317 75.0461 50.317 74.6348V73.3456L51.2955 71.9023L54.7455 69.4532C55.9241 70.6116 57.503 71.2619 59.1482 71.2665H65.1073C66.7525 71.2619 68.3313 70.6116 69.5099 69.4532L72.96 71.9023L73.9385 73.3456V74.6348C73.9385 75.0461 74.1004 75.4406 74.3886 75.7315C74.6769 76.0224 75.0678 76.1858 75.4755 76.1858C75.8831 76.1858 76.2741 76.0224 76.5623 75.7315C76.8506 75.4406 77.0125 75.0461 77.0125 74.6348V72.5628C77.0126 72.4477 76.978 72.3352 76.9135 72.2402L75.2409 69.7729C75.2027 69.7165 75.1548 69.6675 75.0995 69.6282L71.1314 66.8111C71.1702 66.6874 71.2042 66.5626 71.2356 66.4366H74.6772L76.6947 68.4723V69.1619C76.6947 69.5733 76.8567 69.9678 77.1449 70.2587C77.4332 70.5496 77.8241 70.713 78.2318 70.713C78.6394 70.713 79.0303 70.5496 79.3186 70.2587C79.6068 69.9678 79.7688 69.5733 79.7688 69.1619V67.4237C79.7687 67.2722 79.709 67.1269 79.6028 67.0198L76.1162 63.5016C76.0636 63.4486 76.0012 63.4066 75.9325 63.3779C75.8638 63.3492 75.7902 63.3344 75.7159 63.3345H71.4307V62.5687L71.5449 62.5641C73.9597 62.4295 76.2724 61.5365 78.1596 60.0103C79.4166 59.9568 80.6047 59.4158 81.4761 58.5001C82.3475 57.5843 82.835 56.3644 82.837 55.0948V52.6889C82.8348 50.9401 82.1483 49.2629 80.9269 48.0223C79.7055 46.7818 78.0481 46.0782 76.3152 46.0646ZM74.207 49.6951L75.7043 48.0817V52.8525L74.207 54.8871V49.6951ZM64.3928 51.5042H65.4431C65.5579 51.5019 65.672 51.5228 65.7787 51.5656C65.8854 51.6084 65.9826 51.6722 66.0646 51.7533C66.1466 51.8345 66.2117 51.9313 66.2561 52.0381C66.3006 52.145 66.3235 52.2597 66.3235 52.3756C66.3235 52.4914 66.3006 52.6061 66.2561 52.713C66.2117 52.8198 66.1466 52.9166 66.0646 52.9978C65.9826 53.0789 65.8854 53.1427 65.7787 53.1855C65.672 53.2283 65.5579 53.2492 65.4431 53.2469H64.3928C64.278 53.2492 64.1639 53.2283 64.0572 53.1855C63.9505 53.1427 63.8533 53.0789 63.7713 52.9978C63.6894 52.9166 63.6242 52.8198 63.5798 52.713C63.5353 52.6061 63.5124 52.4914 63.5124 52.3756C63.5124 52.2597 63.5353 52.145 63.5798 52.0381C63.6242 51.9313 63.6894 51.8345 63.7713 51.7533C63.8533 51.6722 63.9505 51.6084 64.0572 51.5656C64.1639 51.5228 64.278 51.5019 64.3928 51.5042ZM64.5135 54.3898H65.3224V56.5153H64.5135V54.3898ZM58.9317 54.3898H59.7407V56.5153H58.9317V54.3898ZM58.811 51.5042H59.8626C59.9774 51.5019 60.0915 51.5228 60.1982 51.5656C60.3049 51.6084 60.4021 51.6722 60.4841 51.7533C60.5661 51.8345 60.6312 51.9313 60.6756 52.0381C60.7201 52.145 60.743 52.2597 60.743 52.3756C60.743 52.4914 60.7201 52.6061 60.6756 52.713C60.6312 52.8198 60.5661 52.9166 60.4841 52.9978C60.4021 53.0789 60.3049 53.1427 60.1982 53.1855C60.0915 53.2283 59.9774 53.2492 59.8626 53.2469H58.8116C58.6968 53.2492 58.5828 53.2283 58.476 53.1855C58.3693 53.1427 58.2722 53.0789 58.1902 52.9978C58.1082 52.9166 58.0431 52.8198 57.9986 52.713C57.9542 52.6061 57.9313 52.4914 57.9313 52.3756C57.9313 52.2597 57.9542 52.145 57.9986 52.0381C58.0431 51.9313 58.1082 51.8345 58.1902 51.7533C58.2722 51.6722 58.3693 51.6084 58.476 51.5656C58.5828 51.5228 58.6968 51.5019 58.8116 51.5042H58.811ZM50.0484 54.8871L48.5512 52.8528V48.0804L50.0484 49.6951V54.8871ZM42.551 55.0948V52.6889C42.5527 51.334 43.0507 50.0276 43.9493 49.0209C44.8479 48.0143 46.0835 47.3784 47.4186 47.2356V53.0415C47.4187 53.1642 47.4578 53.2836 47.5303 53.3821L49.8009 56.4676L46.1369 58.8742C45.1722 58.8307 44.2612 58.4137 43.5934 57.7098C42.9255 57.0059 42.5522 56.0693 42.551 55.0948ZM47.2801 59.4871L50.317 57.492C50.5862 58.0952 50.9867 58.6295 51.4886 59.0552C51.9905 59.4809 52.581 59.787 53.2163 59.9508C53.0274 60.4231 52.9049 60.9197 52.8522 61.4261L52.7739 61.4232C50.7982 61.3145 48.8934 60.6433 47.2801 59.4871ZM52.839 65.2937H49.3443C49.2699 65.2937 49.1962 65.3084 49.1275 65.3371C49.0588 65.3658 48.9963 65.4078 48.9437 65.4609L46.5958 67.8316C46.5431 67.8846 46.5014 67.9475 46.4729 68.0168C46.4444 68.0862 46.4297 68.1605 46.4298 68.2355V69.1619C46.4298 69.2702 46.3872 69.374 46.3113 69.4505C46.2355 69.5271 46.1326 69.5701 46.0253 69.5701C45.918 69.5701 45.8151 69.5271 45.7393 69.4505C45.6634 69.374 45.6208 69.2702 45.6208 69.1619V67.6598L48.7754 64.4767H52.8247C52.8247 64.7487 52.8202 65.0217 52.839 65.2937ZM50.5603 71.0268C50.505 71.0663 50.457 71.1154 50.4186 71.1718L49.2834 72.8469C49.2188 72.942 49.1843 73.0546 49.1844 73.1699V74.6357C49.1844 74.744 49.1418 74.8478 49.066 74.9244C48.9901 75.0009 48.8872 75.0439 48.78 75.0439C48.6727 75.0439 48.5698 75.0009 48.4939 74.9244C48.4181 74.8478 48.3755 74.744 48.3755 74.6357V72.7418L49.8915 70.506L53.5722 67.8936C53.7005 68.1339 53.8437 68.3658 54.0009 68.5879L50.5603 71.0268ZM59.1482 70.1239C57.7715 70.1239 56.4511 69.572 55.4776 68.5896C54.5042 67.6072 53.9573 66.2748 53.9573 64.8855V62.0182C53.9553 61.2434 54.1576 60.482 54.5433 59.812C54.9196 59.1577 55.4595 58.6144 56.109 58.2364C56.7586 57.8584 57.495 57.6591 58.2447 57.6582H66.0107C66.7606 57.6592 67.4972 57.8587 68.1468 58.2369C68.7964 58.6151 69.3362 59.1587 69.7125 59.8134C70.4389 61.0715 70.2982 62.5109 70.2982 63.9069C70.322 64.5098 70.299 65.1137 70.2292 65.713C70.0359 66.9433 69.4138 68.0636 68.4748 68.8722C67.5358 69.6809 66.3417 70.1247 65.1073 70.1239H59.1482ZM70.6832 67.8907L74.364 70.503L75.88 72.7389V74.6328C75.88 74.7411 75.8373 74.8449 75.7615 74.9214C75.6856 74.998 75.5828 75.041 75.4755 75.041C75.3682 75.041 75.2653 74.998 75.1895 74.9214C75.1136 74.8449 75.071 74.7411 75.071 74.6328V73.1669C75.0711 73.0517 75.0366 72.9391 74.972 72.844L73.8369 71.1698C73.7985 71.1134 73.7505 71.0644 73.6951 71.0248L70.2545 68.5846C70.4118 68.3627 70.555 68.1309 70.6832 67.8907ZM75.4816 64.4773L78.6362 67.6605V69.1626C78.6362 69.2708 78.5936 69.3746 78.5178 69.4512C78.4419 69.5277 78.339 69.5707 78.2318 69.5707C78.1245 69.5707 78.0216 69.5277 77.9457 69.4512C77.8699 69.3746 77.8273 69.2708 77.8273 69.1626V68.2355C77.8272 68.084 77.7675 67.9387 77.6613 67.8316L75.3121 65.4609C75.2595 65.4079 75.1971 65.3658 75.1284 65.3371C75.0597 65.3084 74.9861 65.2937 74.9118 65.2937H71.4171C71.4359 65.0217 71.4314 64.7494 71.4314 64.4773H75.4816ZM71.4915 61.4226L71.4026 61.4261C71.3499 60.9197 71.2274 60.4231 71.0385 59.9508C71.6737 59.787 72.2642 59.4808 72.7661 59.0552C73.2681 58.6295 73.6685 58.0952 73.9378 57.492L76.9753 59.4875C75.3651 60.6421 73.4639 61.313 71.4915 61.4226ZM81.7044 55.0948C81.7032 56.0693 81.3299 57.0059 80.662 57.7098C79.9942 58.4137 79.0832 58.8307 78.1185 58.8742L74.4562 56.4676L76.7268 53.3821C76.7992 53.2836 76.8384 53.1642 76.8384 53.0415V47.235C78.1735 47.3778 79.4091 48.0137 80.3077 49.0204C81.2062 50.027 81.7043 51.3334 81.7061 52.6882L81.7044 55.0948Z" fill="#FE7F32"/>
<path d="M32.1918 94.9248L32.7181 95.5445C32.9469 95.7434 33.1833 95.9577 33.4274 96.1872C33.6867 96.4167 33.9384 96.6463 34.1825 96.8758C34.457 97.1512 34.7392 97.4343 35.029 97.725C35.3341 98.0005 35.6392 98.2759 35.9443 98.5513C36.2189 98.8115 36.4858 99.0869 36.7451 99.3776C37.0197 99.6684 37.2638 99.9209 37.4773 100.135C37.7214 100.456 37.9273 100.655 38.0951 100.732C38.2781 100.839 38.4383 100.977 38.5756 101.145C38.7586 101.405 38.9798 101.619 39.2391 101.788C39.3154 101.818 39.3917 101.857 39.4679 101.902C39.5442 101.964 39.6281 102.025 39.7196 102.086C39.9179 102.193 40.0705 102.323 40.1773 102.476C40.2535 102.553 40.3222 102.614 40.3832 102.66C40.4595 102.721 40.5357 102.775 40.612 102.821C40.7035 102.882 40.7798 102.928 40.8408 102.958C40.9018 103.004 40.9628 103.042 41.0239 103.073C41.0849 103.104 41.1459 103.134 41.2069 103.165C41.2679 103.211 41.3366 103.264 41.4128 103.326C41.4891 103.402 41.5654 103.456 41.6416 103.486C41.7332 103.532 41.8247 103.578 41.9162 103.624C42.0077 103.655 42.0993 103.716 42.1908 103.808C42.2823 103.899 42.3662 103.984 42.4425 104.06C42.717 104.305 42.9764 104.481 43.2204 104.588C43.3577 104.68 43.4797 104.772 43.5865 104.863C43.6933 104.955 43.8077 105.039 43.9297 105.116C44.1128 105.345 44.3568 105.514 44.6619 105.621C44.8602 105.667 44.9899 105.713 45.0509 105.759C45.0661 105.804 45.1729 105.827 45.3712 105.827C45.539 105.873 45.6763 105.904 45.7831 105.919C45.8899 105.935 45.989 105.95 46.0805 105.965C46.0195 105.996 46.0195 106.049 46.0805 106.126C46.1416 106.187 46.1721 106.241 46.1721 106.286C46.2788 106.286 46.3627 106.279 46.4238 106.264C46.5 106.264 46.5763 106.256 46.6526 106.241C46.6068 106.271 46.6297 106.294 46.7212 106.309L46.7898 106.355C47.1407 106.279 47.3924 106.195 47.5449 106.103L47.5907 106.034C47.5907 106.003 47.6898 105.935 47.8881 105.827C48.0407 105.659 48.1474 105.453 48.2085 105.208C48.2695 104.978 48.3152 104.726 48.3457 104.45L48.3 104.221C48.361 104.16 48.4449 104.129 48.5517 104.129C48.6585 104.129 48.7576 104.175 48.8491 104.267C48.9407 104.374 49.0169 104.58 49.0779 104.886C49.1084 105.024 49.1237 105.162 49.1237 105.299C49.1237 105.453 49.1313 105.59 49.1466 105.713C49.2076 105.835 49.2381 105.927 49.2381 105.988C49.2534 106.065 49.2457 106.141 49.2152 106.218C49.2 106.294 49.1771 106.394 49.1466 106.516C49.1923 106.853 49.0779 107.22 48.8034 107.618C48.7881 107.74 48.7576 107.863 48.7118 107.985C48.6813 108.107 48.6432 108.23 48.5974 108.352C48.5212 108.475 48.4373 108.589 48.3457 108.697C48.2542 108.819 48.1703 108.941 48.0941 109.064L47.6593 109.431C47.3542 109.645 47.0339 109.798 46.6983 109.89C46.3627 109.982 46.0195 110.043 45.6687 110.074L45.3483 110.028C45.1653 110.043 44.9746 110.043 44.7763 110.028C44.5933 110.028 44.395 110.02 44.1814 110.005L43.5179 109.867C42.984 109.729 42.4806 109.515 42.0077 109.224C41.5196 108.903 41.0315 108.528 40.5434 108.1C40.2383 107.855 39.9103 107.572 39.5595 107.25C39.2239 106.944 38.8807 106.615 38.5298 106.264C38.1942 105.912 37.8587 105.544 37.5231 105.162C37.2027 104.779 36.9053 104.404 36.6307 104.037C36.3867 103.731 36.1578 103.425 35.9443 103.119C35.7307 102.828 35.5172 102.545 35.3036 102.27C35.2274 102.178 35.1511 102.078 35.0748 101.971C35.0138 101.88 34.9528 101.803 34.8918 101.742C34.8155 101.711 34.7469 101.642 34.6858 101.535C34.6401 101.443 34.5867 101.352 34.5257 101.26C34.4494 101.168 34.3808 101.069 34.3197 100.961C34.2587 100.87 34.1977 100.77 34.1367 100.663C33.6638 100.036 33.2367 99.4542 32.8554 98.9186C32.474 98.3677 32.1384 97.8781 31.8486 97.4496C31.6198 97.1742 31.391 96.9064 31.1622 96.6463C30.9486 96.3708 30.7579 96.1107 30.5901 95.8659L30.3385 95.5904C30.3385 95.6822 30.3308 95.7817 30.3156 95.8888C30.3156 95.9806 30.3156 96.0801 30.3156 96.1872C30.3003 96.585 30.2851 96.9446 30.2698 97.266C30.2698 97.572 30.2469 97.8781 30.2012 98.1841C30.1402 98.4901 30.0715 98.7732 29.9952 99.0334C29.9342 99.2782 29.8503 99.4695 29.7436 99.6072L29.6063 100.089C29.5758 100.196 29.5376 100.288 29.4919 100.365C29.4461 100.426 29.408 100.472 29.3775 100.502C29.3164 100.579 29.2554 100.717 29.1944 100.915C29.1181 101.084 29.0724 101.244 29.0571 101.398C29.0419 101.52 29.019 101.635 28.9885 101.742C28.9732 101.864 28.958 101.971 28.9427 102.063C28.9427 102.17 28.9503 102.247 28.9656 102.293L29.0571 102.476C29.0724 102.537 29.0876 102.583 29.1029 102.614C29.1181 102.66 29.1334 102.706 29.1487 102.752C29.1487 102.798 29.1258 102.828 29.08 102.844C29.0495 102.859 29.0037 102.882 28.9427 102.912C28.8665 102.958 28.7902 102.981 28.7139 102.981C28.6071 102.981 28.5004 103.012 28.3936 103.073C28.3326 103.088 28.2792 103.088 28.2334 103.073C28.1877 103.073 28.1419 103.081 28.0961 103.096C27.9588 103.096 27.8978 103.073 27.9131 103.027C27.9436 102.981 27.9131 102.958 27.8216 102.958L27.547 103.211C27.5165 103.241 27.4555 103.257 27.3639 103.257C27.2114 103.257 27.1275 103.226 27.1122 103.165C27.1122 103.165 27.097 103.157 27.0665 103.142L26.975 103.073C26.8682 103.058 26.769 102.989 26.6775 102.866C26.6317 102.775 26.5936 102.675 26.5631 102.568C26.5326 102.476 26.5097 102.346 26.4945 102.178C26.464 102.01 26.4411 101.818 26.4258 101.604C26.4106 101.405 26.3953 101.176 26.3801 100.915C26.3953 100.793 26.3953 100.663 26.3801 100.525C26.3801 100.372 26.3724 100.235 26.3572 100.112C26.3572 100.082 26.3648 100.059 26.3801 100.043C26.3801 99.7985 26.3877 99.5536 26.4029 99.3088C26.4182 99.0487 26.4258 98.8268 26.4258 98.6432C26.4106 98.5054 26.4106 98.3218 26.4258 98.0923C26.4411 97.8628 26.4792 97.5644 26.5402 97.1971C26.586 96.7534 26.6394 96.2714 26.7004 95.7511C26.7767 95.2155 26.8529 94.6647 26.9292 94.0985L27.2038 92.3082L27.3182 91.1146C27.3792 90.6708 27.4402 90.2194 27.5012 89.7604C27.5775 89.286 27.6461 88.8193 27.7072 88.3603C27.7072 88.2837 27.7224 88.1919 27.7529 88.0848C27.7834 87.9777 27.8139 87.8706 27.8444 87.7635C27.8902 87.6411 27.9283 87.5263 27.9588 87.4192C27.9894 87.3121 27.997 87.2203 27.9817 87.1437C27.9207 86.9448 27.9207 86.7612 27.9817 86.5929C28.058 86.4246 28.0809 86.2409 28.0504 86.042L28.0275 85.9272C27.9817 85.7283 27.997 85.5141 28.0732 85.2846L28.119 85.055C28.1495 84.8408 28.1953 84.6801 28.2563 84.573C28.2715 84.4965 28.2868 84.4277 28.3021 84.3664C28.3326 84.3052 28.3631 84.2517 28.3936 84.2058C28.4546 84.0987 28.5309 84.0298 28.6224 83.9992L28.691 83.9533C28.7368 83.9074 28.8054 83.8844 28.897 83.8844C28.9732 83.8844 29.019 83.8844 29.0342 83.8844C29.0495 83.8844 29.1334 83.8691 29.2859 83.8385C29.3317 83.8385 29.3775 83.8385 29.4232 83.8385C29.469 83.8232 29.5147 83.8156 29.5605 83.8156C29.6215 83.8156 29.6902 83.8921 29.7664 84.0451C29.858 84.1828 29.8961 84.2976 29.8808 84.3894C29.9419 84.42 29.9952 84.4583 30.041 84.5042L30.43 85.2616C30.5215 85.3687 30.5978 85.4758 30.6588 85.583C30.7198 85.6901 30.7656 85.7742 30.7961 85.8354V85.9732L30.8418 86.2945L30.8876 86.5929C30.9639 86.5164 31.0325 86.4322 31.0935 86.3404C31.1545 86.2333 31.2308 86.1262 31.3223 86.0191L31.6198 85.6748C31.6656 85.6289 31.6961 85.583 31.7113 85.537C31.7418 85.4911 31.7723 85.4529 31.8028 85.4223C31.8486 85.3152 31.9096 85.2004 31.9859 85.078C32.0774 84.9556 32.1766 84.8485 32.2833 84.7566C32.4969 84.4965 32.6876 84.3282 32.8554 84.2517C33.0689 84.1293 33.3511 84.0145 33.702 83.9074C34.0681 83.8003 34.4036 83.762 34.7087 83.7926L35.0748 83.7008H35.5324L35.8756 83.8156C36.3485 83.8615 36.7375 83.9839 37.0426 84.1828C37.3934 84.3511 37.668 84.5042 37.8663 84.6419C38.0646 84.7796 38.2553 84.9556 38.4383 85.1698C38.5146 85.2616 38.568 85.3534 38.5985 85.4452C38.6442 85.537 38.69 85.6442 38.7358 85.7666C38.812 85.8431 38.873 85.9272 38.9188 86.0191C38.9798 86.1109 39.0408 86.2027 39.1019 86.2945C39.1934 86.4016 39.2773 86.5087 39.3535 86.6158L39.4908 86.9601C39.5518 87.3121 39.5824 87.687 39.5824 88.0848C39.5518 88.4368 39.4832 88.7887 39.3764 89.1407C39.2849 89.4773 39.1705 89.7833 39.0332 90.0588C38.9112 90.3036 38.7739 90.5331 38.6214 90.7474C38.4688 90.9616 38.3086 91.1682 38.1409 91.3671C37.79 91.7496 37.4621 92.0786 37.157 92.3541L36.6078 92.8361C36.4248 92.9738 36.2341 93.0962 36.0358 93.2033C35.8528 93.3104 35.6697 93.4022 35.4867 93.4788C35.2121 93.5553 34.907 93.67 34.5714 93.823L34.0909 94.0067L33.7706 94.2132C33.6943 94.2438 33.5876 94.2974 33.4503 94.3739C33.3282 94.4351 33.2443 94.4963 33.1986 94.5575L32.1918 94.9248ZM30.8418 92.859C30.8876 92.8896 30.9334 92.9202 30.9791 92.9508C31.0401 92.9661 31.0935 92.9891 31.1393 93.0197C31.2308 93.0503 31.2918 93.0656 31.3223 93.0656C31.3681 92.9891 31.4444 92.9585 31.5511 92.9738H31.6884C31.7494 92.9585 31.8028 92.9279 31.8486 92.882L31.8944 92.8361L31.9401 92.8131C32.0927 92.7519 32.2376 92.6984 32.3749 92.6524C32.5121 92.5912 32.6494 92.5224 32.7867 92.4459C32.8935 92.4153 32.985 92.377 33.0613 92.3311C33.1376 92.2852 33.2291 92.224 33.3359 92.1475C33.5494 91.9792 33.7401 91.7955 33.9079 91.5966C34.0909 91.3824 34.2892 91.1376 34.5028 90.8621C34.8536 90.3725 35.1511 89.8445 35.3951 89.2784C35.6545 88.7122 35.8375 88.1384 35.9443 87.5569L36.0129 87.0749C36.0282 86.9372 36.0358 86.8071 36.0358 86.6847C36.0358 86.547 36.0358 86.4169 36.0358 86.2945C36.0511 86.1109 36.0434 85.9425 36.0129 85.7895C35.9977 85.6212 35.9748 85.4682 35.9443 85.3305L35.807 85.078L35.7384 85.0321C35.5706 84.8638 35.3799 84.7566 35.1663 84.7107C34.968 84.6495 34.724 84.6572 34.4341 84.7337L34.2511 84.8714L34.0909 85.0091C34.0147 85.0856 33.9079 85.2004 33.7706 85.3534C33.6486 85.5064 33.5265 85.6671 33.4045 85.8354C33.0994 86.1109 32.8477 86.4169 32.6494 86.7536C32.4969 87.0902 32.352 87.4115 32.2147 87.7176C32.0927 88.0083 31.9554 88.2837 31.8028 88.5439C31.7266 88.6816 31.6579 88.8117 31.5969 88.9341C31.5511 89.0565 31.4978 89.2019 31.4367 89.3702C31.4062 89.4467 31.3757 89.5232 31.3452 89.5997C31.33 89.6609 31.3071 89.7298 31.2766 89.8063C31.2766 89.8216 31.2689 89.8369 31.2537 89.8522C31.2537 89.8522 31.2537 89.8675 31.2537 89.8981L31.1393 90.3801C31.0783 90.7627 31.002 91.1911 30.9105 91.6655C30.8342 92.1398 30.8113 92.5377 30.8418 92.859ZM31.8944 92.8361C31.8791 92.8361 31.8562 92.8514 31.8257 92.882L31.8944 92.8361Z" fill="white"/>
<path d="M47.0231 95.2002C47.1146 95.1084 47.1909 95.0625 47.2519 95.0625C47.4502 95.0625 47.557 95.162 47.5723 95.3609C47.5875 95.4833 47.5418 95.621 47.435 95.774C47.3282 95.9271 47.1909 96.1107 47.0231 96.3249C46.9621 96.4626 46.8477 96.6769 46.6799 96.9676C46.5121 97.243 46.3443 97.4802 46.1765 97.6791L46.1308 97.8398C46.1308 97.8857 46.1003 97.9393 46.0392 98.0005C45.9782 98.0617 45.9401 98.1229 45.9248 98.1841C45.8486 98.2759 45.7647 98.3754 45.6731 98.4825C45.5969 98.5896 45.513 98.6967 45.4215 98.8038C45.2994 98.9415 45.1774 99.0946 45.0554 99.2629C44.9333 99.4159 44.8189 99.5766 44.7122 99.7449L44.4833 100.043C44.3461 100.212 44.2011 100.38 44.0486 100.548C43.9113 100.701 43.7588 100.839 43.591 100.961L43.2478 101.191C42.8512 101.451 42.4622 101.673 42.0808 101.857C41.6995 102.055 41.2876 102.147 40.8453 102.132C40.7537 102.132 40.6241 102.124 40.4563 102.109C40.3038 102.094 40.136 102.071 39.9529 102.04C39.7699 102.01 39.5868 101.964 39.4038 101.902C39.236 101.841 39.0834 101.765 38.9462 101.673H38.969C38.7555 101.596 38.5343 101.436 38.3055 101.191C38.0767 100.946 37.9241 100.571 37.8479 100.066C37.7106 99.852 37.6419 99.6607 37.6419 99.4924L37.5962 99.4006C37.5809 99.1711 37.5962 98.9339 37.6419 98.6891C37.6725 98.4442 37.7106 98.1994 37.7563 97.9546V97.8628C37.7869 97.8015 37.8021 97.748 37.8021 97.7021L37.8479 97.4726C37.8936 97.2583 37.947 97.0441 38.008 96.8299C38.0691 96.6156 38.1606 96.3861 38.2826 96.1413L38.5343 95.774L38.5572 95.7281V95.7511C38.6029 95.6593 38.6563 95.5598 38.7173 95.4527C38.7936 95.3303 38.8699 95.2079 38.9462 95.0855C39.0224 94.963 39.0987 94.8559 39.175 94.7641C39.2512 94.6723 39.3199 94.6034 39.3809 94.5575C39.5944 94.3433 39.8309 94.1214 40.0902 93.8919C40.3495 93.6624 40.5783 93.5323 40.7766 93.5017C40.7766 93.5017 40.7766 93.4788 40.7766 93.4328C40.7461 93.3257 40.7461 93.2492 40.7766 93.2033C40.9444 93.0503 41.1427 92.8973 41.3715 92.7443C41.6003 92.5912 41.7758 92.5147 41.8978 92.5147C41.9741 92.5147 42.0351 92.5071 42.0808 92.4918C42.1571 92.4765 42.241 92.4688 42.3325 92.4688C42.4241 92.4688 42.4851 92.4918 42.5156 92.5377C42.5766 92.5224 42.63 92.5147 42.6757 92.5147C42.7368 92.5147 42.7902 92.5147 42.8359 92.5147C42.8969 92.5147 43.019 92.5377 43.202 92.5836C43.4003 92.6295 43.6062 92.7213 43.8198 92.859C44.0486 92.9967 44.2545 93.188 44.4376 93.4328C44.6206 93.6624 44.7427 93.9684 44.8037 94.351C44.8037 94.7029 44.7274 95.0395 44.5749 95.3609C44.5596 95.4068 44.5215 95.491 44.4605 95.6134C44.3994 95.7358 44.3308 95.8735 44.2545 96.0265C44.1783 96.1642 44.0867 96.302 43.98 96.4397C43.8884 96.5774 43.8045 96.6922 43.7283 96.784L43.6139 96.8758C43.4461 97.09 43.2707 97.2889 43.0876 97.4726C42.9046 97.6562 42.7139 97.8322 42.5156 98.0005C42.4393 98.077 42.3325 98.1764 42.1952 98.2989C42.058 98.4213 41.913 98.5437 41.7605 98.6661C41.608 98.7885 41.4631 98.9033 41.3258 99.0104C41.1885 99.1022 41.0893 99.1634 41.0283 99.194L40.5021 99.4695C40.3648 99.6378 40.2885 99.7831 40.2732 99.9056C40.258 100.013 40.2656 100.15 40.2961 100.319L40.3419 100.663C40.3571 100.785 40.4487 100.877 40.6165 100.938C40.7995 101.015 40.9902 101.053 41.1885 101.053C41.3563 101.053 41.5851 101 41.8749 100.893C42.18 100.785 42.508 100.625 42.8588 100.411C43.2096 100.196 43.5757 99.9362 43.9571 99.6301C44.3384 99.3241 44.6893 98.9645 45.0096 98.5513C45.0401 98.4748 45.0782 98.406 45.124 98.3448C45.185 98.2683 45.2308 98.1994 45.2613 98.1382L45.5816 97.6562C45.7189 97.4726 45.8638 97.266 46.0164 97.0365C46.1842 96.7916 46.3367 96.5544 46.474 96.3249C46.6265 96.0801 46.7562 95.8582 46.863 95.6593C46.9697 95.4604 47.0231 95.3073 47.0231 95.2002ZM44.0028 94.7871C43.9571 94.7259 43.8808 94.6647 43.774 94.6034C43.652 94.634 43.4766 94.7565 43.2478 94.9707C43.0342 95.1696 42.8283 95.3915 42.63 95.6363L42.4698 95.7511L42.3325 95.9806L42.2639 96.1183C41.852 96.6386 41.5088 97.1359 41.2342 97.6103C40.9597 98.0693 40.7843 98.406 40.708 98.6202C40.9368 98.5131 41.1427 98.3754 41.3258 98.207L41.5317 98.0464L41.9207 97.7709C42.5003 97.2813 42.9732 96.7763 43.3393 96.2561C43.7206 95.7358 43.9418 95.2461 44.0028 94.7871Z" fill="white"/>
<path d="M55.1972 94.9248C55.3344 94.7871 55.4641 94.7565 55.5861 94.833C55.7234 94.8942 55.7616 95.0319 55.7005 95.2461C55.7005 95.3379 55.5938 95.5139 55.3802 95.774C55.2582 95.973 55.1361 96.1795 55.0141 96.3938C54.8921 96.5927 54.7395 96.7916 54.5565 96.9905L54.5107 97.0824L54.4192 97.243C54.2514 97.4113 54.0455 97.5873 53.8014 97.7709C53.5726 97.9546 53.298 98.1305 52.9777 98.2989L52.8175 98.3677C52.726 98.4136 52.6192 98.4595 52.4972 98.5054C52.3904 98.5513 52.276 98.5896 52.154 98.6202C52.1082 98.6508 52.0472 98.6814 51.9709 98.712C51.9099 98.7426 51.8565 98.7656 51.8108 98.7809H51.5591C51.5438 99.0869 51.4676 99.3853 51.3303 99.676C51.193 99.9668 51.0786 100.196 50.9871 100.365C50.9413 100.426 50.8727 100.487 50.7811 100.548C50.6896 100.594 50.5981 100.64 50.5066 100.686L50.3006 100.824C50.2396 100.87 50.1481 100.915 50.0261 100.961C49.904 101.023 49.7667 101.076 49.6142 101.122C49.4769 101.168 49.332 101.206 49.1795 101.237C49.0422 101.267 48.9278 101.283 48.8363 101.283C48.7447 101.298 48.6303 101.283 48.493 101.237C48.371 101.206 48.2566 101.168 48.1498 101.122C48.1346 101.122 48.0964 101.107 48.0354 101.076C47.8829 101.091 47.6998 101.061 47.4863 100.984C47.288 100.923 47.0744 100.831 46.8456 100.709L46.8685 100.732C46.6854 100.64 46.5253 100.51 46.388 100.342C46.2507 100.173 46.1668 99.9821 46.1363 99.7678C46.1058 99.5536 46.1516 99.3547 46.2736 99.1711C46.4109 98.9874 46.5787 98.8344 46.777 98.712C46.8838 98.6049 47.0439 98.5131 47.2575 98.4366C47.471 98.3448 47.6922 98.2759 47.921 98.23C48.1498 98.1688 48.3558 98.1305 48.5388 98.1152C48.7371 98.0999 48.8744 98.1152 48.9507 98.1611C49.0574 98.0999 49.1261 97.9852 49.1566 97.8168C49.1566 97.8015 49.1566 97.7862 49.1566 97.7709C49.1718 97.7556 49.1795 97.7403 49.1795 97.725C49.2405 97.6026 49.2634 97.5032 49.2481 97.4267C49.2481 97.3042 49.271 97.1742 49.3168 97.0365C49.3473 96.9293 49.3701 96.8222 49.3854 96.7151C49.4007 96.5927 49.3854 96.4703 49.3396 96.3479L49.4769 95.315C49.4312 95.2232 49.4007 95.1314 49.3854 95.0395C49.3854 94.9477 49.3778 94.8559 49.3625 94.7641C49.3625 94.5805 49.3244 94.4045 49.2481 94.2362C49.2176 94.1138 49.1871 93.9914 49.1566 93.869C49.1413 93.7465 49.0956 93.6165 49.0193 93.4788C48.9888 93.4481 48.9507 93.364 48.9049 93.2263C48.8591 93.2416 48.7752 93.3487 48.6532 93.5476C48.5464 93.7465 48.4091 93.999 48.2414 94.3051C48.0431 94.657 47.8219 95.0472 47.5778 95.4757C47.349 95.8888 47.1049 96.2484 46.8456 96.5544C46.7999 96.6156 46.7617 96.6233 46.7312 96.5774C46.7007 96.5315 46.6778 96.4626 46.6626 96.3708C46.6626 96.2637 46.6778 96.1489 46.7083 96.0265C46.7388 95.8888 46.7846 95.7587 46.8456 95.6363C46.8914 95.5598 46.9905 95.3762 47.1431 95.0855C47.2956 94.7947 47.4634 94.481 47.6465 94.1444C47.8295 93.7924 47.9973 93.4558 48.1498 93.1345C48.3024 92.8131 48.4015 92.5912 48.4473 92.4688L48.31 89.8981C48.3405 89.7757 48.4015 89.6456 48.493 89.5079C48.5998 89.3549 48.7142 89.2172 48.8363 89.0947C48.9125 89.0029 48.9812 88.9111 49.0422 88.8193C49.1185 88.7122 49.1718 88.6204 49.2024 88.5439L49.2939 88.4521C49.5379 88.2072 49.7057 88.0695 49.7973 88.0389C49.8888 87.993 50.0184 88.0313 50.1862 88.1537L50.2778 88.2225C50.354 88.2684 50.4379 88.322 50.5294 88.3832C50.621 88.4291 50.7201 88.498 50.8269 88.5898C50.9642 88.7581 51.0938 88.9341 51.2159 89.1177C51.3532 89.286 51.4447 89.4773 51.4904 89.6915L51.5591 89.967C51.5743 90.0129 51.5896 90.0664 51.6048 90.1276C51.6201 90.1735 51.6354 90.2347 51.6506 90.3113C51.6811 90.4796 51.6277 90.6708 51.4904 90.8851C51.3684 91.0993 51.2235 91.3135 51.0557 91.5278C50.9642 91.6502 50.8727 91.7802 50.7811 91.918C50.7049 92.0404 50.6439 92.1551 50.5981 92.2622C50.6591 92.3541 50.743 92.5147 50.8498 92.7443C50.9566 92.9585 51.0633 93.188 51.1701 93.4328C51.2769 93.6624 51.376 93.8919 51.4676 94.1214C51.5591 94.3357 51.6277 94.4963 51.6735 94.6034L51.9709 94.8789L52.2226 95.5675C52.2989 95.6287 52.3294 95.6746 52.3142 95.7052C52.2989 95.7358 52.276 95.7817 52.2455 95.8429C52.2303 95.8582 52.215 95.8812 52.1998 95.9118C52.1998 95.9424 52.2074 95.9653 52.2226 95.9806L52.2455 96.0724L52.2913 96.2101C52.2913 96.2867 52.3065 96.3861 52.337 96.5085C52.3675 96.631 52.3828 96.7304 52.3828 96.8069C52.3828 96.8834 52.3675 96.9523 52.337 97.0135C52.3218 97.1206 52.2455 97.266 52.1082 97.4496C52.0472 97.5261 51.9938 97.6179 51.9481 97.725C51.9023 97.8169 51.8718 97.9087 51.8565 98.0005L52.337 97.8398C52.4743 97.8092 52.604 97.7633 52.726 97.7021C52.848 97.6409 52.9548 97.572 53.0463 97.4955H53.0235L53.0921 97.4496C53.4887 97.1742 53.8243 96.8758 54.0989 96.5544C54.3734 96.2178 54.6404 95.8506 54.8997 95.4527C54.9912 95.315 55.0904 95.139 55.1972 94.9248ZM48.8134 98.8727C48.7981 98.8574 48.7066 98.865 48.5388 98.8956C48.3863 98.9262 48.2032 98.9798 47.9897 99.0563C47.7761 99.1328 47.5626 99.2323 47.349 99.3547C47.1354 99.4618 46.9829 99.5919 46.8914 99.7449C46.8609 99.8367 46.9066 99.9285 47.0287 100.02C47.1507 100.097 47.2956 100.135 47.4634 100.135C47.5854 100.135 47.738 100.097 47.921 100.02C48.4091 99.8214 48.7066 99.4389 48.8134 98.8727Z" fill="white"/>
<path d="M60.0384 86.8454C59.9469 87.2585 59.8401 87.687 59.7181 88.1307C59.5961 88.5745 59.4588 89.0565 59.3062 89.5768L61.2054 89.6686C61.2664 89.6839 61.335 89.6839 61.4113 89.6686C61.5028 89.638 61.5867 89.6303 61.663 89.6456C62.3189 89.7068 62.868 89.8063 63.3104 89.944C63.768 90.0817 64.1341 90.2424 64.4087 90.426C64.6985 90.6096 64.9121 90.8009 65.0494 90.9998C65.1866 91.1988 65.2705 91.3824 65.3011 91.5507C65.3163 91.6731 65.2858 91.742 65.2095 91.7573C65.1333 91.7726 65.0646 91.7726 65.0036 91.7573C64.9731 91.7726 64.9426 91.7802 64.9121 91.7802C64.8968 91.7649 64.8739 91.7573 64.8434 91.7573C64.8129 91.6196 64.6985 91.4895 64.5002 91.3671C64.3019 91.2294 64.0502 91.107 63.7451 90.9998C63.4401 90.8774 63.0816 90.778 62.6697 90.7015C62.2731 90.6096 61.8613 90.5408 61.4342 90.4949C61.3579 90.5102 61.2969 90.5102 61.2511 90.4949C61.2054 90.4796 61.152 90.4719 61.091 90.4719L59.1003 90.3801C58.9783 90.8851 58.8868 91.4053 58.8257 91.9409C58.78 92.4612 58.6732 92.9661 58.5054 93.4558L58.5512 93.9837C58.3681 94.5652 58.1775 95.1314 57.9792 95.6822C57.7961 96.2178 57.6283 96.7228 57.4758 97.1971C57.3232 97.6715 57.2012 98.1076 57.1097 98.5054C57.0182 98.9033 56.9876 99.2476 57.0182 99.5383C57.0182 99.6913 57.0715 99.8367 57.1783 99.9744C57.2851 99.9438 57.4148 99.8673 57.5673 99.7449C57.7351 99.6072 57.9105 99.4465 58.0936 99.2629C58.2919 99.0793 58.4902 98.8727 58.6885 98.6432C58.902 98.4136 59.1003 98.1841 59.2834 97.9546C59.5122 97.6638 59.7715 97.3501 60.0613 97.0135C60.3511 96.6769 60.5571 96.3479 60.6791 96.0265C60.6944 96.0112 60.7554 95.8888 60.8621 95.6593C60.9842 95.4297 61.1215 95.1773 61.274 94.9018C61.4265 94.6264 61.5715 94.3816 61.7087 94.1673C61.8613 93.9378 61.9681 93.823 62.0291 93.823C62.1053 93.823 62.1587 93.8766 62.1892 93.9837C62.1892 94.0296 62.1664 94.0985 62.1206 94.1903C62.1511 94.2209 62.1664 94.2745 62.1664 94.351C62.1206 94.6723 61.8994 95.1849 61.5028 95.8888C61.1062 96.5774 60.5647 97.3578 59.8783 98.23L59.0546 99.2629C58.658 99.7066 58.2614 100.097 57.8647 100.433C57.4681 100.77 57.1249 100.938 56.8351 100.938C56.5148 100.938 56.2631 100.87 56.08 100.732C55.9122 100.579 55.775 100.388 55.6682 100.158C55.5461 100.051 55.4165 99.9362 55.2792 99.8138C55.1419 99.676 55.0123 99.5383 54.8902 99.4006C54.7682 99.2629 54.6614 99.1328 54.5699 99.0104C54.4936 98.8727 54.4479 98.7426 54.4326 98.6202C54.4021 98.2224 54.4631 97.6715 54.6157 96.9676C54.7682 96.2484 54.997 95.4833 55.3021 94.6723L55.2792 94.4428C55.3402 94.2285 55.386 94.022 55.4165 93.823C55.4623 93.6241 55.5233 93.4252 55.5995 93.2263C55.7368 92.7672 55.836 92.2929 55.897 91.8032C55.9733 91.3135 56.0648 90.8162 56.1716 90.3113L54.8445 90.1506C54.3411 90.1047 53.8682 90.0358 53.4258 89.944C52.9682 89.8522 52.5793 89.7451 52.2589 89.6227C51.9233 89.5002 51.6564 89.3549 51.4581 89.1866C51.2445 89.0182 51.1301 88.8423 51.1149 88.6586C51.1149 88.5821 51.153 88.5439 51.2293 88.5439C51.2598 88.5286 51.2903 88.5209 51.3208 88.5209C51.3513 88.5209 51.3971 88.5515 51.4581 88.6127L51.7784 88.5439C52.1293 88.6969 52.5411 88.8346 53.014 88.957C53.4869 89.0641 54.0818 89.1483 54.7987 89.2095C55.119 89.2401 55.4089 89.2554 55.6682 89.2554C55.9428 89.2554 56.1944 89.2707 56.4233 89.3013L56.4004 89.439L57.0182 87.7864C57.0639 87.6181 57.1173 87.4574 57.1783 87.3044C57.2546 87.1514 57.308 86.9907 57.3385 86.8224C57.3995 86.4399 57.4453 86.0497 57.4758 85.6518C57.5215 85.254 57.5597 84.902 57.5902 84.596C57.6207 84.2899 57.6664 84.0375 57.7275 83.8385C57.7885 83.6396 57.8876 83.5401 58.0249 83.5401C58.1317 83.5401 58.269 83.5784 58.4368 83.6549C58.6198 83.7314 58.7952 83.8462 58.963 83.9992C59.1308 84.1369 59.2834 84.3205 59.4207 84.5501C59.5579 84.7796 59.6418 85.0397 59.6723 85.3305C59.6723 85.3917 59.6723 85.4529 59.6723 85.5141C59.6723 85.5753 59.6647 85.6442 59.6495 85.7207C59.68 85.7819 59.7105 85.866 59.741 85.9732C59.7715 86.0803 59.802 86.195 59.8325 86.3174C59.863 86.4246 59.8935 86.5317 59.924 86.6388C59.9545 86.7306 59.9927 86.7995 60.0384 86.8454Z" fill="white"/>
<path d="M64.1484 99.7908C64.0722 99.852 63.9806 99.9056 63.8739 99.9515C63.7823 99.9974 63.6756 100.051 63.5535 100.112L63.5764 100.135L63.5993 100.181C63.5993 100.166 63.6222 100.181 63.6679 100.227C63.7137 100.258 63.7518 100.288 63.7823 100.319C63.8433 100.349 63.8967 100.388 63.9425 100.433C63.9883 100.479 64.0188 100.518 64.034 100.548L64.0798 100.686L64.1027 100.709C64.2399 100.877 64.362 101.046 64.4688 101.214C64.5908 101.398 64.6823 101.589 64.7433 101.788L64.7891 102.729C64.8196 102.974 64.8425 103.211 64.8577 103.44C64.873 103.67 64.8806 103.892 64.8806 104.106C64.8806 105.131 64.6899 105.927 64.3086 106.493C63.9425 107.075 63.4849 107.426 62.9357 107.549C62.9205 107.549 62.9052 107.549 62.89 107.549C62.89 107.564 62.8823 107.572 62.8671 107.572H62.8442C62.4476 107.48 62.1273 107.35 61.8832 107.182C61.6391 107.013 61.4332 106.784 61.2654 106.493C61.0976 106.218 60.9451 105.881 60.8078 105.483C60.6705 105.085 60.518 104.619 60.3502 104.083V103.876C60.3197 103.723 60.3121 103.593 60.3273 103.486L60.19 102.683L60.0985 102.155C60.068 101.971 60.0375 101.818 60.007 101.696V101.719L59.9841 101.581C59.9688 101.474 59.9612 101.367 59.9612 101.26C59.946 101.153 59.9383 101.046 59.9383 100.938L59.8926 100.342L59.9612 98.3677L59.9155 98.1841C59.9307 98.1382 59.9383 98.0846 59.9383 98.0234C59.9231 97.9622 59.9078 97.901 59.8926 97.8398V97.0594C59.8926 96.5085 59.9231 95.8888 59.9841 95.2002C60.0451 94.4963 60.1443 93.7848 60.2815 93.0656C60.3578 92.5912 60.4493 92.1016 60.5561 91.5966C60.6629 91.0763 60.7773 90.5637 60.8993 90.0588C61.0214 89.5538 61.151 89.0718 61.2883 88.6127C61.4408 88.1384 61.5858 87.7023 61.723 87.3044C61.9671 86.7076 62.3027 86.2027 62.7298 85.7895C63.1722 85.3764 63.6374 85.0168 64.1255 84.7107C64.4154 84.5424 64.7204 84.3894 65.0408 84.2517C65.3611 84.114 65.6967 84.0069 66.0475 83.9303C66.0933 83.915 66.1467 83.9074 66.2077 83.9074C66.2687 83.9074 66.3297 83.9074 66.3908 83.9074C66.7416 83.9074 67.0772 84.0222 67.3975 84.2517C67.7331 84.4812 67.9848 84.9173 68.1526 85.56C68.1983 85.6977 68.2212 85.8354 68.2212 85.9732C68.2212 86.0956 68.206 86.2103 68.1755 86.3174C68.1602 86.4246 68.1373 86.5393 68.1068 86.6617C68.0763 86.7842 68.0458 86.9219 68.0153 87.0749C68 87.2126 67.9848 87.3809 67.9695 87.5799L67.5806 87.8323C67.5653 87.8782 67.5577 87.9548 67.5577 88.0619C67.5577 88.169 67.5424 88.3067 67.5119 88.475C67.4814 88.6433 67.3823 88.8882 67.2145 89.2095H67.2374L67.0314 89.6686C66.9704 89.7451 66.9094 89.8522 66.8484 89.9899C66.8026 90.1123 66.7492 90.2424 66.6882 90.3801C66.6119 90.5484 66.5357 90.7091 66.4594 90.8621C66.3984 91.0151 66.3297 91.1452 66.2535 91.2523L65.9103 91.6425L65.6586 91.9868C65.6281 92.0327 65.5899 92.0863 65.5442 92.1475C65.5136 92.1934 65.4755 92.2393 65.4298 92.2852L65.1552 92.6295C64.9874 92.7825 64.8272 92.9508 64.6747 93.1345C64.5374 93.3181 64.4306 93.4634 64.3544 93.5706L64.0569 93.6624C63.9806 93.8001 63.912 93.9149 63.851 94.0067C63.8205 94.0526 63.79 94.1138 63.7594 94.1903C63.7289 94.2515 63.6908 94.3433 63.645 94.4657C63.6298 94.5116 63.5917 94.5881 63.5306 94.6953C63.4849 94.7871 63.4315 94.8789 63.3705 94.9707C63.3095 95.0778 63.2408 95.2308 63.1645 95.4297C63.1188 95.5369 63.0883 95.6822 63.073 95.8659C63.0578 96.0342 63.0501 96.2178 63.0501 96.4167L62.9815 97.1971L62.89 97.5185V97.6103C62.89 97.6409 62.8823 97.6638 62.8671 97.6791C62.8671 97.6944 62.8747 97.7174 62.89 97.748C62.9052 97.7786 62.9205 97.8168 62.9357 97.8628C62.951 97.8934 62.9586 97.9163 62.9586 97.9316C62.9891 98.0081 63.0044 98.1305 63.0044 98.2989C63.0044 98.3754 62.9967 98.4442 62.9815 98.5054C62.9815 98.5666 62.9815 98.6355 62.9815 98.712C62.9662 98.7885 62.9586 98.8574 62.9586 98.9186C62.9586 98.9798 62.9586 99.0487 62.9586 99.1252C62.9586 99.1711 62.9586 99.2246 62.9586 99.2858C62.9739 99.3317 62.9815 99.3776 62.9815 99.4236C62.9967 99.4389 63.0044 99.4542 63.0044 99.4695L63.0501 99.4465L63.4849 99.3547C63.7289 99.2323 64.1332 98.9951 64.6976 98.6432C65.262 98.2759 65.8569 97.7097 66.4823 96.9446L66.6882 96.6692L67.6492 95.2232C67.6645 95.1926 67.6797 95.1543 67.695 95.1084C67.7102 95.0625 67.7102 95.0089 67.695 94.9477C67.7712 94.8559 67.8551 94.7947 67.9467 94.7641C68.0382 94.7335 68.1221 94.7182 68.1983 94.7182C68.2746 94.7488 68.3204 94.8177 68.3356 94.9248C68.3356 95.0166 68.2899 95.1543 68.1983 95.3379L68.1526 95.4068C68.1678 95.4221 68.1755 95.4374 68.1755 95.4527C68.1755 95.5292 68.1526 95.5904 68.1068 95.6363V95.6134L67.9695 95.8199L67.7865 96.0495V96.0265L67.7178 96.2561L67.6034 96.4167C67.5729 96.5391 67.4814 96.7075 67.3289 96.9217C67.1916 97.1206 67.0543 97.2889 66.917 97.4267L66.528 98.0234C66.4365 98.1917 66.2687 98.3524 66.0247 98.5054C65.7958 98.6432 65.5747 98.7962 65.3611 98.9645L64.9264 99.3547C64.8196 99.4465 64.6976 99.523 64.5603 99.5842C64.423 99.6301 64.2857 99.699 64.1484 99.7908ZM63.3934 93.2263V93.2951L63.4162 93.2492C63.4772 93.2186 63.6222 93.1039 63.851 92.9049C64.095 92.706 64.3544 92.4688 64.6289 92.1934C64.9187 91.9027 65.1933 91.589 65.4526 91.2523C65.7272 90.9004 65.9179 90.5637 66.0247 90.2424C66.2077 89.9823 66.3831 89.6839 66.5509 89.3472C66.734 89.0106 66.9018 88.6663 67.0543 88.3143C67.2068 87.9624 67.3289 87.6105 67.4204 87.2585C67.5119 86.8913 67.5577 86.5546 67.5577 86.2486C67.5577 86.0803 67.5348 85.9119 67.489 85.7436C67.4128 85.4376 67.2526 85.1851 67.0085 84.9862C66.7797 84.7873 66.5128 84.7107 66.2077 84.7566C65.9331 84.8026 65.7348 84.8714 65.6128 84.9632C65.506 85.055 65.3992 85.1928 65.2925 85.3764L65.1094 85.7207C65.1094 85.736 65.1018 85.7513 65.0865 85.7666C65.0865 85.7666 65.0865 85.7742 65.0865 85.7895C65.0713 85.8813 65.0332 85.9655 64.9721 86.042C64.7586 86.4399 64.5832 86.8989 64.4459 87.4192C64.3086 87.9241 64.1789 88.4291 64.0569 88.9341C64.0416 89.0412 64.0188 89.1483 63.9883 89.2554C63.973 89.3472 63.9577 89.4467 63.9425 89.5538C63.8662 89.8598 63.8052 90.1812 63.7594 90.5178C63.7137 90.8545 63.6756 91.1758 63.645 91.4818C63.6145 91.7573 63.584 92.0327 63.5535 92.3082C63.523 92.5683 63.4772 92.8131 63.4162 93.0426L63.3934 93.2263ZM63.4162 101.489C63.3705 101.398 63.3095 101.321 63.2332 101.26C63.1722 101.199 63.1035 101.137 63.0273 101.076C62.9815 101.398 62.9586 101.78 62.9586 102.224C62.9586 102.775 62.9815 103.333 63.0273 103.899C63.0883 104.481 63.1645 104.94 63.2561 105.277V105.368L63.3247 105.552L63.3934 105.804C63.4239 105.896 63.462 105.973 63.5078 106.034C63.5535 106.111 63.5917 106.141 63.6222 106.126C63.7442 106.095 63.8205 106.003 63.851 105.85C63.8815 105.697 63.912 105.529 63.9425 105.345C63.9425 105.33 63.9425 105.315 63.9425 105.299C63.9577 105.299 63.9654 105.292 63.9654 105.277L63.9883 104.978C64.0035 104.856 64.0035 104.718 63.9883 104.565C63.9883 104.412 63.9806 104.259 63.9654 104.106C63.9501 103.984 63.9349 103.853 63.9196 103.716C63.9196 103.593 63.9196 103.471 63.9196 103.349C63.9044 103.318 63.8967 103.28 63.8967 103.234C63.8967 103.203 63.8967 103.173 63.8967 103.142V103.096L63.8739 102.706C63.8433 102.675 63.8281 102.652 63.8281 102.637C63.8281 102.622 63.8205 102.606 63.8052 102.591V102.568L63.7366 102.293C63.7061 102.201 63.6679 102.101 63.6222 101.994C63.5764 101.887 63.523 101.772 63.462 101.65L63.4391 101.581L63.4162 101.489Z" fill="white"/>
<path d="M72.9894 99.1711C72.8369 99.1711 72.6843 99.1405 72.5318 99.0793C72.5013 99.1405 72.4631 99.1864 72.4174 99.217C72.3869 99.2476 72.3487 99.2782 72.303 99.3088C72.242 99.3547 72.1809 99.4159 72.1199 99.4924C72.0589 99.5536 72.0055 99.6607 71.9598 99.8138C71.853 100.028 71.6928 100.235 71.4793 100.433C71.281 100.617 71.0598 100.778 70.8157 100.915C70.5716 101.053 70.3123 101.16 70.0378 101.237C69.7784 101.329 69.542 101.375 69.3284 101.375H69.2598C69.2446 101.375 69.2293 101.367 69.214 101.352C69.1988 101.352 69.1835 101.352 69.1683 101.352L68.8479 101.26L68.4819 101.076H68.3675C67.8336 101 67.3454 100.724 66.9031 100.25C66.476 99.7602 66.2319 99.1787 66.1709 98.5054C66.1556 98.2759 66.1633 98.0693 66.1938 97.8857C66.209 97.6868 66.2319 97.4879 66.2624 97.2889C66.2624 97.2583 66.27 97.2354 66.2853 97.2201C66.2853 97.1895 66.2853 97.1589 66.2853 97.1283C66.2548 96.8528 66.3082 96.5162 66.4455 96.1183C66.5675 95.7052 66.7505 95.292 66.9946 94.8789C67.2539 94.4504 67.559 94.0526 67.9098 93.6853C68.2607 93.3028 68.642 93.0044 69.0539 92.7902L69.1683 92.6984C69.4123 92.53 69.6717 92.4076 69.9462 92.3311C70.2208 92.2546 70.4649 92.2163 70.6784 92.2163C70.8005 92.2163 70.9149 92.224 71.0216 92.2393C71.1284 92.2546 71.2352 92.2852 71.342 92.3311C71.7843 92.5453 72.1428 92.7825 72.4174 93.0426C72.7072 93.3028 72.875 93.6547 72.9208 94.0985V94.1214C72.936 94.1979 72.9284 94.2821 72.8979 94.3739C72.8674 94.4657 72.7072 94.5116 72.4174 94.5116H72.2572C71.7843 94.5575 71.3343 94.7641 70.9072 95.1314C70.4801 95.4986 70.0988 95.9347 69.7632 96.4397C69.4429 96.9446 69.1835 97.4726 68.9852 98.0234C68.8022 98.5743 68.7107 99.0563 68.7107 99.4695C68.7107 99.5919 68.7488 99.7296 68.8251 99.8826C68.9166 100.036 69.0157 100.181 69.1225 100.319C69.2446 100.441 69.3666 100.548 69.4886 100.64C69.6106 100.732 69.7251 100.778 69.8318 100.778C69.9081 100.778 69.9691 100.762 70.0149 100.732C70.0606 100.701 70.114 100.671 70.175 100.64C70.2208 100.609 70.2742 100.579 70.3352 100.548C70.3962 100.502 70.4649 100.464 70.5411 100.433C70.6784 100.372 70.8233 100.258 70.9759 100.089C71.1284 99.9209 71.2657 99.7449 71.3877 99.5613C71.525 99.3623 71.6394 99.1711 71.7309 98.9874C71.8377 98.8038 71.9064 98.6661 71.9369 98.5743C71.7081 98.2836 71.5632 98.0464 71.5021 97.8628C71.4411 97.6791 71.4106 97.5032 71.4106 97.3348C71.4106 97.2277 71.4106 97.1206 71.4106 97.0135C71.4259 96.9064 71.4259 96.784 71.4106 96.6463C71.3801 96.279 71.4259 95.973 71.5479 95.7281C71.6699 95.468 71.853 95.3379 72.097 95.3379C72.1276 95.3379 72.1504 95.3379 72.1657 95.3379C72.1809 95.3226 72.2038 95.315 72.2343 95.315C72.3564 95.2997 72.4708 95.3073 72.5775 95.3379C72.6843 95.3532 72.753 95.4221 72.7835 95.5445H72.8292C72.8445 95.5598 72.875 95.621 72.9208 95.7281C72.9818 95.8199 73.0199 95.9271 73.0352 96.0495C73.0504 96.0801 73.058 96.1336 73.058 96.2101C73.0886 96.2867 73.1191 96.3326 73.1496 96.3479C73.1801 96.3632 73.1801 96.432 73.1496 96.5544C73.1191 96.7228 73.1114 96.8299 73.1267 96.8758V96.9446C73.1267 96.9599 73.1191 96.9752 73.1038 96.9905C73.1038 97.0058 73.1038 97.0211 73.1038 97.0365V97.0824L73.1267 97.0594V97.0824C73.1419 97.0977 73.1496 97.1359 73.1496 97.1971C73.1496 97.2583 73.1572 97.3195 73.1724 97.3807C73.1877 97.4267 73.1953 97.4802 73.1953 97.5414L73.1496 97.748C73.1191 97.8551 73.0809 97.9622 73.0352 98.0693C73.0047 98.1611 72.9589 98.2606 72.8979 98.3677L72.9208 98.4136C72.9513 98.4595 72.9894 98.5054 73.0352 98.5513C73.0809 98.5819 73.1877 98.5972 73.3555 98.5972C73.4928 98.5972 73.6682 98.5437 73.8818 98.4366C74.1106 98.3142 74.2936 98.1688 74.4309 98.0005C74.6445 97.7403 74.8733 97.419 75.1173 97.0365C75.3766 96.6539 75.5826 96.3173 75.7351 96.0265C75.7504 96.0112 75.7732 95.9653 75.8038 95.8888C75.8343 95.8123 75.8724 95.7128 75.9182 95.5904C76.0097 95.3609 76.1088 95.1314 76.2156 94.9018C76.3224 94.657 76.4368 94.5346 76.5588 94.5346C76.7114 94.5346 76.8029 94.6264 76.8334 94.81L76.719 95.0855H76.7419C76.6351 95.5598 76.452 96.0648 76.1927 96.6003C75.9334 97.1206 75.6283 97.595 75.2775 98.0234C74.9419 98.4366 74.5682 98.7656 74.1563 99.0104C73.7597 99.2399 73.3707 99.2935 72.9894 99.1711ZM72.303 97.748V97.8168C72.3335 97.7403 72.3564 97.6638 72.3716 97.5873C72.3869 97.5108 72.4021 97.4343 72.4174 97.3578V97.0824C72.4021 96.9905 72.3792 96.9064 72.3487 96.8299C72.3335 96.7534 72.2801 96.7075 72.1886 96.6922C72.1733 96.6922 72.1581 96.7151 72.1428 96.761C72.1276 96.8069 72.1199 96.8528 72.1199 96.8987C72.1199 96.9293 72.1123 96.9676 72.097 97.0135C72.097 97.0441 72.1047 97.1206 72.1199 97.243V97.266C72.1504 97.2966 72.1733 97.3501 72.1886 97.4267C72.2191 97.4879 72.242 97.5567 72.2572 97.6332L72.303 97.748Z" fill="white"/>
<path d="M77.8816 99.9056C77.5308 99.875 77.2257 99.7525 76.9664 99.5383C76.7223 99.3088 76.5164 99.0563 76.3486 98.7809C76.1961 98.5054 76.074 98.2377 75.9825 97.9775C75.9062 97.7174 75.8605 97.5261 75.8452 97.4037C75.7995 97.0824 75.7766 96.7381 75.7766 96.3708C75.7766 95.5139 75.891 94.5805 76.1198 93.5706C76.1198 93.4788 76.1274 93.3028 76.1427 93.0426C76.1579 92.7825 76.1808 92.4841 76.2113 92.1475C76.2571 91.8108 76.3028 91.4742 76.3486 91.1376C76.4096 90.7856 76.463 90.4872 76.5088 90.2424C76.5088 89.9517 76.5317 89.6533 76.5774 89.3472C76.6384 89.0259 76.7071 88.7428 76.7833 88.498C76.8444 88.2684 76.8977 88.0389 76.9435 87.8094C77.0045 87.5646 77.0427 87.3121 77.0579 87.0519C77.0579 87.0366 77.0655 86.9678 77.0808 86.8454C77.1113 86.7076 77.1494 86.5546 77.1952 86.3863L77.1266 86.2256C77.1266 86.1491 77.1342 86.1032 77.1494 86.0879C77.1952 85.7054 77.241 85.2999 77.2867 84.8714C77.3325 84.443 77.3935 84.0528 77.4698 83.7008C77.546 83.3336 77.6299 83.0352 77.7215 82.8057C77.8282 82.5761 77.9503 82.4614 78.0876 82.4614C78.2553 82.4614 78.507 82.5608 78.8426 82.7597C79.1935 82.9434 79.4757 83.2341 79.6892 83.632C79.9028 83.7544 80.1163 83.9533 80.3299 84.2287C80.5434 84.5042 80.6884 84.8332 80.7646 85.2157C80.8104 85.4758 80.7722 85.8278 80.6502 86.2715C80.5282 86.7 80.3833 87.1744 80.2155 87.6946V87.7635C80.2307 87.84 80.2384 87.9088 80.2384 87.9701C80.2536 88.0313 80.2612 88.1001 80.2612 88.1766L79.6435 90.2883C79.674 90.4719 79.6968 90.6938 79.7121 90.9539C79.7274 91.1988 79.7426 91.3977 79.7579 91.5507C79.7579 91.5813 79.7579 91.6119 79.7579 91.6425C79.7731 91.6578 79.7807 91.6808 79.7807 91.7114V91.8032L79.1172 93.823C79.1172 93.8996 79.1248 93.9608 79.1401 94.0067V94.0526L79.1858 94.3051C79.2011 94.351 79.2087 94.4504 79.2087 94.6034C79.2087 94.6953 79.224 94.8177 79.2545 94.9707C79.1477 95.2767 79.0486 95.5675 78.957 95.8429C78.8808 96.103 78.8045 96.3632 78.7282 96.6233L78.8426 97.3807C78.6443 97.9316 78.5604 98.3448 78.5909 98.6202C78.6214 98.7273 78.6748 98.7809 78.7511 98.7809C78.8426 98.7809 78.9952 98.6738 79.2087 98.4595C79.4375 98.23 79.6816 97.9393 79.9409 97.5873C80.2002 97.2354 80.4595 96.8452 80.7189 96.4167C80.9934 95.9883 81.2375 95.5675 81.4511 95.1543H81.4282C81.4587 95.1084 81.4739 95.0625 81.4739 95.0166C81.4892 94.9707 81.5044 94.9324 81.5197 94.9018L81.5883 94.6264V94.6493C81.6188 94.5881 81.6646 94.504 81.7256 94.3969C81.7866 94.2745 81.8477 94.1444 81.9087 94.0067C82.0154 93.7924 82.1146 93.5935 82.2061 93.4099C82.2976 93.2263 82.3739 93.1345 82.4349 93.1345H82.4807C82.557 93.0579 82.6409 93.0197 82.7324 93.0197C82.8392 93.0197 82.9154 93.0732 82.9612 93.1804C82.9612 93.2569 82.9307 93.3869 82.8697 93.5706C82.8239 93.7389 82.6714 94.0602 82.4121 94.5346H82.4349L82.3434 94.7641C82.2061 95.1314 82.0002 95.5675 81.7256 96.0724C81.4663 96.5621 81.1765 97.0518 80.8561 97.5414C80.8714 97.5261 80.8561 97.5491 80.8104 97.6103C80.7799 97.6562 80.7494 97.6944 80.7189 97.725C80.5968 97.9087 80.4672 98.0999 80.3299 98.2989C80.2079 98.4978 80.0782 98.6814 79.9409 98.8497C79.8036 99.0181 79.6663 99.1634 79.529 99.2858C79.3918 99.393 79.2697 99.4465 79.163 99.4465C79.1477 99.4465 79.1325 99.4465 79.1172 99.4465C79.1019 99.4312 79.0867 99.4236 79.0714 99.4236C78.8274 99.5766 78.6138 99.699 78.4308 99.7908C78.2477 99.8673 78.0647 99.9056 77.8816 99.9056Z" fill="white"/>
<path d="M86.659 95.4527C86.7962 95.315 86.9412 95.2691 87.0937 95.315C87.2462 95.3456 87.2691 95.4833 87.1623 95.7281C87.1929 95.7893 87.1929 95.8352 87.1623 95.8659C87.1471 95.8659 87.1395 95.8735 87.1395 95.8888C87.0479 96.0112 86.9717 96.1336 86.9107 96.2561L86.7276 96.5774C86.5903 96.8375 86.4302 97.1206 86.2471 97.4267C86.0793 97.7174 85.8886 98.0234 85.6751 98.3448V98.3218C85.6446 98.383 85.6293 98.4442 85.6293 98.5054V98.5284L85.4692 98.7809C85.3319 98.9951 85.187 99.2093 85.0344 99.4236C84.8819 99.6225 84.7141 99.8214 84.531 100.02L84.3251 100.25C84.1421 100.479 83.9438 100.701 83.7302 100.915L83.6158 100.984C83.448 101.091 83.2955 101.191 83.1582 101.283C83.0209 101.375 82.8836 101.451 82.7463 101.512V101.489C82.5785 101.581 82.4107 101.635 82.2429 101.65C82.0904 101.681 81.9379 101.688 81.7853 101.673C81.3887 101.596 81.0531 101.42 80.7786 101.145C80.5193 100.87 80.3286 100.564 80.2065 100.227C80.1455 100.059 80.1074 99.8826 80.0921 99.699C80.0616 99.5154 80.0311 99.3394 80.0006 99.1711C79.9854 99.0946 79.9777 99.0181 79.9777 98.9415C79.9625 98.8497 79.9549 98.7656 79.9549 98.6891C79.9549 98.6126 79.9625 98.5437 79.9777 98.4825C79.9777 98.4213 79.9777 98.3524 79.9777 98.2759V97.8628C80.0082 97.6179 80.0464 97.3807 80.0921 97.1512C80.1379 96.9217 80.1913 96.6769 80.2523 96.4167L80.3209 96.1413C80.3667 95.9883 80.4125 95.8352 80.4582 95.6822C80.504 95.5292 80.5574 95.3685 80.6184 95.2002C80.7557 94.8636 80.8853 94.5346 81.0074 94.2132C81.1294 93.8766 81.2362 93.5553 81.3277 93.2492C81.343 93.2186 81.3506 93.1727 81.3506 93.1115C81.4269 92.729 81.5718 92.4994 81.7853 92.4229H81.7624C81.854 92.3617 81.9455 92.3311 82.037 92.3311C82.1285 92.3158 82.2506 92.3235 82.4031 92.3541C82.6472 92.4 82.8989 92.5836 83.1582 92.9049C83.4328 93.211 83.6082 93.6165 83.6844 94.1214C83.6997 94.2438 83.6921 94.3816 83.6616 94.5346C83.6311 94.6723 83.5929 94.8177 83.5472 94.9707L83.5014 95.1543C83.5014 95.1696 83.509 95.1849 83.5243 95.2002L83.5472 95.2691C83.5777 95.3609 83.5929 95.445 83.5929 95.5216V95.797C83.5929 95.8429 83.5929 95.8888 83.5929 95.9347C83.6082 95.9806 83.6158 96.0265 83.6158 96.0724C83.57 96.2561 83.5167 96.432 83.4556 96.6003C83.3946 96.7687 83.3336 96.9217 83.2726 97.0594L83.1124 97.4037C83.1124 97.4343 83.1124 97.4573 83.1124 97.4726C83.1277 97.4879 83.1353 97.5108 83.1353 97.5414C83.0133 97.8475 82.9065 98.1611 82.815 98.4825C82.7234 98.7885 82.6548 99.0869 82.609 99.3776V99.4006C82.6243 99.4312 82.6319 99.4618 82.6319 99.4924C82.6319 99.5077 82.609 99.5383 82.5633 99.5842L82.4489 99.676C82.2811 99.9821 82.1972 100.235 82.1972 100.433C82.1972 100.617 82.2887 100.732 82.4718 100.778C82.5633 100.747 82.6777 100.678 82.815 100.571C82.9675 100.464 83.1353 100.326 83.3183 100.158C83.4556 100.082 83.5853 99.9821 83.7073 99.8597C83.8294 99.7219 83.9514 99.5919 84.0734 99.4695L84.2336 99.2858C84.5844 98.8574 84.9124 98.406 85.2175 97.9316C85.5225 97.442 85.8276 96.937 86.1327 96.4167C86.2547 96.2331 86.3539 96.0724 86.4302 95.9347C86.5064 95.7817 86.5827 95.621 86.659 95.4527ZM84.1649 88.957C83.8751 88.9264 83.57 88.8117 83.2497 88.6127C83.0819 88.4903 82.937 88.299 82.815 88.0389C82.6929 87.7788 82.6319 87.488 82.6319 87.1667C82.6167 86.9219 82.6395 86.7229 82.7006 86.5699C82.7768 86.4169 82.876 86.2792 82.998 86.1568C83.3336 85.8507 83.6844 85.6977 84.0505 85.6977C84.2183 85.6824 84.4395 85.7283 84.7141 85.8354C85.0039 85.9425 85.2556 86.0726 85.4692 86.2256C85.5454 86.3021 85.6064 86.371 85.6522 86.4322C85.698 86.4934 85.7285 86.5623 85.7437 86.6388C85.7742 86.7765 85.7666 86.8913 85.7208 86.9831C85.6903 87.0749 85.6369 87.1744 85.5607 87.2815V87.2585C85.5302 87.335 85.492 87.4115 85.4463 87.488C85.4158 87.5493 85.37 87.6258 85.309 87.7176V87.6946C85.2785 87.7711 85.2327 87.8553 85.1717 87.9471C85.1259 88.0236 85.0878 88.1001 85.0573 88.1766C84.8437 88.5133 84.6836 88.7275 84.5768 88.8193C84.4853 88.9111 84.348 88.957 84.1649 88.957Z" fill="white"/>
<path d="M92.7272 99.4695C92.651 99.4695 92.5747 99.4695 92.4984 99.4695C92.4374 99.4542 92.3688 99.4312 92.2925 99.4006L92.2467 99.4695L92.0637 99.7219C92.0332 99.7678 91.9722 99.8138 91.8806 99.8597C91.8044 99.9056 91.751 99.9897 91.7205 100.112C91.7052 100.127 91.6976 100.143 91.6976 100.158V100.181C91.6366 100.303 91.5222 100.441 91.3544 100.594C91.1866 100.747 91.0264 100.862 90.8739 100.938C90.8281 100.969 90.7824 101 90.7366 101.03C90.6908 101.061 90.6527 101.091 90.6222 101.122C90.5154 101.199 90.4163 101.26 90.3247 101.306C90.2332 101.367 90.1112 101.413 89.9586 101.443C89.7603 101.52 89.5697 101.566 89.3866 101.581C89.2188 101.596 89.0281 101.596 88.8146 101.581L88.5858 101.489L88.2883 101.329L88.1739 101.283C88.1434 101.283 88.1129 101.275 88.0824 101.26C88.0672 101.26 88.0519 101.26 88.0366 101.26C87.9604 101.26 87.8612 101.244 87.7392 101.214C87.2816 101 86.8773 100.694 86.5265 100.296C86.1452 99.8367 85.9316 99.2858 85.8858 98.6432C85.8858 98.5207 85.8935 98.3601 85.9087 98.1611C85.9087 97.9469 85.9087 97.7327 85.9087 97.5185C85.924 97.3042 85.9392 97.0977 85.9545 96.8987C85.985 96.6998 86.0079 96.5391 86.0231 96.4167C86.0536 96.0189 86.1299 95.6516 86.2519 95.315C86.3435 95.0702 86.4579 94.833 86.5951 94.6034C86.7477 94.3739 86.9002 94.152 87.0528 93.9378C87.2663 93.6012 87.4951 93.3104 87.7392 93.0656V93.0886C87.907 92.8896 88.09 92.7137 88.2883 92.5606C88.4866 92.4076 88.6926 92.2699 88.9061 92.1475L89.0434 92.0786C89.2417 91.9409 89.4324 91.8414 89.6154 91.7802C89.8137 91.7037 90.012 91.6502 90.2103 91.6196C90.4239 91.589 90.5993 91.589 90.7366 91.6196C90.8891 91.6349 91.0493 91.6731 91.2171 91.7343L91.2857 91.7802C91.5145 91.9027 91.7357 92.0251 91.9493 92.1475C92.1628 92.2546 92.3535 92.3847 92.5213 92.5377C92.7044 92.6754 92.8416 92.8361 92.9332 93.0197C93.0399 93.2033 93.0933 93.4099 93.0933 93.6394C93.1238 93.7159 93.0857 93.7924 92.9789 93.869C92.8874 93.9302 92.7044 93.9455 92.4298 93.9149C92.2467 93.9302 92.0256 93.9837 91.7662 94.0755C91.5222 94.1673 91.2705 94.2821 91.0112 94.4198C90.7518 94.5575 90.5002 94.7182 90.2561 94.9018C90.0273 95.0702 89.8366 95.2385 89.6841 95.4068C89.5163 95.6363 89.3561 95.8888 89.2036 96.1642C89.051 96.4244 88.9214 96.6998 88.8146 96.9905C88.7841 97.0671 88.7536 97.2201 88.7231 97.4496C88.6926 97.6791 88.6621 97.901 88.6315 98.1152L88.5629 98.5284V98.6202C88.5171 98.8191 88.479 99.0104 88.4485 99.194C88.418 99.3776 88.4027 99.5383 88.4027 99.676C88.4027 99.8291 88.4485 100.013 88.54 100.227C88.6315 100.426 88.7307 100.541 88.8375 100.571C89.0205 100.663 89.2265 100.709 89.4553 100.709C89.5773 100.709 89.707 100.694 89.8442 100.663C89.9815 100.632 90.1188 100.594 90.2561 100.548C90.3324 100.518 90.3934 100.479 90.4391 100.433C90.4849 100.372 90.5383 100.303 90.5993 100.227C90.6451 100.166 90.6832 100.104 90.7137 100.043C90.7595 99.9821 90.8129 99.9362 90.8739 99.9056C91.0874 99.7372 91.2629 99.546 91.4001 99.3317C91.5374 99.1022 91.6213 98.9186 91.6518 98.7809C91.4383 98.6432 91.2247 98.383 91.0112 98.0005C90.8129 97.6026 90.6832 97.1971 90.6222 96.784C90.668 96.3708 90.729 96.0571 90.8052 95.8429C90.8815 95.6287 90.9578 95.4757 91.034 95.3838C91.1256 95.2767 91.2171 95.2155 91.3086 95.2002C91.4154 95.1849 91.5222 95.1773 91.629 95.1773C91.7967 95.1773 91.9874 95.2232 92.201 95.315C92.4145 95.3915 92.5442 95.5445 92.59 95.774H92.6815C92.7272 95.8199 92.7501 95.9118 92.7501 96.0495C92.7806 96.126 92.7959 96.1948 92.7959 96.2561C92.8111 96.3173 92.8111 96.4091 92.7959 96.5315C92.7959 96.5315 92.8111 96.5468 92.8416 96.5774L92.9103 96.6692C92.9865 96.761 93.0171 96.8452 93.0018 96.9217C92.9865 96.9829 92.9637 97.0594 92.9332 97.1512L92.8874 97.3348L92.9103 97.4955L92.956 97.8398C92.956 97.8857 92.9027 98.0081 92.7959 98.207C92.7044 98.3907 92.6205 98.559 92.5442 98.712H92.6586C92.7196 98.7273 92.7883 98.735 92.8645 98.735C93.0323 98.7656 93.2077 98.7197 93.3908 98.5972C93.5891 98.4595 93.7721 98.2836 93.9399 98.0693C94.1077 97.8857 94.2831 97.6944 94.4662 97.4955C94.6492 97.2813 94.8399 97.0441 95.0382 96.784C95.0687 96.7228 95.084 96.6998 95.084 96.7151C95.1602 96.6233 95.2213 96.5238 95.267 96.4167C95.328 96.3096 95.3967 96.2025 95.4729 96.0954C95.6865 95.7281 95.9077 95.3609 96.1365 94.9936C96.1975 94.9477 96.2662 94.9248 96.3424 94.9248C96.4187 94.9095 96.4873 94.9248 96.5484 94.9707C96.6094 95.0013 96.6399 95.0625 96.6399 95.1543C96.6551 95.2308 96.617 95.3379 96.5255 95.4757L96.5484 95.4527C96.4111 95.8659 96.1823 96.3096 95.8619 96.784C95.5568 97.2583 95.2213 97.7021 94.8552 98.1152C94.4891 98.5131 94.1153 98.8497 93.734 99.1252C93.3526 99.3853 93.0171 99.5001 92.7272 99.4695ZM91.9722 98.1841L92.0637 97.9775L92.1781 97.6332C92.1934 97.572 92.2162 97.5261 92.2467 97.4955C92.2772 97.4496 92.2925 97.4037 92.2925 97.3578C92.2925 97.3425 92.2925 97.3348 92.2925 97.3348C92.3078 97.3195 92.3154 97.3042 92.3154 97.2889L92.201 96.784C92.1705 96.585 92.0789 96.4091 91.9264 96.2561C91.8959 96.2408 91.8578 96.2254 91.812 96.2101C91.7815 96.1795 91.7434 96.1642 91.6976 96.1642C91.6976 96.1489 91.6747 96.1642 91.629 96.2101C91.629 96.2101 91.6137 96.2714 91.5832 96.3938C91.5984 96.4244 91.5984 96.4703 91.5832 96.5315C91.5679 96.5774 91.5527 96.6233 91.5374 96.6692C91.5222 96.7457 91.5069 96.8528 91.4917 96.9905C91.4917 97.1283 91.5527 97.3654 91.6747 97.7021V97.8628L91.9722 98.1841Z" fill="white"/>
<path d="M13.5932 56.0647C13.2683 56.517 12.9696 57.0205 12.697 57.5753C12.4244 58.1301 12.2465 58.6856 12.1633 59.2417C12.0483 60.0096 12.1349 60.6521 12.423 61.169C12.7131 61.6727 13.156 61.9691 13.7518 62.0583C14.202 62.1257 14.6078 62.0375 14.9692 61.7938C15.3173 61.5481 15.6396 61.2038 15.936 60.7608C16.2325 60.3179 16.5186 59.8531 16.7945 59.3664C17.034 58.942 17.2924 58.5272 17.5697 58.122C17.8469 57.7168 18.1702 57.3659 18.5395 57.0692C18.9108 56.7593 19.343 56.5397 19.8361 56.4105C20.3313 56.268 20.9231 56.2483 21.6116 56.3514C22.3663 56.4643 23.026 56.7594 23.5908 57.2365C24.1576 57.7004 24.5672 58.31 24.8197 59.0652C25.0721 59.8205 25.126 60.6814 24.9813 61.6479C24.8862 62.2834 24.7222 62.8816 24.4893 63.4424C24.2584 63.9899 23.9938 64.4917 23.6954 64.9479C23.3837 65.4021 23.0733 65.8024 22.7643 66.1487L21.3828 65.0688C21.6554 64.7847 21.9284 64.4533 22.2017 64.0746C22.4617 63.6938 22.6916 63.2883 22.8914 62.858C23.078 62.4256 23.203 61.9976 23.2664 61.5739C23.3338 61.1238 23.3208 60.6683 23.2273 60.2076C23.1225 59.7317 22.9199 59.3223 22.6192 58.9795C22.3186 58.6366 21.8836 58.4226 21.3143 58.3374C20.8244 58.2641 20.4007 58.336 20.0433 58.5532C19.6746 58.7553 19.3461 59.0513 19.0575 59.4413C18.7558 59.8293 18.4766 60.2477 18.2198 60.6966C17.9803 61.121 17.7266 61.5501 17.4586 61.9837C17.1774 62.4154 16.8614 62.8081 16.5107 63.1617C16.1467 63.5133 15.7284 63.7756 15.2558 63.9485C14.7832 64.1214 14.2357 64.1613 13.6134 64.0681C12.8587 63.9551 12.2301 63.6783 11.7275 63.2376C11.2137 62.7816 10.8454 62.2121 10.6228 61.529C10.387 60.8439 10.3172 60.0889 10.4136 59.264C10.5524 58.3372 10.7868 57.5398 11.117 56.8718C11.4491 56.1905 11.8213 55.6032 12.2335 55.1099L13.5932 56.0647Z" fill="#FE7F32"/>
<path d="M27.3556 53.0287C27.0104 53.9143 26.5393 54.6072 25.9421 55.1072C25.3324 55.6024 24.6539 55.9056 23.9065 56.0166C23.1516 56.1104 22.3749 56.0017 21.5766 55.6905C20.8157 55.394 20.1987 54.9308 19.7257 54.3011C19.2527 53.6713 18.9555 52.9592 18.8341 52.1647C18.7127 51.3702 18.8075 50.5738 19.1186 49.7755C19.5173 48.7526 20.1472 48.021 21.0085 47.5808C21.8697 47.1405 22.8705 47.0061 24.0106 47.1774L23.7694 54.4329L22.5799 54.4435L22.7131 48.4607L22.8105 48.9297C22.3405 48.9189 21.8878 49.0299 21.4523 49.2625C21.0043 49.4902 20.671 49.8847 20.4522 50.4461C20.2675 50.9201 20.2207 51.3904 20.3119 51.857C20.3905 52.3187 20.5882 52.7334 20.9047 53.101C21.2212 53.4686 21.6352 53.7521 22.1466 53.9514C22.683 54.1604 23.2008 54.2329 23.6999 54.1688C24.1866 54.0998 24.6238 53.9182 25.0115 53.6238C25.3916 53.3122 25.6789 52.9069 25.8733 52.4079C26.0046 52.0711 26.0686 51.7225 26.0654 51.362C26.067 50.9891 26.0215 50.6265 25.9289 50.2743L27.5335 49.9729C27.6448 50.4616 27.6867 50.9809 27.6593 51.5306C27.6367 52.0678 27.5355 52.5671 27.3556 53.0287Z" fill="#FE7F32"/>
<path d="M30.6728 46.6136C30.2378 47.2568 29.7017 47.7508 29.0644 48.0956C28.4347 48.4294 27.7487 48.5715 27.0064 48.522C26.2605 48.454 25.4994 48.1574 24.7231 47.6324C23.9579 47.1149 23.4068 46.5079 23.0698 45.8113C22.7217 45.1072 22.5779 44.3877 22.6385 43.6529C22.7065 42.907 22.9581 42.2125 23.3931 41.5693C23.8281 40.9261 24.3453 40.4839 24.9447 40.2428C25.533 39.9942 26.1055 39.8885 26.6623 39.9256L26.8609 40.2054L25.4983 39.0657L26.4658 37.6351L33.3526 42.2925L32.3064 43.8395L30.5098 42.6245L31.0216 42.7282C31.1025 42.8475 31.1791 43.0448 31.2516 43.3201C31.3204 43.5768 31.3573 43.8926 31.3623 44.2677C31.3747 44.6317 31.3332 45.0157 31.2377 45.4198C31.1311 45.8164 30.9428 46.2143 30.6728 46.6136ZM29.6731 45.3315C29.9356 44.9433 30.0998 44.5453 30.1656 44.1372C30.2315 43.7292 30.2043 43.3392 30.0843 42.967C29.9606 42.5763 29.742 42.2184 29.4286 41.8933L28.0811 40.9821C27.6884 40.8458 27.2951 40.8061 26.9011 40.8629C26.4961 40.9122 26.122 41.0471 25.7789 41.2676C25.4248 41.4806 25.1202 41.7757 24.8652 42.1527C24.5877 42.563 24.4325 43.0076 24.3996 43.4864C24.3668 43.9652 24.4565 44.4299 24.6689 44.8806C24.8888 45.3202 25.2371 45.7013 25.714 46.0238C26.1576 46.3238 26.6336 46.4921 27.1421 46.5289C27.6506 46.5657 28.1301 46.4779 28.5808 46.2655C29.0316 46.0532 29.3956 45.7418 29.6731 45.3315Z" fill="#FE7F32"/>
<path d="M35.4823 40.2991L30.9361 35.4498L29.8959 36.425L28.756 35.209L29.7961 34.2339L27.3925 31.6701C26.5685 30.791 26.132 29.934 26.0832 29.0989C26.0441 28.2547 26.4103 27.4709 27.1819 26.7475C27.387 26.5553 27.6391 26.374 27.9382 26.2036C28.2471 26.0242 28.5584 25.9158 28.8722 25.8786L29.2211 27.3958C29.0508 27.3903 28.8982 27.4233 28.7633 27.4947C28.6192 27.5564 28.4934 27.6375 28.386 27.7383C28.0246 28.0771 27.8607 28.4601 27.8943 28.8874C27.9279 29.3147 28.2194 29.8214 28.7688 30.4074L31.1586 32.9565L33.0778 31.1573L34.2178 32.3732L32.2986 34.1725L36.8448 39.0217L35.4823 40.2991Z" fill="#FE7F32"/>
<path d="M37.3055 32.8815C36.8857 32.1654 36.6741 31.4204 36.6706 30.6466C36.6786 29.866 36.8848 29.1322 37.2891 28.4452C37.6933 27.7583 38.2766 27.1914 39.039 26.7446C39.8244 26.2842 40.6098 26.0489 41.3951 26.0386C42.1805 26.0283 42.9041 26.2172 43.566 26.6051C44.2279 26.9931 44.7687 27.5451 45.1884 28.2612C45.6081 28.9773 45.8289 29.7247 45.8508 30.5033C45.8658 31.2703 45.6712 31.9974 45.267 32.6843C44.8742 33.3645 44.2851 33.9348 43.4997 34.3951C42.7374 34.8419 41.9646 35.0854 41.1812 35.1256C40.4026 35.1474 39.6742 34.9769 38.996 34.614C38.3225 34.2329 37.759 33.6553 37.3055 32.8815ZM38.9269 31.9544C39.1976 32.4164 39.5487 32.7771 39.98 33.0364C40.4045 33.2842 40.8543 33.4162 41.3295 33.4326C41.8161 33.4422 42.2732 33.3217 42.7005 33.0713C43.151 32.8072 43.4851 32.464 43.703 32.0414C43.9325 31.6121 44.037 31.1551 44.0168 30.6704C43.9897 30.1742 43.8408 29.6951 43.57 29.2331C43.2992 28.7711 42.9573 28.4128 42.5444 28.1583C42.1246 27.8922 41.6714 27.7544 41.1847 27.7448C40.7028 27.7169 40.2367 27.8349 39.7862 28.0989C39.3473 28.3562 39.0165 28.7052 38.7938 29.1461C38.5827 29.5802 38.4849 30.0487 38.5004 30.5517C38.5207 31.0364 38.6628 31.504 38.9269 31.9544Z" fill="#FE7F32"/>
<path d="M45.5173 28.1528C45.2663 27.3616 45.2247 26.5883 45.3924 25.8328C45.5729 25.0733 45.9362 24.4033 46.4824 23.8228C47.0286 23.2422 47.7229 22.8184 48.5651 22.5513C49.4329 22.276 50.2509 22.2203 51.0191 22.3839C51.7873 22.5476 52.4512 22.8918 53.0109 23.4165C53.5706 23.9413 53.9759 24.5992 54.2269 25.3904C54.4778 26.1816 54.5278 26.9593 54.3769 27.7235C54.222 28.4749 53.8714 29.1408 53.3252 29.7214C52.7917 30.2979 52.0911 30.7237 51.2234 30.999C50.3811 31.2661 49.5735 31.3326 48.8007 31.1985C48.0365 31.0476 47.3639 30.7202 46.7827 30.2163C46.2102 29.6957 45.7884 29.0078 45.5173 28.1528ZM47.3035 27.6073C47.4654 28.1178 47.728 28.5471 48.0913 28.8954C48.4505 29.2309 48.86 29.4592 49.3197 29.5802C49.7922 29.6972 50.2646 29.6808 50.7367 29.5311C51.2344 29.3732 51.6362 29.1124 51.9422 28.7485C52.2609 28.3806 52.4639 27.958 52.5514 27.4808C52.6347 26.9909 52.5955 26.4907 52.4336 25.9803C52.2717 25.4698 52.0175 25.0448 51.6711 24.7052C51.3205 24.3529 50.909 24.1183 50.4365 24.0013C49.9727 23.8675 49.492 23.8795 48.9943 24.0373C48.5094 24.1911 48.1096 24.4584 47.7949 24.8391C47.4931 25.2157 47.294 25.651 47.1979 26.145C47.1105 26.6222 47.1457 27.1096 47.3035 27.6073Z" fill="#FE7F32"/>
<path d="M58.3939 29.4889C57.6335 29.553 56.9246 29.4314 56.2672 29.1241C55.622 28.8023 55.0912 28.3231 54.6748 27.6864C54.2573 27.0364 54.0114 26.2712 53.9371 25.3907C53.8595 24.4702 53.9799 23.6674 54.2983 22.9822C54.6301 22.2959 55.1082 21.7518 55.7326 21.3498C56.3571 20.9478 57.0762 20.7126 57.89 20.6439C58.5436 20.5888 59.1758 20.6766 59.7864 20.9073C60.4103 21.1368 60.9099 21.4843 61.285 21.9498L61.2606 22.6169L60.493 13.512L62.334 13.3568L63.6398 28.8451L61.7788 29.002L61.605 26.9409L61.849 27.4443C61.5049 27.9839 61.04 28.4463 60.4545 28.8315C59.8678 29.2034 59.1809 29.4226 58.3939 29.4889ZM58.8409 27.8591C59.3345 27.8175 59.7674 27.6937 60.1397 27.4877C60.5108 27.2683 60.8096 26.9878 61.0361 26.6463C61.2625 26.3047 61.4106 25.9093 61.4802 25.4601L61.3486 23.8993C61.2081 23.508 60.9854 23.1775 60.6805 22.9076C60.3879 22.6233 60.0408 22.4107 59.6393 22.2699C59.25 22.1146 58.8219 22.0567 58.355 22.0961C57.8481 22.1388 57.3918 22.3049 56.9863 22.5944C56.593 22.8694 56.2876 23.231 56.0701 23.6793C55.8526 24.1275 55.7675 24.6318 55.8148 25.1921C55.8609 25.7391 56.0292 26.222 56.3198 26.6408C56.6093 27.0464 56.9787 27.3645 57.4281 27.5953C57.8764 27.8128 58.3473 27.9008 58.8409 27.8591Z" fill="#FE7F32"/>
<path d="M79.841 32.173C79.3862 32.3157 78.8838 32.3761 78.3339 32.354C77.7839 32.3319 77.2648 32.2284 76.7765 32.0435C75.9251 31.7212 75.2441 31.2701 74.7336 30.6903C74.223 30.1105 73.9 29.4514 73.7644 28.7129C73.6461 27.9667 73.7434 27.1804 74.0562 26.354C74.3691 25.5277 74.8294 24.8789 75.4373 24.4076C76.0577 23.941 76.7363 23.6611 77.473 23.5678C78.2271 23.4668 78.9609 23.5513 79.6746 23.8215C80.3006 24.0585 80.8246 24.3571 81.2465 24.7173C81.681 25.0822 82.0166 25.4812 82.2534 25.9144L80.9629 26.7142C80.8039 26.4536 80.5877 26.1928 80.3143 25.9319C80.0409 25.6709 79.6976 25.4622 79.2844 25.3058C78.8337 25.1351 78.3692 25.0953 77.891 25.1862C77.4301 25.2694 77.0111 25.4686 76.634 25.784C76.2695 26.104 75.9924 26.5145 75.8028 27.0153C75.6227 27.4911 75.5671 27.9782 75.636 28.4767C75.7097 28.9627 75.9019 29.4005 76.2125 29.7901C76.5278 30.1671 76.9421 30.4528 77.4555 30.6472C77.7935 30.7751 78.1192 30.8412 78.4326 30.8453C78.7585 30.8542 79.0673 30.8136 79.3591 30.7237L79.841 32.173Z" fill="#FE7F32"/>
<path d="M82.2311 29.4409C82.6894 28.7489 83.2652 28.231 83.9585 27.8872C84.663 27.5509 85.4126 27.4131 86.2074 27.4737C87.0022 27.5344 87.7679 27.8087 88.5046 28.2966C89.2636 28.7992 89.8206 29.4009 90.1755 30.1016C90.5304 30.8023 90.6793 31.5351 90.6223 32.3002C90.5652 33.0653 90.3075 33.7939 89.8492 34.4859C89.3909 35.178 88.817 35.7051 88.1275 36.0674C87.4453 36.4186 86.7069 36.5638 85.9121 36.5031C85.1285 36.4498 84.3571 36.1718 83.5981 35.6692C82.8614 35.1813 82.3026 34.5945 81.9218 33.9088C81.5595 33.2192 81.392 32.4901 81.4194 31.7214C81.4653 30.9489 81.7358 30.1888 82.2311 29.4409ZM83.7771 30.4888C83.4814 30.9353 83.3121 31.4093 83.2691 31.9107C83.2335 32.4009 83.3129 32.8629 83.5073 33.2968C83.7128 33.738 84.0221 34.0954 84.4351 34.3689C84.8705 34.6572 85.3258 34.8062 85.8011 34.8158C86.2875 34.8329 86.7439 34.7257 87.1702 34.4941C87.6039 34.2515 87.9686 33.9069 88.2643 33.4604C88.56 33.0139 88.7312 32.5492 88.778 32.0664C88.8322 31.5724 88.7565 31.1048 88.5509 30.6635C88.3639 30.2185 88.0527 29.8519 87.6174 29.5636C87.1932 29.2827 86.7342 29.1393 86.2403 29.1334C85.7576 29.1349 85.2939 29.2533 84.849 29.4886C84.4227 29.7201 84.0654 30.0535 83.7771 30.4888Z" fill="#FE7F32"/>
<path d="M95.8618 34.8704L94.2447 36.6662L94.4075 36.3716C94.9233 36.1749 95.4458 36.1015 95.9749 36.1513C96.523 36.2015 97.0174 36.3216 97.4582 36.5114C97.9178 36.7017 98.2633 36.9178 98.4946 37.1597L97.0897 38.3638C96.6839 37.8812 96.2129 37.5628 95.6767 37.4087C95.1497 37.2642 94.6197 37.2523 94.0867 37.3728C93.563 37.503 93.1075 37.7532 92.7204 38.1232L89.9768 40.7458L88.7002 39.4103L94.71 33.6655L95.8618 34.8704Z" fill="#FE7F32"/>
<path d="M101.271 41.5209L99.6142 42.7012L99.8485 42.4672C100.514 42.3803 101.157 42.5024 101.777 42.8334C102.408 43.1575 102.927 43.6583 103.333 44.3359C103.739 45.0134 103.868 45.6851 103.721 46.3508C103.592 47.0212 103.215 47.5513 102.59 47.9413L97.3191 51.0998L96.3488 49.4805L101.051 46.6627C101.435 46.4172 101.682 46.1131 101.792 45.7504C101.921 45.3923 101.851 44.9893 101.583 44.5415C101.335 44.1281 100.997 43.8236 100.568 43.6282C100.138 43.4328 99.6643 43.3579 99.1454 43.4035C98.6334 43.4606 98.1132 43.6475 97.585 43.964L94.2431 45.9665L93.2832 44.3644L100.415 40.0912L101.271 41.5209Z" fill="#FE7F32"/>
<path d="M98.6835 55.7751C98.3873 54.8719 98.311 54.0375 98.4545 53.2719C98.6107 52.5021 98.9421 51.837 99.4486 51.2764C99.9721 50.7244 100.641 50.3149 101.455 50.0479C102.231 49.7935 103.002 49.7592 103.767 49.945C104.533 50.1308 105.214 50.4919 105.813 51.0283C106.412 51.5647 106.844 52.24 107.111 53.0542C107.453 54.0973 107.432 55.0625 107.046 55.9497C106.661 56.8368 105.973 57.5765 104.984 58.1685L100.561 52.4123L101.473 51.6483L105.171 56.3532L104.798 56.0529C105.167 55.7626 105.447 55.3893 105.635 54.933C105.836 54.4725 105.843 53.956 105.655 53.3836C105.497 52.9002 105.234 52.5073 104.867 52.2049C104.513 51.8983 104.097 51.7036 103.619 51.6208C103.141 51.538 102.641 51.5821 102.12 51.7531C101.573 51.9325 101.127 52.2055 100.782 52.5721C100.45 52.9346 100.228 53.3526 100.116 53.8262C100.02 54.3084 100.056 54.8039 100.223 55.3128C100.335 55.6562 100.507 55.9661 100.739 56.2425C100.974 56.5315 101.24 56.7826 101.535 56.9958L100.488 58.248C100.091 57.9412 99.7288 57.5669 99.4008 57.1249C99.0769 56.6958 98.8378 56.2458 98.6835 55.7751Z" fill="#FE7F32"/>
<path d="M108.719 62.5126L106.337 62.9183L106.647 62.7882C107.174 62.9538 107.629 63.2203 108.014 63.5875C108.412 63.9669 108.726 64.3677 108.954 64.79C109.196 65.2243 109.333 65.6081 109.365 65.9414L107.516 66.0145C107.497 65.3842 107.325 64.8424 107 64.3889C106.676 63.9487 106.268 63.6106 105.775 63.3746C105.283 63.1519 104.771 63.0656 104.238 63.1158L100.459 63.4713L100.286 61.6319L108.563 60.8531L108.719 62.5126Z" fill="#FE7F32"/>
</svg>
