<svg width="98" height="73" viewBox="0 0 98 73" fill="none" xmlns="http://www.w3.org/2000/svg">
<path d="M8 59L0 49H98L90 59L98 69H0L8 59Z" fill="#FE7F32"/>
<path d="M23.0602 55.872C22.7642 55.72 22.4402 55.588 22.0882 55.476C21.7362 55.364 21.3922 55.308 21.0562 55.308C20.5922 55.308 20.2202 55.416 19.9402 55.632C19.6682 55.848 19.5322 56.136 19.5322 56.496C19.5322 56.768 19.6202 57 19.7962 57.192C19.9722 57.376 20.2042 57.536 20.4922 57.672C20.7802 57.808 21.0802 57.936 21.3922 58.056C21.6642 58.16 21.9322 58.276 22.1962 58.404C22.4602 58.532 22.6962 58.692 22.9042 58.884C23.1202 59.076 23.2882 59.312 23.4082 59.592C23.5362 59.872 23.6002 60.22 23.6002 60.636C23.6002 61.092 23.4842 61.508 23.2522 61.884C23.0282 62.26 22.7042 62.556 22.2802 62.772C21.8562 62.988 21.3522 63.096 20.7682 63.096C20.3842 63.096 20.0162 63.052 19.6642 62.964C19.3202 62.876 19.0002 62.764 18.7042 62.628C18.4082 62.484 18.1442 62.336 17.9122 62.184L18.4282 61.272C18.6202 61.408 18.8402 61.54 19.0882 61.668C19.3362 61.788 19.5962 61.888 19.8682 61.968C20.1402 62.04 20.4042 62.076 20.6602 62.076C20.9322 62.076 21.2002 62.028 21.4642 61.932C21.7362 61.828 21.9602 61.672 22.1362 61.464C22.3122 61.256 22.4002 60.98 22.4002 60.636C22.4002 60.34 22.3202 60.096 22.1602 59.904C22.0082 59.704 21.8042 59.536 21.5482 59.4C21.2922 59.256 21.0202 59.128 20.7322 59.016C20.4602 58.912 20.1842 58.8 19.9042 58.68C19.6242 58.552 19.3642 58.4 19.1242 58.224C18.8842 58.04 18.6922 57.816 18.5482 57.552C18.4042 57.288 18.3322 56.968 18.3322 56.592C18.3322 56.136 18.4402 55.74 18.6562 55.404C18.8802 55.06 19.1842 54.792 19.5682 54.6C19.9522 54.4 20.3922 54.292 20.8882 54.276C21.4482 54.276 21.9402 54.344 22.3642 54.48C22.7962 54.616 23.1762 54.784 23.5042 54.984L23.0602 55.872ZM25.5566 54.324H26.7206V63H25.5566V54.324ZM36.7248 63.276L30.0168 56.472L30.3528 56.556L30.3768 63H29.2128V54.06H29.2728L35.9088 60.888L35.6328 60.828L35.6088 54.324H36.7608V63.276H36.7248ZM45.6278 62.352C45.4838 62.448 45.2878 62.556 45.0398 62.676C44.7918 62.796 44.4998 62.896 44.1638 62.976C43.8358 63.056 43.4758 63.096 43.0838 63.096C42.4118 63.088 41.8038 62.968 41.2598 62.736C40.7238 62.504 40.2678 62.188 39.8918 61.788C39.5158 61.388 39.2238 60.928 39.0158 60.408C38.8158 59.88 38.7158 59.32 38.7158 58.728C38.7158 58.08 38.8198 57.484 39.0278 56.94C39.2438 56.388 39.5438 55.912 39.9278 55.512C40.3118 55.104 40.7638 54.788 41.2838 54.564C41.8118 54.34 42.3878 54.228 43.0118 54.228C43.5318 54.228 44.0038 54.3 44.4278 54.444C44.8518 54.58 45.2158 54.744 45.5198 54.936L45.0518 56.016C44.8118 55.856 44.5198 55.704 44.1758 55.56C43.8398 55.416 43.4638 55.344 43.0478 55.344C42.6238 55.344 42.2238 55.428 41.8478 55.596C41.4718 55.764 41.1398 56 40.8518 56.304C40.5638 56.608 40.3358 56.964 40.1678 57.372C40.0078 57.772 39.9278 58.204 39.9278 58.668C39.9278 59.14 39.9998 59.58 40.1438 59.988C40.2958 60.388 40.5078 60.736 40.7798 61.032C41.0598 61.328 41.3958 61.56 41.7878 61.728C42.1798 61.896 42.6198 61.98 43.1078 61.98C43.5478 61.98 43.9398 61.912 44.2838 61.776C44.6278 61.64 44.9118 61.488 45.1358 61.32L45.6278 62.352ZM47.5878 54.324H53.2278V55.44H48.7518V58.08H52.7478V59.196H48.7518V61.884H53.3958V63H47.5878V54.324ZM58.6008 55.104H60.6648V63H59.5008V56.22H58.6008V55.104ZM64.7461 60.408C64.3381 60.408 63.9541 60.3 63.5941 60.084C63.2341 59.868 62.9381 59.572 62.7061 59.196C62.4821 58.812 62.3701 58.38 62.3701 57.9C62.3701 57.34 62.4981 56.856 62.7541 56.448C63.0181 56.032 63.3581 55.712 63.7741 55.488C64.1901 55.264 64.6381 55.152 65.1181 55.152C65.6541 55.152 66.1341 55.268 66.5581 55.5C66.9901 55.732 67.3301 56.056 67.5781 56.472C67.8341 56.888 67.9621 57.368 67.9621 57.912C67.9621 58.536 67.8421 59.104 67.6021 59.616C67.3701 60.128 67.0621 60.596 66.6781 61.02C66.2941 61.436 65.8701 61.82 65.4061 62.172C64.9421 62.516 64.4781 62.844 64.0141 63.156L63.2461 62.304C63.9101 61.96 64.4861 61.6 64.9741 61.224C65.4621 60.848 65.8461 60.472 66.1261 60.096C66.4061 59.712 66.5701 59.352 66.6181 59.016L66.9541 59.028C66.7141 59.476 66.4261 59.82 66.0901 60.06C65.7621 60.292 65.3141 60.408 64.7461 60.408ZM65.1661 59.424C65.6381 59.424 66.0221 59.288 66.3181 59.016C66.6221 58.744 66.7741 58.392 66.7741 57.96V57.744C66.7661 57.448 66.6901 57.184 66.5461 56.952C66.4021 56.72 66.2101 56.536 65.9701 56.4C65.7301 56.264 65.4621 56.196 65.1661 56.196C64.8701 56.196 64.5981 56.264 64.3501 56.4C64.1101 56.536 63.9181 56.728 63.7741 56.976C63.6381 57.216 63.5701 57.5 63.5701 57.828C63.5701 58.148 63.6421 58.432 63.7861 58.68C63.9301 58.92 64.1221 59.104 64.3621 59.232C64.6021 59.36 64.8701 59.424 65.1661 59.424ZM71.1914 60.408C70.7834 60.408 70.3994 60.3 70.0394 60.084C69.6794 59.868 69.3834 59.572 69.1514 59.196C68.9274 58.812 68.8154 58.38 68.8154 57.9C68.8154 57.34 68.9434 56.856 69.1994 56.448C69.4634 56.032 69.8034 55.712 70.2194 55.488C70.6354 55.264 71.0834 55.152 71.5634 55.152C72.0994 55.152 72.5794 55.268 73.0034 55.5C73.4354 55.732 73.7754 56.056 74.0234 56.472C74.2794 56.888 74.4074 57.368 74.4074 57.912C74.4074 58.536 74.2874 59.104 74.0474 59.616C73.8154 60.128 73.5074 60.596 73.1234 61.02C72.7394 61.436 72.3154 61.82 71.8514 62.172C71.3874 62.516 70.9234 62.844 70.4594 63.156L69.6914 62.304C70.3554 61.96 70.9314 61.6 71.4194 61.224C71.9074 60.848 72.2914 60.472 72.5714 60.096C72.8514 59.712 73.0154 59.352 73.0634 59.016L73.3994 59.028C73.1594 59.476 72.8714 59.82 72.5354 60.06C72.2074 60.292 71.7594 60.408 71.1914 60.408ZM71.6114 59.424C72.0834 59.424 72.4674 59.288 72.7634 59.016C73.0674 58.744 73.2194 58.392 73.2194 57.96V57.744C73.2114 57.448 73.1354 57.184 72.9914 56.952C72.8474 56.72 72.6554 56.536 72.4154 56.4C72.1754 56.264 71.9074 56.196 71.6114 56.196C71.3154 56.196 71.0434 56.264 70.7954 56.4C70.5554 56.536 70.3634 56.728 70.2194 56.976C70.0834 57.216 70.0154 57.5 70.0154 57.828C70.0154 58.148 70.0874 58.432 70.2314 58.68C70.3754 58.92 70.5674 59.104 70.8074 59.232C71.0474 59.36 71.3154 59.424 71.6114 59.424ZM80.3367 55.104L77.1807 63H75.8727L78.7167 56.052L79.1247 56.22H75.1767V55.104H80.3367Z" fill="white"/>
<path d="M45.7297 20.8584C45.2112 20.8584 44.7139 20.6506 44.3473 20.2806C43.9806 19.9106 43.7746 19.4087 43.7746 18.8855C43.7746 18.7339 43.715 18.5886 43.6088 18.4814C43.5026 18.3742 43.3585 18.314 43.2084 18.314C43.0582 18.314 42.9141 18.3742 42.8079 18.4814C42.7018 18.5886 42.6421 18.7339 42.6421 18.8855C42.6423 19.7118 42.9676 20.5042 43.5466 21.0885C44.1256 21.6728 44.9109 22.0012 45.7297 22.0013C45.8799 22.0013 46.0239 21.9411 46.1301 21.834C46.2363 21.7268 46.296 21.5815 46.296 21.4299C46.296 21.2783 46.2363 21.133 46.1301 21.0258C46.0239 20.9187 45.8799 20.8584 45.7297 20.8584Z" fill="#FE7F32"/>
<path d="M62.8967 0.0646037C62.8121 0.0587942 62.7272 0.0717773 62.6481 0.102638C62.569 0.133499 62.4976 0.181487 62.4389 0.243222L59.8081 3.07728C59.7096 3.18348 59.6548 3.32362 59.6551 3.46913V10.5358C59.4941 11.1398 59.1638 11.6841 58.7038 12.1032C58.2438 12.5224 57.6737 12.7986 57.0619 12.8987C56.6069 12.2279 56.0095 11.668 55.3131 11.2596C54.6168 10.8512 53.8389 10.6046 53.0362 10.5378V8.10863C53.4138 7.88496 53.7079 7.54209 53.8732 7.13296C54.0384 6.72383 54.0657 6.27118 53.9507 5.84487C53.8357 5.41857 53.5848 5.04231 53.2369 4.77417C52.8889 4.50603 52.4631 4.36092 52.0253 4.36124H50.9743C50.5364 4.36071 50.1105 4.50566 49.7624 4.77372C49.4143 5.04178 49.1633 5.41804 49.0481 5.8444C48.933 6.27076 48.9602 6.72351 49.1254 7.13274C49.2907 7.54197 49.5849 7.88491 49.9625 8.10863V10.5152H47.4547V8.10863C47.8323 7.88497 48.1264 7.54214 48.2917 7.13304C48.4569 6.72394 48.4842 6.27132 48.3692 5.84503C48.2543 5.41874 48.0035 5.04248 47.6556 4.77432C47.3077 4.50615 46.882 4.36099 46.4442 4.36124H45.3932C44.9553 4.36071 44.5294 4.50566 44.1813 4.77372C43.8331 5.04178 43.5821 5.41804 43.467 5.8444C43.3519 6.27076 43.379 6.72351 43.5443 7.13274C43.7096 7.54197 44.0037 7.88491 44.3813 8.10863V10.5378C43.5786 10.6046 42.8008 10.8512 42.1044 11.2596C41.408 11.668 40.8106 12.2279 40.3557 12.8987C39.7439 12.7986 39.1737 12.5224 38.7137 12.1032C38.2537 11.6841 37.9234 11.1398 37.7625 10.5358V3.46815C37.7627 3.32264 37.708 3.1825 37.6094 3.0763L34.9797 0.243222C34.9209 0.181443 34.8494 0.133429 34.7702 0.102567C34.6911 0.0717048 34.6061 0.0587456 34.5215 0.0646037C32.7887 0.0782902 31.1313 0.781956 29.91 2.02251C28.6887 3.26306 28.0023 4.94012 28 6.68883V9.09479C28.002 10.3644 28.4895 11.5843 29.3609 12.5C30.2323 13.4158 31.4204 13.9568 32.6774 14.0102C34.5678 15.5384 36.8845 16.4316 39.303 16.5648L39.4063 16.5687V17.3344H35.1211C35.0467 17.3344 34.9731 17.3491 34.9045 17.3778C34.8358 17.4065 34.7734 17.4486 34.7208 17.5016L31.2358 21.0198C31.1832 21.0728 31.1414 21.1357 31.1129 21.205C31.0844 21.2743 31.0698 21.3487 31.0698 21.4237V23.1619C31.0698 23.5732 31.2318 23.9678 31.52 24.2586C31.8083 24.5495 32.1992 24.7129 32.6068 24.7129C33.0145 24.7129 33.4054 24.5495 33.6937 24.2586C33.9819 23.9678 34.1439 23.5732 34.1439 23.1619V22.4712L36.1614 20.4356H39.6014C39.6337 20.5616 39.6661 20.6864 39.7056 20.8101L35.7375 23.6282C35.6822 23.6675 35.6343 23.7165 35.5961 23.7728L33.9235 26.2402C33.8589 26.3352 33.8244 26.4476 33.8245 26.5628V28.6347C33.8245 29.0461 33.9864 29.4406 34.2747 29.7315C34.5629 30.0224 34.9539 30.1858 35.3615 30.1858C35.7691 30.1858 36.1601 30.0224 36.4483 29.7315C36.7366 29.4406 36.8985 29.0461 36.8985 28.6347V27.3455L37.877 25.9022L41.3271 23.4532C42.5056 24.6115 44.0845 25.2618 45.7297 25.2664H51.6888C53.334 25.2618 54.9129 24.6115 56.0915 23.4532L59.5415 25.9022L60.52 27.3455V28.6347C60.52 29.0461 60.6819 29.4406 60.9702 29.7315C61.2584 30.0224 61.6494 30.1858 62.057 30.1858C62.4647 30.1858 62.8556 30.0224 63.1439 29.7315C63.4321 29.4406 63.594 29.0461 63.594 28.6347V26.5628C63.5941 26.4476 63.5596 26.3352 63.495 26.2402L61.8224 23.7728C61.7842 23.7165 61.7363 23.6675 61.681 23.6282L57.7129 20.8111C57.7518 20.6873 57.7857 20.5626 57.8171 20.4366H61.2587L63.2763 22.4722V23.1619C63.2763 23.5732 63.4382 23.9678 63.7265 24.2586C64.0147 24.5495 64.4057 24.7129 64.8133 24.7129C65.2209 24.7129 65.6119 24.5495 65.9001 24.2586C66.1884 23.9678 66.3503 23.5732 66.3503 23.1619V21.4237C66.3502 21.2722 66.2905 21.1269 66.1843 21.0198L62.6977 17.5016C62.6451 17.4486 62.5827 17.4065 62.5141 17.3778C62.4454 17.3491 62.3718 17.3344 62.2974 17.3344H58.0122V16.5687L58.1265 16.5641C60.5413 16.4294 62.854 15.5365 64.7411 14.0102C65.9981 13.9568 67.1862 13.4158 68.0576 12.5C68.929 11.5843 69.4165 10.3644 69.4185 9.09479V6.68883C69.4164 4.94004 68.7299 3.26288 67.5085 2.0223C66.2871 0.78172 64.6296 0.0781194 62.8967 0.0646037ZM60.7886 3.69509L62.2858 2.08165V6.85243L60.7886 8.88711V3.69509ZM50.9743 5.50414H52.0247C52.1395 5.50189 52.2536 5.52277 52.3603 5.56556C52.467 5.60834 52.5642 5.67217 52.6461 5.7533C52.7281 5.83444 52.7932 5.93126 52.8377 6.0381C52.8821 6.14493 52.905 6.25964 52.905 6.37551C52.905 6.49138 52.8821 6.60609 52.8377 6.71293C52.7932 6.81976 52.7281 6.91658 52.6461 6.99772C52.5642 7.07886 52.467 7.14268 52.3603 7.18547C52.2536 7.22825 52.1395 7.24913 52.0247 7.24689H50.9743C50.8595 7.24913 50.7454 7.22825 50.6387 7.18547C50.532 7.14268 50.4348 7.07886 50.3529 6.99772C50.2709 6.91658 50.2058 6.81976 50.1613 6.71293C50.1169 6.60609 50.094 6.49138 50.094 6.37551C50.094 6.25964 50.1169 6.14493 50.1613 6.0381C50.2058 5.93126 50.2709 5.83444 50.3529 5.7533C50.4348 5.67217 50.532 5.60834 50.6387 5.56556C50.7454 5.52277 50.8595 5.50189 50.9743 5.50414ZM51.095 8.38978H51.904V10.5152H51.095V8.38978ZM45.5132 8.38978H46.3222V10.5152H45.5132V8.38978ZM45.3925 5.50414H46.4442C46.559 5.50189 46.6731 5.52277 46.7798 5.56556C46.8865 5.60834 46.9837 5.67217 47.0656 5.7533C47.1476 5.83444 47.2127 5.93126 47.2572 6.0381C47.3016 6.14493 47.3245 6.25964 47.3245 6.37551C47.3245 6.49138 47.3016 6.60609 47.2572 6.71293C47.2127 6.81976 47.1476 6.91658 47.0656 6.99772C46.9837 7.07886 46.8865 7.14268 46.7798 7.18547C46.6731 7.22825 46.559 7.24913 46.4442 7.24689H45.3932C45.2784 7.24913 45.1643 7.22825 45.0576 7.18547C44.9509 7.14268 44.8537 7.07886 44.7717 6.99772C44.6898 6.91658 44.6246 6.81976 44.5802 6.71293C44.5357 6.60609 44.5128 6.49138 44.5128 6.37551C44.5128 6.25964 44.5357 6.14493 44.5802 6.0381C44.6246 5.93126 44.6898 5.83444 44.7717 5.7533C44.8537 5.67217 44.9509 5.60834 45.0576 5.56556C45.1643 5.52277 45.2784 5.50189 45.3932 5.50414H45.3925ZM36.6299 8.88711L35.1327 6.85275V2.08035L36.6299 3.69509V8.88711ZM29.1325 9.09479V6.68883C29.1342 5.33396 29.6323 4.02758 30.5308 3.0209C31.4294 2.01423 32.6651 1.37836 34.0002 1.23558V7.04149C34.0002 7.16417 34.0393 7.28358 34.1118 7.38208L36.3824 10.4676L32.7185 12.8742C31.7538 12.8307 30.8428 12.4136 30.1749 11.7097C29.5071 11.0058 29.1337 10.0693 29.1325 9.09479ZM33.8617 13.4871L36.8985 11.4919C37.1678 12.0952 37.5682 12.6295 38.0702 13.0552C38.5721 13.4809 39.1626 13.787 39.7978 13.9508C39.6089 14.423 39.4864 14.9196 39.4338 15.4261L39.3555 15.4232C37.3797 15.3145 35.4749 14.6432 33.8617 13.4871ZM39.4205 19.2937H35.9258C35.8514 19.2936 35.7778 19.3084 35.709 19.337C35.6403 19.3657 35.5778 19.4078 35.5252 19.4609L33.1773 21.8315C33.1247 21.8845 33.0829 21.9475 33.0544 22.0168C33.0259 22.0861 33.0113 22.1604 33.0113 22.2355V23.1619C33.0113 23.2701 32.9687 23.374 32.8928 23.4505C32.817 23.5271 32.7141 23.5701 32.6068 23.5701C32.4996 23.5701 32.3967 23.5271 32.3208 23.4505C32.245 23.374 32.2024 23.2701 32.2024 23.1619V21.6598L35.357 18.4767H39.4063C39.4063 18.7487 39.4017 19.0217 39.4205 19.2937ZM37.1418 25.0268C37.0865 25.0663 37.0385 25.1154 37.0001 25.1717L35.865 26.8469C35.8004 26.942 35.7658 27.0546 35.766 27.1698V28.6357C35.766 28.7439 35.7234 28.8478 35.6475 28.9243C35.5716 29.0009 35.4688 29.0439 35.3615 29.0439C35.2542 29.0439 35.1513 29.0009 35.0755 28.9243C34.9996 28.8478 34.957 28.7439 34.957 28.6357V26.7418L36.473 24.5059L40.1537 21.8936C40.282 22.1339 40.4252 22.3657 40.5825 22.5878L37.1418 25.0268ZM45.7297 24.1239C44.353 24.1239 43.0327 23.572 42.0592 22.5896C41.0857 21.6072 40.5388 20.2748 40.5388 18.8855V16.0181C40.5369 15.2433 40.7391 14.4819 41.1248 13.812C41.5012 13.1576 42.0411 12.6143 42.6906 12.2364C43.3401 11.8584 44.0765 11.659 44.8263 11.6581H52.5922C53.3422 11.6591 54.0787 11.8587 54.7283 12.2369C55.3779 12.6151 55.9178 13.1587 56.294 13.8133C57.0205 15.0715 56.8797 16.5109 56.8797 17.9068C56.9036 18.5098 56.8805 19.1137 56.8108 19.7129C56.6175 20.9433 55.9954 22.0636 55.0564 22.8722C54.1174 23.6808 52.9232 24.1247 51.6888 24.1239H45.7297ZM57.2648 21.8907L60.9455 24.503L62.4615 26.7388V28.6328C62.4615 28.741 62.4189 28.8448 62.343 28.9214C62.2672 28.9979 62.1643 29.0409 62.057 29.0409C61.9497 29.0409 61.8469 28.9979 61.771 28.9214C61.6952 28.8448 61.6525 28.741 61.6525 28.6328V27.1669C61.6527 27.0516 61.6181 26.939 61.5535 26.844L60.4184 25.1698C60.38 25.1134 60.332 25.0643 60.2767 25.0248L56.836 22.5846C56.9933 22.3626 57.1366 22.1309 57.2648 21.8907ZM62.0632 18.4773L65.2178 21.6604V23.1625C65.2178 23.2708 65.1752 23.3746 65.0993 23.4512C65.0234 23.5277 64.9206 23.5707 64.8133 23.5707C64.706 23.5707 64.6031 23.5277 64.5273 23.4512C64.4514 23.3746 64.4088 23.2708 64.4088 23.1625V22.2355C64.4087 22.084 64.349 21.9387 64.2428 21.8315L61.8936 19.4609C61.841 19.4078 61.7786 19.3658 61.71 19.3371C61.6413 19.3084 61.5677 19.2936 61.4933 19.2937H57.9987C58.0174 19.0217 58.0129 18.7493 58.0129 18.4773H62.0632ZM58.0731 15.4225L57.9841 15.4261C57.9314 14.9196 57.8089 14.4231 57.6201 13.9508C58.2553 13.7869 58.8458 13.4808 59.3477 13.0551C59.8496 12.6295 60.2501 12.0952 60.5194 11.4919L63.5568 13.4874C61.9467 14.6421 60.0454 15.313 58.0731 15.4225ZM68.286 9.09479C68.2848 10.0693 67.9114 11.0058 67.2436 11.7097C66.5757 12.4136 65.6648 12.8307 64.7 12.8742L61.0377 10.4676L63.3083 7.38208C63.3808 7.28358 63.4199 7.16417 63.4199 7.04149V1.23493C64.755 1.37778 65.9907 2.01367 66.8892 3.02032C67.7878 4.02698 68.2858 5.33333 68.2876 6.68818L68.286 9.09479Z" fill="#FE7F32"/>
</svg>
