<svg width="98" height="73" viewBox="0 0 98 73" fill="none" xmlns="http://www.w3.org/2000/svg">
<path d="M8 59L0 49H98L90 59L98 69H0L8 59Z" fill="#D12D2D"/>
<path d="M23.0602 55.872C22.7642 55.72 22.4402 55.588 22.0882 55.476C21.7362 55.364 21.3922 55.308 21.0562 55.308C20.5922 55.308 20.2202 55.416 19.9402 55.632C19.6682 55.848 19.5322 56.136 19.5322 56.496C19.5322 56.768 19.6202 57 19.7962 57.192C19.9722 57.376 20.2042 57.536 20.4922 57.672C20.7802 57.808 21.0802 57.936 21.3922 58.056C21.6642 58.16 21.9322 58.276 22.1962 58.404C22.4602 58.532 22.6962 58.692 22.9042 58.884C23.1202 59.076 23.2882 59.312 23.4082 59.592C23.5362 59.872 23.6002 60.22 23.6002 60.636C23.6002 61.092 23.4842 61.508 23.2522 61.884C23.0282 62.26 22.7042 62.556 22.2802 62.772C21.8562 62.988 21.3522 63.096 20.7682 63.096C20.3842 63.096 20.0162 63.052 19.6642 62.964C19.3202 62.876 19.0002 62.764 18.7042 62.628C18.4082 62.484 18.1442 62.336 17.9122 62.184L18.4282 61.272C18.6202 61.408 18.8402 61.54 19.0882 61.668C19.3362 61.788 19.5962 61.888 19.8682 61.968C20.1402 62.04 20.4042 62.076 20.6602 62.076C20.9322 62.076 21.2002 62.028 21.4642 61.932C21.7362 61.828 21.9602 61.672 22.1362 61.464C22.3122 61.256 22.4002 60.98 22.4002 60.636C22.4002 60.34 22.3202 60.096 22.1602 59.904C22.0082 59.704 21.8042 59.536 21.5482 59.4C21.2922 59.256 21.0202 59.128 20.7322 59.016C20.4602 58.912 20.1842 58.8 19.9042 58.68C19.6242 58.552 19.3642 58.4 19.1242 58.224C18.8842 58.04 18.6922 57.816 18.5482 57.552C18.4042 57.288 18.3322 56.968 18.3322 56.592C18.3322 56.136 18.4402 55.74 18.6562 55.404C18.8802 55.06 19.1842 54.792 19.5682 54.6C19.9522 54.4 20.3922 54.292 20.8882 54.276C21.4482 54.276 21.9402 54.344 22.3642 54.48C22.7962 54.616 23.1762 54.784 23.5042 54.984L23.0602 55.872ZM25.5566 54.324H26.7206V63H25.5566V54.324ZM36.7248 63.276L30.0168 56.472L30.3528 56.556L30.3768 63H29.2128V54.06H29.2728L35.9088 60.888L35.6328 60.828L35.6088 54.324H36.7608V63.276H36.7248ZM45.6278 62.352C45.4838 62.448 45.2878 62.556 45.0398 62.676C44.7918 62.796 44.4998 62.896 44.1638 62.976C43.8358 63.056 43.4758 63.096 43.0838 63.096C42.4118 63.088 41.8038 62.968 41.2598 62.736C40.7238 62.504 40.2678 62.188 39.8918 61.788C39.5158 61.388 39.2238 60.928 39.0158 60.408C38.8158 59.88 38.7158 59.32 38.7158 58.728C38.7158 58.08 38.8198 57.484 39.0278 56.94C39.2438 56.388 39.5438 55.912 39.9278 55.512C40.3118 55.104 40.7638 54.788 41.2838 54.564C41.8118 54.34 42.3878 54.228 43.0118 54.228C43.5318 54.228 44.0038 54.3 44.4278 54.444C44.8518 54.58 45.2158 54.744 45.5198 54.936L45.0518 56.016C44.8118 55.856 44.5198 55.704 44.1758 55.56C43.8398 55.416 43.4638 55.344 43.0478 55.344C42.6238 55.344 42.2238 55.428 41.8478 55.596C41.4718 55.764 41.1398 56 40.8518 56.304C40.5638 56.608 40.3358 56.964 40.1678 57.372C40.0078 57.772 39.9278 58.204 39.9278 58.668C39.9278 59.14 39.9998 59.58 40.1438 59.988C40.2958 60.388 40.5078 60.736 40.7798 61.032C41.0598 61.328 41.3958 61.56 41.7878 61.728C42.1798 61.896 42.6198 61.98 43.1078 61.98C43.5478 61.98 43.9398 61.912 44.2838 61.776C44.6278 61.64 44.9118 61.488 45.1358 61.32L45.6278 62.352ZM47.5878 54.324H53.2278V55.44H48.7518V58.08H52.7478V59.196H48.7518V61.884H53.3958V63H47.5878V54.324ZM58.6008 55.104H60.6648V63H59.5008V56.22H58.6008V55.104ZM64.7461 60.408C64.3381 60.408 63.9541 60.3 63.5941 60.084C63.2341 59.868 62.9381 59.572 62.7061 59.196C62.4821 58.812 62.3701 58.38 62.3701 57.9C62.3701 57.34 62.4981 56.856 62.7541 56.448C63.0181 56.032 63.3581 55.712 63.7741 55.488C64.1901 55.264 64.6381 55.152 65.1181 55.152C65.6541 55.152 66.1341 55.268 66.5581 55.5C66.9901 55.732 67.3301 56.056 67.5781 56.472C67.8341 56.888 67.9621 57.368 67.9621 57.912C67.9621 58.536 67.8421 59.104 67.6021 59.616C67.3701 60.128 67.0621 60.596 66.6781 61.02C66.2941 61.436 65.8701 61.82 65.4061 62.172C64.9421 62.516 64.4781 62.844 64.0141 63.156L63.2461 62.304C63.9101 61.96 64.4861 61.6 64.9741 61.224C65.4621 60.848 65.8461 60.472 66.1261 60.096C66.4061 59.712 66.5701 59.352 66.6181 59.016L66.9541 59.028C66.7141 59.476 66.4261 59.82 66.0901 60.06C65.7621 60.292 65.3141 60.408 64.7461 60.408ZM65.1661 59.424C65.6381 59.424 66.0221 59.288 66.3181 59.016C66.6221 58.744 66.7741 58.392 66.7741 57.96V57.744C66.7661 57.448 66.6901 57.184 66.5461 56.952C66.4021 56.72 66.2101 56.536 65.9701 56.4C65.7301 56.264 65.4621 56.196 65.1661 56.196C64.8701 56.196 64.5981 56.264 64.3501 56.4C64.1101 56.536 63.9181 56.728 63.7741 56.976C63.6381 57.216 63.5701 57.5 63.5701 57.828C63.5701 58.148 63.6421 58.432 63.7861 58.68C63.9301 58.92 64.1221 59.104 64.3621 59.232C64.6021 59.36 64.8701 59.424 65.1661 59.424ZM71.1914 60.408C70.7834 60.408 70.3994 60.3 70.0394 60.084C69.6794 59.868 69.3834 59.572 69.1514 59.196C68.9274 58.812 68.8154 58.38 68.8154 57.9C68.8154 57.34 68.9434 56.856 69.1994 56.448C69.4634 56.032 69.8034 55.712 70.2194 55.488C70.6354 55.264 71.0834 55.152 71.5634 55.152C72.0994 55.152 72.5794 55.268 73.0034 55.5C73.4354 55.732 73.7754 56.056 74.0234 56.472C74.2794 56.888 74.4074 57.368 74.4074 57.912C74.4074 58.536 74.2874 59.104 74.0474 59.616C73.8154 60.128 73.5074 60.596 73.1234 61.02C72.7394 61.436 72.3154 61.82 71.8514 62.172C71.3874 62.516 70.9234 62.844 70.4594 63.156L69.6914 62.304C70.3554 61.96 70.9314 61.6 71.4194 61.224C71.9074 60.848 72.2914 60.472 72.5714 60.096C72.8514 59.712 73.0154 59.352 73.0634 59.016L73.3994 59.028C73.1594 59.476 72.8714 59.82 72.5354 60.06C72.2074 60.292 71.7594 60.408 71.1914 60.408ZM71.6114 59.424C72.0834 59.424 72.4674 59.288 72.7634 59.016C73.0674 58.744 73.2194 58.392 73.2194 57.96V57.744C73.2114 57.448 73.1354 57.184 72.9914 56.952C72.8474 56.72 72.6554 56.536 72.4154 56.4C72.1754 56.264 71.9074 56.196 71.6114 56.196C71.3154 56.196 71.0434 56.264 70.7954 56.4C70.5554 56.536 70.3634 56.728 70.2194 56.976C70.0834 57.216 70.0154 57.5 70.0154 57.828C70.0154 58.148 70.0874 58.432 70.2314 58.68C70.3754 58.92 70.5674 59.104 70.8074 59.232C71.0474 59.36 71.3154 59.424 71.6114 59.424ZM80.3367 55.104L77.1807 63H75.8727L78.7167 56.052L79.1247 56.22H75.1767V55.104H80.3367Z" fill="white"/>
<g clip-path="url(#clip0_244_11)">
<path d="M65.0002 17.3333C65.0002 10.612 59.0002 5.036 51.2282 4.12933C51.5055 3.70933 51.6668 3.20667 51.6668 2.66667C51.6668 1.196 50.4708 0 49.0002 0C47.5295 0 46.3335 1.196 46.3335 2.66667C46.3335 3.20667 46.4948 3.70933 46.7722 4.12933C39.0015 5.036 33.0002 10.6093 33.0002 17.308C32.9975 17.388 32.9428 19.2627 34.0682 20.4307C34.5242 20.904 35.0962 21.192 35.7722 21.292L37.2695 29.28C37.5655 30.8573 38.9428 32 40.5455 32H57.4522C59.0562 32 60.4335 30.856 60.7282 29.28L62.2268 21.292C62.9028 21.192 63.4748 20.904 63.9308 20.4307C65.0575 19.2627 65.0028 17.388 65.0002 17.3333ZM47.6668 2.66667C47.6668 1.93067 48.2655 1.33333 49.0002 1.33333C49.7348 1.33333 50.3335 1.93067 50.3335 2.66667C50.3335 3.40267 49.7348 4 49.0002 4C48.2655 4 47.6668 3.40267 47.6668 2.66667ZM59.4188 29.0347C59.2415 29.98 58.4148 30.6667 57.4522 30.6667H40.5468C39.5855 30.6667 38.7588 29.98 38.5815 29.0347L37.1375 21.3333H38.5642C39.1148 22.8853 40.5962 24 42.3348 24C43.7255 24 44.9508 23.2867 45.6682 22.208C46.3855 23.2867 47.6108 24 49.0015 24C50.3922 24 51.6175 23.2867 52.3348 22.208C53.0522 23.2867 54.2775 24 55.6682 24C57.4068 24 58.8882 22.8853 59.4388 21.3333H60.8655L59.4215 29.0347H59.4188ZM62.9668 19.508C62.6468 19.8387 62.2202 19.9987 61.6655 19.9987H58.3322C58.3322 21.4693 57.1362 22.6653 55.6655 22.6653C54.1948 22.6653 52.9988 21.4693 52.9988 19.9987H51.6655C51.6655 21.4693 50.4695 22.6653 48.9988 22.6653C47.5282 22.6653 46.3322 21.4693 46.3322 19.9987H44.9988C44.9988 21.4693 43.8028 22.6653 42.3322 22.6653C40.8615 22.6653 39.6655 21.4693 39.6655 19.9987H36.3322C35.7762 19.9987 35.3508 19.8387 35.0308 19.508C34.2975 18.7533 34.3308 17.3693 34.3322 17.332C34.3322 10.7147 40.9122 5.332 48.9988 5.332C57.0855 5.332 63.6655 10.7147 63.6655 17.3547C63.6655 17.3693 63.6988 18.7533 62.9668 19.508Z" fill="#D12D2D"/>
</g>
<defs>
<clipPath id="clip0_244_11">
<rect width="32" height="32" fill="white" transform="translate(33)"/>
</clipPath>
</defs>
</svg>
