<svg width="98" height="83" viewBox="0 0 98 83" fill="none" xmlns="http://www.w3.org/2000/svg">
<path d="M8 69L0 59H98L90 69L98 79H0L8 69Z" fill="#D12D2D"/>
<path d="M23.0602 65.872C22.7642 65.72 22.4402 65.588 22.0882 65.476C21.7362 65.364 21.3922 65.308 21.0562 65.308C20.5922 65.308 20.2202 65.416 19.9402 65.632C19.6682 65.848 19.5322 66.136 19.5322 66.496C19.5322 66.768 19.6202 67 19.7962 67.192C19.9722 67.376 20.2042 67.536 20.4922 67.672C20.7802 67.808 21.0802 67.936 21.3922 68.056C21.6642 68.16 21.9322 68.276 22.1962 68.404C22.4602 68.532 22.6962 68.692 22.9042 68.884C23.1202 69.076 23.2882 69.312 23.4082 69.592C23.5362 69.872 23.6002 70.22 23.6002 70.636C23.6002 71.092 23.4842 71.508 23.2522 71.884C23.0282 72.26 22.7042 72.556 22.2802 72.772C21.8562 72.988 21.3522 73.096 20.7682 73.096C20.3842 73.096 20.0162 73.052 19.6642 72.964C19.3202 72.876 19.0002 72.764 18.7042 72.628C18.4082 72.484 18.1442 72.336 17.9122 72.184L18.4282 71.272C18.6202 71.408 18.8402 71.54 19.0882 71.668C19.3362 71.788 19.5962 71.888 19.8682 71.968C20.1402 72.04 20.4042 72.076 20.6602 72.076C20.9322 72.076 21.2002 72.028 21.4642 71.932C21.7362 71.828 21.9602 71.672 22.1362 71.464C22.3122 71.256 22.4002 70.98 22.4002 70.636C22.4002 70.34 22.3202 70.096 22.1602 69.904C22.0082 69.704 21.8042 69.536 21.5482 69.4C21.2922 69.256 21.0202 69.128 20.7322 69.016C20.4602 68.912 20.1842 68.8 19.9042 68.68C19.6242 68.552 19.3642 68.4 19.1242 68.224C18.8842 68.04 18.6922 67.816 18.5482 67.552C18.4042 67.288 18.3322 66.968 18.3322 66.592C18.3322 66.136 18.4402 65.74 18.6562 65.404C18.8802 65.06 19.1842 64.792 19.5682 64.6C19.9522 64.4 20.3922 64.292 20.8882 64.276C21.4482 64.276 21.9402 64.344 22.3642 64.48C22.7962 64.616 23.1762 64.784 23.5042 64.984L23.0602 65.872ZM25.5566 64.324H26.7206V73H25.5566V64.324ZM36.7248 73.276L30.0168 66.472L30.3528 66.556L30.3768 73H29.2128V64.06H29.2728L35.9088 70.888L35.6328 70.828L35.6088 64.324H36.7608V73.276H36.7248ZM45.6278 72.352C45.4838 72.448 45.2878 72.556 45.0398 72.676C44.7918 72.796 44.4998 72.896 44.1638 72.976C43.8358 73.056 43.4758 73.096 43.0838 73.096C42.4118 73.088 41.8038 72.968 41.2598 72.736C40.7238 72.504 40.2678 72.188 39.8918 71.788C39.5158 71.388 39.2238 70.928 39.0158 70.408C38.8158 69.88 38.7158 69.32 38.7158 68.728C38.7158 68.08 38.8198 67.484 39.0278 66.94C39.2438 66.388 39.5438 65.912 39.9278 65.512C40.3118 65.104 40.7638 64.788 41.2838 64.564C41.8118 64.34 42.3878 64.228 43.0118 64.228C43.5318 64.228 44.0038 64.3 44.4278 64.444C44.8518 64.58 45.2158 64.744 45.5198 64.936L45.0518 66.016C44.8118 65.856 44.5198 65.704 44.1758 65.56C43.8398 65.416 43.4638 65.344 43.0478 65.344C42.6238 65.344 42.2238 65.428 41.8478 65.596C41.4718 65.764 41.1398 66 40.8518 66.304C40.5638 66.608 40.3358 66.964 40.1678 67.372C40.0078 67.772 39.9278 68.204 39.9278 68.668C39.9278 69.14 39.9998 69.58 40.1438 69.988C40.2958 70.388 40.5078 70.736 40.7798 71.032C41.0598 71.328 41.3958 71.56 41.7878 71.728C42.1798 71.896 42.6198 71.98 43.1078 71.98C43.5478 71.98 43.9398 71.912 44.2838 71.776C44.6278 71.64 44.9118 71.488 45.1358 71.32L45.6278 72.352ZM47.5878 64.324H53.2278V65.44H48.7518V68.08H52.7478V69.196H48.7518V71.884H53.3958V73H47.5878V64.324ZM58.6008 65.104H60.6648V73H59.5008V66.22H58.6008V65.104ZM64.7461 70.408C64.3381 70.408 63.9541 70.3 63.5941 70.084C63.2341 69.868 62.9381 69.572 62.7061 69.196C62.4821 68.812 62.3701 68.38 62.3701 67.9C62.3701 67.34 62.4981 66.856 62.7541 66.448C63.0181 66.032 63.3581 65.712 63.7741 65.488C64.1901 65.264 64.6381 65.152 65.1181 65.152C65.6541 65.152 66.1341 65.268 66.5581 65.5C66.9901 65.732 67.3301 66.056 67.5781 66.472C67.8341 66.888 67.9621 67.368 67.9621 67.912C67.9621 68.536 67.8421 69.104 67.6021 69.616C67.3701 70.128 67.0621 70.596 66.6781 71.02C66.2941 71.436 65.8701 71.82 65.4061 72.172C64.9421 72.516 64.4781 72.844 64.0141 73.156L63.2461 72.304C63.9101 71.96 64.4861 71.6 64.9741 71.224C65.4621 70.848 65.8461 70.472 66.1261 70.096C66.4061 69.712 66.5701 69.352 66.6181 69.016L66.9541 69.028C66.7141 69.476 66.4261 69.82 66.0901 70.06C65.7621 70.292 65.3141 70.408 64.7461 70.408ZM65.1661 69.424C65.6381 69.424 66.0221 69.288 66.3181 69.016C66.6221 68.744 66.7741 68.392 66.7741 67.96V67.744C66.7661 67.448 66.6901 67.184 66.5461 66.952C66.4021 66.72 66.2101 66.536 65.9701 66.4C65.7301 66.264 65.4621 66.196 65.1661 66.196C64.8701 66.196 64.5981 66.264 64.3501 66.4C64.1101 66.536 63.9181 66.728 63.7741 66.976C63.6381 67.216 63.5701 67.5 63.5701 67.828C63.5701 68.148 63.6421 68.432 63.7861 68.68C63.9301 68.92 64.1221 69.104 64.3621 69.232C64.6021 69.36 64.8701 69.424 65.1661 69.424ZM71.1914 70.408C70.7834 70.408 70.3994 70.3 70.0394 70.084C69.6794 69.868 69.3834 69.572 69.1514 69.196C68.9274 68.812 68.8154 68.38 68.8154 67.9C68.8154 67.34 68.9434 66.856 69.1994 66.448C69.4634 66.032 69.8034 65.712 70.2194 65.488C70.6354 65.264 71.0834 65.152 71.5634 65.152C72.0994 65.152 72.5794 65.268 73.0034 65.5C73.4354 65.732 73.7754 66.056 74.0234 66.472C74.2794 66.888 74.4074 67.368 74.4074 67.912C74.4074 68.536 74.2874 69.104 74.0474 69.616C73.8154 70.128 73.5074 70.596 73.1234 71.02C72.7394 71.436 72.3154 71.82 71.8514 72.172C71.3874 72.516 70.9234 72.844 70.4594 73.156L69.6914 72.304C70.3554 71.96 70.9314 71.6 71.4194 71.224C71.9074 70.848 72.2914 70.472 72.5714 70.096C72.8514 69.712 73.0154 69.352 73.0634 69.016L73.3994 69.028C73.1594 69.476 72.8714 69.82 72.5354 70.06C72.2074 70.292 71.7594 70.408 71.1914 70.408ZM71.6114 69.424C72.0834 69.424 72.4674 69.288 72.7634 69.016C73.0674 68.744 73.2194 68.392 73.2194 67.96V67.744C73.2114 67.448 73.1354 67.184 72.9914 66.952C72.8474 66.72 72.6554 66.536 72.4154 66.4C72.1754 66.264 71.9074 66.196 71.6114 66.196C71.3154 66.196 71.0434 66.264 70.7954 66.4C70.5554 66.536 70.3634 66.728 70.2194 66.976C70.0834 67.216 70.0154 67.5 70.0154 67.828C70.0154 68.148 70.0874 68.432 70.2314 68.68C70.3754 68.92 70.5674 69.104 70.8074 69.232C71.0474 69.36 71.3154 69.424 71.6114 69.424ZM80.3367 65.104L77.1807 73H75.8727L78.7167 66.052L79.1247 66.22H75.1767V65.104H80.3367Z" fill="white"/>
<g clip-path="url(#clip0_172_5)">
<path opacity="0.831" fill-rule="evenodd" clip-rule="evenodd" d="M42.3355 -0.152466C42.9453 -0.152466 43.555 -0.152466 44.1648 -0.152466C44.3118 0.126909 44.4133 0.431787 44.4697 0.762168C44.1718 1.60456 43.9688 2.46838 43.8599 3.35363C44.4825 4.86723 44.8892 6.44244 45.0794 8.07924C45.0666 8.92028 44.9142 9.7333 44.6221 10.5183C43.8029 12.0603 42.9392 12.1111 42.0307 10.6707C42.3913 9.84324 42.5944 8.97939 42.6404 8.07924C42.1029 6.54424 41.6965 4.96906 41.4209 3.35363C41.5105 2.12099 41.8154 0.95229 42.3355 -0.152466Z" fill="white"/>
<path opacity="0.861" fill-rule="evenodd" clip-rule="evenodd" d="M33.799 2.59149C34.3987 2.51849 34.9578 2.62012 35.4758 2.89637C35.6188 3.94649 35.4664 4.96277 35.0185 5.94515C35.6841 7.58481 36.192 9.26164 36.5429 10.9756C36.3639 12.0934 36.0081 13.1605 35.4758 14.1769C34.8661 14.5833 34.2563 14.5833 33.6466 14.1769C33.4511 13.0626 33.6036 11.9955 34.1039 10.9756C33.9295 9.94393 33.5737 8.97847 33.0368 8.07929C32.6649 6.12734 32.9191 4.29807 33.799 2.59149Z" fill="white"/>
<path opacity="0.853" fill-rule="evenodd" clip-rule="evenodd" d="M51.1768 2.59149C51.7765 2.51849 52.3356 2.62012 52.8536 2.89637C53.0499 4.00628 52.8975 5.07335 52.3963 6.09759C53.0569 7.62231 53.5652 9.19753 53.9207 10.8232C53.7246 11.8548 53.4704 12.8711 53.1585 13.872C52.6073 14.45 51.9466 14.6024 51.1768 14.3293C50.9996 14.0572 50.8978 13.7523 50.8719 13.4147C51.0752 12.6016 51.2783 11.7887 51.4816 10.9756C50.7926 9.36637 50.3862 7.68954 50.2621 5.94515C50.1521 4.70292 50.4569 3.58503 51.1768 2.59149Z" fill="white"/>
<path opacity="0.895" fill-rule="evenodd" clip-rule="evenodd" d="M68.8599 27.2866C68.8599 29.0142 68.8599 30.7418 68.8599 32.4695C67.1233 37.0543 63.7697 39.4933 58.7989 39.7866C57.2032 43.6692 54.3578 46.0573 50.2623 46.9512C47.1136 47.1036 43.9633 47.1543 40.8111 47.1036C41.044 46.336 41.3489 45.6247 41.7258 44.9695C44.5889 45.0771 47.4346 44.9247 50.2623 44.5122C54.3849 43.2326 56.6715 40.4381 57.1221 36.128C57.4187 30.6125 57.3169 25.1248 56.8172 19.6646C56.5886 19.4738 56.3343 19.3214 56.055 19.2073C47.5184 19.004 38.9819 19.004 30.4453 19.2073C30.166 19.3214 29.9119 19.4738 29.6831 19.6646C29.5308 21.2875 29.48 22.9135 29.5306 24.5427C28.7113 24.5927 27.8983 24.5419 27.0916 24.3902C26.8622 24.1857 26.7606 23.9317 26.7867 23.628C27.0386 22.1596 27.191 20.6352 27.244 19.0549C27.7014 18.1911 28.3619 17.5305 29.2258 17.0732C38.5754 16.8699 47.9248 16.8699 57.2745 17.0732C58.6663 17.7 59.3776 18.7671 59.4087 20.2744C64.0663 20.6178 67.2166 22.9552 68.8599 27.2866ZM59.4087 22.4085C63.6453 23.139 66.0843 25.6289 66.7257 29.878C66.2209 34.0899 63.8834 36.5796 59.7136 37.3476C59.419 36.7695 59.3175 36.1597 59.4087 35.5183C63.6876 34.9439 65.4663 32.5049 64.744 28.2012C63.8666 25.655 62.0883 24.3338 59.4087 24.2378C59.4087 23.628 59.4087 23.0183 59.4087 22.4085ZM59.4087 26.6768C62.3892 27.3534 63.2532 29.0811 62.0001 31.8597C61.3309 32.6006 60.5178 33.1088 59.5611 33.3841C59.4087 31.1506 59.3581 28.9149 59.4087 26.6768Z" fill="white"/>
<path opacity="0.867" fill-rule="evenodd" clip-rule="evenodd" d="M43.0794 25.8929C43.0641 26.0707 43.1237 26.2195 43.2581 26.3393C43.7308 26.4281 44.2073 26.4579 44.6874 26.4286C46.7832 26.6279 48.54 27.5207 49.9578 29.1071C50.588 30.6986 51.1835 32.3057 51.7445 33.9286C52.0523 35.4154 52.0819 36.9034 51.8338 38.3929C51.613 38.7766 51.4343 39.1932 51.2978 39.6429C50.8029 40.3759 50.1478 40.9116 49.3325 41.25C48.5584 41.25 47.7841 41.25 47.01 41.25C45.9342 40.6236 44.9813 39.82 44.1514 38.8393C43.5353 38.3971 42.8505 38.1888 42.0968 38.2143C41.2382 38.4171 40.3747 38.6552 39.5062 38.9286C38.9049 38.8773 38.369 38.6689 37.8983 38.3036C36.8093 38.0775 35.7969 38.2561 34.8611 38.8393C34.0311 39.82 33.0783 40.6236 32.0025 41.25C31.2283 41.25 30.4541 41.25 29.6799 41.25C28.3474 40.632 27.4541 39.6202 27 38.2143C27 37.0238 27 35.8334 27 34.6429C27.648 32.5711 28.452 30.5473 29.4119 28.5714C31.1572 27.1958 33.1522 26.4518 35.397 26.3393C36.0831 25.6393 36.9168 25.2226 37.8983 25.0893C38.9702 24.9702 40.0422 24.9702 41.1142 25.0893C41.8433 25.2026 42.4984 25.4704 43.0794 25.8929ZM38.9702 26.25C40.7132 26.1045 42.1127 26.6998 43.1688 28.0357C43.9867 31.6552 43.0041 34.7207 40.2209 37.2321C40.0013 37.3716 39.7631 37.4609 39.5062 37.5C38.5759 37.1389 37.8315 36.5438 37.273 35.7143C36.5447 34.4238 35.9194 33.0845 35.397 31.6964C34.7547 31.5048 34.3974 31.743 34.3251 32.4107C34.7017 33.848 35.2972 35.1873 36.1117 36.4286C33.7692 36.2238 31.8933 35.1523 30.4839 33.2143C29.4877 31.6243 29.6962 30.2255 31.1092 29.0179C32.0992 28.3899 33.1711 28.0923 34.3251 28.125C34.0707 28.8474 33.9814 29.5914 34.0571 30.3571C34.3428 30.6314 34.6704 30.7207 35.0397 30.625C35.2802 29.5489 35.6672 28.5072 36.201 27.5C37.0082 26.7863 37.9312 26.3697 38.9702 26.25ZM44.6874 28.0357C46.4515 28.069 47.8509 28.7832 48.8859 30.1786C49.2403 31.092 49.1809 31.9848 48.7072 32.8571C47.3226 34.9929 45.3872 36.1834 42.9008 36.4286C44.6598 33.8623 45.2553 31.0646 44.6874 28.0357ZM28.7866 33.3929C30.0695 35.4175 31.8561 36.8164 34.1464 37.5893C33.4913 38.0059 32.9553 38.5416 32.5385 39.1964C30.7395 40.4427 29.3995 40.0557 28.5186 38.0357C28.1669 36.4659 28.2562 34.9182 28.7866 33.3929ZM49.8685 33.3929C51.0725 35.358 51.0427 37.3223 49.7792 39.2857C49.0092 39.9873 48.1457 40.1361 47.1886 39.7321C46.3607 39.0836 45.5866 38.3693 44.866 37.5893C46.5812 36.9852 48.0403 36.003 49.2432 34.6429C49.5478 34.272 49.7563 33.8554 49.8685 33.3929Z" fill="white"/>
</g>
<defs>
<clipPath id="clip0_172_5">
<rect width="42.5" height="50" fill="white" transform="translate(27)"/>
</clipPath>
</defs>
</svg>
